<svg width="417" height="138" viewBox="0 0 417 138" fill="none" xmlns="http://www.w3.org/2000/svg">
<path d="M119.23 84V52.5H132.19C134.98 52.5 137.365 52.95 139.345 53.85C141.355 54.75 142.9 56.04 143.98 57.72C145.06 59.4 145.6 61.395 145.6 63.705C145.6 66.015 145.06 68.01 143.98 69.69C142.9 71.34 141.355 72.615 139.345 73.515C137.365 74.385 134.98 74.82 132.19 74.82H122.47L125.08 72.165V84H119.23ZM139.84 84L131.875 72.57H138.13L146.14 84H139.84ZM125.08 72.795L122.47 70.005H131.92C134.5 70.005 136.435 69.45 137.725 68.34C139.045 67.23 139.705 65.685 139.705 63.705C139.705 61.695 139.045 60.15 137.725 59.07C136.435 57.99 134.5 57.45 131.92 57.45H122.47L125.08 54.57V72.795ZM162.9 84.315C160.23 84.315 157.89 83.79 155.88 82.74C153.9 81.66 152.355 80.19 151.245 78.33C150.165 76.47 149.625 74.355 149.625 71.985C149.625 69.585 150.15 67.47 151.2 65.64C152.28 63.78 153.75 62.325 155.61 61.275C157.5 60.225 159.645 59.7 162.045 59.7C164.385 59.7 166.47 60.21 168.3 61.23C170.13 62.25 171.57 63.69 172.62 65.55C173.67 67.41 174.195 69.6 174.195 72.12C174.195 72.36 174.18 72.63 174.15 72.93C174.15 73.23 174.135 73.515 174.105 73.785H154.08V70.05H171.135L168.93 71.22C168.96 69.84 168.675 68.625 168.075 67.575C167.475 66.525 166.65 65.7 165.6 65.1C164.58 64.5 163.395 64.2 162.045 64.2C160.665 64.2 159.45 64.5 158.4 65.1C157.38 65.7 156.57 66.54 155.97 67.62C155.4 68.67 155.115 69.915 155.115 71.355V72.255C155.115 73.695 155.445 74.97 156.105 76.08C156.765 77.19 157.695 78.045 158.895 78.645C160.095 79.245 161.475 79.545 163.035 79.545C164.385 79.545 165.6 79.335 166.68 78.915C167.76 78.495 168.72 77.835 169.56 76.935L172.575 80.4C171.495 81.66 170.13 82.635 168.48 83.325C166.86 83.985 165 84.315 162.9 84.315ZM193.744 84V79.14L193.429 78.105V69.6C193.429 67.95 192.934 66.675 191.944 65.775C190.954 64.845 189.454 64.38 187.444 64.38C186.094 64.38 184.759 64.59 183.439 65.01C182.149 65.43 181.054 66.015 180.154 66.765L177.949 62.67C179.239 61.68 180.769 60.945 182.539 60.465C184.339 59.955 186.199 59.7 188.119 59.7C191.599 59.7 194.284 60.54 196.174 62.22C198.094 63.87 199.054 66.435 199.054 69.915V84H193.744ZM186.184 84.315C184.384 84.315 182.809 84.015 181.459 83.415C180.109 82.785 179.059 81.93 178.309 80.85C177.589 79.74 177.229 78.495 177.229 77.115C177.229 75.765 177.544 74.55 178.174 73.47C178.834 72.39 179.899 71.535 181.369 70.905C182.839 70.275 184.789 69.96 187.219 69.96H194.194V73.695H187.624C185.704 73.695 184.414 74.01 183.754 74.64C183.094 75.24 182.764 75.99 182.764 76.89C182.764 77.91 183.169 78.72 183.979 79.32C184.789 79.92 185.914 80.22 187.354 80.22C188.734 80.22 189.964 79.905 191.044 79.275C192.154 78.645 192.949 77.715 193.429 76.485L194.374 79.86C193.834 81.27 192.859 82.365 191.449 83.145C190.069 83.925 188.314 84.315 186.184 84.315ZM206.273 84V50.61H211.898V84H206.273ZM229.586 84.45C227.126 84.45 224.771 84.105 222.521 83.415C220.271 82.695 218.486 81.78 217.166 80.67L219.191 76.125C220.451 77.115 222.011 77.94 223.871 78.6C225.731 79.26 227.636 79.59 229.586 79.59C231.236 79.59 232.571 79.41 233.591 79.05C234.611 78.69 235.361 78.21 235.841 77.61C236.321 76.98 236.561 76.275 236.561 75.495C236.561 74.535 236.216 73.77 235.526 73.2C234.836 72.6 233.936 72.135 232.826 71.805C231.746 71.445 230.531 71.115 229.181 70.815C227.861 70.515 226.526 70.17 225.176 69.78C223.856 69.36 222.641 68.835 221.531 68.205C220.451 67.545 219.566 66.675 218.876 65.595C218.186 64.515 217.841 63.135 217.841 61.455C217.841 59.745 218.291 58.185 219.191 56.775C220.121 55.335 221.516 54.195 223.376 53.355C225.266 52.485 227.651 52.05 230.531 52.05C232.421 52.05 234.296 52.29 236.156 52.77C238.016 53.25 239.636 53.94 241.016 54.84L239.171 59.385C237.761 58.545 236.306 57.93 234.806 57.54C233.306 57.12 231.866 56.91 230.486 56.91C228.866 56.91 227.546 57.105 226.526 57.495C225.536 57.885 224.801 58.395 224.321 59.025C223.871 59.655 223.646 60.375 223.646 61.185C223.646 62.145 223.976 62.925 224.636 63.525C225.326 64.095 226.211 64.545 227.291 64.875C228.401 65.205 229.631 65.535 230.981 65.865C232.331 66.165 233.666 66.51 234.986 66.9C236.336 67.29 237.551 67.8 238.631 68.43C239.741 69.06 240.626 69.915 241.286 70.995C241.976 72.075 242.321 73.44 242.321 75.09C242.321 76.77 241.856 78.33 240.926 79.77C240.026 81.18 238.631 82.32 236.741 83.19C234.851 84.03 232.466 84.45 229.586 84.45ZM247.582 84V59.97H253.207V84H247.582ZM250.417 56.01C249.367 56.01 248.497 55.68 247.807 55.02C247.147 54.36 246.817 53.565 246.817 52.635C246.817 51.675 247.147 50.88 247.807 50.25C248.497 49.59 249.367 49.26 250.417 49.26C251.467 49.26 252.322 49.575 252.982 50.205C253.672 50.805 254.017 51.57 254.017 52.5C254.017 53.49 253.687 54.33 253.027 55.02C252.367 55.68 251.497 56.01 250.417 56.01ZM271.479 93.045C269.259 93.045 267.084 92.745 264.954 92.145C262.854 91.575 261.129 90.735 259.779 89.625L262.299 85.395C263.349 86.265 264.669 86.955 266.259 87.465C267.879 88.005 269.514 88.275 271.164 88.275C273.804 88.275 275.739 87.66 276.969 86.43C278.199 85.23 278.814 83.415 278.814 80.985V76.71L279.264 71.265L279.084 65.82V59.97H284.439V80.355C284.439 84.705 283.329 87.9 281.109 89.94C278.889 92.01 275.679 93.045 271.479 93.045ZM270.759 82.92C268.479 82.92 266.409 82.44 264.549 81.48C262.719 80.49 261.264 79.125 260.184 77.385C259.134 75.645 258.609 73.605 258.609 71.265C258.609 68.955 259.134 66.93 260.184 65.19C261.264 63.45 262.719 62.1 264.549 61.14C266.409 60.18 268.479 59.7 270.759 59.7C272.799 59.7 274.629 60.105 276.249 60.915C277.869 61.725 279.159 62.985 280.119 64.695C281.109 66.405 281.604 68.595 281.604 71.265C281.604 73.935 281.109 76.14 280.119 77.88C279.159 79.59 277.869 80.865 276.249 81.705C274.629 82.515 272.799 82.92 270.759 82.92ZM271.614 78.15C273.024 78.15 274.284 77.865 275.394 77.295C276.504 76.695 277.359 75.885 277.959 74.865C278.589 73.815 278.904 72.615 278.904 71.265C278.904 69.915 278.589 68.73 277.959 67.71C277.359 66.66 276.504 65.865 275.394 65.325C274.284 64.755 273.024 64.47 271.614 64.47C270.204 64.47 268.929 64.755 267.789 65.325C266.679 65.865 265.809 66.66 265.179 67.71C264.579 68.73 264.279 69.915 264.279 71.265C264.279 72.615 264.579 73.815 265.179 74.865C265.809 75.885 266.679 76.695 267.789 77.295C268.929 77.865 270.204 78.15 271.614 78.15ZM305.47 59.7C307.39 59.7 309.1 60.075 310.6 60.825C312.13 61.575 313.33 62.73 314.2 64.29C315.07 65.82 315.505 67.8 315.505 70.23V84H309.88V70.95C309.88 68.82 309.37 67.23 308.35 66.18C307.36 65.13 305.965 64.605 304.165 64.605C302.845 64.605 301.675 64.875 300.655 65.415C299.635 65.955 298.84 66.765 298.27 67.845C297.73 68.895 297.46 70.23 297.46 71.85V84H291.835V50.61H297.46V66.45L296.245 64.47C297.085 62.94 298.3 61.77 299.89 60.96C301.51 60.12 303.37 59.7 305.47 59.7ZM331.685 84.315C329.045 84.315 327.005 83.64 325.565 82.29C324.125 80.91 323.405 78.885 323.405 76.215V54.66H329.03V76.08C329.03 77.22 329.315 78.105 329.885 78.735C330.485 79.365 331.31 79.68 332.36 79.68C333.62 79.68 334.67 79.35 335.51 78.69L337.085 82.695C336.425 83.235 335.615 83.64 334.655 83.91C333.695 84.18 332.705 84.315 331.685 84.315ZM319.445 64.65V60.15H335.465V64.65H319.445Z" fill="#333333"/>
<path d="M350.234 84L364.409 52.5H370.169L384.389 84H378.269L366.074 55.605H368.414L356.264 84H350.234ZM356.759 76.71L358.334 72.12H375.344L376.919 76.71H356.759ZM388.395 84V52.5H394.245V84H388.395Z" fill="#3B76EF"/>
<g clip-path="url(#clip0_26_7)">
<path d="M15 120.153V31.3485C15 30.0175 15.7715 28.7252 17.141 27.7801L37.8184 13.4872C42.4284 10.3046 50.3367 12.5614 50.3367 17.0556V120.153C50.3367 122.95 47.0576 125.207 43.007 125.207H22.3297C18.2791 125.207 15 122.931 15 120.153Z" fill="#3B76EF"/>
<path d="M92 50.5193V120.73C92 122.89 89.4153 124.645 86.2134 124.645H62.7585C59.5566 124.645 56.9719 122.89 56.9719 120.73V67.0496C56.9719 66.0466 57.5506 65.0629 58.5922 64.3299L82.0471 47.7996C85.654 45.2535 92.0193 46.9895 92.0193 50.5193H92Z" fill="#3B76EF"/>
<path d="M82.4136 41.473V18.7317H56.9526V58.3119L82.4136 41.473Z" fill="#0000D4"/>
</g>
<defs>
<clipPath id="clip0_26_7">
<rect width="77" height="113.205" fill="white" transform="translate(15 12)"/>
</clipPath>
</defs>
</svg>
