<svg width="170" height="79" viewBox="0 0 170 79" fill="none" xmlns="http://www.w3.org/2000/svg">
<path d="M26.6774 28.42C24.7874 28.42 23.0257 28.1167 21.3924 27.51C19.7824 26.88 18.3824 25.9933 17.1924 24.85C16.0024 23.7067 15.069 22.365 14.3924 20.825C13.739 19.285 13.4124 17.5933 13.4124 15.75C13.4124 13.9067 13.739 12.215 14.3924 10.675C15.069 9.135 16.0024 7.79333 17.1924 6.65C18.4057 5.50667 19.8174 4.63167 21.4274 4.025C23.0374 3.395 24.799 3.08 26.7124 3.08C28.8357 3.08 30.749 3.45333 32.4524 4.2C34.179 4.92333 35.6257 5.99667 36.7924 7.42L33.1524 10.78C32.3124 9.82333 31.379 9.11167 30.3524 8.645C29.3257 8.155 28.2057 7.91 26.9924 7.91C25.849 7.91 24.799 8.09667 23.8424 8.47C22.8857 8.84333 22.0574 9.38 21.3574 10.08C20.6574 10.78 20.109 11.6083 19.7124 12.565C19.339 13.5217 19.1524 14.5833 19.1524 15.75C19.1524 16.9167 19.339 17.9783 19.7124 18.935C20.109 19.8917 20.6574 20.72 21.3574 21.42C22.0574 22.12 22.8857 22.6567 23.8424 23.03C24.799 23.4033 25.849 23.59 26.9924 23.59C28.2057 23.59 29.3257 23.3567 30.3524 22.89C31.379 22.4 32.3124 21.665 33.1524 20.685L36.7924 24.045C35.6257 25.4683 34.179 26.5533 32.4524 27.3C30.749 28.0467 28.824 28.42 26.6774 28.42ZM40.2363 28V9.17H45.6963V28H40.2363ZM42.9663 6.545C41.963 6.545 41.1463 6.25333 40.5163 5.67C39.8863 5.08667 39.5713 4.36333 39.5713 3.5C39.5713 2.63666 39.8863 1.91333 40.5163 1.33C41.1463 0.746665 41.963 0.454998 42.9663 0.454998C43.9696 0.454998 44.7863 0.734998 45.4163 1.295C46.0463 1.83167 46.3613 2.53167 46.3613 3.395C46.3613 4.305 46.0463 5.06333 45.4163 5.67C44.8096 6.25333 43.993 6.545 42.9663 6.545ZM50.7637 28V9.17H55.9787V14.49L55.2437 12.95C55.8037 11.62 56.702 10.6167 57.9387 9.94C59.1753 9.24 60.6803 8.89 62.4537 8.89V13.93C62.2203 13.9067 62.0103 13.895 61.8237 13.895C61.637 13.8717 61.4387 13.86 61.2287 13.86C59.7353 13.86 58.522 14.2917 57.5887 15.155C56.6787 15.995 56.2237 17.3133 56.2237 19.11V28H50.7637ZM74.6635 28.28C72.6335 28.28 70.8251 27.8717 69.2385 27.055C67.6518 26.215 66.4035 25.06 65.4935 23.59C64.6068 22.12 64.1635 20.4517 64.1635 18.585C64.1635 16.695 64.6068 15.0267 65.4935 13.58C66.4035 12.11 67.6518 10.9667 69.2385 10.15C70.8251 9.31 72.6335 8.89 74.6635 8.89C76.6468 8.89 78.3735 9.31 79.8435 10.15C81.3135 10.9667 82.3985 12.145 83.0985 13.685L78.8635 15.96C78.3735 15.0733 77.7551 14.42 77.0085 14C76.2851 13.58 75.4918 13.37 74.6285 13.37C73.6951 13.37 72.8551 13.58 72.1085 14C71.3618 14.42 70.7668 15.015 70.3235 15.785C69.9035 16.555 69.6935 17.4883 69.6935 18.585C69.6935 19.6817 69.9035 20.615 70.3235 21.385C70.7668 22.155 71.3618 22.75 72.1085 23.17C72.8551 23.59 73.6951 23.8 74.6285 23.8C75.4918 23.8 76.2851 23.6017 77.0085 23.205C77.7551 22.785 78.3735 22.12 78.8635 21.21L83.0985 23.52C82.3985 25.0367 81.3135 26.215 79.8435 27.055C78.3735 27.8717 76.6468 28.28 74.6635 28.28ZM94.1872 28.28C92.6238 28.28 91.2238 27.9767 89.9872 27.37C88.7738 26.7633 87.8288 25.8417 87.1522 24.605C86.4755 23.345 86.1372 21.7467 86.1372 19.81V9.17H91.5972V19.005C91.5972 20.5683 91.9238 21.7233 92.5772 22.47C93.2538 23.1933 94.1988 23.555 95.4122 23.555C96.2522 23.555 96.9988 23.38 97.6522 23.03C98.3055 22.6567 98.8188 22.0967 99.1922 21.35C99.5655 20.58 99.7522 19.6233 99.7522 18.48V9.17H105.212V28H100.032V22.82L100.977 24.325C100.347 25.6317 99.4138 26.6233 98.1772 27.3C96.9638 27.9533 95.6338 28.28 94.1872 28.28ZM110.27 28V2.03H115.73V28H110.27ZM132.348 28V24.325L131.998 23.52V16.94C131.998 15.7733 131.636 14.8633 130.913 14.21C130.213 13.5567 129.128 13.23 127.658 13.23C126.654 13.23 125.663 13.3933 124.683 13.72C123.726 14.0233 122.909 14.4433 122.233 14.98L120.273 11.165C121.299 10.4417 122.536 9.88167 123.983 9.485C125.429 9.08833 126.899 8.89 128.393 8.89C131.263 8.89 133.491 9.56667 135.078 10.92C136.664 12.2733 137.458 14.385 137.458 17.255V28H132.348ZM126.608 28.28C125.138 28.28 123.878 28.035 122.828 27.545C121.778 27.0317 120.973 26.3433 120.413 25.48C119.853 24.6167 119.573 23.6483 119.573 22.575C119.573 21.455 119.841 20.475 120.378 19.635C120.938 18.795 121.813 18.1417 123.003 17.675C124.193 17.185 125.744 16.94 127.658 16.94H132.663V20.125H128.253C126.969 20.125 126.083 20.335 125.593 20.755C125.126 21.175 124.893 21.7 124.893 22.33C124.893 23.03 125.161 23.59 125.698 24.01C126.258 24.4067 127.016 24.605 127.973 24.605C128.883 24.605 129.699 24.395 130.423 23.975C131.146 23.5317 131.671 22.89 131.998 22.05L132.838 24.57C132.441 25.7833 131.718 26.705 130.668 27.335C129.618 27.965 128.264 28.28 126.608 28.28ZM142.399 28V9.17H147.614V14.49L146.879 12.95C147.439 11.62 148.338 10.6167 149.574 9.94C150.811 9.24 152.316 8.89 154.089 8.89V13.93C153.856 13.9067 153.646 13.895 153.459 13.895C153.273 13.8717 153.074 13.86 152.864 13.86C151.371 13.86 150.158 14.2917 149.224 15.155C148.314 15.995 147.859 17.3133 147.859 19.11V28H142.399ZM5.9657 56.37H17.7607V60.78H5.9657V56.37ZM6.3857 66.45H19.7207V71H0.750703V46.5H19.2657V51.05H6.3857V66.45ZM32.8446 71.28C30.8146 71.28 29.0063 70.8717 27.4196 70.055C25.8329 69.215 24.5846 68.06 23.6746 66.59C22.7879 65.12 22.3446 63.4517 22.3446 61.585C22.3446 59.695 22.7879 58.0267 23.6746 56.58C24.5846 55.11 25.8329 53.9667 27.4196 53.15C29.0063 52.31 30.8146 51.89 32.8446 51.89C34.8279 51.89 36.5546 52.31 38.0246 53.15C39.4946 53.9667 40.5796 55.145 41.2796 56.685L37.0446 58.96C36.5546 58.0733 35.9363 57.42 35.1896 57C34.4663 56.58 33.6729 56.37 32.8096 56.37C31.8763 56.37 31.0363 56.58 30.2896 57C29.5429 57.42 28.9479 58.015 28.5046 58.785C28.0846 59.555 27.8746 60.4883 27.8746 61.585C27.8746 62.6817 28.0846 63.615 28.5046 64.385C28.9479 65.155 29.5429 65.75 30.2896 66.17C31.0363 66.59 31.8763 66.8 32.8096 66.8C33.6729 66.8 34.4663 66.6017 35.1896 66.205C35.9363 65.785 36.5546 65.12 37.0446 64.21L41.2796 66.52C40.5796 68.0367 39.4946 69.215 38.0246 70.055C36.5546 70.8717 34.8279 71.28 32.8446 71.28ZM53.1441 71.28C51.1374 71.28 49.3524 70.86 47.7891 70.02C46.2491 69.18 45.0241 68.0367 44.1141 66.59C43.2274 65.12 42.7841 63.4517 42.7841 61.585C42.7841 59.695 43.2274 58.0267 44.1141 56.58C45.0241 55.11 46.2491 53.9667 47.7891 53.15C49.3524 52.31 51.1374 51.89 53.1441 51.89C55.1274 51.89 56.9007 52.31 58.4641 53.15C60.0274 53.9667 61.2524 55.0983 62.1391 56.545C63.0257 57.9917 63.4691 59.6717 63.4691 61.585C63.4691 63.4517 63.0257 65.12 62.1391 66.59C61.2524 68.0367 60.0274 69.18 58.4641 70.02C56.9007 70.86 55.1274 71.28 53.1441 71.28ZM53.1441 66.8C54.0541 66.8 54.8707 66.59 55.5941 66.17C56.3174 65.75 56.8891 65.155 57.3091 64.385C57.7291 63.5917 57.9391 62.6583 57.9391 61.585C57.9391 60.4883 57.7291 59.555 57.3091 58.785C56.8891 58.015 56.3174 57.42 55.5941 57C54.8707 56.58 54.0541 56.37 53.1441 56.37C52.2341 56.37 51.4174 56.58 50.6941 57C49.9707 57.42 49.3874 58.015 48.9441 58.785C48.5241 59.555 48.3141 60.4883 48.3141 61.585C48.3141 62.6583 48.5241 63.5917 48.9441 64.385C49.3874 65.155 49.9707 65.75 50.6941 66.17C51.4174 66.59 52.2341 66.8 53.1441 66.8ZM78.5636 51.89C80.057 51.89 81.387 52.1933 82.5536 52.8C83.7436 53.3833 84.677 54.2933 85.3536 55.53C86.0303 56.7433 86.3686 58.3067 86.3686 60.22V71H80.9086V61.06C80.9086 59.5433 80.5703 58.4233 79.8936 57.7C79.2403 56.9767 78.307 56.615 77.0936 56.615C76.2303 56.615 75.4486 56.8017 74.7486 57.175C74.072 57.525 73.5353 58.0733 73.1386 58.82C72.7653 59.5667 72.5786 60.5233 72.5786 61.69V71H67.1186V52.17H72.3336V57.385L71.3536 55.81C72.0303 54.55 72.9986 53.5817 74.2586 52.905C75.5186 52.2283 76.9536 51.89 78.5636 51.89ZM100.415 71.28C98.4079 71.28 96.6229 70.86 95.0596 70.02C93.5196 69.18 92.2946 68.0367 91.3846 66.59C90.4979 65.12 90.0546 63.4517 90.0546 61.585C90.0546 59.695 90.4979 58.0267 91.3846 56.58C92.2946 55.11 93.5196 53.9667 95.0596 53.15C96.6229 52.31 98.4079 51.89 100.415 51.89C102.398 51.89 104.171 52.31 105.735 53.15C107.298 53.9667 108.523 55.0983 109.41 56.545C110.296 57.9917 110.74 59.6717 110.74 61.585C110.74 63.4517 110.296 65.12 109.41 66.59C108.523 68.0367 107.298 69.18 105.735 70.02C104.171 70.86 102.398 71.28 100.415 71.28ZM100.415 66.8C101.325 66.8 102.141 66.59 102.865 66.17C103.588 65.75 104.16 65.155 104.58 64.385C105 63.5917 105.21 62.6583 105.21 61.585C105.21 60.4883 105 59.555 104.58 58.785C104.16 58.015 103.588 57.42 102.865 57C102.141 56.58 101.325 56.37 100.415 56.37C99.5046 56.37 98.6879 56.58 97.9646 57C97.2412 57.42 96.6579 58.015 96.2146 58.785C95.7946 59.555 95.5846 60.4883 95.5846 61.585C95.5846 62.6583 95.7946 63.5917 96.2146 64.385C96.6579 65.155 97.2412 65.75 97.9646 66.17C98.6879 66.59 99.5046 66.8 100.415 66.8ZM138.504 51.89C139.997 51.89 141.316 52.1933 142.459 52.8C143.626 53.3833 144.536 54.2933 145.189 55.53C145.866 56.7433 146.204 58.3067 146.204 60.22V71H140.744V61.06C140.744 59.5433 140.429 58.4233 139.799 57.7C139.169 56.9767 138.282 56.615 137.139 56.615C136.346 56.615 135.634 56.8017 135.004 57.175C134.374 57.525 133.884 58.0617 133.534 58.785C133.184 59.5083 133.009 60.43 133.009 61.55V71H127.549V61.06C127.549 59.5433 127.234 58.4233 126.604 57.7C125.997 56.9767 125.122 56.615 123.979 56.615C123.186 56.615 122.474 56.8017 121.844 57.175C121.214 57.525 120.724 58.0617 120.374 58.785C120.024 59.5083 119.849 60.43 119.849 61.55V71H114.389V52.17H119.604V57.315L118.624 55.81C119.277 54.5267 120.199 53.5583 121.389 52.905C122.602 52.2283 123.979 51.89 125.519 51.89C127.246 51.89 128.751 52.3333 130.034 53.22C131.341 54.0833 132.204 55.4133 132.624 57.21L130.699 56.685C131.329 55.215 132.332 54.0483 133.709 53.185C135.109 52.3217 136.707 51.89 138.504 51.89ZM153.136 78.07C152.156 78.07 151.188 77.9183 150.231 77.615C149.275 77.3117 148.493 76.8917 147.886 76.355L149.881 72.47C150.301 72.8433 150.78 73.135 151.316 73.345C151.876 73.555 152.425 73.66 152.961 73.66C153.731 73.66 154.338 73.4733 154.781 73.1C155.248 72.75 155.668 72.155 156.041 71.315L157.021 69.005L157.441 68.41L164.196 52.17H169.446L160.941 72.155C160.335 73.6717 159.635 74.8617 158.841 75.725C158.071 76.5883 157.208 77.195 156.251 77.545C155.318 77.895 154.28 78.07 153.136 78.07ZM156.356 71.735L147.956 52.17H153.591L160.101 67.92L156.356 71.735Z" fill="black"/>
</svg>
