<svg width="581" height="327" viewBox="0 0 581 327" fill="none" xmlns="http://www.w3.org/2000/svg">
<rect width="581" height="326.466" rx="10" fill="white"/>
<path d="M128.941 312.446H136.162V314.667H128.941V312.446ZM129.148 318.671H137.344V320.933H126.451V306.408H137.054V308.67H129.148V318.671ZM146.39 309.728C147.275 309.728 148.064 309.901 148.756 310.247C149.461 310.593 150.014 311.125 150.416 311.845C150.817 312.55 151.017 313.463 151.017 314.584V320.933H148.424V314.916C148.424 313.933 148.188 313.2 147.718 312.716C147.262 312.232 146.618 311.99 145.788 311.99C145.18 311.99 144.64 312.114 144.17 312.363C143.699 312.612 143.333 312.986 143.07 313.484C142.821 313.968 142.697 314.584 142.697 315.331V320.933H140.103V309.853H142.572V312.841L142.136 311.928C142.524 311.222 143.084 310.683 143.817 310.309C144.564 309.922 145.422 309.728 146.39 309.728ZM159.536 321.078C158.305 321.078 157.226 320.836 156.299 320.352C155.386 319.854 154.673 319.176 154.162 318.319C153.664 317.461 153.415 316.486 153.415 315.393C153.415 314.286 153.657 313.311 154.141 312.467C154.639 311.609 155.317 310.938 156.174 310.454C157.046 309.97 158.035 309.728 159.142 309.728C160.221 309.728 161.182 309.963 162.026 310.434C162.87 310.904 163.534 311.568 164.018 312.426C164.502 313.283 164.744 314.293 164.744 315.455C164.744 315.566 164.737 315.69 164.723 315.829C164.723 315.967 164.716 316.098 164.703 316.223H155.469V314.501H163.333L162.316 315.04C162.33 314.404 162.199 313.843 161.922 313.359C161.645 312.875 161.265 312.495 160.781 312.218C160.311 311.941 159.764 311.803 159.142 311.803C158.505 311.803 157.945 311.941 157.461 312.218C156.991 312.495 156.617 312.882 156.34 313.38C156.078 313.864 155.946 314.438 155.946 315.102V315.517C155.946 316.181 156.098 316.769 156.403 317.281C156.707 317.793 157.136 318.187 157.689 318.464C158.242 318.74 158.879 318.879 159.598 318.879C160.221 318.879 160.781 318.782 161.279 318.588C161.777 318.395 162.22 318.09 162.607 317.675L163.997 319.273C163.499 319.854 162.87 320.304 162.109 320.622C161.362 320.926 160.504 321.078 159.536 321.078ZM167.235 320.933V309.853H169.705V312.903L169.414 312.011C169.746 311.264 170.265 310.696 170.97 310.309C171.69 309.922 172.582 309.728 173.647 309.728V312.197C173.537 312.17 173.433 312.156 173.336 312.156C173.239 312.142 173.142 312.135 173.045 312.135C172.063 312.135 171.282 312.426 170.701 313.007C170.12 313.574 169.829 314.424 169.829 315.559V320.933H167.235ZM180.767 325.104C179.744 325.104 178.741 324.965 177.758 324.689C176.79 324.426 175.995 324.039 175.372 323.527L176.534 321.576C177.018 321.977 177.627 322.296 178.36 322.531C179.107 322.78 179.861 322.904 180.622 322.904C181.839 322.904 182.732 322.621 183.299 322.054C183.866 321.5 184.149 320.663 184.149 319.543V317.572L184.357 315.061L184.274 312.55V309.853H186.743V319.252C186.743 321.258 186.231 322.731 185.208 323.672C184.184 324.627 182.704 325.104 180.767 325.104ZM180.435 320.435C179.384 320.435 178.429 320.214 177.572 319.771C176.728 319.315 176.057 318.685 175.559 317.883C175.075 317.08 174.833 316.14 174.833 315.061C174.833 313.996 175.075 313.062 175.559 312.26C176.057 311.457 176.728 310.835 177.572 310.392C178.429 309.949 179.384 309.728 180.435 309.728C181.376 309.728 182.22 309.915 182.967 310.288C183.714 310.662 184.309 311.243 184.751 312.031C185.208 312.82 185.436 313.83 185.436 315.061C185.436 316.292 185.208 317.309 184.751 318.111C184.309 318.9 183.714 319.487 182.967 319.875C182.22 320.248 181.376 320.435 180.435 320.435ZM180.829 318.236C181.48 318.236 182.061 318.104 182.572 317.841C183.084 317.565 183.479 317.191 183.755 316.721C184.046 316.237 184.191 315.683 184.191 315.061C184.191 314.438 184.046 313.892 183.755 313.422C183.479 312.937 183.084 312.571 182.572 312.322C182.061 312.059 181.48 311.928 180.829 311.928C180.179 311.928 179.591 312.059 179.066 312.322C178.554 312.571 178.153 312.937 177.862 313.422C177.586 313.892 177.447 314.438 177.447 315.061C177.447 315.683 177.586 316.237 177.862 316.721C178.153 317.191 178.554 317.565 179.066 317.841C179.591 318.104 180.179 318.236 180.829 318.236ZM191.066 325.104C190.527 325.104 189.987 325.014 189.448 324.834C188.908 324.654 188.459 324.405 188.099 324.087L189.136 322.178C189.399 322.413 189.697 322.6 190.029 322.738C190.361 322.877 190.7 322.946 191.045 322.946C191.516 322.946 191.896 322.828 192.187 322.593C192.477 322.358 192.747 321.964 192.996 321.41L193.639 319.958L193.847 319.647L198.038 309.853H200.528L195.341 321.825C194.995 322.655 194.607 323.312 194.179 323.797C193.764 324.281 193.293 324.62 192.768 324.813C192.256 325.007 191.689 325.104 191.066 325.104ZM193.349 321.327L188.348 309.853H191.045L195.112 319.418L193.349 321.327ZM212.968 321.078C211.806 321.078 210.769 320.836 209.856 320.352C208.957 319.854 208.251 319.176 207.739 318.319C207.228 317.461 206.972 316.486 206.972 315.393C206.972 314.286 207.228 313.311 207.739 312.467C208.251 311.609 208.957 310.938 209.856 310.454C210.769 309.97 211.806 309.728 212.968 309.728C214.047 309.728 214.995 309.949 215.811 310.392C216.641 310.821 217.271 311.457 217.699 312.301L215.707 313.463C215.375 312.937 214.967 312.55 214.483 312.301C214.013 312.052 213.501 311.928 212.948 311.928C212.311 311.928 211.737 312.066 211.225 312.343C210.714 312.619 210.312 313.02 210.022 313.546C209.731 314.058 209.586 314.673 209.586 315.393C209.586 316.112 209.731 316.735 210.022 317.26C210.312 317.772 210.714 318.166 211.225 318.443C211.737 318.72 212.311 318.858 212.948 318.858C213.501 318.858 214.013 318.734 214.483 318.485C214.967 318.236 215.375 317.848 215.707 317.323L217.699 318.485C217.271 319.315 216.641 319.958 215.811 320.414C214.995 320.857 214.047 321.078 212.968 321.078ZM224.759 321.078C223.624 321.078 222.614 320.836 221.729 320.352C220.844 319.854 220.145 319.176 219.633 318.319C219.121 317.461 218.866 316.486 218.866 315.393C218.866 314.286 219.121 313.311 219.633 312.467C220.145 311.609 220.844 310.938 221.729 310.454C222.614 309.97 223.624 309.728 224.759 309.728C225.907 309.728 226.924 309.97 227.809 310.454C228.708 310.938 229.407 311.602 229.905 312.446C230.416 313.29 230.672 314.272 230.672 315.393C230.672 316.486 230.416 317.461 229.905 318.319C229.407 319.176 228.708 319.854 227.809 320.352C226.924 320.836 225.907 321.078 224.759 321.078ZM224.759 318.858C225.395 318.858 225.962 318.72 226.46 318.443C226.958 318.166 227.345 317.765 227.622 317.24C227.913 316.714 228.058 316.098 228.058 315.393C228.058 314.673 227.913 314.058 227.622 313.546C227.345 313.02 226.958 312.619 226.46 312.343C225.962 312.066 225.402 311.928 224.779 311.928C224.143 311.928 223.576 312.066 223.078 312.343C222.594 312.619 222.206 313.02 221.916 313.546C221.625 314.058 221.48 314.673 221.48 315.393C221.48 316.098 221.625 316.714 221.916 317.24C222.206 317.765 222.594 318.166 223.078 318.443C223.576 318.72 224.136 318.858 224.759 318.858ZM239.44 309.728C240.325 309.728 241.114 309.901 241.805 310.247C242.511 310.593 243.064 311.125 243.465 311.845C243.867 312.55 244.067 313.463 244.067 314.584V320.933H241.473V314.916C241.473 313.933 241.238 313.2 240.768 312.716C240.311 312.232 239.668 311.99 238.838 311.99C238.229 311.99 237.69 312.114 237.22 312.363C236.749 312.612 236.383 312.986 236.12 313.484C235.871 313.968 235.746 314.584 235.746 315.331V320.933H233.153V309.853H235.622V312.841L235.186 311.928C235.573 311.222 236.134 310.683 236.867 310.309C237.614 309.922 238.472 309.728 239.44 309.728ZM250.782 321.078C249.855 321.078 248.963 320.961 248.105 320.726C247.261 320.477 246.59 320.179 246.092 319.833L247.088 317.862C247.586 318.18 248.181 318.443 248.873 318.651C249.565 318.858 250.256 318.962 250.948 318.962C251.764 318.962 252.352 318.851 252.712 318.63C253.085 318.408 253.272 318.111 253.272 317.738C253.272 317.433 253.147 317.205 252.898 317.053C252.649 316.887 252.324 316.762 251.923 316.679C251.522 316.596 251.072 316.52 250.574 316.451C250.09 316.382 249.599 316.292 249.101 316.181C248.617 316.057 248.174 315.884 247.773 315.663C247.372 315.427 247.047 315.116 246.798 314.729C246.549 314.341 246.424 313.83 246.424 313.193C246.424 312.488 246.625 311.879 247.026 311.367C247.427 310.842 247.987 310.44 248.707 310.164C249.44 309.873 250.305 309.728 251.301 309.728C252.048 309.728 252.802 309.811 253.562 309.977C254.323 310.143 254.953 310.378 255.451 310.683L254.455 312.654C253.929 312.336 253.396 312.121 252.857 312.011C252.331 311.886 251.805 311.824 251.28 311.824C250.491 311.824 249.903 311.941 249.516 312.177C249.143 312.412 248.956 312.709 248.956 313.069C248.956 313.401 249.08 313.65 249.329 313.816C249.578 313.982 249.903 314.113 250.305 314.21C250.706 314.307 251.148 314.39 251.633 314.459C252.131 314.514 252.622 314.604 253.106 314.729C253.59 314.853 254.033 315.026 254.434 315.248C254.849 315.455 255.181 315.752 255.43 316.14C255.679 316.527 255.803 317.032 255.803 317.655C255.803 318.346 255.596 318.948 255.181 319.46C254.78 319.972 254.206 320.373 253.459 320.663C252.712 320.94 251.819 321.078 250.782 321.078ZM262.727 321.078C261.786 321.078 260.956 320.905 260.237 320.56C259.518 320.2 258.957 319.66 258.556 318.941C258.155 318.208 257.954 317.288 257.954 316.181V309.853H260.548V315.829C260.548 316.825 260.77 317.572 261.212 318.07C261.669 318.554 262.312 318.796 263.142 318.796C263.751 318.796 264.276 318.671 264.719 318.422C265.175 318.173 265.528 317.8 265.777 317.302C266.04 316.804 266.171 316.188 266.171 315.455V309.853H268.765V320.933H266.296V317.945L266.732 318.858C266.358 319.577 265.812 320.131 265.092 320.518C264.373 320.892 263.585 321.078 262.727 321.078ZM286.147 309.728C287.032 309.728 287.814 309.901 288.491 310.247C289.183 310.593 289.723 311.125 290.11 311.845C290.497 312.55 290.691 313.463 290.691 314.584V320.933H288.097V314.916C288.097 313.933 287.883 313.2 287.454 312.716C287.025 312.232 286.41 311.99 285.607 311.99C285.04 311.99 284.535 312.114 284.092 312.363C283.664 312.612 283.325 312.979 283.076 313.463C282.841 313.947 282.723 314.563 282.723 315.31V320.933H280.129V314.916C280.129 313.933 279.915 313.2 279.486 312.716C279.057 312.232 278.442 311.99 277.639 311.99C277.072 311.99 276.567 312.114 276.124 312.363C275.696 312.612 275.357 312.979 275.108 313.463C274.873 313.947 274.755 314.563 274.755 315.31V320.933H272.161V309.853H274.63V312.799L274.195 311.928C274.568 311.208 275.108 310.662 275.813 310.288C276.533 309.915 277.349 309.728 278.262 309.728C279.299 309.728 280.198 309.984 280.959 310.496C281.734 311.008 282.246 311.782 282.495 312.82L281.478 312.467C281.838 311.637 282.432 310.973 283.262 310.475C284.092 309.977 285.054 309.728 286.147 309.728ZM300.147 321.078C299.248 321.078 298.425 320.871 297.678 320.456C296.945 320.041 296.357 319.418 295.914 318.588C295.486 317.744 295.271 316.679 295.271 315.393C295.271 314.092 295.479 313.027 295.894 312.197C296.323 311.367 296.904 310.752 297.637 310.351C298.37 309.936 299.207 309.728 300.147 309.728C301.24 309.728 302.202 309.963 303.032 310.434C303.876 310.904 304.54 311.561 305.024 312.405C305.522 313.249 305.771 314.245 305.771 315.393C305.771 316.541 305.522 317.544 305.024 318.402C304.54 319.245 303.876 319.902 303.032 320.373C302.202 320.843 301.24 321.078 300.147 321.078ZM294.005 324.959V309.853H296.475V312.467L296.392 315.414L296.599 318.36V324.959H294.005ZM299.857 318.858C300.479 318.858 301.033 318.72 301.517 318.443C302.015 318.166 302.409 317.765 302.7 317.24C302.99 316.714 303.135 316.098 303.135 315.393C303.135 314.673 302.99 314.058 302.7 313.546C302.409 313.02 302.015 312.619 301.517 312.343C301.033 312.066 300.479 311.928 299.857 311.928C299.234 311.928 298.674 312.066 298.176 312.343C297.678 312.619 297.284 313.02 296.993 313.546C296.703 314.058 296.558 314.673 296.558 315.393C296.558 316.098 296.703 316.714 296.993 317.24C297.284 317.765 297.678 318.166 298.176 318.443C298.674 318.72 299.234 318.858 299.857 318.858ZM312.401 321.078C311.184 321.078 310.243 320.767 309.579 320.145C308.915 319.508 308.583 318.574 308.583 317.343V307.404H311.177V317.281C311.177 317.807 311.308 318.215 311.571 318.505C311.848 318.796 312.228 318.941 312.712 318.941C313.293 318.941 313.777 318.789 314.165 318.485L314.891 320.331C314.587 320.58 314.213 320.767 313.771 320.892C313.328 321.016 312.871 321.078 312.401 321.078ZM306.757 312.011V309.936H314.144V312.011H306.757ZM317.024 320.933V309.853H319.618V320.933H317.024ZM318.331 308.027C317.847 308.027 317.446 307.874 317.128 307.57C316.824 307.266 316.671 306.899 316.671 306.47C316.671 306.028 316.824 305.661 317.128 305.371C317.446 305.066 317.847 304.914 318.331 304.914C318.816 304.914 319.21 305.059 319.514 305.35C319.832 305.626 319.991 305.979 319.991 306.408C319.991 306.865 319.839 307.252 319.535 307.57C319.231 307.874 318.829 308.027 318.331 308.027ZM328.002 321.078C326.868 321.078 325.858 320.836 324.973 320.352C324.087 319.854 323.389 319.176 322.877 318.319C322.365 317.461 322.109 316.486 322.109 315.393C322.109 314.286 322.365 313.311 322.877 312.467C323.389 311.609 324.087 310.938 324.973 310.454C325.858 309.97 326.868 309.728 328.002 309.728C329.15 309.728 330.167 309.97 331.052 310.454C331.952 310.938 332.65 311.602 333.148 312.446C333.66 313.29 333.916 314.272 333.916 315.393C333.916 316.486 333.66 317.461 333.148 318.319C332.65 319.176 331.952 319.854 331.052 320.352C330.167 320.836 329.15 321.078 328.002 321.078ZM328.002 318.858C328.639 318.858 329.206 318.72 329.704 318.443C330.202 318.166 330.589 317.765 330.866 317.24C331.156 316.714 331.301 316.098 331.301 315.393C331.301 314.673 331.156 314.058 330.866 313.546C330.589 313.02 330.202 312.619 329.704 312.343C329.206 312.066 328.645 311.928 328.023 311.928C327.387 311.928 326.819 312.066 326.321 312.343C325.837 312.619 325.45 313.02 325.159 313.546C324.869 314.058 324.724 314.673 324.724 315.393C324.724 316.098 324.869 316.714 325.159 317.24C325.45 317.765 325.837 318.166 326.321 318.443C326.819 318.72 327.38 318.858 328.002 318.858ZM342.684 309.728C343.569 309.728 344.357 309.901 345.049 310.247C345.755 310.593 346.308 311.125 346.709 311.845C347.11 312.55 347.311 313.463 347.311 314.584V320.933H344.717V314.916C344.717 313.933 344.482 313.2 344.012 312.716C343.555 312.232 342.912 311.99 342.082 311.99C341.473 311.99 340.934 312.114 340.463 312.363C339.993 312.612 339.626 312.986 339.364 313.484C339.115 313.968 338.99 314.584 338.99 315.331V320.933H336.396V309.853H338.866V312.841L338.43 311.928C338.817 311.222 339.377 310.683 340.111 310.309C340.858 309.922 341.715 309.728 342.684 309.728ZM361.316 321.078C360.181 321.078 359.171 320.836 358.286 320.352C357.401 319.854 356.702 319.176 356.19 318.319C355.679 317.461 355.423 316.486 355.423 315.393C355.423 314.286 355.679 313.311 356.19 312.467C356.702 311.609 357.401 310.938 358.286 310.454C359.171 309.97 360.181 309.728 361.316 309.728C362.464 309.728 363.481 309.97 364.366 310.454C365.265 310.938 365.964 311.602 366.462 312.446C366.973 313.29 367.229 314.272 367.229 315.393C367.229 316.486 366.973 317.461 366.462 318.319C365.964 319.176 365.265 319.854 364.366 320.352C363.481 320.836 362.464 321.078 361.316 321.078ZM361.316 318.858C361.952 318.858 362.519 318.72 363.017 318.443C363.515 318.166 363.902 317.765 364.179 317.24C364.47 316.714 364.615 316.098 364.615 315.393C364.615 314.673 364.47 314.058 364.179 313.546C363.902 313.02 363.515 312.619 363.017 312.343C362.519 312.066 361.959 311.928 361.336 311.928C360.7 311.928 360.133 312.066 359.635 312.343C359.151 312.619 358.763 313.02 358.473 313.546C358.182 314.058 358.037 314.673 358.037 315.393C358.037 316.098 358.182 316.714 358.473 317.24C358.763 317.765 359.151 318.166 359.635 318.443C360.133 318.72 360.693 318.858 361.316 318.858ZM372.353 320.933L367.601 309.853H370.299L374.387 319.626H373.059L377.292 309.853H379.782L375.03 320.933H372.353ZM386.307 321.078C385.076 321.078 383.997 320.836 383.07 320.352C382.157 319.854 381.444 319.176 380.933 318.319C380.435 317.461 380.186 316.486 380.186 315.393C380.186 314.286 380.428 313.311 380.912 312.467C381.41 311.609 382.088 310.938 382.945 310.454C383.817 309.97 384.806 309.728 385.913 309.728C386.992 309.728 387.953 309.963 388.797 310.434C389.641 310.904 390.305 311.568 390.789 312.426C391.273 313.283 391.515 314.293 391.515 315.455C391.515 315.566 391.508 315.69 391.494 315.829C391.494 315.967 391.488 316.098 391.474 316.223H382.24V314.501H390.104L389.087 315.04C389.101 314.404 388.97 313.843 388.693 313.359C388.417 312.875 388.036 312.495 387.552 312.218C387.082 311.941 386.535 311.803 385.913 311.803C385.276 311.803 384.716 311.941 384.232 312.218C383.762 312.495 383.388 312.882 383.111 313.38C382.849 313.864 382.717 314.438 382.717 315.102V315.517C382.717 316.181 382.869 316.769 383.174 317.281C383.478 317.793 383.907 318.187 384.46 318.464C385.014 318.74 385.65 318.879 386.369 318.879C386.992 318.879 387.552 318.782 388.05 318.588C388.548 318.395 388.991 318.09 389.378 317.675L390.768 319.273C390.27 319.854 389.641 320.304 388.88 320.622C388.133 320.926 387.275 321.078 386.307 321.078ZM394.007 320.933V309.853H396.476V312.903L396.185 312.011C396.517 311.264 397.036 310.696 397.742 310.309C398.461 309.922 399.353 309.728 400.418 309.728V312.197C400.308 312.17 400.204 312.156 400.107 312.156C400.01 312.142 399.913 312.135 399.817 312.135C398.834 312.135 398.053 312.426 397.472 313.007C396.891 313.574 396.6 314.424 396.6 315.559V320.933H394.007ZM412.625 321.078C411.407 321.078 410.467 320.767 409.803 320.145C409.139 319.508 408.807 318.574 408.807 317.343V307.404H411.401V317.281C411.401 317.807 411.532 318.215 411.795 318.505C412.072 318.796 412.452 318.941 412.936 318.941C413.517 318.941 414.001 318.789 414.389 318.485L415.115 320.331C414.81 320.58 414.437 320.767 413.994 320.892C413.552 321.016 413.095 321.078 412.625 321.078ZM406.981 312.011V309.936H414.368V312.011H406.981ZM417.249 320.933V309.853H419.843V320.933H417.249ZM418.557 308.027C418.072 308.027 417.671 307.874 417.353 307.57C417.049 307.266 416.897 306.899 416.897 306.47C416.897 306.028 417.049 305.661 417.353 305.371C417.671 305.066 418.072 304.914 418.557 304.914C419.041 304.914 419.435 305.059 419.739 305.35C420.057 305.626 420.217 305.979 420.217 306.408C420.217 306.865 420.064 307.252 419.76 307.57C419.456 307.874 419.055 308.027 418.557 308.027ZM437.232 309.728C438.117 309.728 438.898 309.901 439.576 310.247C440.268 310.593 440.807 311.125 441.195 311.845C441.582 312.55 441.776 313.463 441.776 314.584V320.933H439.182V314.916C439.182 313.933 438.968 313.2 438.539 312.716C438.11 312.232 437.494 311.99 436.692 311.99C436.125 311.99 435.62 312.114 435.177 312.363C434.748 312.612 434.41 312.979 434.161 313.463C433.925 313.947 433.808 314.563 433.808 315.31V320.933H431.214V314.916C431.214 313.933 431 313.2 430.571 312.716C430.142 312.232 429.526 311.99 428.724 311.99C428.157 311.99 427.652 312.114 427.209 312.363C426.78 312.612 426.442 312.979 426.193 313.463C425.957 313.947 425.84 314.563 425.84 315.31V320.933H423.246V309.853H425.715V312.799L425.28 311.928C425.653 311.208 426.193 310.662 426.898 310.288C427.617 309.915 428.434 309.728 429.347 309.728C430.384 309.728 431.283 309.984 432.044 310.496C432.819 311.008 433.331 311.782 433.58 312.82L432.563 312.467C432.922 311.637 433.517 310.973 434.347 310.475C435.177 309.977 436.139 309.728 437.232 309.728ZM450.319 321.078C449.088 321.078 448.009 320.836 447.082 320.352C446.169 319.854 445.457 319.176 444.945 318.319C444.447 317.461 444.198 316.486 444.198 315.393C444.198 314.286 444.44 313.311 444.924 312.467C445.422 311.609 446.1 310.938 446.958 310.454C447.829 309.97 448.818 309.728 449.925 309.728C451.004 309.728 451.965 309.963 452.809 310.434C453.653 310.904 454.317 311.568 454.801 312.426C455.285 313.283 455.527 314.293 455.527 315.455C455.527 315.566 455.521 315.69 455.507 315.829C455.507 315.967 455.5 316.098 455.486 316.223H446.252V314.501H454.117L453.1 315.04C453.114 314.404 452.982 313.843 452.705 313.359C452.429 312.875 452.048 312.495 451.564 312.218C451.094 311.941 450.548 311.803 449.925 311.803C449.289 311.803 448.728 311.941 448.244 312.218C447.774 312.495 447.4 312.882 447.124 313.38C446.861 313.864 446.73 314.438 446.73 315.102V315.517C446.73 316.181 446.882 316.769 447.186 317.281C447.49 317.793 447.919 318.187 448.472 318.464C449.026 318.74 449.662 318.879 450.382 318.879C451.004 318.879 451.564 318.782 452.062 318.588C452.56 318.395 453.003 318.09 453.39 317.675L454.78 319.273C454.282 319.854 453.653 320.304 452.892 320.622C452.145 320.926 451.288 321.078 450.319 321.078Z" fill="#333333"/>
<path d="M567.167 23.5166H437.133V242.083H567.167V23.5166Z" fill="#DCE7FE"/>
<path d="M86.7416 269.75V257.161H88.2162L93.863 266.675H93.0717L98.6465 257.161H100.121L100.139 269.75H98.4128L98.3948 259.877H98.8084L93.845 268.221H93.0178L88.0184 259.877H88.468V269.75H86.7416ZM109.582 269.75V267.736L109.492 267.358V263.923C109.492 263.191 109.276 262.628 108.845 262.233C108.425 261.825 107.79 261.621 106.938 261.621C106.375 261.621 105.823 261.717 105.284 261.909C104.744 262.089 104.289 262.335 103.917 262.646L103.198 261.352C103.689 260.956 104.277 260.656 104.96 260.452C105.655 260.237 106.381 260.129 107.136 260.129C108.443 260.129 109.45 260.447 110.157 261.082C110.865 261.717 111.218 262.688 111.218 263.995V269.75H109.582ZM106.453 269.858C105.745 269.858 105.122 269.737 104.583 269.498C104.055 269.259 103.647 268.928 103.36 268.509C103.072 268.077 102.928 267.592 102.928 267.052C102.928 266.536 103.048 266.069 103.288 265.65C103.54 265.23 103.941 264.894 104.493 264.643C105.056 264.391 105.811 264.265 106.759 264.265H109.78V265.506H106.83C105.967 265.506 105.386 265.65 105.086 265.937C104.786 266.225 104.637 266.572 104.637 266.98C104.637 267.448 104.822 267.826 105.194 268.113C105.566 268.389 106.081 268.527 106.741 268.527C107.388 268.527 107.951 268.383 108.431 268.095C108.923 267.808 109.276 267.388 109.492 266.837L109.834 268.023C109.606 268.586 109.204 269.036 108.629 269.372C108.053 269.696 107.328 269.858 106.453 269.858ZM114.651 273.346C114.196 273.346 113.752 273.269 113.32 273.113C112.889 272.969 112.517 272.753 112.205 272.465L112.943 271.17C113.183 271.399 113.446 271.572 113.734 271.692C114.022 271.812 114.327 271.872 114.651 271.872C115.071 271.872 115.418 271.764 115.694 271.548C115.97 271.332 116.228 270.949 116.467 270.397L117.061 269.084L117.241 268.869L120.981 260.219H122.672L118.05 270.703C117.774 271.374 117.463 271.902 117.115 272.285C116.779 272.669 116.408 272.938 116 273.095C115.592 273.262 115.143 273.346 114.651 273.346ZM116.917 270.056L112.565 260.219H114.363L118.068 268.707L116.917 270.056Z" fill="#8D8D8D"/>
<path d="M195.602 269.894C194.859 269.894 194.163 269.737 193.516 269.426C192.868 269.115 192.341 268.665 191.933 268.077L192.976 266.855C193.325 267.335 193.714 267.705 194.145 267.969C194.589 268.221 195.075 268.347 195.602 268.347C197.041 268.347 197.76 267.496 197.76 265.794V258.726H193.21V257.161H199.54V265.704C199.54 267.106 199.205 268.155 198.533 268.851C197.875 269.546 196.897 269.894 195.602 269.894ZM206.962 269.858C206.147 269.858 205.428 269.708 204.804 269.408C204.192 269.108 203.714 268.653 203.365 268.041C203.03 267.418 202.862 266.639 202.862 265.704V260.219H204.588V265.506C204.588 266.441 204.811 267.142 205.253 267.61C205.71 268.077 206.345 268.311 207.16 268.311C207.76 268.311 208.281 268.191 208.724 267.951C209.168 267.7 209.51 267.34 209.749 266.872C209.99 266.392 210.109 265.817 210.109 265.146V260.219H211.835V269.75H210.199V267.178L210.469 267.862C210.157 268.497 209.69 268.989 209.066 269.336C208.443 269.683 207.742 269.858 206.962 269.858ZM220.211 260.129C220.99 260.129 221.674 260.278 222.261 260.578C222.86 260.879 223.328 261.334 223.664 261.945C224 262.557 224.168 263.33 224.168 264.265V269.75H222.441V264.463C222.441 263.54 222.213 262.844 221.758 262.377C221.314 261.909 220.684 261.675 219.87 261.675C219.258 261.675 218.724 261.796 218.269 262.035C217.814 262.274 217.46 262.628 217.208 263.096C216.969 263.564 216.848 264.145 216.848 264.84V269.75H215.122V260.219H216.777V262.79L216.507 262.107C216.818 261.483 217.298 260.997 217.945 260.65C218.593 260.303 219.348 260.129 220.211 260.129ZM231.607 269.858C230.588 269.858 229.689 269.647 228.91 269.228C228.142 268.809 227.543 268.234 227.111 267.502C226.691 266.77 226.482 265.932 226.482 264.984C226.482 264.037 226.685 263.198 227.093 262.467C227.513 261.735 228.083 261.166 228.802 260.758C229.532 260.339 230.354 260.129 231.266 260.129C232.188 260.129 233.003 260.332 233.711 260.74C234.418 261.148 234.97 261.724 235.366 262.467C235.772 263.198 235.977 264.055 235.977 265.038C235.977 265.11 235.97 265.195 235.959 265.29C235.959 265.385 235.952 265.475 235.941 265.56H227.831V264.319H235.042L234.341 264.75C234.352 264.139 234.226 263.594 233.963 263.114C233.699 262.634 233.334 262.263 232.866 261.999C232.41 261.724 231.877 261.585 231.266 261.585C230.665 261.585 230.133 261.724 229.665 261.999C229.197 262.263 228.831 262.641 228.568 263.132C228.304 263.612 228.172 264.163 228.172 264.786V265.074C228.172 265.709 228.316 266.279 228.604 266.783C228.903 267.274 229.316 267.658 229.845 267.934C230.372 268.209 230.978 268.347 231.661 268.347C232.224 268.347 232.733 268.252 233.19 268.059C233.657 267.867 234.064 267.579 234.413 267.196L235.366 268.311C234.934 268.815 234.395 269.198 233.747 269.462C233.111 269.726 232.399 269.858 231.607 269.858Z" fill="#8D8D8D"/>
<path d="M310.36 269.894C309.618 269.894 308.922 269.737 308.274 269.426C307.627 269.115 307.1 268.665 306.692 268.077L307.735 266.855C308.084 267.335 308.472 267.705 308.904 267.97C309.348 268.221 309.833 268.347 310.36 268.347C311.799 268.347 312.519 267.496 312.519 265.794V258.726H307.969V257.162H314.299V265.704C314.299 267.106 313.964 268.155 313.292 268.851C312.633 269.547 311.655 269.894 310.36 269.894ZM321.72 269.858C320.906 269.858 320.186 269.708 319.562 269.408C318.951 269.108 318.472 268.653 318.124 268.041C317.789 267.418 317.62 266.639 317.62 265.704V260.219H319.347V265.506C319.347 266.441 319.569 267.142 320.012 267.61C320.469 268.077 321.103 268.311 321.918 268.311C322.519 268.311 323.04 268.191 323.483 267.952C323.927 267.7 324.269 267.34 324.508 266.873C324.749 266.393 324.868 265.817 324.868 265.146V260.219H326.594V269.75H324.957V267.178L325.227 267.862C324.916 268.497 324.448 268.989 323.824 269.336C323.202 269.683 322.501 269.858 321.72 269.858ZM329.881 269.75V256.406H331.607V269.75H329.881ZM335.317 273.347C334.862 273.347 334.418 273.269 333.986 273.113C333.555 272.969 333.183 272.753 332.871 272.465L333.609 271.171C333.848 271.399 334.112 271.572 334.4 271.692C334.688 271.812 334.994 271.872 335.317 271.872C335.736 271.872 336.085 271.764 336.36 271.548C336.636 271.332 336.894 270.949 337.134 270.397L337.727 269.084L337.907 268.869L341.647 260.219H343.338L338.716 270.703C338.441 271.374 338.128 271.902 337.781 272.286C337.445 272.669 337.074 272.938 336.666 273.095C336.258 273.262 335.808 273.347 335.317 273.347ZM337.583 270.056L333.231 260.219H335.029L338.734 268.707L337.583 270.056Z" fill="#8D8D8D"/>
<path d="M416.941 269.75L422.642 257.161H424.422L430.141 269.75H428.253L423.163 258.169H423.883L418.793 269.75H416.941ZM419.369 266.603L419.854 265.164H426.94L427.461 266.603H419.369ZM435.602 269.858C434.786 269.858 434.067 269.708 433.444 269.408C432.833 269.108 432.353 268.653 432.006 268.041C431.669 267.418 431.502 266.639 431.502 265.704V260.219H433.228V265.506C433.228 266.441 433.45 267.142 433.894 267.61C434.349 268.077 434.984 268.311 435.8 268.311C436.399 268.311 436.92 268.191 437.365 267.951C437.807 267.7 438.149 267.34 438.39 266.872C438.629 266.392 438.749 265.817 438.749 265.146V260.219H440.476V269.75H438.839V267.178L439.109 267.862C438.796 268.497 438.329 268.989 437.706 269.336C437.082 269.683 436.381 269.858 435.602 269.858ZM447.933 273.346C447.059 273.346 446.207 273.221 445.38 272.969C444.565 272.73 443.899 272.381 443.383 271.926L444.211 270.595C444.655 270.978 445.2 271.278 445.847 271.494C446.495 271.722 447.172 271.836 447.879 271.836C449.007 271.836 449.834 271.572 450.361 271.045C450.889 270.518 451.152 269.714 451.152 268.635V266.621L451.332 264.732L451.242 262.826V260.219H452.879V268.455C452.879 270.133 452.459 271.368 451.62 272.16C450.781 272.951 449.552 273.346 447.933 273.346ZM447.717 269.354C446.795 269.354 445.967 269.162 445.236 268.779C444.516 268.383 443.941 267.838 443.509 267.142C443.09 266.446 442.88 265.644 442.88 264.732C442.88 263.81 443.09 263.006 443.509 262.323C443.941 261.627 444.516 261.087 445.236 260.704C445.967 260.321 446.795 260.129 447.717 260.129C448.534 260.129 449.276 260.296 449.947 260.632C450.62 260.956 451.152 261.46 451.548 262.143C451.956 262.826 452.159 263.689 452.159 264.732C452.159 265.763 451.956 266.621 451.548 267.304C451.152 267.987 450.62 268.503 449.947 268.851C449.276 269.187 448.534 269.354 447.717 269.354ZM447.915 267.844C448.552 267.844 449.115 267.712 449.606 267.448C450.098 267.184 450.481 266.819 450.757 266.351C451.044 265.883 451.188 265.344 451.188 264.732C451.188 264.121 451.044 263.582 450.757 263.114C450.481 262.646 450.098 262.287 449.606 262.035C449.115 261.771 448.552 261.639 447.915 261.639C447.28 261.639 446.71 261.771 446.207 262.035C445.716 262.287 445.326 262.646 445.038 263.114C444.763 263.582 444.624 264.121 444.624 264.732C444.624 265.344 444.763 265.883 445.038 266.351C445.326 266.819 445.716 267.184 446.207 267.448C446.71 267.712 447.28 267.844 447.915 267.844Z" fill="#8D8D8D"/>
<path d="M534.754 269.894C533.795 269.894 532.878 269.75 532.003 269.462C531.128 269.162 530.438 268.779 529.935 268.311L530.6 266.909C531.08 267.328 531.691 267.676 532.434 267.952C533.178 268.227 533.952 268.365 534.754 268.365C535.486 268.365 536.079 268.281 536.534 268.113C536.991 267.946 537.326 267.718 537.542 267.43C537.757 267.13 537.865 266.795 537.865 266.423C537.865 265.991 537.721 265.644 537.434 265.38C537.158 265.116 536.793 264.907 536.337 264.751C535.894 264.583 535.402 264.439 534.862 264.319C534.323 264.199 533.777 264.062 533.226 263.905C532.686 263.738 532.189 263.528 531.733 263.276C531.29 263.024 530.931 262.688 530.654 262.269C530.379 261.837 530.24 261.285 530.24 260.614C530.24 259.967 530.409 259.373 530.744 258.834C531.092 258.282 531.619 257.845 532.326 257.521C533.046 257.185 533.957 257.018 535.06 257.018C535.792 257.018 536.516 257.113 537.236 257.305C537.955 257.498 538.579 257.773 539.106 258.133L538.513 259.571C537.973 259.212 537.405 258.954 536.804 258.798C536.205 258.631 535.624 258.546 535.06 258.546C534.353 258.546 533.772 258.636 533.315 258.816C532.86 258.996 532.524 259.235 532.308 259.535C532.105 259.836 532.003 260.17 532.003 260.542C532.003 260.986 532.141 261.339 532.416 261.603C532.704 261.868 533.071 262.077 533.513 262.233C533.97 262.389 534.466 262.533 535.006 262.664C535.545 262.785 536.085 262.922 536.624 263.078C537.176 263.234 537.674 263.438 538.117 263.69C538.574 263.941 538.939 264.277 539.214 264.697C539.491 265.116 539.628 265.655 539.628 266.315C539.628 266.95 539.455 267.543 539.106 268.095C538.759 268.635 538.219 269.072 537.488 269.408C536.768 269.732 535.858 269.894 534.754 269.894ZM546.247 269.858C545.229 269.858 544.33 269.648 543.549 269.228C542.783 268.809 542.183 268.234 541.751 267.502C541.332 266.77 541.122 265.932 541.122 264.984C541.122 264.037 541.326 263.198 541.733 262.467C542.154 261.735 542.722 261.166 543.441 260.758C544.173 260.339 544.995 260.129 545.905 260.129C546.829 260.129 547.644 260.332 548.351 260.74C549.059 261.148 549.61 261.724 550.005 262.467C550.413 263.198 550.617 264.055 550.617 265.038C550.617 265.11 550.611 265.195 550.599 265.29C550.599 265.385 550.593 265.475 550.581 265.56H542.47V264.319H549.682L548.98 264.751C548.993 264.139 548.867 263.594 548.603 263.114C548.34 262.634 547.973 262.263 547.506 261.999C547.051 261.724 546.517 261.585 545.905 261.585C545.306 261.585 544.772 261.724 544.305 261.999C543.837 262.263 543.472 262.641 543.208 263.132C542.945 263.612 542.812 264.163 542.812 264.786V265.074C542.812 265.709 542.956 266.279 543.244 266.783C543.544 267.274 543.957 267.658 544.484 267.934C545.013 268.209 545.617 268.347 546.301 268.347C546.865 268.347 547.374 268.252 547.829 268.059C548.297 267.867 548.705 267.579 549.052 267.196L550.005 268.311C549.574 268.815 549.034 269.198 548.387 269.462C547.752 269.726 547.038 269.858 546.247 269.858ZM558.067 269.858C557.276 269.858 556.551 269.678 555.891 269.318C555.244 268.946 554.723 268.401 554.327 267.682C553.944 266.962 553.751 266.063 553.751 264.984C553.751 263.905 553.938 263.006 554.309 262.287C554.693 261.567 555.208 261.028 555.856 260.668C556.515 260.309 557.253 260.129 558.067 260.129C559.003 260.129 559.83 260.332 560.549 260.74C561.268 261.148 561.838 261.717 562.258 262.449C562.678 263.168 562.887 264.013 562.887 264.984C562.887 265.955 562.678 266.806 562.258 267.538C561.838 268.27 561.268 268.838 560.549 269.246C559.83 269.654 559.003 269.858 558.067 269.858ZM553.014 273.239V260.219H554.669V262.79L554.561 265.002L554.741 267.214V273.239H553.014ZM557.924 268.347C558.535 268.347 559.081 268.209 559.56 267.934C560.053 267.658 560.436 267.268 560.711 266.765C560.999 266.249 561.143 265.655 561.143 264.984C561.143 264.301 560.999 263.713 560.711 263.222C560.436 262.718 560.053 262.328 559.56 262.053C559.081 261.778 558.535 261.639 557.924 261.639C557.325 261.639 556.78 261.778 556.287 262.053C555.808 262.328 555.424 262.718 555.136 263.222C554.861 263.713 554.723 264.301 554.723 264.984C554.723 265.655 554.861 266.249 555.136 266.765C555.424 267.268 555.808 267.658 556.287 267.934C556.78 268.209 557.325 268.347 557.924 268.347Z" fill="#8D8D8D"/>
<path d="M5.0916 65.0166V63.7938L10.2168 58.8483C10.6724 58.4167 11.0081 58.0391 11.2239 57.7154C11.4517 57.3797 11.6016 57.0739 11.6735 56.7982C11.7574 56.5105 11.7994 56.2348 11.7994 55.971C11.7994 55.3236 11.5716 54.8141 11.116 54.4424C10.6604 54.0707 9.99504 53.8849 9.11986 53.8849C8.44847 53.8849 7.84304 53.9988 7.30354 54.2266C6.76404 54.4424 6.29648 54.7841 5.90084 55.2517L4.67798 54.1907C5.15752 53.5792 5.79893 53.1117 6.60219 52.788C7.41743 52.4522 8.31061 52.2844 9.28171 52.2844C10.1569 52.2844 10.9182 52.4283 11.5656 52.716C12.213 52.9917 12.7105 53.3934 13.0582 53.9209C13.4179 54.4484 13.5977 55.0718 13.5977 55.7912C13.5977 56.1988 13.5438 56.6004 13.4359 56.9961C13.328 57.3917 13.1241 57.8113 12.8244 58.2549C12.5247 58.6985 12.0931 59.196 11.5296 59.7475L6.96186 64.1534L6.53026 63.4521H14.1372V65.0166H5.0916ZM19.6801 65.1605C18.7928 65.1605 17.9296 65.0226 17.0905 64.7469C16.2632 64.4712 15.5858 64.0995 15.0584 63.6319L15.8856 62.2112C16.3052 62.6069 16.8506 62.9306 17.5221 63.1823C18.1934 63.4341 18.9068 63.56 19.6621 63.56C20.6212 63.56 21.3585 63.3562 21.874 62.9485C22.3895 62.5409 22.6473 61.9954 22.6473 61.3121C22.6473 60.8445 22.5333 60.4368 22.3056 60.0892C22.0778 59.7416 21.6822 59.4778 21.1187 59.2979C20.5672 59.1061 19.806 59.0102 18.8349 59.0102H15.9755L16.6409 52.4283H23.7443V53.9928H17.3063L18.2414 53.1117L17.7199 58.3088L16.7848 57.4456H19.2125C20.4713 57.4456 21.4844 57.6075 22.2517 57.9312C23.0189 58.2549 23.5764 58.7045 23.9241 59.2799C24.2718 59.8434 24.4457 60.4969 24.4457 61.2401C24.4457 61.9595 24.2718 62.6189 23.9241 63.2183C23.5764 63.8058 23.0489 64.2793 22.3416 64.639C21.6462 64.9866 20.7591 65.1605 19.6801 65.1605ZM31.0854 65.1605C30.1022 65.1605 29.2211 64.9087 28.4418 64.4052C27.6745 63.9017 27.0631 63.1703 26.6075 62.2112C26.1639 61.2522 25.9421 60.0892 25.9421 58.7225C25.9421 57.3557 26.1639 56.1928 26.6075 55.2337C27.0631 54.2746 27.6745 53.5433 28.4418 53.0397C29.2211 52.5362 30.1022 52.2844 31.0854 52.2844C32.0565 52.2844 32.9317 52.5362 33.7109 53.0397C34.4902 53.5433 35.1016 54.2746 35.5452 55.2337C35.9889 56.1928 36.2106 57.3557 36.2106 58.7225C36.2106 60.0892 35.9889 61.2522 35.5452 62.2112C35.1016 63.1703 34.4902 63.9017 33.7109 64.4052C32.9317 64.9087 32.0565 65.1605 31.0854 65.1605ZM31.0854 63.56C31.7448 63.56 32.3203 63.3801 32.8118 63.0205C33.3153 62.6608 33.705 62.1213 33.9807 61.402C34.2684 60.6826 34.4123 59.7894 34.4123 58.7225C34.4123 57.6555 34.2684 56.7623 33.9807 56.0429C33.705 55.3236 33.3153 54.7841 32.8118 54.4244C32.3203 54.0648 31.7448 53.8849 31.0854 53.8849C30.4259 53.8849 29.8445 54.0648 29.341 54.4244C28.8375 54.7841 28.4418 55.3236 28.1541 56.0429C27.8784 56.7623 27.7405 57.6555 27.7405 58.7225C27.7405 59.7894 27.8784 60.6826 28.1541 61.402C28.4418 62.1213 28.8375 62.6608 29.341 63.0205C29.8445 63.3801 30.4259 63.56 31.0854 63.56Z" fill="#8D8D8D"/>
<path d="M4.26628 114.817V113.594L9.39153 108.648C9.8471 108.217 10.1828 107.839 10.3986 107.515C10.6264 107.18 10.7762 106.874 10.8482 106.598C10.9321 106.31 10.9741 106.035 10.9741 105.771C10.9741 105.124 10.7463 104.614 10.2907 104.242C9.83511 103.871 9.16972 103.685 8.29454 103.685C7.62316 103.685 7.01773 103.799 6.47823 104.027C5.93873 104.242 5.47116 104.584 5.07553 105.052L3.85266 103.991C4.33221 103.379 4.97362 102.912 5.77688 102.588C6.59212 102.252 7.48529 102.084 8.45639 102.084C9.33157 102.084 10.0929 102.228 10.7403 102.516C11.3877 102.792 11.8852 103.193 12.2329 103.721C12.5926 104.248 12.7724 104.872 12.7724 105.591C12.7724 105.999 12.7184 106.4 12.6105 106.796C12.5026 107.192 12.2988 107.611 11.9991 108.055C11.6994 108.498 11.2678 108.996 10.7043 109.547L6.13654 113.953L5.70494 113.252H13.3119V114.817H4.26628ZM19.9162 114.96C18.933 114.96 18.0518 114.709 17.2726 114.205C16.5053 113.702 15.8938 112.97 15.4383 112.011C14.9947 111.052 14.7729 109.889 14.7729 108.522C14.7729 107.156 14.9947 105.993 15.4383 105.034C15.8938 104.075 16.5053 103.343 17.2726 102.84C18.0518 102.336 18.933 102.084 19.9162 102.084C20.8873 102.084 21.7624 102.336 22.5417 102.84C23.321 103.343 23.9324 104.075 24.376 105.034C24.8195 105.993 25.0414 107.156 25.0414 108.522C25.0414 109.889 24.8195 111.052 24.376 112.011C23.9324 112.97 23.321 113.702 22.5417 114.205C21.7624 114.709 20.8873 114.96 19.9162 114.96ZM19.9162 113.36C20.5755 113.36 21.1509 113.18 21.6426 112.82C22.1461 112.461 22.5356 111.921 22.8115 111.202C23.0992 110.483 23.2431 109.589 23.2431 108.522C23.2431 107.455 23.0992 106.562 22.8115 105.843C22.5356 105.124 22.1461 104.584 21.6426 104.224C21.1509 103.865 20.5755 103.685 19.9162 103.685C19.2567 103.685 18.6753 103.865 18.1718 104.224C17.6682 104.584 17.2726 105.124 16.9849 105.843C16.709 106.562 16.5713 107.455 16.5713 108.522C16.5713 109.589 16.709 110.483 16.9849 111.202C17.2726 111.921 17.6682 112.461 18.1718 112.82C18.6753 113.18 19.2567 113.36 19.9162 113.36ZM31.9109 114.96C30.9278 114.96 30.0466 114.709 29.2674 114.205C28.5 113.702 27.8886 112.97 27.4331 112.011C26.9894 111.052 26.7677 109.889 26.7677 108.522C26.7677 107.156 26.9894 105.993 27.4331 105.034C27.8886 104.075 28.5 103.343 29.2674 102.84C30.0466 102.336 30.9278 102.084 31.9109 102.084C32.882 102.084 33.7571 102.336 34.5365 102.84C35.3157 103.343 35.9271 104.075 36.3708 105.034C36.8143 105.993 37.0362 107.156 37.0362 108.522C37.0362 109.889 36.8143 111.052 36.3708 112.011C35.9271 112.97 35.3157 113.702 34.5365 114.205C33.7571 114.709 32.882 114.96 31.9109 114.96ZM31.9109 113.36C32.5702 113.36 33.1457 113.18 33.6373 112.82C34.1408 112.461 34.5304 111.921 34.8062 111.202C35.094 110.483 35.2378 109.589 35.2378 108.522C35.2378 107.455 35.094 106.562 34.8062 105.843C34.5304 105.124 34.1408 104.584 33.6373 104.224C33.1457 103.865 32.5702 103.685 31.9109 103.685C31.2515 103.685 30.6701 103.865 30.1665 104.224C29.663 104.584 29.2674 105.124 28.9796 105.843C28.7038 106.562 28.566 107.455 28.566 108.522C28.566 109.589 28.7038 110.483 28.9796 111.202C29.2674 111.921 29.663 112.461 30.1665 112.82C30.6701 113.18 31.2515 113.36 31.9109 113.36Z" fill="#8D8D8D"/>
<path d="M9.24676 164.617V152.748L10.02 153.593H6.4054V152.028H11.0271V164.617H9.24676ZM17.8449 164.76C16.9578 164.76 16.0946 164.622 15.2553 164.347C14.4281 164.072 13.7507 163.699 13.2232 163.232L14.0504 161.811C14.47 162.207 15.0156 162.531 15.6869 162.782C16.3583 163.034 17.0716 163.16 17.8269 163.16C18.786 163.16 19.5233 162.957 20.0389 162.549C20.5545 162.14 20.8122 161.595 20.8122 160.912C20.8122 160.444 20.6983 160.036 20.4705 159.689C20.2427 159.342 19.847 159.078 19.2836 158.898C18.7321 158.706 17.9708 158.61 16.9997 158.61H14.1404L14.8057 152.028H21.9092V153.593H15.4711L16.4063 152.712L15.8847 157.909L14.9496 157.046H17.3774C18.6362 157.046 19.6492 157.207 20.4165 157.531C21.1839 157.855 21.7414 158.304 22.089 158.88C22.4366 159.443 22.6105 160.097 22.6105 160.84C22.6105 161.559 22.4366 162.219 22.089 162.818C21.7414 163.406 21.2138 163.879 20.5065 164.239C19.8111 164.586 18.9239 164.76 17.8449 164.76ZM29.2502 164.76C28.2672 164.76 27.3861 164.509 26.6067 164.005C25.8395 163.502 25.2281 162.77 24.7724 161.811C24.3289 160.853 24.107 159.689 24.107 158.322C24.107 156.956 24.3289 155.792 24.7724 154.834C25.2281 153.875 25.8395 153.143 26.6067 152.64C27.3861 152.136 28.2672 151.884 29.2502 151.884C30.2213 151.884 31.0966 152.136 31.8758 152.64C32.6552 153.143 33.2666 153.875 33.7101 154.834C34.1537 155.792 34.3755 156.956 34.3755 158.322C34.3755 159.689 34.1537 160.853 33.7101 161.811C33.2666 162.77 32.6552 163.502 31.8758 164.005C31.0966 164.509 30.2213 164.76 29.2502 164.76ZM29.2502 163.16C29.9097 163.16 30.4851 162.98 30.9766 162.62C31.4802 162.261 31.8699 161.721 32.1456 161.002C32.4333 160.283 32.5772 159.389 32.5772 158.322C32.5772 157.256 32.4333 156.362 32.1456 155.643C31.8699 154.924 31.4802 154.384 30.9766 154.024C30.4851 153.665 29.9097 153.485 29.2502 153.485C28.5909 153.485 28.0094 153.665 27.5059 154.024C27.0023 154.384 26.6067 154.924 26.319 155.643C26.0433 156.362 25.9053 157.256 25.9053 158.322C25.9053 159.389 26.0433 160.283 26.319 161.002C26.6067 161.721 27.0023 162.261 27.5059 162.62C28.0094 162.98 28.5909 163.16 29.2502 163.16Z" fill="#8D8D8D"/>
<path d="M8.41254 214.417V202.548L9.18582 203.393H5.57117V201.828H10.1929V214.417H8.41254ZM18.0897 214.56C17.1066 214.56 16.2254 214.309 15.4462 213.805C14.6788 213.302 14.0674 212.57 13.6118 211.611C13.1682 210.652 12.9464 209.489 12.9464 208.122C12.9464 206.756 13.1682 205.592 13.6118 204.634C14.0674 203.675 14.6788 202.943 15.4462 202.44C16.2254 201.936 17.1066 201.684 18.0897 201.684C19.0608 201.684 19.9359 201.936 20.7153 202.44C21.4945 202.943 22.106 203.675 22.5496 204.634C22.9931 205.592 23.215 206.756 23.215 208.122C23.215 209.489 22.9931 210.652 22.5496 211.611C22.106 212.57 21.4945 213.302 20.7153 213.805C19.9359 214.309 19.0608 214.56 18.0897 214.56ZM18.0897 212.96C18.749 212.96 19.3245 212.78 19.8161 212.42C20.3197 212.061 20.7092 211.521 20.9851 210.802C21.2728 210.083 21.4167 209.189 21.4167 208.122C21.4167 207.056 21.2728 206.162 20.9851 205.443C20.7092 204.724 20.3197 204.184 19.8161 203.824C19.3245 203.465 18.749 203.285 18.0897 203.285C17.4303 203.285 16.8489 203.465 16.3453 203.824C15.8418 204.184 15.4462 204.724 15.1584 205.443C14.8826 206.162 14.7448 207.056 14.7448 208.122C14.7448 209.189 14.8826 210.083 15.1584 210.802C15.4462 211.521 15.8418 212.061 16.3453 212.42C16.8489 212.78 17.4303 212.96 18.0897 212.96ZM30.0845 214.56C29.1014 214.56 28.2202 214.309 27.4409 213.805C26.6736 213.302 26.0622 212.57 25.6066 211.611C25.163 210.652 24.9412 209.489 24.9412 208.122C24.9412 206.756 25.163 205.592 25.6066 204.634C26.0622 203.675 26.6736 202.943 27.4409 202.44C28.2202 201.936 29.1014 201.684 30.0845 201.684C31.0556 201.684 31.9307 201.936 32.7101 202.44C33.4893 202.943 34.1007 203.675 34.5444 204.634C34.9879 205.592 35.2097 206.756 35.2097 208.122C35.2097 209.489 34.9879 210.652 34.5444 211.611C34.1007 212.57 33.4893 213.302 32.7101 213.805C31.9307 214.309 31.0556 214.56 30.0845 214.56ZM30.0845 212.96C30.7438 212.96 31.3193 212.78 31.8109 212.42C32.3144 212.061 32.704 211.521 32.9798 210.802C33.2675 210.083 33.4114 209.189 33.4114 208.122C33.4114 207.056 33.2675 206.162 32.9798 205.443C32.704 204.724 32.3144 204.184 31.8109 203.824C31.3193 203.465 30.7438 203.285 30.0845 203.285C29.4251 203.285 28.8436 203.465 28.3401 203.824C27.8366 204.184 27.4409 204.724 27.1532 205.443C26.8774 206.162 26.7396 207.056 26.7396 208.122C26.7396 209.189 26.8774 210.083 27.1532 210.802C27.4409 211.521 27.8366 212.061 28.3401 212.42C28.8436 212.78 29.4251 212.96 30.0845 212.96Z" fill="#8D8D8D"/>
<path d="M453.65 13.8334V4.15005H457.634C458.492 4.15005 459.225 4.28838 459.834 4.56505C460.452 4.84172 460.927 5.23828 461.259 5.75472C461.591 6.27115 461.757 6.88444 461.757 7.59455C461.757 8.30465 461.591 8.91794 461.259 9.43438C460.927 9.95082 460.452 10.3474 459.834 10.624C459.225 10.9007 458.492 11.039 457.634 11.039H454.646L455.449 10.1952V13.8334H453.65ZM455.449 10.3889L454.646 9.51738H457.551C458.344 9.51738 458.939 9.35138 459.336 9.01938C459.741 8.67815 459.945 8.20321 459.945 7.59455C459.945 6.97665 459.741 6.50171 459.336 6.16971C458.939 5.83772 458.344 5.67172 457.551 5.67172H454.646L455.449 4.78638V10.3889ZM464.244 13.8334V4.15005H468.228C469.086 4.15005 469.819 4.28838 470.427 4.56505C471.046 4.84172 471.52 5.23828 471.852 5.75472C472.184 6.27115 472.35 6.88444 472.35 7.59455C472.35 8.30465 472.184 8.91794 471.852 9.43438C471.52 9.9416 471.046 10.3335 470.427 10.6102C469.819 10.8776 469.086 11.0114 468.228 11.0114H465.24L466.042 10.1952V13.8334H464.244ZM470.58 13.8334L468.131 10.3197H470.054L472.516 13.8334H470.58ZM466.042 10.3889L465.24 9.53121H468.145C468.939 9.53121 469.534 9.3606 469.929 9.01938C470.336 8.67815 470.538 8.20321 470.538 7.59455C470.538 6.97665 470.336 6.50171 469.929 6.16971C469.534 5.83772 468.939 5.67172 468.145 5.67172H465.24L466.042 4.78638V10.3889ZM476.715 8.17554H481.529V9.65571H476.715V8.17554ZM476.853 12.3255H482.317V13.8334H475.055V4.15005H482.124V5.65788H476.853V12.3255ZM485.013 13.8334V4.15005H489.246C490.298 4.15005 491.22 4.35294 492.013 4.75872C492.806 5.16449 493.424 5.72705 493.867 6.44638C494.309 7.16571 494.531 8.01415 494.531 8.99171C494.531 9.96004 494.309 10.8085 493.867 11.537C493.424 12.2564 492.806 12.8189 492.013 13.2247C491.22 13.6305 490.298 13.8334 489.246 13.8334H485.013ZM486.812 12.3117H489.163C489.892 12.3117 490.519 12.1734 491.045 11.8967C491.58 11.62 491.989 11.2327 492.276 10.7347C492.57 10.2367 492.718 9.65571 492.718 8.99171C492.718 8.31848 492.57 7.73748 492.276 7.24871C491.989 6.75071 491.58 6.36338 491.045 6.08672C490.519 5.81005 489.892 5.67172 489.163 5.67172H486.812V12.3117ZM497.134 13.8334V4.15005H498.932V13.8334H497.134ZM506.725 13.9717C505.987 13.9717 505.3 13.8518 504.664 13.612C504.037 13.363 503.488 13.0172 503.017 12.5745C502.557 12.1226 502.197 11.5924 501.938 10.9837C501.68 10.375 501.551 9.71104 501.551 8.99171C501.551 8.27238 501.68 7.60838 501.938 6.99971C502.197 6.39105 502.561 5.86538 503.031 5.42272C503.502 4.97082 504.051 4.62499 504.677 4.38522C505.304 4.13622 505.992 4.01172 506.739 4.01172C507.531 4.01172 508.256 4.15005 508.91 4.42672C509.565 4.69416 510.118 5.09532 510.57 5.63022L509.408 6.72305C509.058 6.34494 508.666 6.06365 508.233 5.87922C507.8 5.68555 507.329 5.58872 506.822 5.58872C506.314 5.58872 505.849 5.67172 505.424 5.83772C505.009 6.00371 504.646 6.23888 504.332 6.54321C504.027 6.84755 503.788 7.20721 503.612 7.62221C503.446 8.03721 503.363 8.49371 503.363 8.99171C503.363 9.48971 503.446 9.94621 503.612 10.3612C503.788 10.7762 504.027 11.1359 504.332 11.4402C504.646 11.7445 505.009 11.9797 505.424 12.1457C505.849 12.3117 506.314 12.3947 506.822 12.3947C507.329 12.3947 507.8 12.3025 508.233 12.118C508.666 11.9244 509.058 11.6339 509.408 11.2465L510.57 12.3532C510.118 12.8789 509.565 13.28 508.91 13.5567C508.256 13.8334 507.527 13.9717 506.725 13.9717ZM514.841 13.8334V5.67172H511.631V4.15005H519.848V5.67172H516.639V13.8334H514.841ZM521.89 13.8334V4.15005H523.689V13.8334H521.89ZM531.536 13.9717C530.781 13.9717 530.084 13.8472 529.447 13.5982C528.811 13.3492 528.258 13.0034 527.787 12.5607C527.317 12.1088 526.953 11.5831 526.695 10.9837C526.437 10.375 526.307 9.71104 526.307 8.99171C526.307 8.27238 526.437 7.61299 526.695 7.01355C526.953 6.40488 527.317 5.87922 527.787 5.43655C528.258 4.98466 528.811 4.63422 529.447 4.38522C530.084 4.13622 530.775 4.01172 531.522 4.01172C532.279 4.01172 532.971 4.13622 533.597 4.38522C534.234 4.63422 534.787 4.98466 535.257 5.43655C535.728 5.87922 536.093 6.40488 536.35 7.01355C536.609 7.61299 536.738 8.27238 536.738 8.99171C536.738 9.71104 536.609 10.375 536.35 10.9837C536.093 11.5924 535.728 12.118 535.257 12.5607C534.787 13.0034 534.234 13.3492 533.597 13.5982C532.971 13.8472 532.283 13.9717 531.536 13.9717ZM531.522 12.3947C532.012 12.3947 532.463 12.3117 532.878 12.1457C533.293 11.9797 533.653 11.7445 533.957 11.4402C534.261 11.1266 534.497 10.767 534.663 10.3612C534.838 9.94621 534.925 9.48971 534.925 8.99171C534.925 8.49371 534.838 8.04182 534.663 7.63605C534.497 7.22105 534.261 6.86138 533.957 6.55705C533.653 6.24349 533.293 6.00371 532.878 5.83772C532.463 5.67172 532.012 5.58872 531.522 5.58872C531.034 5.58872 530.582 5.67172 530.167 5.83772C529.761 6.00371 529.402 6.24349 529.088 6.55705C528.783 6.86138 528.544 7.22105 528.368 7.63605C528.202 8.04182 528.119 8.49371 528.119 8.99171C528.119 9.48048 528.202 9.93237 528.368 10.3474C528.544 10.7624 528.783 11.1266 529.088 11.4402C529.392 11.7445 529.752 11.9797 530.167 12.1457C530.582 12.3117 531.034 12.3947 531.522 12.3947ZM539.335 13.8334V4.15005H540.816L546.888 11.6062H546.155V4.15005H547.94V13.8334H546.46L540.387 6.37721H541.12V13.8334H539.335Z" fill="#3B76EF"/>
<path d="M51.1833 24.8999C51.1833 24.1359 50.564 23.5166 49.8 23.5166C49.036 23.5166 48.4166 24.1359 48.4166 24.8999V257.3C48.4166 258.064 49.036 258.683 49.8 258.683C50.564 258.683 51.1833 258.064 51.1833 257.3V24.8999Z" fill="#D9D9D9"/>
<path d="M105.133 24.2083C105.133 23.8263 104.824 23.5166 104.442 23.5166C104.06 23.5166 103.75 23.8263 103.75 24.2083V244.158C103.75 244.54 104.06 244.85 104.442 244.85C104.824 244.85 105.133 244.54 105.133 244.158V24.2083Z" fill="#EEEEEE"/>
<path d="M215.8 24.2083C215.8 23.8263 215.491 23.5166 215.109 23.5166C214.727 23.5166 214.417 23.8263 214.417 24.2083V244.158C214.417 244.54 214.727 244.85 215.109 244.85C215.491 244.85 215.8 244.54 215.8 244.158V24.2083Z" fill="#EEEEEE"/>
<path d="M326.466 24.2083C326.466 23.8263 326.157 23.5166 325.775 23.5166C325.393 23.5166 325.083 23.8263 325.083 24.2083V244.158C325.083 244.54 325.393 244.85 325.775 244.85C326.157 244.85 326.466 244.54 326.466 244.158V24.2083Z" fill="#EEEEEE"/>
<path d="M437.133 24.2083C437.133 23.8263 436.824 23.5166 436.442 23.5166C436.06 23.5166 435.75 23.8263 435.75 24.2083V244.158C435.75 244.54 436.06 244.85 436.442 244.85C436.824 244.85 437.133 244.54 437.133 244.158V24.2083Z" fill="#EEEEEE"/>
<path d="M546.417 24.2083C546.417 23.8263 546.107 23.5166 545.725 23.5166C545.343 23.5166 545.034 23.8263 545.034 24.2083V244.158C545.034 244.54 545.343 244.85 545.725 244.85C546.107 244.85 546.417 244.54 546.417 244.158V24.2083Z" fill="#EEEEEE"/>
<path d="M49.8 242.083C49.036 242.083 48.4166 242.702 48.4166 243.466C48.4166 244.23 49.036 244.85 49.8 244.85L565.783 244.85C566.547 244.85 567.166 244.23 567.166 243.466C567.166 242.702 566.547 242.083 565.783 242.083L49.8 242.083Z" fill="#D9D9D9"/>
<path d="M61.5583 204.732C63.6334 168.073 70.135 99.8758 79.5417 120.349C91.3 145.94 83 204.04 99.6 195.048C116.2 186.057 133.492 161.848 148.017 172.915C162.542 183.982 188.825 179.832 196.433 172.915C204.042 165.998 242.775 161.157 245.542 164.615C248.308 168.073 247.617 116.199 250.383 112.741C252.597 109.974 251.306 155.854 250.383 179.14C262.602 179.832 288.287 179.555 293.267 172.915C298.247 166.275 325.084 153.548 334.767 152.165C344.45 150.782 380.832 151.613 390.792 141.1C403.242 127.959 457.192 121.042 466.184 121.042C487.625 123.578 516.814 145.942 533.967 123.809C551.12 101.676 551.95 96.1417 565.784 96.1416" stroke="#3B76EF" stroke-width="2"/>
<path d="M251.075 124.5C258.333 124.5 264.217 118.616 264.217 111.358C264.217 104.1 258.333 98.2167 251.075 98.2167C243.817 98.2167 237.933 104.1 237.933 111.358C237.933 118.616 243.817 124.5 251.075 124.5Z" stroke="#A72222" stroke-width="2" stroke-dasharray="4 4"/>
<path d="M76.775 131.417C84.0329 131.417 89.9166 125.533 89.9166 118.275C89.9166 111.017 84.0329 105.133 76.775 105.133C69.517 105.133 63.6333 111.017 63.6333 118.275C63.6333 125.533 69.517 131.417 76.775 131.417Z" stroke="#A72222" stroke-width="2" stroke-dasharray="4 4"/>
</svg>
