<svg width="346" height="346" viewBox="0 0 346 346" fill="none" xmlns="http://www.w3.org/2000/svg">
<g clip-path="url(#clip0_167_109)">
<path d="M128.63 342.48L54.9639 298.895L51.0293 276.084L71.6284 272.138L145.273 315.266L128.63 342.48Z" fill="#59D294"/>
<path d="M21.744 261.49L0.469116 178.582L13.8204 159.661L31.1825 171.443L52.7515 254.013L21.744 261.49Z" fill="#59D294"/>
<path d="M3.43359 128.632L47.0185 54.9658L69.83 51.0312L73.7754 71.6303L30.6483 145.275L3.43359 128.632Z" fill="#59D294"/>
<path d="M84.4348 21.7458L167.343 0.470947L186.253 13.8222L174.471 31.1843L91.9115 52.7534L84.4348 21.7458Z" fill="#59D294"/>
<path d="M217.283 3.43555L290.96 47.0204L294.883 69.8319L274.284 73.7774L200.651 30.6503L217.283 3.43555Z" fill="#59D294"/>
<path d="M324.169 84.4368L345.444 167.345L332.093 186.255L314.742 174.473L293.173 91.9135L324.169 84.4368Z" fill="#59D294"/>
<path d="M342.479 217.284L298.894 290.951L276.083 294.885L272.137 274.286L315.265 200.653L342.479 217.284Z" fill="#59D294"/>
<path d="M261.488 324.17L178.58 345.445L159.659 332.094L171.441 314.743L254.011 293.163L261.488 324.17Z" fill="#59D294"/>
<path d="M118.843 157.434C116.953 157.434 115.191 157.131 113.558 156.524C111.948 155.894 110.548 155.007 109.358 153.864C108.168 152.721 107.235 151.379 106.558 149.839C105.905 148.299 105.578 146.607 105.578 144.764C105.578 142.921 105.905 141.229 106.558 139.689C107.235 138.149 108.168 136.807 109.358 135.664C110.571 134.521 111.983 133.646 113.593 133.039C115.203 132.409 116.965 132.094 118.878 132.094C121.001 132.094 122.915 132.467 124.618 133.214C126.345 133.937 127.791 135.011 128.958 136.434L125.318 139.794C124.478 138.837 123.545 138.126 122.518 137.659C121.491 137.169 120.371 136.924 119.158 136.924C118.015 136.924 116.965 137.111 116.008 137.484C115.051 137.857 114.223 138.394 113.523 139.094C112.823 139.794 112.275 140.622 111.878 141.579C111.505 142.536 111.318 143.597 111.318 144.764C111.318 145.931 111.505 146.992 111.878 147.949C112.275 148.906 112.823 149.734 113.523 150.434C114.223 151.134 115.051 151.671 116.008 152.044C116.965 152.417 118.015 152.604 119.158 152.604C120.371 152.604 121.491 152.371 122.518 151.904C123.545 151.414 124.478 150.679 125.318 149.699L128.958 153.059C127.791 154.482 126.345 155.567 124.618 156.314C122.915 157.061 120.99 157.434 118.843 157.434ZM132.402 157.014V138.184H137.862V157.014H132.402ZM135.132 135.559C134.129 135.559 133.312 135.267 132.682 134.684C132.052 134.101 131.737 133.377 131.737 132.514C131.737 131.651 132.052 130.927 132.682 130.344C133.312 129.761 134.129 129.469 135.132 129.469C136.135 129.469 136.952 129.749 137.582 130.309C138.212 130.846 138.527 131.546 138.527 132.409C138.527 133.319 138.212 134.077 137.582 134.684C136.975 135.267 136.159 135.559 135.132 135.559ZM142.929 157.014V138.184H148.144V143.504L147.409 141.964C147.969 140.634 148.868 139.631 150.104 138.954C151.341 138.254 152.846 137.904 154.619 137.904V142.944C154.386 142.921 154.176 142.909 153.989 142.909C153.803 142.886 153.604 142.874 153.394 142.874C151.901 142.874 150.688 143.306 149.754 144.169C148.844 145.009 148.389 146.327 148.389 148.124V157.014H142.929ZM166.829 157.294C164.799 157.294 162.991 156.886 161.404 156.069C159.817 155.229 158.569 154.074 157.659 152.604C156.772 151.134 156.329 149.466 156.329 147.599C156.329 145.709 156.772 144.041 157.659 142.594C158.569 141.124 159.817 139.981 161.404 139.164C162.991 138.324 164.799 137.904 166.829 137.904C168.812 137.904 170.539 138.324 172.009 139.164C173.479 139.981 174.564 141.159 175.264 142.699L171.029 144.974C170.539 144.087 169.921 143.434 169.174 143.014C168.451 142.594 167.657 142.384 166.794 142.384C165.861 142.384 165.021 142.594 164.274 143.014C163.527 143.434 162.932 144.029 162.489 144.799C162.069 145.569 161.859 146.502 161.859 147.599C161.859 148.696 162.069 149.629 162.489 150.399C162.932 151.169 163.527 151.764 164.274 152.184C165.021 152.604 165.861 152.814 166.794 152.814C167.657 152.814 168.451 152.616 169.174 152.219C169.921 151.799 170.539 151.134 171.029 150.224L175.264 152.534C174.564 154.051 173.479 155.229 172.009 156.069C170.539 156.886 168.812 157.294 166.829 157.294ZM186.353 157.294C184.789 157.294 183.389 156.991 182.153 156.384C180.939 155.777 179.994 154.856 179.318 153.619C178.641 152.359 178.303 150.761 178.303 148.824V138.184H183.763V148.019C183.763 149.582 184.089 150.737 184.743 151.484C185.419 152.207 186.364 152.569 187.578 152.569C188.418 152.569 189.164 152.394 189.818 152.044C190.471 151.671 190.984 151.111 191.358 150.364C191.731 149.594 191.918 148.637 191.918 147.494V138.184H197.378V157.014H192.198V151.834L193.143 153.339C192.513 154.646 191.579 155.637 190.343 156.314C189.129 156.967 187.799 157.294 186.353 157.294ZM202.436 157.014V131.044H207.896V157.014H202.436ZM224.513 157.014V153.339L224.163 152.534V145.954C224.163 144.787 223.802 143.877 223.078 143.224C222.378 142.571 221.293 142.244 219.823 142.244C218.82 142.244 217.828 142.407 216.848 142.734C215.892 143.037 215.075 143.457 214.398 143.994L212.438 140.179C213.465 139.456 214.702 138.896 216.148 138.499C217.595 138.102 219.065 137.904 220.558 137.904C223.428 137.904 225.657 138.581 227.243 139.934C228.83 141.287 229.623 143.399 229.623 146.269V157.014H224.513ZM218.773 157.294C217.303 157.294 216.043 157.049 214.993 156.559C213.943 156.046 213.138 155.357 212.578 154.494C212.018 153.631 211.738 152.662 211.738 151.589C211.738 150.469 212.007 149.489 212.543 148.649C213.103 147.809 213.978 147.156 215.168 146.689C216.358 146.199 217.91 145.954 219.823 145.954H224.828V149.139H220.418C219.135 149.139 218.248 149.349 217.758 149.769C217.292 150.189 217.058 150.714 217.058 151.344C217.058 152.044 217.327 152.604 217.863 153.024C218.423 153.421 219.182 153.619 220.138 153.619C221.048 153.619 221.865 153.409 222.588 152.989C223.312 152.546 223.837 151.904 224.163 151.064L225.003 153.584C224.607 154.797 223.883 155.719 222.833 156.349C221.783 156.979 220.43 157.294 218.773 157.294ZM234.565 157.014V138.184H239.78V143.504L239.045 141.964C239.605 140.634 240.503 139.631 241.74 138.954C242.977 138.254 244.482 137.904 246.255 137.904V142.944C246.022 142.921 245.812 142.909 245.625 142.909C245.438 142.886 245.24 142.874 245.03 142.874C243.537 142.874 242.323 143.306 241.39 144.169C240.48 145.009 240.025 146.327 240.025 148.124V157.014H234.565ZM98.1313 185.384H109.926V189.794H98.1313V185.384ZM98.5513 195.464H111.886V200.014H92.9163V175.514H111.431V180.064H98.5513V195.464ZM125.01 200.294C122.98 200.294 121.172 199.886 119.585 199.069C117.999 198.229 116.75 197.074 115.84 195.604C114.954 194.134 114.51 192.466 114.51 190.599C114.51 188.709 114.954 187.041 115.84 185.594C116.75 184.124 117.999 182.981 119.585 182.164C121.172 181.324 122.98 180.904 125.01 180.904C126.994 180.904 128.72 181.324 130.19 182.164C131.66 182.981 132.745 184.159 133.445 185.699L129.21 187.974C128.72 187.087 128.102 186.434 127.355 186.014C126.632 185.594 125.839 185.384 124.975 185.384C124.042 185.384 123.202 185.594 122.455 186.014C121.709 186.434 121.114 187.029 120.67 187.799C120.25 188.569 120.04 189.502 120.04 190.599C120.04 191.696 120.25 192.629 120.67 193.399C121.114 194.169 121.709 194.764 122.455 195.184C123.202 195.604 124.042 195.814 124.975 195.814C125.839 195.814 126.632 195.616 127.355 195.219C128.102 194.799 128.72 194.134 129.21 193.224L133.445 195.534C132.745 197.051 131.66 198.229 130.19 199.069C128.72 199.886 126.994 200.294 125.01 200.294ZM145.31 200.294C143.303 200.294 141.518 199.874 139.955 199.034C138.415 198.194 137.19 197.051 136.28 195.604C135.393 194.134 134.95 192.466 134.95 190.599C134.95 188.709 135.393 187.041 136.28 185.594C137.19 184.124 138.415 182.981 139.955 182.164C141.518 181.324 143.303 180.904 145.31 180.904C147.293 180.904 149.066 181.324 150.63 182.164C152.193 182.981 153.418 184.112 154.305 185.559C155.191 187.006 155.635 188.686 155.635 190.599C155.635 192.466 155.191 194.134 154.305 195.604C153.418 197.051 152.193 198.194 150.63 199.034C149.066 199.874 147.293 200.294 145.31 200.294ZM145.31 195.814C146.22 195.814 147.036 195.604 147.76 195.184C148.483 194.764 149.055 194.169 149.475 193.399C149.895 192.606 150.105 191.672 150.105 190.599C150.105 189.502 149.895 188.569 149.475 187.799C149.055 187.029 148.483 186.434 147.76 186.014C147.036 185.594 146.22 185.384 145.31 185.384C144.4 185.384 143.583 185.594 142.86 186.014C142.136 186.434 141.553 187.029 141.11 187.799C140.69 188.569 140.48 189.502 140.48 190.599C140.48 191.672 140.69 192.606 141.11 193.399C141.553 194.169 142.136 194.764 142.86 195.184C143.583 195.604 144.4 195.814 145.31 195.814ZM170.729 180.904C172.223 180.904 173.553 181.207 174.719 181.814C175.909 182.397 176.843 183.307 177.519 184.544C178.196 185.757 178.534 187.321 178.534 189.234V200.014H173.074V190.074C173.074 188.557 172.736 187.437 172.059 186.714C171.406 185.991 170.473 185.629 169.259 185.629C168.396 185.629 167.614 185.816 166.914 186.189C166.238 186.539 165.701 187.087 165.304 187.834C164.931 188.581 164.744 189.537 164.744 190.704V200.014H159.284V181.184H164.499V186.399L163.519 184.824C164.196 183.564 165.164 182.596 166.424 181.919C167.684 181.242 169.119 180.904 170.729 180.904ZM192.58 200.294C190.573 200.294 188.788 199.874 187.225 199.034C185.685 198.194 184.46 197.051 183.55 195.604C182.663 194.134 182.22 192.466 182.22 190.599C182.22 188.709 182.663 187.041 183.55 185.594C184.46 184.124 185.685 182.981 187.225 182.164C188.788 181.324 190.573 180.904 192.58 180.904C194.563 180.904 196.337 181.324 197.9 182.164C199.463 182.981 200.688 184.112 201.575 185.559C202.462 187.006 202.905 188.686 202.905 190.599C202.905 192.466 202.462 194.134 201.575 195.604C200.688 197.051 199.463 198.194 197.9 199.034C196.337 199.874 194.563 200.294 192.58 200.294ZM192.58 195.814C193.49 195.814 194.307 195.604 195.03 195.184C195.753 194.764 196.325 194.169 196.745 193.399C197.165 192.606 197.375 191.672 197.375 190.599C197.375 189.502 197.165 188.569 196.745 187.799C196.325 187.029 195.753 186.434 195.03 186.014C194.307 185.594 193.49 185.384 192.58 185.384C191.67 185.384 190.853 185.594 190.13 186.014C189.407 186.434 188.823 187.029 188.38 187.799C187.96 188.569 187.75 189.502 187.75 190.599C187.75 191.672 187.96 192.606 188.38 193.399C188.823 194.169 189.407 194.764 190.13 195.184C190.853 195.604 191.67 195.814 192.58 195.814ZM230.67 180.904C232.163 180.904 233.481 181.207 234.625 181.814C235.791 182.397 236.701 183.307 237.355 184.544C238.031 185.757 238.37 187.321 238.37 189.234V200.014H232.91V190.074C232.91 188.557 232.595 187.437 231.965 186.714C231.335 185.991 230.448 185.629 229.305 185.629C228.511 185.629 227.8 185.816 227.17 186.189C226.54 186.539 226.05 187.076 225.7 187.799C225.35 188.522 225.175 189.444 225.175 190.564V200.014H219.715V190.074C219.715 188.557 219.4 187.437 218.77 186.714C218.163 185.991 217.288 185.629 216.145 185.629C215.351 185.629 214.64 185.816 214.01 186.189C213.38 186.539 212.89 187.076 212.54 187.799C212.19 188.522 212.015 189.444 212.015 190.564V200.014H206.555V181.184H211.77V186.329L210.79 184.824C211.443 183.541 212.365 182.572 213.555 181.919C214.768 181.242 216.145 180.904 217.685 180.904C219.411 180.904 220.916 181.347 222.2 182.234C223.506 183.097 224.37 184.427 224.79 186.224L222.865 185.699C223.495 184.229 224.498 183.062 225.875 182.199C227.275 181.336 228.873 180.904 230.67 180.904ZM245.302 207.084C244.322 207.084 243.354 206.932 242.397 206.629C241.44 206.326 240.659 205.906 240.052 205.369L242.047 201.484C242.467 201.857 242.945 202.149 243.482 202.359C244.042 202.569 244.59 202.674 245.127 202.674C245.897 202.674 246.504 202.487 246.947 202.114C247.414 201.764 247.834 201.169 248.207 200.329L249.187 198.019L249.607 197.424L256.362 181.184H261.612L253.107 201.169C252.5 202.686 251.8 203.876 251.007 204.739C250.237 205.602 249.374 206.209 248.417 206.559C247.484 206.909 246.445 207.084 245.302 207.084ZM248.522 200.749L240.122 181.184H245.757L252.267 196.934L248.522 200.749Z" fill="#333333"/>
</g>
<defs>
<clipPath id="clip0_167_109">
<rect width="345.497" height="345.497" fill="white" transform="translate(0.251221 0.383789)"/>
</clipPath>
</defs>
</svg>
