<svg width="2888" height="382" viewBox="0 0 2888 382" fill="none" xmlns="http://www.w3.org/2000/svg">
<g clip-path="url(#clip0_140_557)">
<mask id="mask0_140_557" style="mask-type:luminance" maskUnits="userSpaceOnUse" x="0" y="0" width="1444" height="382">
<path d="M1444 0H0V382H1444V0Z" fill="white"/>
</mask>
<g mask="url(#mask0_140_557)">
<mask id="mask1_140_557" style="mask-type:luminance" maskUnits="userSpaceOnUse" x="-2" y="0" width="1446" height="382">
<path d="M1444 0H-1.00342V382H1444V0Z" fill="white"/>
</mask>
<g mask="url(#mask1_140_557)">
<path d="M-4.01367 382V206.076L71.8296 206L72.2504 381.752" fill="#3B76EF"/>
<path d="M65.7268 381.753L65.2261 275.458L125.725 275L126.438 382C126.438 382 65.9271 381.857 65.7268 381.753Z" fill="#3B76EF"/>
<path d="M118.782 382V160.478L192.035 161.109L191.684 382" fill="#3B76EF"/>
<path d="M185.643 382L185.918 228.192L269.935 228L268.459 382" fill="#3B76EF"/>
<path d="M264.211 382L262.911 207.923L303.12 183L340.178 207.923L340.157 382" fill="#3B76EF"/>
<path d="M336.164 382L336.184 22H432.498L431.855 382" fill="#3B76EF"/>
<path d="M424.47 382L425.044 250.211L490.678 250L491.703 382" fill="#3B76EF"/>
<path d="M480.695 382V91.4985L577.149 91.5176L577.139 382" fill="#3B76EF"/>
<path d="M557.932 382L558.461 275H750.599L749.62 382" fill="#3B76EF"/>
<path d="M745.692 382L746.304 253.171L793.96 228.14L843.11 250.649L842.146 382" fill="#3B76EF"/>
<path d="M914.166 382L914.624 299.331L975.268 275L1037.59 298.665L1036.93 382" fill="#3B76EF"/>
<path d="M1028.27 382L1027.56 320L1299.39 320.336L1299.5 382" fill="#3B76EF"/>
<path d="M1293 382L1293.52 252H1450L1449.28 382" fill="#3B76EF"/>
<path d="M17.531 213.175H5.48926V224.635H17.531V213.175Z" fill="white"/>
<path d="M89.781 285.755H77.7393V297.215H89.781V285.755Z" fill="white"/>
<path d="M39.6076 213.175H27.5659V224.635H39.6076V213.175Z" fill="white"/>
<path d="M135.439 164.948H123.397V176.408H135.439V164.948Z" fill="white"/>
<path d="M135.439 181.66H123.397V193.12H135.439V181.66Z" fill="white"/>
<path d="M287.967 222.706H275.926V234.166H287.967V222.706Z" fill="white"/>
<path d="M287.967 241.099H275.926V252.559H287.967V241.099Z" fill="white"/>
<path d="M210.098 241.099H198.056V252.559H210.098V241.099Z" fill="white"/>
<path d="M227.498 241.099H215.456V252.559H227.498V241.099Z" fill="white"/>
<path d="M356.234 31H344.192V42.46H356.234V31Z" fill="white"/>
<path d="M450.269 259.779H438.228V271.239H450.269V259.779Z" fill="white"/>
<path d="M500.443 100.294H488.401V111.754H500.443V100.294Z" fill="white"/>
<path d="M524.527 100.294H512.485V111.754H524.527V100.294Z" fill="white"/>
<path d="M500.443 123.214H488.401V134.674H500.443V123.214Z" fill="white"/>
<path d="M647.482 287.932H635.44V299.392H647.482V287.932Z" fill="white"/>
<path d="M667.441 287.932H655.399V299.392H667.441V287.932Z" fill="white"/>
<path d="M687.581 287.932H675.54V299.392H687.581V287.932Z" fill="white"/>
<path d="M770.207 265.509H758.166V276.969H770.207V265.509Z" fill="white"/>
<path d="M937.787 311.282H925.746V322.742H937.787V311.282Z" fill="white"/>
<path d="M957.054 311.282H945.012V322.742H957.054V311.282Z" fill="white"/>
<path d="M1055.3 328.826H1043.26V340.286H1055.3V328.826Z" fill="white"/>
<path d="M1074.37 328.826H1062.33V340.286H1074.37V328.826Z" fill="white"/>
<path d="M1095.03 328.826H1082.99V340.286H1095.03V328.826Z" fill="white"/>
<path d="M1316.48 263.236H1304.44V274.696H1316.48V263.236Z" fill="white"/>
<path d="M1335.73 263.236H1323.68V274.696H1335.73V263.236Z" fill="white"/>
<path d="M1316.48 282.68H1304.44V294.14H1316.48V282.68Z" fill="white"/>
<path d="M790.277 265.509H778.235V276.969H790.277V265.509Z" fill="white"/>
<path d="M770.207 285.564H758.166V297.024H770.207V285.564Z" fill="white"/>
<path d="M770.207 305.619H758.166V317.079H770.207V305.619Z" fill="white"/>
<path d="M473.449 259.779H461.408V271.239H473.449V259.779Z" fill="white"/>
<path d="M381.321 31H369.279V42.46H381.321V31Z" fill="white"/>
</g>
</g>
<mask id="mask2_140_557" style="mask-type:luminance" maskUnits="userSpaceOnUse" x="1444" y="0" width="1444" height="382">
<path d="M2888 0H1444V382H2888V0Z" fill="white"/>
</mask>
<g mask="url(#mask2_140_557)">
<mask id="mask3_140_557" style="mask-type:luminance" maskUnits="userSpaceOnUse" x="1443" y="0" width="1445" height="382">
<path d="M2888 0H1443V382H2888V0Z" fill="white"/>
</mask>
<g mask="url(#mask3_140_557)">
<path d="M1439.99 382V206.076L1515.83 206L1516.25 381.752" fill="#3B76EF"/>
<path d="M1509.73 381.753L1509.23 275.458L1569.72 275L1570.44 382C1570.44 382 1509.93 381.857 1509.73 381.753Z" fill="#3B76EF"/>
<path d="M1562.78 382V160.478L1636.04 161.109L1635.68 382" fill="#3B76EF"/>
<path d="M1629.64 382L1629.92 228.192L1713.93 228L1712.46 382" fill="#3B76EF"/>
<path d="M1708.21 382L1706.91 207.923L1747.12 183L1784.18 207.923L1784.16 382" fill="#3B76EF"/>
<path d="M1780.16 382L1780.18 22H1876.5L1875.86 382" fill="#3B76EF"/>
<path d="M1868.47 382L1869.04 250.211L1934.68 250L1935.7 382" fill="#3B76EF"/>
<path d="M1924.69 382V91.4985L2021.15 91.5176L2021.14 382" fill="#3B76EF"/>
<path d="M2001.93 382L2002.46 275H2194.6L2193.62 382" fill="#3B76EF"/>
<path d="M2189.69 382L2190.3 253.171L2237.96 228.14L2287.11 250.649L2286.15 382" fill="#3B76EF"/>
<path d="M2358.17 382L2358.62 299.331L2419.27 275L2481.59 298.665L2480.93 382" fill="#3B76EF"/>
<path d="M2472.27 382L2471.56 320L2743.39 320.336L2743.5 382" fill="#3B76EF"/>
<path d="M2737.48 382L2738 252H2893.02L2892.31 382" fill="#3B76EF"/>
<path d="M1461.53 213.175H1449.49V224.635H1461.53V213.175Z" fill="white"/>
<path d="M1533.78 285.755H1521.74V297.215H1533.78V285.755Z" fill="white"/>
<path d="M1483.61 213.175H1471.57V224.635H1483.61V213.175Z" fill="white"/>
<path d="M1579.44 164.948H1567.4V176.408H1579.44V164.948Z" fill="white"/>
<path d="M1579.44 181.66H1567.4V193.12H1579.44V181.66Z" fill="white"/>
<path d="M1731.97 222.706H1719.93V234.166H1731.97V222.706Z" fill="white"/>
<path d="M1731.97 241.099H1719.93V252.559H1731.97V241.099Z" fill="white"/>
<path d="M1654.1 241.099H1642.06V252.559H1654.1V241.099Z" fill="white"/>
<path d="M1671.5 241.099H1659.46V252.559H1671.5V241.099Z" fill="white"/>
<path d="M1800.23 31H1788.19V42.46H1800.23V31Z" fill="white"/>
<path d="M1894.27 259.779H1882.23V271.239H1894.27V259.779Z" fill="white"/>
<path d="M1944.44 100.294H1932.4V111.754H1944.44V100.294Z" fill="white"/>
<path d="M1968.53 100.294H1956.48V111.754H1968.53V100.294Z" fill="white"/>
<path d="M1944.44 123.214H1932.4V134.674H1944.44V123.214Z" fill="white"/>
<path d="M2091.48 287.932H2079.44V299.392H2091.48V287.932Z" fill="white"/>
<path d="M2111.44 287.932H2099.4V299.392H2111.44V287.932Z" fill="white"/>
<path d="M2131.58 287.932H2119.54V299.392H2131.58V287.932Z" fill="white"/>
<path d="M2214.21 265.509H2202.17V276.969H2214.21V265.509Z" fill="white"/>
<path d="M2381.79 311.282H2369.75V322.742H2381.79V311.282Z" fill="white"/>
<path d="M2401.05 311.282H2389.01V322.742H2401.05V311.282Z" fill="white"/>
<path d="M2499.3 328.826H2487.26V340.286H2499.3V328.826Z" fill="white"/>
<path d="M2518.37 328.826H2506.33V340.286H2518.37V328.826Z" fill="white"/>
<path d="M2539.03 328.826H2526.99V340.286H2539.03V328.826Z" fill="white"/>
<path d="M2760.48 263.236H2748.44V274.696H2760.48V263.236Z" fill="white"/>
<path d="M2779.73 263.236H2767.68V274.696H2779.73V263.236Z" fill="white"/>
<path d="M2760.48 282.68H2748.44V294.14H2760.48V282.68Z" fill="white"/>
<path d="M2234.28 265.509H2222.23V276.969H2234.28V265.509Z" fill="white"/>
<path d="M2214.21 285.564H2202.17V297.024H2214.21V285.564Z" fill="white"/>
<path d="M2214.21 305.619H2202.17V317.079H2214.21V305.619Z" fill="white"/>
<path d="M1917.45 259.779H1905.41V271.239H1917.45V259.779Z" fill="white"/>
<path d="M1825.32 31H1813.28V42.46H1825.32V31Z" fill="white"/>
</g>
</g>
</g>
<defs>
<clipPath id="clip0_140_557">
<rect width="2888" height="382" fill="white"/>
</clipPath>
</defs>
</svg>
