<svg width="546" height="546" viewBox="0 0 546 546" fill="none" xmlns="http://www.w3.org/2000/svg">
<path d="M279.091 25.3414C369.569 27.5373 451.627 78.9505 493.076 159.397C530.503 232.243 529.458 318.891 490.284 390.815L426.71 385.885L387.722 324.622C403.612 289.6 402.636 249.238 385.065 215.031C363.436 173.071 320.157 146.724 272.953 146.774L305.921 83.5153L278.097 25.3596C278.428 25.3511 278.76 25.3426 279.091 25.3414Z" fill="#59D294" stroke="white" stroke-width="50" stroke-miterlimit="10"/>
<path d="M266.773 25.6533L294.188 82.9586L260.598 147.405C244.822 148.964 229.482 153.489 215.387 160.741C153.54 192.605 129.231 268.572 161.088 330.42C162.058 332.195 163.078 333.945 164.134 335.671L92.8783 338.747L56.3984 391.963C55.2654 390.012 54.1684 388.044 53.0855 386.061C-9.50576 264.568 38.2457 115.337 159.746 52.7454C192.92 35.769 229.509 26.5102 266.773 25.6533Z" fill="#59D294" stroke="white" stroke-width="50" stroke-miterlimit="10"/>
<path d="M382.079 335.628L420.357 395.768L484.627 400.753C461.008 439.89 427.02 471.717 386.415 492.714C271.217 552.04 129.757 512.453 62.0749 401.961L98.2593 349.194L170.84 346.062C207.214 396.789 275.247 413.235 330.774 384.719C352.227 373.612 370.033 356.569 382.079 335.628Z" fill="#59D294" stroke="white" stroke-width="50" stroke-miterlimit="10"/>
</svg>
