<svg width="513" height="98" viewBox="0 0 513 98" fill="none" xmlns="http://www.w3.org/2000/svg">
<rect width="513" height="98" rx="12" fill="white"/>
<path d="M94.26 31V22.6H95.46V31H94.26ZM101.203 24.58C101.723 24.58 102.179 24.68 102.571 24.88C102.971 25.08 103.283 25.384 103.507 25.792C103.731 26.2 103.843 26.716 103.843 27.34V31H102.691V27.472C102.691 26.856 102.539 26.392 102.235 26.08C101.939 25.768 101.519 25.612 100.975 25.612C100.567 25.612 100.211 25.692 99.9068 25.852C99.6028 26.012 99.3668 26.248 99.1988 26.56C99.0388 26.872 98.9588 27.26 98.9588 27.724V31H97.8068V24.64H98.9108V26.356L98.7308 25.9C98.9388 25.484 99.2588 25.16 99.6908 24.928C100.123 24.696 100.627 24.58 101.203 24.58ZM107.799 31.072C107.271 31.072 106.767 31 106.287 30.856C105.815 30.712 105.443 30.536 105.171 30.328L105.651 29.416C105.923 29.6 106.259 29.756 106.659 29.884C107.059 30.012 107.467 30.076 107.883 30.076C108.419 30.076 108.803 30 109.035 29.848C109.275 29.696 109.395 29.484 109.395 29.212C109.395 29.012 109.323 28.856 109.179 28.744C109.035 28.632 108.843 28.548 108.603 28.492C108.371 28.436 108.111 28.388 107.823 28.348C107.535 28.3 107.247 28.244 106.959 28.18C106.671 28.108 106.407 28.012 106.167 27.892C105.927 27.764 105.735 27.592 105.591 27.376C105.447 27.152 105.375 26.856 105.375 26.488C105.375 26.104 105.483 25.768 105.699 25.48C105.915 25.192 106.219 24.972 106.611 24.82C107.011 24.66 107.483 24.58 108.027 24.58C108.443 24.58 108.863 24.632 109.287 24.736C109.719 24.832 110.071 24.972 110.343 25.156L109.851 26.068C109.563 25.876 109.263 25.744 108.951 25.672C108.639 25.6 108.327 25.564 108.015 25.564C107.511 25.564 107.135 25.648 106.887 25.816C106.639 25.976 106.515 26.184 106.515 26.44C106.515 26.656 106.587 26.824 106.731 26.944C106.883 27.056 107.075 27.144 107.307 27.208C107.547 27.272 107.811 27.328 108.099 27.376C108.387 27.416 108.675 27.472 108.963 27.544C109.251 27.608 109.511 27.7 109.743 27.82C109.983 27.94 110.175 28.108 110.319 28.324C110.471 28.54 110.547 28.828 110.547 29.188C110.547 29.572 110.435 29.904 110.211 30.184C109.987 30.464 109.671 30.684 109.263 30.844C108.855 30.996 108.367 31.072 107.799 31.072ZM111.987 31V24.64H113.139V31H111.987ZM112.563 23.416C112.339 23.416 112.151 23.344 111.999 23.2C111.855 23.056 111.783 22.88 111.783 22.672C111.783 22.456 111.855 22.276 111.999 22.132C112.151 21.988 112.339 21.916 112.563 21.916C112.787 21.916 112.971 21.988 113.115 22.132C113.267 22.268 113.343 22.44 113.343 22.648C113.343 22.864 113.271 23.048 113.127 23.2C112.983 23.344 112.795 23.416 112.563 23.416ZM118.122 33.4C117.538 33.4 116.97 33.316 116.418 33.148C115.874 32.988 115.43 32.756 115.086 32.452L115.638 31.564C115.934 31.82 116.298 32.02 116.73 32.164C117.162 32.316 117.614 32.392 118.086 32.392C118.838 32.392 119.39 32.216 119.742 31.864C120.094 31.512 120.27 30.976 120.27 30.256V28.912L120.39 27.652L120.33 26.38V24.64H121.422V30.136C121.422 31.256 121.142 32.08 120.582 32.608C120.022 33.136 119.202 33.4 118.122 33.4ZM117.978 30.736C117.362 30.736 116.81 30.608 116.322 30.352C115.842 30.088 115.458 29.724 115.17 29.26C114.89 28.796 114.75 28.26 114.75 27.652C114.75 27.036 114.89 26.5 115.17 26.044C115.458 25.58 115.842 25.22 116.322 24.964C116.81 24.708 117.362 24.58 117.978 24.58C118.522 24.58 119.018 24.692 119.466 24.916C119.914 25.132 120.27 25.468 120.534 25.924C120.806 26.38 120.942 26.956 120.942 27.652C120.942 28.34 120.806 28.912 120.534 29.368C120.27 29.824 119.914 30.168 119.466 30.4C119.018 30.624 118.522 30.736 117.978 30.736ZM118.11 29.728C118.534 29.728 118.91 29.64 119.238 29.464C119.566 29.288 119.822 29.044 120.006 28.732C120.198 28.42 120.294 28.06 120.294 27.652C120.294 27.244 120.198 26.884 120.006 26.572C119.822 26.26 119.566 26.02 119.238 25.852C118.91 25.676 118.534 25.588 118.11 25.588C117.686 25.588 117.306 25.676 116.97 25.852C116.642 26.02 116.382 26.26 116.19 26.572C116.006 26.884 115.914 27.244 115.914 27.652C115.914 28.06 116.006 28.42 116.19 28.732C116.382 29.044 116.642 29.288 116.97 29.464C117.306 29.64 117.686 29.728 118.11 29.728ZM127.019 24.58C127.539 24.58 127.995 24.68 128.387 24.88C128.787 25.08 129.099 25.384 129.323 25.792C129.547 26.2 129.659 26.716 129.659 27.34V31H128.507V27.472C128.507 26.856 128.355 26.392 128.051 26.08C127.755 25.768 127.335 25.612 126.791 25.612C126.383 25.612 126.027 25.692 125.723 25.852C125.419 26.012 125.183 26.248 125.015 26.56C124.855 26.872 124.775 27.26 124.775 27.724V31H123.623V22.096H124.775V26.356L124.547 25.9C124.755 25.484 125.075 25.16 125.507 24.928C125.939 24.696 126.443 24.58 127.019 24.58ZM133.975 31.072C133.335 31.072 132.839 30.9 132.487 30.556C132.135 30.212 131.959 29.72 131.959 29.08V23.248H133.111V29.032C133.111 29.376 133.195 29.64 133.363 29.824C133.539 30.008 133.787 30.1 134.107 30.1C134.467 30.1 134.767 30 135.007 29.8L135.367 30.628C135.191 30.78 134.979 30.892 134.731 30.964C134.491 31.036 134.239 31.072 133.975 31.072ZM130.879 25.588V24.64H134.935V25.588H130.879Z" fill="#3B76EF"/>
<path d="M94.41 49V38.5H96.015L100.605 46.165H99.765L104.28 38.5H105.885L105.9 49H104.055L104.04 41.395H104.43L100.59 47.8H99.72L95.82 41.395H96.27V49H94.41ZM111.946 49.105C111.266 49.105 110.666 48.98 110.146 48.73C109.626 48.47 109.221 48.08 108.931 47.56C108.641 47.03 108.496 46.365 108.496 45.565V40.99H110.371V45.31C110.371 46.03 110.531 46.57 110.851 46.93C111.181 47.28 111.646 47.455 112.246 47.455C112.686 47.455 113.066 47.365 113.386 47.185C113.716 47.005 113.971 46.735 114.151 46.375C114.341 46.015 114.436 45.57 114.436 45.04V40.99H116.311V49H114.526V46.84L114.841 47.5C114.571 48.02 114.176 48.42 113.656 48.7C113.136 48.97 112.566 49.105 111.946 49.105ZM118.766 49V37.87H120.641V49H118.766ZM126.513 49.105C125.633 49.105 124.953 48.88 124.473 48.43C123.993 47.97 123.753 47.295 123.753 46.405V39.22H125.628V46.36C125.628 46.74 125.723 47.035 125.913 47.245C126.113 47.455 126.388 47.56 126.738 47.56C127.158 47.56 127.508 47.45 127.788 47.23L128.313 48.565C128.093 48.745 127.823 48.88 127.503 48.97C127.183 49.06 126.853 49.105 126.513 49.105ZM122.433 42.55V41.05H127.773V42.55H122.433ZM129.855 49V40.99H131.73V49H129.855ZM130.8 39.67C130.45 39.67 130.16 39.56 129.93 39.34C129.71 39.12 129.6 38.855 129.6 38.545C129.6 38.225 129.71 37.96 129.93 37.75C130.16 37.53 130.45 37.42 130.8 37.42C131.15 37.42 131.435 37.525 131.655 37.735C131.885 37.935 132 38.19 132 38.5C132 38.83 131.89 39.11 131.67 39.34C131.45 39.56 131.16 39.67 130.8 39.67ZM138.631 49.105C137.981 49.105 137.386 48.955 136.846 48.655C136.316 48.355 135.891 47.905 135.571 47.305C135.261 46.695 135.106 45.925 135.106 44.995C135.106 44.055 135.256 43.285 135.556 42.685C135.866 42.085 136.286 41.64 136.816 41.35C137.346 41.05 137.951 40.9 138.631 40.9C139.421 40.9 140.116 41.07 140.716 41.41C141.326 41.75 141.806 42.225 142.156 42.835C142.516 43.445 142.696 44.165 142.696 44.995C142.696 45.825 142.516 46.55 142.156 47.17C141.806 47.78 141.326 48.255 140.716 48.595C140.116 48.935 139.421 49.105 138.631 49.105ZM134.191 51.91V40.99H135.976V42.88L135.916 45.01L136.066 47.14V51.91H134.191ZM138.421 47.5C138.871 47.5 139.271 47.4 139.621 47.2C139.981 47 140.266 46.71 140.476 46.33C140.686 45.95 140.791 45.505 140.791 44.995C140.791 44.475 140.686 44.03 140.476 43.66C140.266 43.28 139.981 42.99 139.621 42.79C139.271 42.59 138.871 42.49 138.421 42.49C137.971 42.49 137.566 42.59 137.206 42.79C136.846 42.99 136.561 43.28 136.351 43.66C136.141 44.03 136.036 44.475 136.036 44.995C136.036 45.505 136.141 45.95 136.351 46.33C136.561 46.71 136.846 47 137.206 47.2C137.566 47.4 137.971 47.5 138.421 47.5ZM144.474 49V37.87H146.349V49H144.474ZM152.575 49.105C151.685 49.105 150.905 48.93 150.235 48.58C149.575 48.22 149.06 47.73 148.69 47.11C148.33 46.49 148.15 45.785 148.15 44.995C148.15 44.195 148.325 43.49 148.675 42.88C149.035 42.26 149.525 41.775 150.145 41.425C150.775 41.075 151.49 40.9 152.29 40.9C153.07 40.9 153.765 41.07 154.375 41.41C154.985 41.75 155.465 42.23 155.815 42.85C156.165 43.47 156.34 44.2 156.34 45.04C156.34 45.12 156.335 45.21 156.325 45.31C156.325 45.41 156.32 45.505 156.31 45.595H149.635V44.35H155.32L154.585 44.74C154.595 44.28 154.5 43.875 154.3 43.525C154.1 43.175 153.825 42.9 153.475 42.7C153.135 42.5 152.74 42.4 152.29 42.4C151.83 42.4 151.425 42.5 151.075 42.7C150.735 42.9 150.465 43.18 150.265 43.54C150.075 43.89 149.98 44.305 149.98 44.785V45.085C149.98 45.565 150.09 45.99 150.31 46.36C150.53 46.73 150.84 47.015 151.24 47.215C151.64 47.415 152.1 47.515 152.62 47.515C153.07 47.515 153.475 47.445 153.835 47.305C154.195 47.165 154.515 46.945 154.795 46.645L155.8 47.8C155.44 48.22 154.985 48.545 154.435 48.775C153.895 48.995 153.275 49.105 152.575 49.105ZM172.397 40.9C173.037 40.9 173.602 41.025 174.092 41.275C174.592 41.525 174.982 41.91 175.262 42.43C175.542 42.94 175.682 43.6 175.682 44.41V49H173.807V44.65C173.807 43.94 173.652 43.41 173.342 43.06C173.032 42.71 172.587 42.535 172.007 42.535C171.597 42.535 171.232 42.625 170.912 42.805C170.602 42.985 170.357 43.25 170.177 43.6C170.007 43.95 169.922 44.395 169.922 44.935V49H168.047V44.65C168.047 43.94 167.892 43.41 167.582 43.06C167.272 42.71 166.827 42.535 166.247 42.535C165.837 42.535 165.472 42.625 165.152 42.805C164.842 42.985 164.597 43.25 164.417 43.6C164.247 43.95 164.162 44.395 164.162 44.935V49H162.287V40.99H164.072V43.12L163.757 42.49C164.027 41.97 164.417 41.575 164.927 41.305C165.447 41.035 166.037 40.9 166.697 40.9C167.447 40.9 168.097 41.085 168.647 41.455C169.207 41.825 169.577 42.385 169.757 43.135L169.022 42.88C169.282 42.28 169.712 41.8 170.312 41.44C170.912 41.08 171.607 40.9 172.397 40.9ZM183.013 49V47.38L182.908 47.035V44.2C182.908 43.65 182.743 43.225 182.413 42.925C182.083 42.615 181.583 42.46 180.913 42.46C180.463 42.46 180.018 42.53 179.578 42.67C179.148 42.81 178.783 43.005 178.483 43.255L177.748 41.89C178.178 41.56 178.688 41.315 179.278 41.155C179.878 40.985 180.498 40.9 181.138 40.9C182.298 40.9 183.193 41.18 183.823 41.74C184.463 42.29 184.783 43.145 184.783 44.305V49H183.013ZM180.493 49.105C179.893 49.105 179.368 49.005 178.918 48.805C178.468 48.595 178.118 48.31 177.868 47.95C177.628 47.58 177.508 47.165 177.508 46.705C177.508 46.255 177.613 45.85 177.823 45.49C178.043 45.13 178.398 44.845 178.888 44.635C179.378 44.425 180.028 44.32 180.838 44.32H183.163V45.565H180.973C180.333 45.565 179.903 45.67 179.683 45.88C179.463 46.08 179.353 46.33 179.353 46.63C179.353 46.97 179.488 47.24 179.758 47.44C180.028 47.64 180.403 47.74 180.883 47.74C181.343 47.74 181.753 47.635 182.113 47.425C182.483 47.215 182.748 46.905 182.908 46.495L183.223 47.62C183.043 48.09 182.718 48.455 182.248 48.715C181.788 48.975 181.203 49.105 180.493 49.105ZM187.189 49V40.99H189.064V49H187.189ZM188.134 39.67C187.784 39.67 187.494 39.56 187.264 39.34C187.044 39.12 186.934 38.855 186.934 38.545C186.934 38.225 187.044 37.96 187.264 37.75C187.494 37.53 187.784 37.42 188.134 37.42C188.484 37.42 188.769 37.525 188.989 37.735C189.219 37.935 189.334 38.19 189.334 38.5C189.334 38.83 189.224 39.11 189.004 39.34C188.784 39.56 188.494 39.67 188.134 39.67ZM196.07 40.9C196.71 40.9 197.28 41.025 197.78 41.275C198.29 41.525 198.69 41.91 198.98 42.43C199.27 42.94 199.415 43.6 199.415 44.41V49H197.54V44.65C197.54 43.94 197.37 43.41 197.03 43.06C196.7 42.71 196.235 42.535 195.635 42.535C195.195 42.535 194.805 42.625 194.465 42.805C194.125 42.985 193.86 43.255 193.67 43.615C193.49 43.965 193.4 44.41 193.4 44.95V49H191.525V40.99H193.31V43.15L192.995 42.49C193.275 41.98 193.68 41.59 194.21 41.32C194.75 41.04 195.37 40.9 196.07 40.9ZM204.808 49.105C203.928 49.105 203.248 48.88 202.768 48.43C202.288 47.97 202.048 47.295 202.048 46.405V39.22H203.923V46.36C203.923 46.74 204.018 47.035 204.208 47.245C204.408 47.455 204.683 47.56 205.033 47.56C205.453 47.56 205.803 47.45 206.083 47.23L206.608 48.565C206.388 48.745 206.118 48.88 205.798 48.97C205.478 49.06 205.148 49.105 204.808 49.105ZM200.728 42.55V41.05H206.068V42.55H200.728ZM211.652 49.105C210.762 49.105 209.982 48.93 209.312 48.58C208.652 48.22 208.137 47.73 207.767 47.11C207.407 46.49 207.227 45.785 207.227 44.995C207.227 44.195 207.402 43.49 207.752 42.88C208.112 42.26 208.602 41.775 209.222 41.425C209.852 41.075 210.567 40.9 211.367 40.9C212.147 40.9 212.842 41.07 213.452 41.41C214.062 41.75 214.542 42.23 214.892 42.85C215.242 43.47 215.417 44.2 215.417 45.04C215.417 45.12 215.412 45.21 215.402 45.31C215.402 45.41 215.397 45.505 215.387 45.595H208.712V44.35H214.397L213.662 44.74C213.672 44.28 213.577 43.875 213.377 43.525C213.177 43.175 212.902 42.9 212.552 42.7C212.212 42.5 211.817 42.4 211.367 42.4C210.907 42.4 210.502 42.5 210.152 42.7C209.812 42.9 209.542 43.18 209.342 43.54C209.152 43.89 209.057 44.305 209.057 44.785V45.085C209.057 45.565 209.167 45.99 209.387 46.36C209.607 46.73 209.917 47.015 210.317 47.215C210.717 47.415 211.177 47.515 211.697 47.515C212.147 47.515 212.552 47.445 212.912 47.305C213.272 47.165 213.592 46.945 213.872 46.645L214.877 47.8C214.517 48.22 214.062 48.545 213.512 48.775C212.972 48.995 212.352 49.105 211.652 49.105ZM221.763 40.9C222.403 40.9 222.973 41.025 223.473 41.275C223.983 41.525 224.383 41.91 224.673 42.43C224.963 42.94 225.108 43.6 225.108 44.41V49H223.233V44.65C223.233 43.94 223.063 43.41 222.723 43.06C222.393 42.71 221.928 42.535 221.328 42.535C220.888 42.535 220.498 42.625 220.158 42.805C219.818 42.985 219.553 43.255 219.363 43.615C219.183 43.965 219.093 44.41 219.093 44.95V49H217.218V40.99H219.003V43.15L218.688 42.49C218.968 41.98 219.373 41.59 219.903 41.32C220.443 41.04 221.063 40.9 221.763 40.9ZM232.422 49V47.38L232.317 47.035V44.2C232.317 43.65 232.152 43.225 231.822 42.925C231.492 42.615 230.992 42.46 230.322 42.46C229.872 42.46 229.427 42.53 228.987 42.67C228.557 42.81 228.192 43.005 227.892 43.255L227.157 41.89C227.587 41.56 228.097 41.315 228.687 41.155C229.287 40.985 229.907 40.9 230.547 40.9C231.707 40.9 232.602 41.18 233.232 41.74C233.872 42.29 234.192 43.145 234.192 44.305V49H232.422ZM229.902 49.105C229.302 49.105 228.777 49.005 228.327 48.805C227.877 48.595 227.527 48.31 227.277 47.95C227.037 47.58 226.917 47.165 226.917 46.705C226.917 46.255 227.022 45.85 227.232 45.49C227.452 45.13 227.807 44.845 228.297 44.635C228.787 44.425 229.437 44.32 230.247 44.32H232.572V45.565H230.382C229.742 45.565 229.312 45.67 229.092 45.88C228.872 46.08 228.762 46.33 228.762 46.63C228.762 46.97 228.897 47.24 229.167 47.44C229.437 47.64 229.812 47.74 230.292 47.74C230.752 47.74 231.162 47.635 231.522 47.425C231.892 47.215 232.157 46.905 232.317 46.495L232.632 47.62C232.452 48.09 232.127 48.455 231.657 48.715C231.197 48.975 230.612 49.105 229.902 49.105ZM241.143 40.9C241.783 40.9 242.353 41.025 242.853 41.275C243.363 41.525 243.763 41.91 244.053 42.43C244.343 42.94 244.488 43.6 244.488 44.41V49H242.613V44.65C242.613 43.94 242.443 43.41 242.103 43.06C241.773 42.71 241.308 42.535 240.708 42.535C240.268 42.535 239.878 42.625 239.538 42.805C239.198 42.985 238.933 43.255 238.743 43.615C238.563 43.965 238.473 44.41 238.473 44.95V49H236.598V40.99H238.383V43.15L238.068 42.49C238.348 41.98 238.753 41.59 239.283 41.32C239.823 41.04 240.443 40.9 241.143 40.9ZM250.556 49.105C249.716 49.105 248.966 48.93 248.306 48.58C247.656 48.22 247.146 47.73 246.776 47.11C246.406 46.49 246.221 45.785 246.221 44.995C246.221 44.195 246.406 43.49 246.776 42.88C247.146 42.26 247.656 41.775 248.306 41.425C248.966 41.075 249.716 40.9 250.556 40.9C251.336 40.9 252.021 41.06 252.611 41.38C253.211 41.69 253.666 42.15 253.976 42.76L252.536 43.6C252.296 43.22 252.001 42.94 251.651 42.76C251.311 42.58 250.941 42.49 250.541 42.49C250.081 42.49 249.666 42.59 249.296 42.79C248.926 42.99 248.636 43.28 248.426 43.66C248.216 44.03 248.111 44.475 248.111 44.995C248.111 45.515 248.216 45.965 248.426 46.345C248.636 46.715 248.926 47 249.296 47.2C249.666 47.4 250.081 47.5 250.541 47.5C250.941 47.5 251.311 47.41 251.651 47.23C252.001 47.05 252.296 46.77 252.536 46.39L253.976 47.23C253.666 47.83 253.211 48.295 252.611 48.625C252.021 48.945 251.336 49.105 250.556 49.105ZM259.245 49.105C258.355 49.105 257.575 48.93 256.905 48.58C256.245 48.22 255.73 47.73 255.36 47.11C255 46.49 254.82 45.785 254.82 44.995C254.82 44.195 254.995 43.49 255.345 42.88C255.705 42.26 256.195 41.775 256.815 41.425C257.445 41.075 258.16 40.9 258.96 40.9C259.74 40.9 260.435 41.07 261.045 41.41C261.655 41.75 262.135 42.23 262.485 42.85C262.835 43.47 263.01 44.2 263.01 45.04C263.01 45.12 263.005 45.21 262.995 45.31C262.995 45.41 262.99 45.505 262.98 45.595H256.305V44.35H261.99L261.255 44.74C261.265 44.28 261.17 43.875 260.97 43.525C260.77 43.175 260.495 42.9 260.145 42.7C259.805 42.5 259.41 42.4 258.96 42.4C258.5 42.4 258.095 42.5 257.745 42.7C257.405 42.9 257.135 43.18 256.935 43.54C256.745 43.89 256.65 44.305 256.65 44.785V45.085C256.65 45.565 256.76 45.99 256.98 46.36C257.2 46.73 257.51 47.015 257.91 47.215C258.31 47.415 258.77 47.515 259.29 47.515C259.74 47.515 260.145 47.445 260.505 47.305C260.865 47.165 261.185 46.945 261.465 46.645L262.47 47.8C262.11 48.22 261.655 48.545 261.105 48.775C260.565 48.995 259.945 49.105 259.245 49.105ZM273.397 49.105C272.747 49.105 272.152 48.955 271.612 48.655C271.082 48.355 270.657 47.905 270.337 47.305C270.027 46.695 269.872 45.925 269.872 44.995C269.872 44.055 270.022 43.285 270.322 42.685C270.632 42.085 271.052 41.64 271.582 41.35C272.112 41.05 272.717 40.9 273.397 40.9C274.187 40.9 274.882 41.07 275.482 41.41C276.092 41.75 276.572 42.225 276.922 42.835C277.282 43.445 277.462 44.165 277.462 44.995C277.462 45.825 277.282 46.55 276.922 47.17C276.572 47.78 276.092 48.255 275.482 48.595C274.882 48.935 274.187 49.105 273.397 49.105ZM268.957 51.91V40.99H270.742V42.88L270.682 45.01L270.832 47.14V51.91H268.957ZM273.187 47.5C273.637 47.5 274.037 47.4 274.387 47.2C274.747 47 275.032 46.71 275.242 46.33C275.452 45.95 275.557 45.505 275.557 44.995C275.557 44.475 275.452 44.03 275.242 43.66C275.032 43.28 274.747 42.99 274.387 42.79C274.037 42.59 273.637 42.49 273.187 42.49C272.737 42.49 272.332 42.59 271.972 42.79C271.612 42.99 271.327 43.28 271.117 43.66C270.907 44.03 270.802 44.475 270.802 44.995C270.802 45.505 270.907 45.95 271.117 46.33C271.327 46.71 271.612 47 271.972 47.2C272.332 47.4 272.737 47.5 273.187 47.5ZM279.24 49V40.99H281.025V43.195L280.815 42.55C281.055 42.01 281.43 41.6 281.94 41.32C282.46 41.04 283.105 40.9 283.875 40.9V42.685C283.795 42.665 283.72 42.655 283.65 42.655C283.58 42.645 283.51 42.64 283.44 42.64C282.73 42.64 282.165 42.85 281.745 43.27C281.325 43.68 281.115 44.295 281.115 45.115V49H279.24ZM288.992 49.105C288.172 49.105 287.442 48.93 286.802 48.58C286.162 48.22 285.657 47.73 285.287 47.11C284.917 46.49 284.732 45.785 284.732 44.995C284.732 44.195 284.917 43.49 285.287 42.88C285.657 42.26 286.162 41.775 286.802 41.425C287.442 41.075 288.172 40.9 288.992 40.9C289.822 40.9 290.557 41.075 291.197 41.425C291.847 41.775 292.352 42.255 292.712 42.865C293.082 43.475 293.267 44.185 293.267 44.995C293.267 45.785 293.082 46.49 292.712 47.11C292.352 47.73 291.847 48.22 291.197 48.58C290.557 48.93 289.822 49.105 288.992 49.105ZM288.992 47.5C289.452 47.5 289.862 47.4 290.222 47.2C290.582 47 290.862 46.71 291.062 46.33C291.272 45.95 291.377 45.505 291.377 44.995C291.377 44.475 291.272 44.03 291.062 43.66C290.862 43.28 290.582 42.99 290.222 42.79C289.862 42.59 289.457 42.49 289.007 42.49C288.547 42.49 288.137 42.59 287.777 42.79C287.427 42.99 287.147 43.28 286.937 43.66C286.727 44.03 286.622 44.475 286.622 44.995C286.622 45.505 286.727 45.95 286.937 46.33C287.147 46.71 287.427 47 287.777 47.2C288.137 47.4 288.542 47.5 288.992 47.5ZM296.97 49L293.535 40.99H295.485L298.44 48.055H297.48L300.54 40.99H302.34L298.905 49H296.97ZM303.512 49V40.99H305.387V49H303.512ZM304.457 39.67C304.107 39.67 303.817 39.56 303.587 39.34C303.367 39.12 303.257 38.855 303.257 38.545C303.257 38.225 303.367 37.96 303.587 37.75C303.817 37.53 304.107 37.42 304.457 37.42C304.807 37.42 305.092 37.525 305.312 37.735C305.542 37.935 305.657 38.19 305.657 38.5C305.657 38.83 305.547 39.11 305.327 39.34C305.107 39.56 304.817 39.67 304.457 39.67ZM311.238 49.105C310.468 49.105 309.773 48.935 309.153 48.595C308.543 48.245 308.063 47.765 307.713 47.155C307.363 46.545 307.188 45.825 307.188 44.995C307.188 44.165 307.363 43.445 307.713 42.835C308.063 42.225 308.543 41.75 309.153 41.41C309.773 41.07 310.468 40.9 311.238 40.9C311.908 40.9 312.508 41.05 313.038 41.35C313.568 41.64 313.988 42.085 314.298 42.685C314.608 43.285 314.763 44.055 314.763 44.995C314.763 45.925 314.613 46.695 314.313 47.305C314.013 47.905 313.598 48.355 313.068 48.655C312.538 48.955 311.928 49.105 311.238 49.105ZM311.463 47.5C311.913 47.5 312.313 47.4 312.663 47.2C313.023 47 313.308 46.71 313.518 46.33C313.738 45.95 313.848 45.505 313.848 44.995C313.848 44.475 313.738 44.03 313.518 43.66C313.308 43.28 313.023 42.99 312.663 42.79C312.313 42.59 311.913 42.49 311.463 42.49C311.013 42.49 310.608 42.59 310.248 42.79C309.898 42.99 309.613 43.28 309.393 43.66C309.183 44.03 309.078 44.475 309.078 44.995C309.078 45.505 309.183 45.95 309.393 46.33C309.613 46.71 309.898 47 310.248 47.2C310.608 47.4 311.013 47.5 311.463 47.5ZM313.893 49V47.11L313.968 44.98L313.818 42.85V37.87H315.678V49H313.893ZM321.911 49.105C321.021 49.105 320.241 48.93 319.571 48.58C318.911 48.22 318.396 47.73 318.026 47.11C317.666 46.49 317.486 45.785 317.486 44.995C317.486 44.195 317.661 43.49 318.011 42.88C318.371 42.26 318.861 41.775 319.481 41.425C320.111 41.075 320.826 40.9 321.626 40.9C322.406 40.9 323.101 41.07 323.711 41.41C324.321 41.75 324.801 42.23 325.151 42.85C325.501 43.47 325.676 44.2 325.676 45.04C325.676 45.12 325.671 45.21 325.661 45.31C325.661 45.41 325.656 45.505 325.646 45.595H318.971V44.35H324.656L323.921 44.74C323.931 44.28 323.836 43.875 323.636 43.525C323.436 43.175 323.161 42.9 322.811 42.7C322.471 42.5 322.076 42.4 321.626 42.4C321.166 42.4 320.761 42.5 320.411 42.7C320.071 42.9 319.801 43.18 319.601 43.54C319.411 43.89 319.316 44.305 319.316 44.785V45.085C319.316 45.565 319.426 45.99 319.646 46.36C319.866 46.73 320.176 47.015 320.576 47.215C320.976 47.415 321.436 47.515 321.956 47.515C322.406 47.515 322.811 47.445 323.171 47.305C323.531 47.165 323.851 46.945 324.131 46.645L325.136 47.8C324.776 48.22 324.321 48.545 323.771 48.775C323.231 48.995 322.611 49.105 321.911 49.105ZM327.477 49V40.99H329.262V43.195L329.052 42.55C329.292 42.01 329.667 41.6 330.177 41.32C330.697 41.04 331.342 40.9 332.112 40.9V42.685C332.032 42.665 331.957 42.655 331.887 42.655C331.817 42.645 331.747 42.64 331.677 42.64C330.967 42.64 330.402 42.85 329.982 43.27C329.562 43.68 329.352 44.295 329.352 45.115V49H327.477ZM336.251 49.105C335.581 49.105 334.936 49.02 334.316 48.85C333.706 48.67 333.221 48.455 332.861 48.205L333.581 46.78C333.941 47.01 334.371 47.2 334.871 47.35C335.371 47.5 335.871 47.575 336.371 47.575C336.961 47.575 337.386 47.495 337.646 47.335C337.916 47.175 338.051 46.96 338.051 46.69C338.051 46.47 337.961 46.305 337.781 46.195C337.601 46.075 337.366 45.985 337.076 45.925C336.786 45.865 336.461 45.81 336.101 45.76C335.751 45.71 335.396 45.645 335.036 45.565C334.686 45.475 334.366 45.35 334.076 45.19C333.786 45.02 333.551 44.795 333.371 44.515C333.191 44.235 333.101 43.865 333.101 43.405C333.101 42.895 333.246 42.455 333.536 42.085C333.826 41.705 334.231 41.415 334.751 41.215C335.281 41.005 335.906 40.9 336.626 40.9C337.166 40.9 337.711 40.96 338.261 41.08C338.811 41.2 339.266 41.37 339.626 41.59L338.906 43.015C338.526 42.785 338.141 42.63 337.751 42.55C337.371 42.46 336.991 42.415 336.611 42.415C336.041 42.415 335.616 42.5 335.336 42.67C335.066 42.84 334.931 43.055 334.931 43.315C334.931 43.555 335.021 43.735 335.201 43.855C335.381 43.975 335.616 44.07 335.906 44.14C336.196 44.21 336.516 44.27 336.866 44.32C337.226 44.36 337.581 44.425 337.931 44.515C338.281 44.605 338.601 44.73 338.891 44.89C339.191 45.04 339.431 45.255 339.611 45.535C339.791 45.815 339.881 46.18 339.881 46.63C339.881 47.13 339.731 47.565 339.431 47.935C339.141 48.305 338.726 48.595 338.186 48.805C337.646 49.005 337.001 49.105 336.251 49.105ZM345.641 49V40.99H347.516V49H345.641ZM346.586 39.67C346.236 39.67 345.946 39.56 345.716 39.34C345.496 39.12 345.386 38.855 345.386 38.545C345.386 38.225 345.496 37.96 345.716 37.75C345.946 37.53 346.236 37.42 346.586 37.42C346.936 37.42 347.221 37.525 347.441 37.735C347.671 37.935 347.786 38.19 347.786 38.5C347.786 38.83 347.676 39.11 347.456 39.34C347.236 39.56 346.946 39.67 346.586 39.67ZM354.522 40.9C355.162 40.9 355.732 41.025 356.232 41.275C356.742 41.525 357.142 41.91 357.432 42.43C357.722 42.94 357.867 43.6 357.867 44.41V49H355.992V44.65C355.992 43.94 355.822 43.41 355.482 43.06C355.152 42.71 354.687 42.535 354.087 42.535C353.647 42.535 353.257 42.625 352.917 42.805C352.577 42.985 352.312 43.255 352.122 43.615C351.942 43.965 351.852 44.41 351.852 44.95V49H349.977V40.99H351.762V43.15L351.447 42.49C351.727 41.98 352.132 41.59 352.662 41.32C353.202 41.04 353.822 40.9 354.522 40.9ZM364.571 49V38.5H369.491C370.751 38.5 371.711 38.75 372.371 39.25C373.031 39.74 373.361 40.4 373.361 41.23C373.361 41.79 373.231 42.27 372.971 42.67C372.711 43.06 372.361 43.365 371.921 43.585C371.491 43.795 371.021 43.9 370.511 43.9L370.781 43.36C371.371 43.36 371.901 43.47 372.371 43.69C372.841 43.9 373.211 44.21 373.481 44.62C373.761 45.03 373.901 45.54 373.901 46.15C373.901 47.05 373.556 47.75 372.866 48.25C372.176 48.75 371.151 49 369.791 49H364.571ZM366.521 47.47H369.671C370.401 47.47 370.961 47.35 371.351 47.11C371.741 46.87 371.936 46.485 371.936 45.955C371.936 45.435 371.741 45.055 371.351 44.815C370.961 44.565 370.401 44.44 369.671 44.44H366.371V42.925H369.281C369.961 42.925 370.481 42.805 370.841 42.565C371.211 42.325 371.396 41.965 371.396 41.485C371.396 40.995 371.211 40.63 370.841 40.39C370.481 40.15 369.961 40.03 369.281 40.03H366.521V47.47ZM379.567 49.105C378.677 49.105 377.897 48.93 377.227 48.58C376.567 48.22 376.052 47.73 375.682 47.11C375.322 46.49 375.142 45.785 375.142 44.995C375.142 44.195 375.317 43.49 375.667 42.88C376.027 42.26 376.517 41.775 377.137 41.425C377.767 41.075 378.482 40.9 379.282 40.9C380.062 40.9 380.757 41.07 381.367 41.41C381.977 41.75 382.457 42.23 382.807 42.85C383.157 43.47 383.332 44.2 383.332 45.04C383.332 45.12 383.327 45.21 383.317 45.31C383.317 45.41 383.312 45.505 383.302 45.595H376.627V44.35H382.312L381.577 44.74C381.587 44.28 381.492 43.875 381.292 43.525C381.092 43.175 380.817 42.9 380.467 42.7C380.127 42.5 379.732 42.4 379.282 42.4C378.822 42.4 378.417 42.5 378.067 42.7C377.727 42.9 377.457 43.18 377.257 43.54C377.067 43.89 376.972 44.305 376.972 44.785V45.085C376.972 45.565 377.082 45.99 377.302 46.36C377.522 46.73 377.832 47.015 378.232 47.215C378.632 47.415 379.092 47.515 379.612 47.515C380.062 47.515 380.467 47.445 380.827 47.305C381.187 47.165 381.507 46.945 381.787 46.645L382.792 47.8C382.432 48.22 381.977 48.545 381.427 48.775C380.887 48.995 380.267 49.105 379.567 49.105ZM385.133 49V40.99H386.918V43.195L386.708 42.55C386.948 42.01 387.323 41.6 387.833 41.32C388.353 41.04 388.998 40.9 389.768 40.9V42.685C389.688 42.665 389.613 42.655 389.543 42.655C389.473 42.645 389.403 42.64 389.333 42.64C388.623 42.64 388.058 42.85 387.638 43.27C387.218 43.68 387.008 44.295 387.008 45.115V49H385.133ZM391.359 49V37.87H393.234V49H391.359ZM395.695 49V40.99H397.57V49H395.695ZM396.64 39.67C396.29 39.67 396 39.56 395.77 39.34C395.55 39.12 395.44 38.855 395.44 38.545C395.44 38.225 395.55 37.96 395.77 37.75C396 37.53 396.29 37.42 396.64 37.42C396.99 37.42 397.275 37.525 397.495 37.735C397.725 37.935 397.84 38.19 397.84 38.5C397.84 38.83 397.73 39.11 397.51 39.34C397.29 39.56 397 39.67 396.64 39.67ZM404.576 40.9C405.216 40.9 405.786 41.025 406.286 41.275C406.796 41.525 407.196 41.91 407.486 42.43C407.776 42.94 407.921 43.6 407.921 44.41V49H406.046V44.65C406.046 43.94 405.876 43.41 405.536 43.06C405.206 42.71 404.741 42.535 404.141 42.535C403.701 42.535 403.311 42.625 402.971 42.805C402.631 42.985 402.366 43.255 402.176 43.615C401.996 43.965 401.906 44.41 401.906 44.95V49H400.031V40.99H401.816V43.15L401.501 42.49C401.781 41.98 402.186 41.59 402.716 41.32C403.256 41.04 403.876 40.9 404.576 40.9ZM418.045 49.105C417.225 49.105 416.495 48.93 415.855 48.58C415.215 48.22 414.71 47.73 414.34 47.11C413.97 46.49 413.785 45.785 413.785 44.995C413.785 44.195 413.97 43.49 414.34 42.88C414.71 42.26 415.215 41.775 415.855 41.425C416.495 41.075 417.225 40.9 418.045 40.9C418.875 40.9 419.61 41.075 420.25 41.425C420.9 41.775 421.405 42.255 421.765 42.865C422.135 43.475 422.32 44.185 422.32 44.995C422.32 45.785 422.135 46.49 421.765 47.11C421.405 47.73 420.9 48.22 420.25 48.58C419.61 48.93 418.875 49.105 418.045 49.105ZM418.045 47.5C418.505 47.5 418.915 47.4 419.275 47.2C419.635 47 419.915 46.71 420.115 46.33C420.325 45.95 420.43 45.505 420.43 44.995C420.43 44.475 420.325 44.03 420.115 43.66C419.915 43.28 419.635 42.99 419.275 42.79C418.915 42.59 418.51 42.49 418.06 42.49C417.6 42.49 417.19 42.59 416.83 42.79C416.48 42.99 416.2 43.28 415.99 43.66C415.78 44.03 415.675 44.475 415.675 44.995C415.675 45.505 415.78 45.95 415.99 46.33C416.2 46.71 416.48 47 416.83 47.2C417.19 47.4 417.595 47.5 418.045 47.5ZM424.368 49V40.54C424.368 39.7 424.613 39.03 425.103 38.53C425.603 38.02 426.313 37.765 427.233 37.765C427.563 37.765 427.873 37.8 428.163 37.87C428.463 37.94 428.713 38.05 428.913 38.2L428.403 39.61C428.263 39.5 428.103 39.42 427.923 39.37C427.743 39.31 427.558 39.28 427.368 39.28C426.978 39.28 426.683 39.39 426.483 39.61C426.283 39.82 426.183 40.14 426.183 40.57V41.47L426.243 42.31V49H424.368ZM423.048 42.55V41.05H428.388V42.55H423.048ZM429.905 49V40.54C429.905 39.7 430.15 39.03 430.64 38.53C431.14 38.02 431.85 37.765 432.77 37.765C433.1 37.765 433.41 37.8 433.7 37.87C434 37.94 434.25 38.05 434.45 38.2L433.94 39.61C433.8 39.5 433.64 39.42 433.46 39.37C433.28 39.31 433.095 39.28 432.905 39.28C432.515 39.28 432.22 39.39 432.02 39.61C431.82 39.82 431.72 40.14 431.72 40.57V41.47L431.78 42.31V49H429.905ZM428.585 42.55V41.05H433.925V42.55H428.585ZM435.245 49V40.99H437.12V49H435.245ZM436.19 39.67C435.84 39.67 435.55 39.56 435.32 39.34C435.1 39.12 434.99 38.855 434.99 38.545C434.99 38.225 435.1 37.96 435.32 37.75C435.55 37.53 435.84 37.42 436.19 37.42C436.54 37.42 436.825 37.525 437.045 37.735C437.275 37.935 437.39 38.19 437.39 38.5C437.39 38.83 437.28 39.11 437.06 39.34C436.84 39.56 436.55 39.67 436.19 39.67ZM443.257 49.105C442.417 49.105 441.667 48.93 441.007 48.58C440.357 48.22 439.847 47.73 439.477 47.11C439.107 46.49 438.922 45.785 438.922 44.995C438.922 44.195 439.107 43.49 439.477 42.88C439.847 42.26 440.357 41.775 441.007 41.425C441.667 41.075 442.417 40.9 443.257 40.9C444.037 40.9 444.722 41.06 445.312 41.38C445.912 41.69 446.367 42.15 446.677 42.76L445.237 43.6C444.997 43.22 444.702 42.94 444.352 42.76C444.012 42.58 443.642 42.49 443.242 42.49C442.782 42.49 442.367 42.59 441.997 42.79C441.627 42.99 441.337 43.28 441.127 43.66C440.917 44.03 440.812 44.475 440.812 44.995C440.812 45.515 440.917 45.965 441.127 46.345C441.337 46.715 441.627 47 441.997 47.2C442.367 47.4 442.782 47.5 443.242 47.5C443.642 47.5 444.012 47.41 444.352 47.23C444.702 47.05 444.997 46.77 445.237 46.39L446.677 47.23C446.367 47.83 445.912 48.295 445.312 48.625C444.722 48.945 444.037 49.105 443.257 49.105ZM451.945 49.105C451.055 49.105 450.275 48.93 449.605 48.58C448.945 48.22 448.43 47.73 448.06 47.11C447.7 46.49 447.52 45.785 447.52 44.995C447.52 44.195 447.695 43.49 448.045 42.88C448.405 42.26 448.895 41.775 449.515 41.425C450.145 41.075 450.86 40.9 451.66 40.9C452.44 40.9 453.135 41.07 453.745 41.41C454.355 41.75 454.835 42.23 455.185 42.85C455.535 43.47 455.71 44.2 455.71 45.04C455.71 45.12 455.705 45.21 455.695 45.31C455.695 45.41 455.69 45.505 455.68 45.595H449.005V44.35H454.69L453.955 44.74C453.965 44.28 453.87 43.875 453.67 43.525C453.47 43.175 453.195 42.9 452.845 42.7C452.505 42.5 452.11 42.4 451.66 42.4C451.2 42.4 450.795 42.5 450.445 42.7C450.105 42.9 449.835 43.18 449.635 43.54C449.445 43.89 449.35 44.305 449.35 44.785V45.085C449.35 45.565 449.46 45.99 449.68 46.36C449.9 46.73 450.21 47.015 450.61 47.215C451.01 47.415 451.47 47.515 451.99 47.515C452.44 47.515 452.845 47.445 453.205 47.305C453.565 47.165 453.885 46.945 454.165 46.645L455.17 47.8C454.81 48.22 454.355 48.545 453.805 48.775C453.265 48.995 452.645 49.105 451.945 49.105ZM94.23 67V55.87H96.105V67H94.23ZM102.331 67.105C101.441 67.105 100.661 66.93 99.9909 66.58C99.3309 66.22 98.8159 65.73 98.4459 65.11C98.0859 64.49 97.9059 63.785 97.9059 62.995C97.9059 62.195 98.0809 61.49 98.4309 60.88C98.7909 60.26 99.2809 59.775 99.9009 59.425C100.531 59.075 101.246 58.9 102.046 58.9C102.826 58.9 103.521 59.07 104.131 59.41C104.741 59.75 105.221 60.23 105.571 60.85C105.921 61.47 106.096 62.2 106.096 63.04C106.096 63.12 106.091 63.21 106.081 63.31C106.081 63.41 106.076 63.505 106.066 63.595H99.3909V62.35H105.076L104.341 62.74C104.351 62.28 104.256 61.875 104.056 61.525C103.856 61.175 103.581 60.9 103.231 60.7C102.891 60.5 102.496 60.4 102.046 60.4C101.586 60.4 101.181 60.5 100.831 60.7C100.491 60.9 100.221 61.18 100.021 61.54C99.8309 61.89 99.7359 62.305 99.7359 62.785V63.085C99.7359 63.565 99.8459 63.99 100.066 64.36C100.286 64.73 100.596 65.015 100.996 65.215C101.396 65.415 101.856 65.515 102.376 65.515C102.826 65.515 103.231 65.445 103.591 65.305C103.951 65.165 104.271 64.945 104.551 64.645L105.556 65.8C105.196 66.22 104.741 66.545 104.191 66.775C103.651 66.995 103.031 67.105 102.331 67.105ZM112.612 67V65.38L112.507 65.035V62.2C112.507 61.65 112.342 61.225 112.012 60.925C111.682 60.615 111.182 60.46 110.512 60.46C110.062 60.46 109.617 60.53 109.177 60.67C108.747 60.81 108.382 61.005 108.082 61.255L107.347 59.89C107.777 59.56 108.287 59.315 108.877 59.155C109.477 58.985 110.097 58.9 110.737 58.9C111.897 58.9 112.792 59.18 113.422 59.74C114.062 60.29 114.382 61.145 114.382 62.305V67H112.612ZM110.092 67.105C109.492 67.105 108.967 67.005 108.517 66.805C108.067 66.595 107.717 66.31 107.467 65.95C107.227 65.58 107.107 65.165 107.107 64.705C107.107 64.255 107.212 63.85 107.422 63.49C107.642 63.13 107.997 62.845 108.487 62.635C108.977 62.425 109.627 62.32 110.437 62.32H112.762V63.565H110.572C109.932 63.565 109.502 63.67 109.282 63.88C109.062 64.08 108.952 64.33 108.952 64.63C108.952 64.97 109.087 65.24 109.357 65.44C109.627 65.64 110.002 65.74 110.482 65.74C110.942 65.74 111.352 65.635 111.712 65.425C112.082 65.215 112.347 64.905 112.507 64.495L112.822 65.62C112.642 66.09 112.317 66.455 111.847 66.715C111.387 66.975 110.802 67.105 110.092 67.105ZM120.193 67.105C119.423 67.105 118.728 66.935 118.108 66.595C117.498 66.245 117.018 65.765 116.668 65.155C116.318 64.545 116.143 63.825 116.143 62.995C116.143 62.165 116.318 61.445 116.668 60.835C117.018 60.225 117.498 59.75 118.108 59.41C118.728 59.07 119.423 58.9 120.193 58.9C120.863 58.9 121.463 59.05 121.993 59.35C122.523 59.64 122.943 60.085 123.253 60.685C123.563 61.285 123.718 62.055 123.718 62.995C123.718 63.925 123.568 64.695 123.268 65.305C122.968 65.905 122.553 66.355 122.023 66.655C121.493 66.955 120.883 67.105 120.193 67.105ZM120.418 65.5C120.868 65.5 121.268 65.4 121.618 65.2C121.978 65 122.263 64.71 122.473 64.33C122.693 63.95 122.803 63.505 122.803 62.995C122.803 62.475 122.693 62.03 122.473 61.66C122.263 61.28 121.978 60.99 121.618 60.79C121.268 60.59 120.868 60.49 120.418 60.49C119.968 60.49 119.563 60.59 119.203 60.79C118.853 60.99 118.568 61.28 118.348 61.66C118.138 62.03 118.033 62.475 118.033 62.995C118.033 63.505 118.138 63.95 118.348 64.33C118.568 64.71 118.853 65 119.203 65.2C119.563 65.4 119.968 65.5 120.418 65.5ZM122.848 67V65.11L122.923 62.98L122.773 60.85V55.87H124.633V67H122.848ZM134.262 67.105C133.382 67.105 132.702 66.88 132.222 66.43C131.742 65.97 131.502 65.295 131.502 64.405V57.22H133.377V64.36C133.377 64.74 133.472 65.035 133.662 65.245C133.862 65.455 134.137 65.56 134.487 65.56C134.907 65.56 135.257 65.45 135.537 65.23L136.062 66.565C135.842 66.745 135.572 66.88 135.252 66.97C134.932 67.06 134.602 67.105 134.262 67.105ZM130.182 60.55V59.05H135.522V60.55H130.182ZM140.94 67.105C140.12 67.105 139.39 66.93 138.75 66.58C138.11 66.22 137.605 65.73 137.235 65.11C136.865 64.49 136.68 63.785 136.68 62.995C136.68 62.195 136.865 61.49 137.235 60.88C137.605 60.26 138.11 59.775 138.75 59.425C139.39 59.075 140.12 58.9 140.94 58.9C141.77 58.9 142.505 59.075 143.145 59.425C143.795 59.775 144.3 60.255 144.66 60.865C145.03 61.475 145.215 62.185 145.215 62.995C145.215 63.785 145.03 64.49 144.66 65.11C144.3 65.73 143.795 66.22 143.145 66.58C142.505 66.93 141.77 67.105 140.94 67.105ZM140.94 65.5C141.4 65.5 141.81 65.4 142.17 65.2C142.53 65 142.81 64.71 143.01 64.33C143.22 63.95 143.325 63.505 143.325 62.995C143.325 62.475 143.22 62.03 143.01 61.66C142.81 61.28 142.53 60.99 142.17 60.79C141.81 60.59 141.405 60.49 140.955 60.49C140.495 60.49 140.085 60.59 139.725 60.79C139.375 60.99 139.095 61.28 138.885 61.66C138.675 62.03 138.57 62.475 138.57 62.995C138.57 63.505 138.675 63.95 138.885 64.33C139.095 64.71 139.375 65 139.725 65.2C140.085 65.4 140.49 65.5 140.94 65.5ZM151.154 67V58.99H153.029V67H151.154ZM152.099 57.67C151.749 57.67 151.459 57.56 151.229 57.34C151.009 57.12 150.899 56.855 150.899 56.545C150.899 56.225 151.009 55.96 151.229 55.75C151.459 55.53 151.749 55.42 152.099 55.42C152.449 55.42 152.734 55.525 152.954 55.735C153.184 55.935 153.299 56.19 153.299 56.5C153.299 56.83 153.189 57.11 152.969 57.34C152.749 57.56 152.459 57.67 152.099 57.67ZM160.035 58.9C160.675 58.9 161.245 59.025 161.745 59.275C162.255 59.525 162.655 59.91 162.945 60.43C163.235 60.94 163.38 61.6 163.38 62.41V67H161.505V62.65C161.505 61.94 161.335 61.41 160.995 61.06C160.665 60.71 160.2 60.535 159.6 60.535C159.16 60.535 158.77 60.625 158.43 60.805C158.09 60.985 157.825 61.255 157.635 61.615C157.455 61.965 157.365 62.41 157.365 62.95V67H155.49V58.99H157.275V61.15L156.96 60.49C157.24 59.98 157.645 59.59 158.175 59.32C158.715 59.04 159.335 58.9 160.035 58.9ZM169.538 67.105C168.648 67.105 167.868 66.93 167.198 66.58C166.538 66.22 166.023 65.73 165.653 65.11C165.293 64.49 165.113 63.785 165.113 62.995C165.113 62.195 165.288 61.49 165.638 60.88C165.998 60.26 166.488 59.775 167.108 59.425C167.738 59.075 168.453 58.9 169.253 58.9C170.033 58.9 170.728 59.07 171.338 59.41C171.948 59.75 172.428 60.23 172.778 60.85C173.128 61.47 173.303 62.2 173.303 63.04C173.303 63.12 173.298 63.21 173.288 63.31C173.288 63.41 173.283 63.505 173.273 63.595H166.598V62.35H172.283L171.548 62.74C171.558 62.28 171.463 61.875 171.263 61.525C171.063 61.175 170.788 60.9 170.438 60.7C170.098 60.5 169.703 60.4 169.253 60.4C168.793 60.4 168.388 60.5 168.038 60.7C167.698 60.9 167.428 61.18 167.228 61.54C167.038 61.89 166.943 62.305 166.943 62.785V63.085C166.943 63.565 167.053 63.99 167.273 64.36C167.493 64.73 167.803 65.015 168.203 65.215C168.603 65.415 169.063 65.515 169.583 65.515C170.033 65.515 170.438 65.445 170.798 65.305C171.158 65.165 171.478 64.945 171.758 64.645L172.763 65.8C172.403 66.22 171.948 66.545 171.398 66.775C170.858 66.995 170.238 67.105 169.538 67.105ZM175.359 67V58.54C175.359 57.7 175.604 57.03 176.094 56.53C176.594 56.02 177.304 55.765 178.224 55.765C178.554 55.765 178.864 55.8 179.154 55.87C179.454 55.94 179.704 56.05 179.904 56.2L179.394 57.61C179.254 57.5 179.094 57.42 178.914 57.37C178.734 57.31 178.549 57.28 178.359 57.28C177.969 57.28 177.674 57.39 177.474 57.61C177.274 57.82 177.174 58.14 177.174 58.57V59.47L177.234 60.31V67H175.359ZM174.039 60.55V59.05H179.379V60.55H174.039ZM180.896 67V58.54C180.896 57.7 181.141 57.03 181.631 56.53C182.131 56.02 182.841 55.765 183.761 55.765C184.091 55.765 184.401 55.8 184.691 55.87C184.991 55.94 185.241 56.05 185.441 56.2L184.931 57.61C184.791 57.5 184.631 57.42 184.451 57.37C184.271 57.31 184.086 57.28 183.896 57.28C183.506 57.28 183.211 57.39 183.011 57.61C182.811 57.82 182.711 58.14 182.711 58.57V59.47L182.771 60.31V67H180.896ZM179.576 60.55V59.05H184.916V60.55H179.576ZM186.236 67V58.99H188.111V67H186.236ZM187.181 57.67C186.831 57.67 186.541 57.56 186.311 57.34C186.091 57.12 185.981 56.855 185.981 56.545C185.981 56.225 186.091 55.96 186.311 55.75C186.541 55.53 186.831 55.42 187.181 55.42C187.531 55.42 187.816 55.525 188.036 55.735C188.266 55.935 188.381 56.19 188.381 56.5C188.381 56.83 188.271 57.11 188.051 57.34C187.831 57.56 187.541 57.67 187.181 57.67ZM194.248 67.105C193.408 67.105 192.658 66.93 191.998 66.58C191.348 66.22 190.838 65.73 190.468 65.11C190.098 64.49 189.913 63.785 189.913 62.995C189.913 62.195 190.098 61.49 190.468 60.88C190.838 60.26 191.348 59.775 191.998 59.425C192.658 59.075 193.408 58.9 194.248 58.9C195.028 58.9 195.713 59.06 196.303 59.38C196.903 59.69 197.358 60.15 197.668 60.76L196.228 61.6C195.988 61.22 195.693 60.94 195.343 60.76C195.003 60.58 194.633 60.49 194.233 60.49C193.773 60.49 193.358 60.59 192.988 60.79C192.618 60.99 192.328 61.28 192.118 61.66C191.908 62.03 191.803 62.475 191.803 62.995C191.803 63.515 191.908 63.965 192.118 64.345C192.328 64.715 192.618 65 192.988 65.2C193.358 65.4 193.773 65.5 194.233 65.5C194.633 65.5 195.003 65.41 195.343 65.23C195.693 65.05 195.988 64.77 196.228 64.39L197.668 65.23C197.358 65.83 196.903 66.295 196.303 66.625C195.713 66.945 195.028 67.105 194.248 67.105ZM199.215 67V58.99H201.09V67H199.215ZM200.16 57.67C199.81 57.67 199.52 57.56 199.29 57.34C199.07 57.12 198.96 56.855 198.96 56.545C198.96 56.225 199.07 55.96 199.29 55.75C199.52 55.53 199.81 55.42 200.16 55.42C200.51 55.42 200.795 55.525 201.015 55.735C201.245 55.935 201.36 56.19 201.36 56.5C201.36 56.83 201.25 57.11 201.03 57.34C200.81 57.56 200.52 57.67 200.16 57.67ZM207.316 67.105C206.426 67.105 205.646 66.93 204.976 66.58C204.316 66.22 203.801 65.73 203.431 65.11C203.071 64.49 202.891 63.785 202.891 62.995C202.891 62.195 203.066 61.49 203.416 60.88C203.776 60.26 204.266 59.775 204.886 59.425C205.516 59.075 206.231 58.9 207.031 58.9C207.811 58.9 208.506 59.07 209.116 59.41C209.726 59.75 210.206 60.23 210.556 60.85C210.906 61.47 211.081 62.2 211.081 63.04C211.081 63.12 211.076 63.21 211.066 63.31C211.066 63.41 211.061 63.505 211.051 63.595H204.376V62.35H210.061L209.326 62.74C209.336 62.28 209.241 61.875 209.041 61.525C208.841 61.175 208.566 60.9 208.216 60.7C207.876 60.5 207.481 60.4 207.031 60.4C206.571 60.4 206.166 60.5 205.816 60.7C205.476 60.9 205.206 61.18 205.006 61.54C204.816 61.89 204.721 62.305 204.721 62.785V63.085C204.721 63.565 204.831 63.99 205.051 64.36C205.271 64.73 205.581 65.015 205.981 65.215C206.381 65.415 206.841 65.515 207.361 65.515C207.811 65.515 208.216 65.445 208.576 65.305C208.936 65.165 209.256 64.945 209.536 64.645L210.541 65.8C210.181 66.22 209.726 66.545 209.176 66.775C208.636 66.995 208.016 67.105 207.316 67.105ZM217.427 58.9C218.067 58.9 218.637 59.025 219.137 59.275C219.647 59.525 220.047 59.91 220.337 60.43C220.627 60.94 220.772 61.6 220.772 62.41V67H218.897V62.65C218.897 61.94 218.727 61.41 218.387 61.06C218.057 60.71 217.592 60.535 216.992 60.535C216.552 60.535 216.162 60.625 215.822 60.805C215.482 60.985 215.217 61.255 215.027 61.615C214.847 61.965 214.757 62.41 214.757 62.95V67H212.882V58.99H214.667V61.15L214.352 60.49C214.632 59.98 215.037 59.59 215.567 59.32C216.107 59.04 216.727 58.9 217.427 58.9ZM226.841 67.105C226.001 67.105 225.251 66.93 224.591 66.58C223.941 66.22 223.431 65.73 223.061 65.11C222.691 64.49 222.506 63.785 222.506 62.995C222.506 62.195 222.691 61.49 223.061 60.88C223.431 60.26 223.941 59.775 224.591 59.425C225.251 59.075 226.001 58.9 226.841 58.9C227.621 58.9 228.306 59.06 228.896 59.38C229.496 59.69 229.951 60.15 230.261 60.76L228.821 61.6C228.581 61.22 228.286 60.94 227.936 60.76C227.596 60.58 227.226 60.49 226.826 60.49C226.366 60.49 225.951 60.59 225.581 60.79C225.211 60.99 224.921 61.28 224.711 61.66C224.501 62.03 224.396 62.475 224.396 62.995C224.396 63.515 224.501 63.965 224.711 64.345C224.921 64.715 225.211 65 225.581 65.2C225.951 65.4 226.366 65.5 226.826 65.5C227.226 65.5 227.596 65.41 227.936 65.23C228.286 65.05 228.581 64.77 228.821 64.39L230.261 65.23C229.951 65.83 229.496 66.295 228.896 66.625C228.306 66.945 227.621 67.105 226.841 67.105ZM231.808 67V58.99H233.683V67H231.808ZM232.753 57.67C232.403 57.67 232.113 57.56 231.883 57.34C231.663 57.12 231.553 56.855 231.553 56.545C231.553 56.225 231.663 55.96 231.883 55.75C232.113 55.53 232.403 55.42 232.753 55.42C233.103 55.42 233.388 55.525 233.608 55.735C233.838 55.935 233.953 56.19 233.953 56.5C233.953 56.83 233.843 57.11 233.623 57.34C233.403 57.56 233.113 57.67 232.753 57.67ZM239.909 67.105C239.019 67.105 238.239 66.93 237.569 66.58C236.909 66.22 236.394 65.73 236.024 65.11C235.664 64.49 235.484 63.785 235.484 62.995C235.484 62.195 235.659 61.49 236.009 60.88C236.369 60.26 236.859 59.775 237.479 59.425C238.109 59.075 238.824 58.9 239.624 58.9C240.404 58.9 241.099 59.07 241.709 59.41C242.319 59.75 242.799 60.23 243.149 60.85C243.499 61.47 243.674 62.2 243.674 63.04C243.674 63.12 243.669 63.21 243.659 63.31C243.659 63.41 243.654 63.505 243.644 63.595H236.969V62.35H242.654L241.919 62.74C241.929 62.28 241.834 61.875 241.634 61.525C241.434 61.175 241.159 60.9 240.809 60.7C240.469 60.5 240.074 60.4 239.624 60.4C239.164 60.4 238.759 60.5 238.409 60.7C238.069 60.9 237.799 61.18 237.599 61.54C237.409 61.89 237.314 62.305 237.314 62.785V63.085C237.314 63.565 237.424 63.99 237.644 64.36C237.864 64.73 238.174 65.015 238.574 65.215C238.974 65.415 239.434 65.515 239.954 65.515C240.404 65.515 240.809 65.445 241.169 65.305C241.529 65.165 241.849 64.945 242.129 64.645L243.134 65.8C242.774 66.22 242.319 66.545 241.769 66.775C241.229 66.995 240.609 67.105 239.909 67.105ZM247.95 67.105C247.28 67.105 246.635 67.02 246.015 66.85C245.405 66.67 244.92 66.455 244.56 66.205L245.28 64.78C245.64 65.01 246.07 65.2 246.57 65.35C247.07 65.5 247.57 65.575 248.07 65.575C248.66 65.575 249.085 65.495 249.345 65.335C249.615 65.175 249.75 64.96 249.75 64.69C249.75 64.47 249.66 64.305 249.48 64.195C249.3 64.075 249.065 63.985 248.775 63.925C248.485 63.865 248.16 63.81 247.8 63.76C247.45 63.71 247.095 63.645 246.735 63.565C246.385 63.475 246.065 63.35 245.775 63.19C245.485 63.02 245.25 62.795 245.07 62.515C244.89 62.235 244.8 61.865 244.8 61.405C244.8 60.895 244.945 60.455 245.235 60.085C245.525 59.705 245.93 59.415 246.45 59.215C246.98 59.005 247.605 58.9 248.325 58.9C248.865 58.9 249.41 58.96 249.96 59.08C250.51 59.2 250.965 59.37 251.325 59.59L250.605 61.015C250.225 60.785 249.84 60.63 249.45 60.55C249.07 60.46 248.69 60.415 248.31 60.415C247.74 60.415 247.315 60.5 247.035 60.67C246.765 60.84 246.63 61.055 246.63 61.315C246.63 61.555 246.72 61.735 246.9 61.855C247.08 61.975 247.315 62.07 247.605 62.14C247.895 62.21 248.215 62.27 248.565 62.32C248.925 62.36 249.28 62.425 249.63 62.515C249.98 62.605 250.3 62.73 250.59 62.89C250.89 63.04 251.13 63.255 251.31 63.535C251.49 63.815 251.58 64.18 251.58 64.63C251.58 65.13 251.43 65.565 251.13 65.935C250.84 66.305 250.425 66.595 249.885 66.805C249.345 67.005 248.7 67.105 247.95 67.105ZM262.275 67V65.38L262.17 65.035V62.2C262.17 61.65 262.005 61.225 261.675 60.925C261.345 60.615 260.845 60.46 260.175 60.46C259.725 60.46 259.28 60.53 258.84 60.67C258.41 60.81 258.045 61.005 257.745 61.255L257.01 59.89C257.44 59.56 257.95 59.315 258.54 59.155C259.14 58.985 259.76 58.9 260.4 58.9C261.56 58.9 262.455 59.18 263.085 59.74C263.725 60.29 264.045 61.145 264.045 62.305V67H262.275ZM259.755 67.105C259.155 67.105 258.63 67.005 258.18 66.805C257.73 66.595 257.38 66.31 257.13 65.95C256.89 65.58 256.77 65.165 256.77 64.705C256.77 64.255 256.875 63.85 257.085 63.49C257.305 63.13 257.66 62.845 258.15 62.635C258.64 62.425 259.29 62.32 260.1 62.32H262.425V63.565H260.235C259.595 63.565 259.165 63.67 258.945 63.88C258.725 64.08 258.615 64.33 258.615 64.63C258.615 64.97 258.75 65.24 259.02 65.44C259.29 65.64 259.665 65.74 260.145 65.74C260.605 65.74 261.015 65.635 261.375 65.425C261.745 65.215 262.01 64.905 262.17 64.495L262.485 65.62C262.305 66.09 261.98 66.455 261.51 66.715C261.05 66.975 260.465 67.105 259.755 67.105ZM270.997 58.9C271.637 58.9 272.207 59.025 272.707 59.275C273.217 59.525 273.617 59.91 273.907 60.43C274.197 60.94 274.342 61.6 274.342 62.41V67H272.467V62.65C272.467 61.94 272.297 61.41 271.957 61.06C271.627 60.71 271.162 60.535 270.562 60.535C270.122 60.535 269.732 60.625 269.392 60.805C269.052 60.985 268.787 61.255 268.597 61.615C268.417 61.965 268.327 62.41 268.327 62.95V67H266.452V58.99H268.237V61.15L267.922 60.49C268.202 59.98 268.607 59.59 269.137 59.32C269.677 59.04 270.297 58.9 270.997 58.9ZM280.125 67.105C279.355 67.105 278.66 66.935 278.04 66.595C277.43 66.245 276.95 65.765 276.6 65.155C276.25 64.545 276.075 63.825 276.075 62.995C276.075 62.165 276.25 61.445 276.6 60.835C276.95 60.225 277.43 59.75 278.04 59.41C278.66 59.07 279.355 58.9 280.125 58.9C280.795 58.9 281.395 59.05 281.925 59.35C282.455 59.64 282.875 60.085 283.185 60.685C283.495 61.285 283.65 62.055 283.65 62.995C283.65 63.925 283.5 64.695 283.2 65.305C282.9 65.905 282.485 66.355 281.955 66.655C281.425 66.955 280.815 67.105 280.125 67.105ZM280.35 65.5C280.8 65.5 281.2 65.4 281.55 65.2C281.91 65 282.195 64.71 282.405 64.33C282.625 63.95 282.735 63.505 282.735 62.995C282.735 62.475 282.625 62.03 282.405 61.66C282.195 61.28 281.91 60.99 281.55 60.79C281.2 60.59 280.8 60.49 280.35 60.49C279.9 60.49 279.495 60.59 279.135 60.79C278.785 60.99 278.5 61.28 278.28 61.66C278.07 62.03 277.965 62.475 277.965 62.995C277.965 63.505 278.07 63.95 278.28 64.33C278.5 64.71 278.785 65 279.135 65.2C279.495 65.4 279.9 65.5 280.35 65.5ZM282.78 67V65.11L282.855 62.98L282.705 60.85V55.87H284.565V67H282.78ZM295.723 58.9C296.363 58.9 296.933 59.025 297.433 59.275C297.943 59.525 298.343 59.91 298.633 60.43C298.923 60.94 299.068 61.6 299.068 62.41V67H297.193V62.65C297.193 61.94 297.023 61.41 296.683 61.06C296.353 60.71 295.888 60.535 295.288 60.535C294.848 60.535 294.458 60.625 294.118 60.805C293.778 60.985 293.513 61.255 293.323 61.615C293.143 61.965 293.053 62.41 293.053 62.95V67H291.178V55.87H293.053V61.15L292.648 60.49C292.928 59.98 293.333 59.59 293.863 59.32C294.403 59.04 295.023 58.9 295.723 58.9ZM301.447 67V58.99H303.322V67H301.447ZM302.392 57.67C302.042 57.67 301.752 57.56 301.522 57.34C301.302 57.12 301.192 56.855 301.192 56.545C301.192 56.225 301.302 55.96 301.522 55.75C301.752 55.53 302.042 55.42 302.392 55.42C302.742 55.42 303.027 55.525 303.247 55.735C303.477 55.935 303.592 56.19 303.592 56.5C303.592 56.83 303.482 57.11 303.262 57.34C303.042 57.56 302.752 57.67 302.392 57.67ZM309.413 70.015C308.673 70.015 307.948 69.915 307.238 69.715C306.538 69.525 305.963 69.245 305.513 68.875L306.353 67.465C306.703 67.755 307.143 67.985 307.673 68.155C308.213 68.335 308.758 68.425 309.308 68.425C310.188 68.425 310.833 68.22 311.243 67.81C311.653 67.41 311.858 66.805 311.858 65.995V64.57L312.008 62.755L311.948 60.94V58.99H313.733V65.785C313.733 67.235 313.363 68.3 312.623 68.98C311.883 69.67 310.813 70.015 309.413 70.015ZM309.173 66.64C308.413 66.64 307.723 66.48 307.103 66.16C306.493 65.83 306.008 65.375 305.648 64.795C305.298 64.215 305.123 63.535 305.123 62.755C305.123 61.985 305.298 61.31 305.648 60.73C306.008 60.15 306.493 59.7 307.103 59.38C307.723 59.06 308.413 58.9 309.173 58.9C309.853 58.9 310.463 59.035 311.003 59.305C311.543 59.575 311.973 59.995 312.293 60.565C312.623 61.135 312.788 61.865 312.788 62.755C312.788 63.645 312.623 64.38 312.293 64.96C311.973 65.53 311.543 65.955 311.003 66.235C310.463 66.505 309.853 66.64 309.173 66.64ZM309.458 65.05C309.928 65.05 310.348 64.955 310.718 64.765C311.088 64.565 311.373 64.295 311.573 63.955C311.783 63.605 311.888 63.205 311.888 62.755C311.888 62.305 311.783 61.91 311.573 61.57C311.373 61.22 311.088 60.955 310.718 60.775C310.348 60.585 309.928 60.49 309.458 60.49C308.988 60.49 308.563 60.585 308.183 60.775C307.813 60.955 307.523 61.22 307.313 61.57C307.113 61.91 307.013 62.305 307.013 62.755C307.013 63.205 307.113 63.605 307.313 63.955C307.523 64.295 307.813 64.565 308.183 64.765C308.563 64.955 308.988 65.05 309.458 65.05ZM320.743 58.9C321.383 58.9 321.953 59.025 322.453 59.275C322.963 59.525 323.363 59.91 323.653 60.43C323.943 60.94 324.088 61.6 324.088 62.41V67H322.213V62.65C322.213 61.94 322.043 61.41 321.703 61.06C321.373 60.71 320.908 60.535 320.308 60.535C319.868 60.535 319.478 60.625 319.138 60.805C318.798 60.985 318.533 61.255 318.343 61.615C318.163 61.965 318.073 62.41 318.073 62.95V67H316.198V55.87H318.073V61.15L317.668 60.49C317.948 59.98 318.353 59.59 318.883 59.32C319.423 59.04 320.043 58.9 320.743 58.9ZM330.246 67.105C329.356 67.105 328.576 66.93 327.906 66.58C327.246 66.22 326.731 65.73 326.361 65.11C326.001 64.49 325.821 63.785 325.821 62.995C325.821 62.195 325.996 61.49 326.346 60.88C326.706 60.26 327.196 59.775 327.816 59.425C328.446 59.075 329.161 58.9 329.961 58.9C330.741 58.9 331.436 59.07 332.046 59.41C332.656 59.75 333.136 60.23 333.486 60.85C333.836 61.47 334.011 62.2 334.011 63.04C334.011 63.12 334.006 63.21 333.996 63.31C333.996 63.41 333.991 63.505 333.981 63.595H327.306V62.35H332.991L332.256 62.74C332.266 62.28 332.171 61.875 331.971 61.525C331.771 61.175 331.496 60.9 331.146 60.7C330.806 60.5 330.411 60.4 329.961 60.4C329.501 60.4 329.096 60.5 328.746 60.7C328.406 60.9 328.136 61.18 327.936 61.54C327.746 61.89 327.651 62.305 327.651 62.785V63.085C327.651 63.565 327.761 63.99 327.981 64.36C328.201 64.73 328.511 65.015 328.911 65.215C329.311 65.415 329.771 65.515 330.291 65.515C330.741 65.515 331.146 65.445 331.506 65.305C331.866 65.165 332.186 64.945 332.466 64.645L333.471 65.8C333.111 66.22 332.656 66.545 332.106 66.775C331.566 66.995 330.946 67.105 330.246 67.105ZM335.812 67V58.99H337.597V61.195L337.387 60.55C337.627 60.01 338.002 59.6 338.512 59.32C339.032 59.04 339.677 58.9 340.447 58.9V60.685C340.367 60.665 340.292 60.655 340.222 60.655C340.152 60.645 340.082 60.64 340.012 60.64C339.302 60.64 338.737 60.85 338.317 61.27C337.897 61.68 337.687 62.295 337.687 63.115V67H335.812ZM349.931 67.105C349.091 67.105 348.341 66.93 347.681 66.58C347.031 66.22 346.521 65.73 346.151 65.11C345.781 64.49 345.596 63.785 345.596 62.995C345.596 62.195 345.781 61.49 346.151 60.88C346.521 60.26 347.031 59.775 347.681 59.425C348.341 59.075 349.091 58.9 349.931 58.9C350.711 58.9 351.396 59.06 351.986 59.38C352.586 59.69 353.041 60.15 353.351 60.76L351.911 61.6C351.671 61.22 351.376 60.94 351.026 60.76C350.686 60.58 350.316 60.49 349.916 60.49C349.456 60.49 349.041 60.59 348.671 60.79C348.301 60.99 348.011 61.28 347.801 61.66C347.591 62.03 347.486 62.475 347.486 62.995C347.486 63.515 347.591 63.965 347.801 64.345C348.011 64.715 348.301 65 348.671 65.2C349.041 65.4 349.456 65.5 349.916 65.5C350.316 65.5 350.686 65.41 351.026 65.23C351.376 65.05 351.671 64.77 351.911 64.39L353.351 65.23C353.041 65.83 352.586 66.295 351.986 66.625C351.396 66.945 350.711 67.105 349.931 67.105ZM358.455 67.105C357.635 67.105 356.905 66.93 356.265 66.58C355.625 66.22 355.12 65.73 354.75 65.11C354.38 64.49 354.195 63.785 354.195 62.995C354.195 62.195 354.38 61.49 354.75 60.88C355.12 60.26 355.625 59.775 356.265 59.425C356.905 59.075 357.635 58.9 358.455 58.9C359.285 58.9 360.02 59.075 360.66 59.425C361.31 59.775 361.815 60.255 362.175 60.865C362.545 61.475 362.73 62.185 362.73 62.995C362.73 63.785 362.545 64.49 362.175 65.11C361.815 65.73 361.31 66.22 360.66 66.58C360.02 66.93 359.285 67.105 358.455 67.105ZM358.455 65.5C358.915 65.5 359.325 65.4 359.685 65.2C360.045 65 360.325 64.71 360.525 64.33C360.735 63.95 360.84 63.505 360.84 62.995C360.84 62.475 360.735 62.03 360.525 61.66C360.325 61.28 360.045 60.99 359.685 60.79C359.325 60.59 358.92 60.49 358.47 60.49C358.01 60.49 357.6 60.59 357.24 60.79C356.89 60.99 356.61 61.28 356.4 61.66C356.19 62.03 356.085 62.475 356.085 62.995C356.085 63.505 356.19 63.95 356.4 64.33C356.61 64.71 356.89 65 357.24 65.2C357.6 65.4 358.005 65.5 358.455 65.5ZM366.998 67.105C366.328 67.105 365.683 67.02 365.063 66.85C364.453 66.67 363.968 66.455 363.608 66.205L364.328 64.78C364.688 65.01 365.118 65.2 365.618 65.35C366.118 65.5 366.618 65.575 367.118 65.575C367.708 65.575 368.133 65.495 368.393 65.335C368.663 65.175 368.798 64.96 368.798 64.69C368.798 64.47 368.708 64.305 368.528 64.195C368.348 64.075 368.113 63.985 367.823 63.925C367.533 63.865 367.208 63.81 366.848 63.76C366.498 63.71 366.143 63.645 365.783 63.565C365.433 63.475 365.113 63.35 364.823 63.19C364.533 63.02 364.298 62.795 364.118 62.515C363.938 62.235 363.848 61.865 363.848 61.405C363.848 60.895 363.993 60.455 364.283 60.085C364.573 59.705 364.978 59.415 365.498 59.215C366.028 59.005 366.653 58.9 367.373 58.9C367.913 58.9 368.458 58.96 369.008 59.08C369.558 59.2 370.013 59.37 370.373 59.59L369.653 61.015C369.273 60.785 368.888 60.63 368.498 60.55C368.118 60.46 367.738 60.415 367.358 60.415C366.788 60.415 366.363 60.5 366.083 60.67C365.813 60.84 365.678 61.055 365.678 61.315C365.678 61.555 365.768 61.735 365.948 61.855C366.128 61.975 366.363 62.07 366.653 62.14C366.943 62.21 367.263 62.27 367.613 62.32C367.973 62.36 368.328 62.425 368.678 62.515C369.028 62.605 369.348 62.73 369.638 62.89C369.938 63.04 370.178 63.255 370.358 63.535C370.538 63.815 370.628 64.18 370.628 64.63C370.628 65.13 370.478 65.565 370.178 65.935C369.888 66.305 369.473 66.595 368.933 66.805C368.393 67.005 367.748 67.105 366.998 67.105ZM375.258 67.105C374.378 67.105 373.698 66.88 373.218 66.43C372.738 65.97 372.498 65.295 372.498 64.405V57.22H374.373V64.36C374.373 64.74 374.468 65.035 374.658 65.245C374.858 65.455 375.133 65.56 375.483 65.56C375.903 65.56 376.253 65.45 376.533 65.23L377.058 66.565C376.838 66.745 376.568 66.88 376.248 66.97C375.928 67.06 375.598 67.105 375.258 67.105ZM371.178 60.55V59.05H376.518V60.55H371.178ZM381.075 67.105C380.405 67.105 379.76 67.02 379.14 66.85C378.53 66.67 378.045 66.455 377.685 66.205L378.405 64.78C378.765 65.01 379.195 65.2 379.695 65.35C380.195 65.5 380.695 65.575 381.195 65.575C381.785 65.575 382.21 65.495 382.47 65.335C382.74 65.175 382.875 64.96 382.875 64.69C382.875 64.47 382.785 64.305 382.605 64.195C382.425 64.075 382.19 63.985 381.9 63.925C381.61 63.865 381.285 63.81 380.925 63.76C380.575 63.71 380.22 63.645 379.86 63.565C379.51 63.475 379.19 63.35 378.9 63.19C378.61 63.02 378.375 62.795 378.195 62.515C378.015 62.235 377.925 61.865 377.925 61.405C377.925 60.895 378.07 60.455 378.36 60.085C378.65 59.705 379.055 59.415 379.575 59.215C380.105 59.005 380.73 58.9 381.45 58.9C381.99 58.9 382.535 58.96 383.085 59.08C383.635 59.2 384.09 59.37 384.45 59.59L383.73 61.015C383.35 60.785 382.965 60.63 382.575 60.55C382.195 60.46 381.815 60.415 381.435 60.415C380.865 60.415 380.44 60.5 380.16 60.67C379.89 60.84 379.755 61.055 379.755 61.315C379.755 61.555 379.845 61.735 380.025 61.855C380.205 61.975 380.44 62.07 380.73 62.14C381.02 62.21 381.34 62.27 381.69 62.32C382.05 62.36 382.405 62.425 382.755 62.515C383.105 62.605 383.425 62.73 383.715 62.89C384.015 63.04 384.255 63.255 384.435 63.535C384.615 63.815 384.705 64.18 384.705 64.63C384.705 65.13 384.555 65.565 384.255 65.935C383.965 66.305 383.55 66.595 383.01 66.805C382.47 67.005 381.825 67.105 381.075 67.105ZM386.92 67.105C386.58 67.105 386.29 66.99 386.05 66.76C385.81 66.52 385.69 66.22 385.69 65.86C385.69 65.48 385.81 65.18 386.05 64.96C386.29 64.73 386.58 64.615 386.92 64.615C387.26 64.615 387.55 64.73 387.79 64.96C388.03 65.18 388.15 65.48 388.15 65.86C388.15 66.22 388.03 66.52 387.79 66.76C387.55 66.99 387.26 67.105 386.92 67.105Z" fill="black"/>
<circle cx="46.685" cy="48.685" r="23.685" fill="#DCE7FE"/>
<path d="M49.4347 54.6062H41.5667C40.7896 54.6071 40.1271 55.1687 39.9985 55.9348H51.0028C50.8742 55.1687 50.2118 54.6071 49.4347 54.6062Z" fill="#3B76EF"/>
<path d="M55.5762 52.4746L48.8852 45.7808L46.9904 47.6756L53.675 54.3694C54.2088 54.8154 54.9952 54.7793 55.4874 54.2871C55.9796 53.7958 56.0148 53.0094 55.5698 52.4746L55.5762 52.4746Z" fill="#3B76EF"/>
<path d="M49.7781 44.1848L46.3938 40.8023C46.3605 40.769 46.3309 40.7329 46.304 40.6941L41.8965 45.1016C41.9353 45.1285 41.9714 45.1581 42.0047 45.1914L45.3919 48.5757C45.4243 48.61 45.453 48.647 45.4798 48.6849L49.8874 44.279C49.8485 44.2503 49.8124 44.219 49.7781 44.1848Z" fill="#3B76EF"/>
<path d="M50.0297 43.948C50.2693 44.1839 50.6542 44.1839 50.8938 43.948L51.2231 43.6168C51.3379 43.5021 51.4026 43.3466 51.4026 43.1838C51.4026 43.0219 51.3379 42.8665 51.2231 42.7517L47.8388 39.3581C47.7241 39.2425 47.5686 39.1777 47.4067 39.1777C47.2439 39.1777 47.0885 39.2425 46.9737 39.3581L46.6444 39.6847C46.5306 39.7995 46.4658 39.9549 46.4658 40.1168C46.4658 40.2787 46.5306 40.4351 46.6444 40.5489L50.0297 43.948Z" fill="#3B76EF"/>
<path d="M41.7538 45.4422C41.64 45.3265 41.4846 45.2618 41.3227 45.2627C41.1599 45.2618 41.0044 45.3265 40.8897 45.4422L40.5603 45.7716C40.4456 45.8863 40.3809 46.0417 40.3809 46.2036C40.3809 46.3665 40.4456 46.5219 40.5603 46.6366L43.9447 50.0238V50.0229C44.1843 50.2597 44.5692 50.2597 44.8088 50.0229L45.1382 49.6917C45.2529 49.5769 45.3177 49.4215 45.3177 49.2596C45.3177 49.0977 45.2529 48.9413 45.1382 48.8275L41.7538 45.4422Z" fill="#3B76EF"/>
<path d="M51.9216 56.29H39.0798C38.0473 56.29 37.2109 57.1264 37.2109 58.1589H53.7904C53.7904 57.663 53.5934 57.1884 53.2427 56.8378C52.893 56.4871 52.4175 56.29 51.9216 56.29Z" fill="#3B76EF"/>
</svg>
