<svg width="334" height="91" viewBox="0 0 334 91" fill="none" xmlns="http://www.w3.org/2000/svg">
<path d="M0 0H334V79C334 85.6274 328.627 91 322 91H12C5.37258 91 0 85.6274 0 79V0Z" fill="#333333"/>
<path d="M8.26 28V19.6H11.536C12.272 19.6 12.9 19.716 13.42 19.948C13.94 20.18 14.34 20.516 14.62 20.956C14.9 21.396 15.04 21.92 15.04 22.528C15.04 23.136 14.9 23.66 14.62 24.1C14.34 24.532 13.94 24.868 13.42 25.108C12.9 25.34 12.272 25.456 11.536 25.456H8.92L9.46 24.892V28H8.26ZM9.46 25.012L8.92 24.412H11.5C12.268 24.412 12.848 24.248 13.24 23.92C13.64 23.592 13.84 23.128 13.84 22.528C13.84 21.928 13.64 21.464 13.24 21.136C12.848 20.808 12.268 20.644 11.5 20.644H8.92L9.46 20.044V25.012ZM19.3355 28.072C18.6955 28.072 18.1275 27.932 17.6315 27.652C17.1355 27.372 16.7435 26.988 16.4555 26.5C16.1675 26.004 16.0235 25.444 16.0235 24.82C16.0235 24.188 16.1675 23.628 16.4555 23.14C16.7435 22.652 17.1355 22.272 17.6315 22C18.1275 21.72 18.6955 21.58 19.3355 21.58C19.9675 21.58 20.5315 21.72 21.0275 22C21.5315 22.272 21.9235 22.652 22.2035 23.14C22.4915 23.62 22.6355 24.18 22.6355 24.82C22.6355 25.452 22.4915 26.012 22.2035 26.5C21.9235 26.988 21.5315 27.372 21.0275 27.652C20.5315 27.932 19.9675 28.072 19.3355 28.072ZM19.3355 27.064C19.7435 27.064 20.1075 26.972 20.4275 26.788C20.7555 26.604 21.0115 26.344 21.1955 26.008C21.3795 25.664 21.4715 25.268 21.4715 24.82C21.4715 24.364 21.3795 23.972 21.1955 23.644C21.0115 23.308 20.7555 23.048 20.4275 22.864C20.1075 22.68 19.7435 22.588 19.3355 22.588C18.9275 22.588 18.5635 22.68 18.2435 22.864C17.9235 23.048 17.6675 23.308 17.4755 23.644C17.2835 23.972 17.1875 24.364 17.1875 24.82C17.1875 25.268 17.2835 25.664 17.4755 26.008C17.6675 26.344 17.9235 26.604 18.2435 26.788C18.5635 26.972 18.9275 27.064 19.3355 27.064ZM26.0527 28.072C25.5247 28.072 25.0207 28 24.5407 27.856C24.0687 27.712 23.6967 27.536 23.4247 27.328L23.9047 26.416C24.1767 26.6 24.5127 26.756 24.9127 26.884C25.3127 27.012 25.7207 27.076 26.1367 27.076C26.6727 27.076 27.0567 27 27.2887 26.848C27.5287 26.696 27.6487 26.484 27.6487 26.212C27.6487 26.012 27.5767 25.856 27.4327 25.744C27.2887 25.632 27.0967 25.548 26.8567 25.492C26.6247 25.436 26.3647 25.388 26.0767 25.348C25.7887 25.3 25.5007 25.244 25.2127 25.18C24.9247 25.108 24.6607 25.012 24.4207 24.892C24.1807 24.764 23.9887 24.592 23.8447 24.376C23.7007 24.152 23.6287 23.856 23.6287 23.488C23.6287 23.104 23.7367 22.768 23.9527 22.48C24.1687 22.192 24.4727 21.972 24.8647 21.82C25.2647 21.66 25.7367 21.58 26.2807 21.58C26.6967 21.58 27.1167 21.632 27.5407 21.736C27.9727 21.832 28.3247 21.972 28.5967 22.156L28.1047 23.068C27.8167 22.876 27.5167 22.744 27.2047 22.672C26.8927 22.6 26.5807 22.564 26.2687 22.564C25.7647 22.564 25.3887 22.648 25.1407 22.816C24.8927 22.976 24.7687 23.184 24.7687 23.44C24.7687 23.656 24.8407 23.824 24.9847 23.944C25.1367 24.056 25.3287 24.144 25.5607 24.208C25.8007 24.272 26.0647 24.328 26.3527 24.376C26.6407 24.416 26.9287 24.472 27.2167 24.544C27.5047 24.608 27.7647 24.7 27.9967 24.82C28.2367 24.94 28.4287 25.108 28.5727 25.324C28.7247 25.54 28.8007 25.828 28.8007 26.188C28.8007 26.572 28.6887 26.904 28.4647 27.184C28.2407 27.464 27.9247 27.684 27.5167 27.844C27.1087 27.996 26.6207 28.072 26.0527 28.072ZM32.0644 28.072C31.5364 28.072 31.0324 28 30.5524 27.856C30.0804 27.712 29.7084 27.536 29.4364 27.328L29.9164 26.416C30.1884 26.6 30.5244 26.756 30.9244 26.884C31.3244 27.012 31.7324 27.076 32.1484 27.076C32.6844 27.076 33.0684 27 33.3004 26.848C33.5404 26.696 33.6604 26.484 33.6604 26.212C33.6604 26.012 33.5884 25.856 33.4444 25.744C33.3004 25.632 33.1084 25.548 32.8684 25.492C32.6364 25.436 32.3764 25.388 32.0884 25.348C31.8004 25.3 31.5124 25.244 31.2244 25.18C30.9364 25.108 30.6724 25.012 30.4324 24.892C30.1924 24.764 30.0004 24.592 29.8564 24.376C29.7124 24.152 29.6404 23.856 29.6404 23.488C29.6404 23.104 29.7484 22.768 29.9644 22.48C30.1804 22.192 30.4844 21.972 30.8764 21.82C31.2764 21.66 31.7484 21.58 32.2924 21.58C32.7084 21.58 33.1284 21.632 33.5524 21.736C33.9844 21.832 34.3364 21.972 34.6084 22.156L34.1164 23.068C33.8284 22.876 33.5284 22.744 33.2164 22.672C32.9044 22.6 32.5924 22.564 32.2804 22.564C31.7764 22.564 31.4004 22.648 31.1524 22.816C30.9044 22.976 30.7804 23.184 30.7804 23.44C30.7804 23.656 30.8524 23.824 30.9964 23.944C31.1484 24.056 31.3404 24.144 31.5724 24.208C31.8124 24.272 32.0764 24.328 32.3644 24.376C32.6524 24.416 32.9404 24.472 33.2284 24.544C33.5164 24.608 33.7764 24.7 34.0084 24.82C34.2484 24.94 34.4404 25.108 34.5844 25.324C34.7364 25.54 34.8124 25.828 34.8124 26.188C34.8124 26.572 34.7004 26.904 34.4764 27.184C34.2524 27.464 33.9364 27.684 33.5284 27.844C33.1204 27.996 32.6324 28.072 32.0644 28.072ZM36.2522 28V21.64H37.4042V28H36.2522ZM36.8282 20.416C36.6042 20.416 36.4162 20.344 36.2642 20.2C36.1202 20.056 36.0482 19.88 36.0482 19.672C36.0482 19.456 36.1202 19.276 36.2642 19.132C36.4162 18.988 36.6042 18.916 36.8282 18.916C37.0522 18.916 37.2362 18.988 37.3802 19.132C37.5322 19.268 37.6082 19.44 37.6082 19.648C37.6082 19.864 37.5362 20.048 37.3922 20.2C37.2482 20.344 37.0602 20.416 36.8282 20.416ZM42.9757 28.072C42.4317 28.072 41.9397 27.952 41.4997 27.712C41.0677 27.464 40.7237 27.1 40.4677 26.62C40.2197 26.14 40.0957 25.54 40.0957 24.82C40.0957 24.1 40.2237 23.5 40.4797 23.02C40.7437 22.54 41.0917 22.18 41.5237 21.94C41.9637 21.7 42.4477 21.58 42.9757 21.58C43.5997 21.58 44.1517 21.716 44.6317 21.988C45.1117 22.26 45.4917 22.64 45.7717 23.128C46.0517 23.608 46.1917 24.172 46.1917 24.82C46.1917 25.468 46.0517 26.036 45.7717 26.524C45.4917 27.012 45.1117 27.392 44.6317 27.664C44.1517 27.936 43.5997 28.072 42.9757 28.072ZM39.6037 28V19.096H40.7557V23.332L40.6357 24.808L40.7077 26.284V28H39.6037ZM42.8797 27.064C43.2877 27.064 43.6517 26.972 43.9717 26.788C44.2997 26.604 44.5557 26.344 44.7397 26.008C44.9317 25.664 45.0277 25.268 45.0277 24.82C45.0277 24.364 44.9317 23.972 44.7397 23.644C44.5557 23.308 44.2997 23.048 43.9717 22.864C43.6517 22.68 43.2877 22.588 42.8797 22.588C42.4797 22.588 42.1157 22.68 41.7877 22.864C41.4677 23.048 41.2117 23.308 41.0197 23.644C40.8357 23.972 40.7437 24.364 40.7437 24.82C40.7437 25.268 40.8357 25.664 41.0197 26.008C41.2117 26.344 41.4677 26.604 41.7877 26.788C42.1157 26.972 42.4797 27.064 42.8797 27.064ZM47.7834 28V19.096H48.9354V28H47.7834ZM53.967 28.072C53.287 28.072 52.687 27.932 52.167 27.652C51.655 27.372 51.255 26.988 50.967 26.5C50.687 26.012 50.547 25.452 50.547 24.82C50.547 24.188 50.683 23.628 50.955 23.14C51.235 22.652 51.615 22.272 52.095 22C52.583 21.72 53.131 21.58 53.739 21.58C54.355 21.58 54.899 21.716 55.371 21.988C55.843 22.26 56.211 22.644 56.475 23.14C56.747 23.628 56.883 24.2 56.883 24.856C56.883 24.904 56.879 24.96 56.871 25.024C56.871 25.088 56.867 25.148 56.859 25.204H51.447V24.376H56.259L55.791 24.664C55.799 24.256 55.715 23.892 55.539 23.572C55.363 23.252 55.119 23.004 54.807 22.828C54.503 22.644 54.147 22.552 53.739 22.552C53.339 22.552 52.983 22.644 52.671 22.828C52.359 23.004 52.115 23.256 51.939 23.584C51.763 23.904 51.675 24.272 51.675 24.688V24.88C51.675 25.304 51.771 25.684 51.963 26.02C52.163 26.348 52.439 26.604 52.791 26.788C53.143 26.972 53.547 27.064 54.003 27.064C54.379 27.064 54.719 27 55.023 26.872C55.335 26.744 55.607 26.552 55.839 26.296L56.475 27.04C56.187 27.376 55.827 27.632 55.395 27.808C54.971 27.984 54.495 28.072 53.967 28.072ZM60.6013 28L64.4053 19.6H65.5933L69.4093 28H68.1493L64.7533 20.272H65.2333L61.8373 28H60.6013ZM62.2213 25.9L62.5453 24.94H67.2733L67.6213 25.9H62.2213ZM73.2078 28.072C72.5598 28.072 71.9798 27.932 71.4678 27.652C70.9638 27.372 70.5678 26.988 70.2798 26.5C69.9918 26.012 69.8478 25.452 69.8478 24.82C69.8478 24.188 69.9918 23.628 70.2798 23.14C70.5678 22.652 70.9638 22.272 71.4678 22C71.9798 21.72 72.5598 21.58 73.2078 21.58C73.7838 21.58 74.2958 21.696 74.7438 21.928C75.1998 22.152 75.5518 22.488 75.7998 22.936L74.9238 23.5C74.7158 23.188 74.4598 22.96 74.1558 22.816C73.8598 22.664 73.5398 22.588 73.1958 22.588C72.7798 22.588 72.4078 22.68 72.0798 22.864C71.7518 23.048 71.4918 23.308 71.2998 23.644C71.1078 23.972 71.0118 24.364 71.0118 24.82C71.0118 25.276 71.1078 25.672 71.2998 26.008C71.4918 26.344 71.7518 26.604 72.0798 26.788C72.4078 26.972 72.7798 27.064 73.1958 27.064C73.5398 27.064 73.8598 26.992 74.1558 26.848C74.4598 26.696 74.7158 26.464 74.9238 26.152L75.7998 26.704C75.5518 27.144 75.1998 27.484 74.7438 27.724C74.2958 27.956 73.7838 28.072 73.2078 28.072ZM79.5573 28.072C78.9173 28.072 78.4213 27.9 78.0693 27.556C77.7173 27.212 77.5413 26.72 77.5413 26.08V20.248H78.6933V26.032C78.6933 26.376 78.7773 26.64 78.9453 26.824C79.1213 27.008 79.3693 27.1 79.6893 27.1C80.0493 27.1 80.3493 27 80.5893 26.8L80.9493 27.628C80.7733 27.78 80.5613 27.892 80.3133 27.964C80.0733 28.036 79.8213 28.072 79.5573 28.072ZM76.4613 22.588V21.64H80.5173V22.588H76.4613ZM82.342 28V21.64H83.494V28H82.342ZM82.918 20.416C82.694 20.416 82.506 20.344 82.354 20.2C82.21 20.056 82.138 19.88 82.138 19.672C82.138 19.456 82.21 19.276 82.354 19.132C82.506 18.988 82.694 18.916 82.918 18.916C83.142 18.916 83.326 18.988 83.47 19.132C83.622 19.268 83.698 19.44 83.698 19.648C83.698 19.864 83.626 20.048 83.482 20.2C83.338 20.344 83.15 20.416 82.918 20.416ZM88.4176 28.072C87.7776 28.072 87.2096 27.932 86.7136 27.652C86.2176 27.372 85.8256 26.988 85.5376 26.5C85.2496 26.004 85.1056 25.444 85.1056 24.82C85.1056 24.188 85.2496 23.628 85.5376 23.14C85.8256 22.652 86.2176 22.272 86.7136 22C87.2096 21.72 87.7776 21.58 88.4176 21.58C89.0496 21.58 89.6136 21.72 90.1096 22C90.6136 22.272 91.0056 22.652 91.2856 23.14C91.5736 23.62 91.7176 24.18 91.7176 24.82C91.7176 25.452 91.5736 26.012 91.2856 26.5C91.0056 26.988 90.6136 27.372 90.1096 27.652C89.6136 27.932 89.0496 28.072 88.4176 28.072ZM88.4176 27.064C88.8256 27.064 89.1896 26.972 89.5096 26.788C89.8376 26.604 90.0936 26.344 90.2776 26.008C90.4616 25.664 90.5536 25.268 90.5536 24.82C90.5536 24.364 90.4616 23.972 90.2776 23.644C90.0936 23.308 89.8376 23.048 89.5096 22.864C89.1896 22.68 88.8256 22.588 88.4176 22.588C88.0096 22.588 87.6456 22.68 87.3256 22.864C87.0056 23.048 86.7496 23.308 86.5576 23.644C86.3656 23.972 86.2696 24.364 86.2696 24.82C86.2696 25.268 86.3656 25.664 86.5576 26.008C86.7496 26.344 87.0056 26.604 87.3256 26.788C87.6456 26.972 88.0096 27.064 88.4176 27.064ZM96.7068 21.58C97.2268 21.58 97.6828 21.68 98.0748 21.88C98.4748 22.08 98.7868 22.384 99.0108 22.792C99.2348 23.2 99.3468 23.716 99.3468 24.34V28H98.1948V24.472C98.1948 23.856 98.0428 23.392 97.7388 23.08C97.4428 22.768 97.0228 22.612 96.4788 22.612C96.0708 22.612 95.7148 22.692 95.4108 22.852C95.1068 23.012 94.8708 23.248 94.7028 23.56C94.5428 23.872 94.4628 24.26 94.4628 24.724V28H93.3108V21.64H94.4148V23.356L94.2348 22.9C94.4428 22.484 94.7628 22.16 95.1948 21.928C95.6268 21.696 96.1308 21.58 96.7068 21.58Z" fill="white"/>
<path d="M10.732 46.12C10.076 46.12 9.448 46.028 8.848 45.844C8.248 45.652 7.772 45.408 7.42 45.112L7.96 43.9C8.296 44.164 8.712 44.384 9.208 44.56C9.704 44.736 10.212 44.824 10.732 44.824C11.172 44.824 11.528 44.776 11.8 44.68C12.072 44.584 12.272 44.456 12.4 44.296C12.528 44.128 12.592 43.94 12.592 43.732C12.592 43.476 12.5 43.272 12.316 43.12C12.132 42.96 11.892 42.836 11.596 42.748C11.308 42.652 10.984 42.564 10.624 42.484C10.272 42.404 9.916 42.312 9.556 42.208C9.204 42.096 8.88 41.956 8.584 41.788C8.296 41.612 8.06 41.38 7.876 41.092C7.692 40.804 7.6 40.436 7.6 39.988C7.6 39.532 7.72 39.116 7.96 38.74C8.208 38.356 8.58 38.052 9.076 37.828C9.58 37.596 10.216 37.48 10.984 37.48C11.488 37.48 11.988 37.544 12.484 37.672C12.98 37.8 13.412 37.984 13.78 38.224L13.288 39.436C12.912 39.212 12.524 39.048 12.124 38.944C11.724 38.832 11.34 38.776 10.972 38.776C10.54 38.776 10.188 38.828 9.916 38.932C9.652 39.036 9.456 39.172 9.328 39.34C9.208 39.508 9.148 39.7 9.148 39.916C9.148 40.172 9.236 40.38 9.412 40.54C9.596 40.692 9.832 40.812 10.12 40.9C10.416 40.988 10.744 41.076 11.104 41.164C11.464 41.244 11.82 41.336 12.172 41.44C12.532 41.544 12.856 41.68 13.144 41.848C13.44 42.016 13.676 42.244 13.852 42.532C14.036 42.82 14.128 43.184 14.128 43.624C14.128 44.072 14.004 44.488 13.756 44.872C13.516 45.248 13.144 45.552 12.64 45.784C12.136 46.008 11.5 46.12 10.732 46.12ZM18.4709 46.084C17.7989 46.084 17.1989 45.944 16.6709 45.664C16.1509 45.376 15.7429 44.984 15.4469 44.488C15.1509 43.992 15.0029 43.428 15.0029 42.796C15.0029 42.156 15.1509 41.592 15.4469 41.104C15.7429 40.608 16.1509 40.22 16.6709 39.94C17.1989 39.66 17.7989 39.52 18.4709 39.52C19.0949 39.52 19.6429 39.648 20.1149 39.904C20.5949 40.152 20.9589 40.52 21.2069 41.008L20.0549 41.68C19.8629 41.376 19.6269 41.152 19.3469 41.008C19.0749 40.864 18.7789 40.792 18.4589 40.792C18.0909 40.792 17.7589 40.872 17.4629 41.032C17.1669 41.192 16.9349 41.424 16.7669 41.728C16.5989 42.024 16.5149 42.38 16.5149 42.796C16.5149 43.212 16.5989 43.572 16.7669 43.876C16.9349 44.172 17.1669 44.4 17.4629 44.56C17.7589 44.72 18.0909 44.8 18.4589 44.8C18.7789 44.8 19.0749 44.728 19.3469 44.584C19.6269 44.44 19.8629 44.216 20.0549 43.912L21.2069 44.584C20.9589 45.064 20.5949 45.436 20.1149 45.7C19.6429 45.956 19.0949 46.084 18.4709 46.084ZM26.0809 39.52C26.5929 39.52 27.0489 39.62 27.4489 39.82C27.8569 40.02 28.1769 40.328 28.4089 40.744C28.6409 41.152 28.7569 41.68 28.7569 42.328V46H27.2569V42.52C27.2569 41.952 27.1209 41.528 26.8489 41.248C26.5849 40.968 26.2129 40.828 25.7329 40.828C25.3809 40.828 25.0689 40.9 24.7969 41.044C24.5249 41.188 24.3129 41.404 24.1609 41.692C24.0169 41.972 23.9449 42.328 23.9449 42.76V46H22.4449V37.096H23.9449V41.32L23.6209 40.792C23.8449 40.384 24.1689 40.072 24.5929 39.856C25.0249 39.632 25.5209 39.52 26.0809 39.52ZM33.6835 46.084C32.9715 46.084 32.3475 45.944 31.8115 45.664C31.2835 45.376 30.8715 44.984 30.5755 44.488C30.2875 43.992 30.1435 43.428 30.1435 42.796C30.1435 42.156 30.2835 41.592 30.5635 41.104C30.8515 40.608 31.2435 40.22 31.7395 39.94C32.2435 39.66 32.8155 39.52 33.4555 39.52C34.0795 39.52 34.6355 39.656 35.1235 39.928C35.6115 40.2 35.9955 40.584 36.2755 41.08C36.5555 41.576 36.6955 42.16 36.6955 42.832C36.6955 42.896 36.6915 42.968 36.6835 43.048C36.6835 43.128 36.6795 43.204 36.6715 43.276H31.3315V42.28H35.8795L35.2915 42.592C35.2995 42.224 35.2235 41.9 35.0635 41.62C34.9035 41.34 34.6835 41.12 34.4035 40.96C34.1315 40.8 33.8155 40.72 33.4555 40.72C33.0875 40.72 32.7635 40.8 32.4835 40.96C32.2115 41.12 31.9955 41.344 31.8355 41.632C31.6835 41.912 31.6075 42.244 31.6075 42.628V42.868C31.6075 43.252 31.6955 43.592 31.8715 43.888C32.0475 44.184 32.2955 44.412 32.6155 44.572C32.9355 44.732 33.3035 44.812 33.7195 44.812C34.0795 44.812 34.4035 44.756 34.6915 44.644C34.9795 44.532 35.2355 44.356 35.4595 44.116L36.2635 45.04C35.9755 45.376 35.6115 45.636 35.1715 45.82C34.7395 45.996 34.2435 46.084 33.6835 46.084ZM40.8483 46.084C40.2323 46.084 39.6763 45.948 39.1803 45.676C38.6923 45.396 38.3083 45.012 38.0283 44.524C37.7483 44.036 37.6083 43.46 37.6083 42.796C37.6083 42.132 37.7483 41.556 38.0283 41.068C38.3083 40.58 38.6923 40.2 39.1803 39.928C39.6763 39.656 40.2323 39.52 40.8483 39.52C41.3843 39.52 41.8643 39.64 42.2883 39.88C42.7123 40.112 43.0483 40.468 43.2963 40.948C43.5443 41.428 43.6683 42.044 43.6683 42.796C43.6683 43.54 43.5483 44.156 43.3083 44.644C43.0683 45.124 42.7363 45.484 42.3123 45.724C41.8883 45.964 41.4003 46.084 40.8483 46.084ZM41.0283 44.8C41.3883 44.8 41.7083 44.72 41.9883 44.56C42.2763 44.4 42.5043 44.168 42.6723 43.864C42.8483 43.56 42.9363 43.204 42.9363 42.796C42.9363 42.38 42.8483 42.024 42.6723 41.728C42.5043 41.424 42.2763 41.192 41.9883 41.032C41.7083 40.872 41.3883 40.792 41.0283 40.792C40.6683 40.792 40.3443 40.872 40.0563 41.032C39.7763 41.192 39.5483 41.424 39.3723 41.728C39.2043 42.024 39.1203 42.38 39.1203 42.796C39.1203 43.204 39.2043 43.56 39.3723 43.864C39.5483 44.168 39.7763 44.4 40.0563 44.56C40.3443 44.72 40.6683 44.8 41.0283 44.8ZM42.9723 46V44.488L43.0323 42.784L42.9123 41.08V37.096H44.4003V46H42.9723ZM49.0866 46.084C48.5426 46.084 48.0626 45.984 47.6466 45.784C47.2306 45.576 46.9066 45.264 46.6746 44.848C46.4426 44.424 46.3266 43.892 46.3266 43.252V39.592H47.8266V43.048C47.8266 43.624 47.9546 44.056 48.2106 44.344C48.4746 44.624 48.8466 44.764 49.3266 44.764C49.6786 44.764 49.9826 44.692 50.2386 44.548C50.5026 44.404 50.7066 44.188 50.8506 43.9C51.0026 43.612 51.0786 43.256 51.0786 42.832V39.592H52.5786V46H51.1506V44.272L51.4026 44.8C51.1866 45.216 50.8706 45.536 50.4546 45.76C50.0386 45.976 49.5826 46.084 49.0866 46.084ZM54.5426 46V37.096H56.0426V46H54.5426ZM61.0233 46.084C60.3113 46.084 59.6873 45.944 59.1513 45.664C58.6233 45.376 58.2113 44.984 57.9153 44.488C57.6273 43.992 57.4833 43.428 57.4833 42.796C57.4833 42.156 57.6233 41.592 57.9033 41.104C58.1913 40.608 58.5833 40.22 59.0793 39.94C59.5833 39.66 60.1553 39.52 60.7953 39.52C61.4193 39.52 61.9753 39.656 62.4633 39.928C62.9513 40.2 63.3353 40.584 63.6153 41.08C63.8953 41.576 64.0353 42.16 64.0353 42.832C64.0353 42.896 64.0313 42.968 64.0233 43.048C64.0233 43.128 64.0193 43.204 64.0113 43.276H58.6713V42.28H63.2193L62.6313 42.592C62.6393 42.224 62.5633 41.9 62.4033 41.62C62.2433 41.34 62.0233 41.12 61.7433 40.96C61.4713 40.8 61.1553 40.72 60.7953 40.72C60.4273 40.72 60.1033 40.8 59.8233 40.96C59.5513 41.12 59.3353 41.344 59.1753 41.632C59.0233 41.912 58.9473 42.244 58.9473 42.628V42.868C58.9473 43.252 59.0353 43.592 59.2113 43.888C59.3873 44.184 59.6353 44.412 59.9553 44.572C60.2753 44.732 60.6433 44.812 61.0593 44.812C61.4193 44.812 61.7433 44.756 62.0313 44.644C62.3193 44.532 62.5753 44.356 62.7993 44.116L63.6033 45.04C63.3153 45.376 62.9513 45.636 62.5113 45.82C62.0793 45.996 61.5833 46.084 61.0233 46.084ZM72.3446 46.084C71.8246 46.084 71.3486 45.964 70.9166 45.724C70.4926 45.484 70.1526 45.124 69.8966 44.644C69.6486 44.156 69.5246 43.54 69.5246 42.796C69.5246 42.044 69.6446 41.428 69.8846 40.948C70.1326 40.468 70.4686 40.112 70.8926 39.88C71.3166 39.64 71.8006 39.52 72.3446 39.52C72.9766 39.52 73.5326 39.656 74.0126 39.928C74.5006 40.2 74.8846 40.58 75.1646 41.068C75.4526 41.556 75.5966 42.132 75.5966 42.796C75.5966 43.46 75.4526 44.04 75.1646 44.536C74.8846 45.024 74.5006 45.404 74.0126 45.676C73.5326 45.948 72.9766 46.084 72.3446 46.084ZM68.7926 48.328V39.592H70.2206V41.104L70.1726 42.808L70.2926 44.512V48.328H68.7926ZM72.1766 44.8C72.5366 44.8 72.8566 44.72 73.1366 44.56C73.4246 44.4 73.6526 44.168 73.8206 43.864C73.9886 43.56 74.0726 43.204 74.0726 42.796C74.0726 42.38 73.9886 42.024 73.8206 41.728C73.6526 41.424 73.4246 41.192 73.1366 41.032C72.8566 40.872 72.5366 40.792 72.1766 40.792C71.8166 40.792 71.4926 40.872 71.2046 41.032C70.9166 41.192 70.6886 41.424 70.5206 41.728C70.3526 42.024 70.2686 42.38 70.2686 42.796C70.2686 43.204 70.3526 43.56 70.5206 43.864C70.6886 44.168 70.9166 44.4 71.2046 44.56C71.4926 44.72 71.8166 44.8 72.1766 44.8ZM77.0192 46V39.592H78.4472V41.356L78.2792 40.84C78.4712 40.408 78.7712 40.08 79.1792 39.856C79.5952 39.632 80.1112 39.52 80.7272 39.52V40.948C80.6632 40.932 80.6032 40.924 80.5472 40.924C80.4912 40.916 80.4352 40.912 80.3792 40.912C79.8112 40.912 79.3592 41.08 79.0232 41.416C78.6872 41.744 78.5192 42.236 78.5192 42.892V46H77.0192ZM84.953 46.084C84.241 46.084 83.617 45.944 83.081 45.664C82.553 45.376 82.141 44.984 81.845 44.488C81.557 43.992 81.413 43.428 81.413 42.796C81.413 42.156 81.553 41.592 81.833 41.104C82.121 40.608 82.513 40.22 83.009 39.94C83.513 39.66 84.085 39.52 84.725 39.52C85.349 39.52 85.905 39.656 86.393 39.928C86.881 40.2 87.265 40.584 87.545 41.08C87.825 41.576 87.965 42.16 87.965 42.832C87.965 42.896 87.961 42.968 87.953 43.048C87.953 43.128 87.949 43.204 87.941 43.276H82.601V42.28H87.149L86.561 42.592C86.569 42.224 86.493 41.9 86.333 41.62C86.173 41.34 85.953 41.12 85.673 40.96C85.401 40.8 85.085 40.72 84.725 40.72C84.357 40.72 84.033 40.8 83.753 40.96C83.481 41.12 83.265 41.344 83.105 41.632C82.953 41.912 82.877 42.244 82.877 42.628V42.868C82.877 43.252 82.965 43.592 83.141 43.888C83.317 44.184 83.565 44.412 83.885 44.572C84.205 44.732 84.573 44.812 84.989 44.812C85.349 44.812 85.673 44.756 85.961 44.644C86.249 44.532 86.505 44.356 86.729 44.116L87.533 45.04C87.245 45.376 86.881 45.636 86.441 45.82C86.009 45.996 85.513 46.084 84.953 46.084ZM90.9927 46L88.2447 39.592H89.8047L92.1687 45.244H91.4007L93.8487 39.592H95.2887L92.5407 46H90.9927ZM99.0624 46.084C98.3504 46.084 97.7264 45.944 97.1904 45.664C96.6624 45.376 96.2504 44.984 95.9544 44.488C95.6664 43.992 95.5224 43.428 95.5224 42.796C95.5224 42.156 95.6624 41.592 95.9424 41.104C96.2304 40.608 96.6224 40.22 97.1184 39.94C97.6224 39.66 98.1944 39.52 98.8344 39.52C99.4584 39.52 100.014 39.656 100.502 39.928C100.99 40.2 101.374 40.584 101.654 41.08C101.934 41.576 102.074 42.16 102.074 42.832C102.074 42.896 102.07 42.968 102.062 43.048C102.062 43.128 102.058 43.204 102.05 43.276H96.7104V42.28H101.258L100.67 42.592C100.678 42.224 100.602 41.9 100.442 41.62C100.282 41.34 100.062 41.12 99.7824 40.96C99.5104 40.8 99.1944 40.72 98.8344 40.72C98.4664 40.72 98.1424 40.8 97.8624 40.96C97.5904 41.12 97.3744 41.344 97.2144 41.632C97.0624 41.912 96.9864 42.244 96.9864 42.628V42.868C96.9864 43.252 97.0744 43.592 97.2504 43.888C97.4264 44.184 97.6744 44.412 97.9944 44.572C98.3144 44.732 98.6824 44.812 99.0984 44.812C99.4584 44.812 99.7824 44.756 100.07 44.644C100.358 44.532 100.614 44.356 100.838 44.116L101.642 45.04C101.354 45.376 100.99 45.636 100.55 45.82C100.118 45.996 99.6224 46.084 99.0624 46.084ZM107.151 39.52C107.663 39.52 108.119 39.62 108.519 39.82C108.927 40.02 109.247 40.328 109.479 40.744C109.711 41.152 109.827 41.68 109.827 42.328V46H108.327V42.52C108.327 41.952 108.191 41.528 107.919 41.248C107.655 40.968 107.283 40.828 106.803 40.828C106.451 40.828 106.139 40.9 105.867 41.044C105.595 41.188 105.383 41.404 105.231 41.692C105.087 41.972 105.015 42.328 105.015 42.76V46H103.515V39.592H104.943V41.32L104.691 40.792C104.915 40.384 105.239 40.072 105.663 39.856C106.095 39.632 106.591 39.52 107.151 39.52ZM114.142 46.084C113.438 46.084 112.894 45.904 112.51 45.544C112.126 45.176 111.934 44.636 111.934 43.924V38.176H113.434V43.888C113.434 44.192 113.51 44.428 113.662 44.596C113.822 44.764 114.042 44.848 114.322 44.848C114.658 44.848 114.938 44.76 115.162 44.584L115.582 45.652C115.406 45.796 115.19 45.904 114.934 45.976C114.678 46.048 114.414 46.084 114.142 46.084ZM110.878 40.84V39.64H115.15V40.84H110.878ZM116.816 46V39.592H118.316V46H116.816ZM117.572 38.536C117.292 38.536 117.06 38.448 116.876 38.272C116.7 38.096 116.612 37.884 116.612 37.636C116.612 37.38 116.7 37.168 116.876 37C117.06 36.824 117.292 36.736 117.572 36.736C117.852 36.736 118.08 36.82 118.256 36.988C118.44 37.148 118.532 37.352 118.532 37.6C118.532 37.864 118.444 38.088 118.268 38.272C118.092 38.448 117.86 38.536 117.572 38.536ZM121.989 46L119.241 39.592H120.801L123.165 45.244H122.397L124.845 39.592H126.285L123.537 46H121.989ZM130.059 46.084C129.347 46.084 128.723 45.944 128.187 45.664C127.659 45.376 127.247 44.984 126.951 44.488C126.663 43.992 126.519 43.428 126.519 42.796C126.519 42.156 126.659 41.592 126.939 41.104C127.227 40.608 127.619 40.22 128.115 39.94C128.619 39.66 129.191 39.52 129.831 39.52C130.455 39.52 131.011 39.656 131.499 39.928C131.987 40.2 132.371 40.584 132.651 41.08C132.931 41.576 133.071 42.16 133.071 42.832C133.071 42.896 133.067 42.968 133.059 43.048C133.059 43.128 133.055 43.204 133.047 43.276H127.707V42.28H132.255L131.667 42.592C131.675 42.224 131.599 41.9 131.439 41.62C131.279 41.34 131.059 41.12 130.779 40.96C130.507 40.8 130.191 40.72 129.831 40.72C129.463 40.72 129.139 40.8 128.859 40.96C128.587 41.12 128.371 41.344 128.211 41.632C128.059 41.912 127.983 42.244 127.983 42.628V42.868C127.983 43.252 128.071 43.592 128.247 43.888C128.423 44.184 128.671 44.412 128.991 44.572C129.311 44.732 129.679 44.812 130.095 44.812C130.455 44.812 130.779 44.756 131.067 44.644C131.355 44.532 131.611 44.356 131.835 44.116L132.639 45.04C132.351 45.376 131.987 45.636 131.547 45.82C131.115 45.996 130.619 46.084 130.059 46.084ZM145.916 39.52C146.428 39.52 146.88 39.62 147.272 39.82C147.672 40.02 147.984 40.328 148.208 40.744C148.432 41.152 148.544 41.68 148.544 42.328V46H147.044V42.52C147.044 41.952 146.92 41.528 146.672 41.248C146.424 40.968 146.068 40.828 145.604 40.828C145.276 40.828 144.984 40.9 144.728 41.044C144.48 41.188 144.284 41.4 144.14 41.68C144.004 41.96 143.936 42.316 143.936 42.748V46H142.436V42.52C142.436 41.952 142.312 41.528 142.064 41.248C141.816 40.968 141.46 40.828 140.996 40.828C140.668 40.828 140.376 40.9 140.12 41.044C139.872 41.188 139.676 41.4 139.532 41.68C139.396 41.96 139.328 42.316 139.328 42.748V46H137.828V39.592H139.256V41.296L139.004 40.792C139.22 40.376 139.532 40.06 139.94 39.844C140.356 39.628 140.828 39.52 141.356 39.52C141.956 39.52 142.476 39.668 142.916 39.964C143.364 40.26 143.66 40.708 143.804 41.308L143.216 41.104C143.424 40.624 143.768 40.24 144.248 39.952C144.728 39.664 145.284 39.52 145.916 39.52ZM154.409 46V44.704L154.325 44.428V42.16C154.325 41.72 154.193 41.38 153.929 41.14C153.665 40.892 153.265 40.768 152.729 40.768C152.369 40.768 152.013 40.824 151.661 40.936C151.317 41.048 151.025 41.204 150.785 41.404L150.197 40.312C150.541 40.048 150.949 39.852 151.421 39.724C151.901 39.588 152.397 39.52 152.909 39.52C153.837 39.52 154.553 39.744 155.057 40.192C155.569 40.632 155.825 41.316 155.825 42.244V46H154.409ZM152.393 46.084C151.913 46.084 151.493 46.004 151.133 45.844C150.773 45.676 150.493 45.448 150.293 45.16C150.101 44.864 150.005 44.532 150.005 44.164C150.005 43.804 150.089 43.48 150.257 43.192C150.433 42.904 150.717 42.676 151.109 42.508C151.501 42.34 152.021 42.256 152.669 42.256H154.529V43.252H152.777C152.265 43.252 151.921 43.336 151.745 43.504C151.569 43.664 151.481 43.864 151.481 44.104C151.481 44.376 151.589 44.592 151.805 44.752C152.021 44.912 152.321 44.992 152.705 44.992C153.073 44.992 153.401 44.908 153.689 44.74C153.985 44.572 154.197 44.324 154.325 43.996L154.577 44.896C154.433 45.272 154.173 45.564 153.797 45.772C153.429 45.98 152.961 46.084 152.393 46.084ZM157.75 46V39.592H159.25V46H157.75ZM158.506 38.536C158.226 38.536 157.994 38.448 157.81 38.272C157.634 38.096 157.546 37.884 157.546 37.636C157.546 37.38 157.634 37.168 157.81 37C157.994 36.824 158.226 36.736 158.506 36.736C158.786 36.736 159.014 36.82 159.19 36.988C159.374 37.148 159.466 37.352 159.466 37.6C159.466 37.864 159.378 38.088 159.202 38.272C159.026 38.448 158.794 38.536 158.506 38.536ZM164.854 39.52C165.366 39.52 165.822 39.62 166.222 39.82C166.63 40.02 166.95 40.328 167.182 40.744C167.414 41.152 167.53 41.68 167.53 42.328V46H166.03V42.52C166.03 41.952 165.894 41.528 165.622 41.248C165.358 40.968 164.986 40.828 164.506 40.828C164.154 40.828 163.842 40.9 163.57 41.044C163.298 41.188 163.086 41.404 162.934 41.692C162.79 41.972 162.718 42.328 162.718 42.76V46H161.218V39.592H162.646V41.32L162.394 40.792C162.618 40.384 162.942 40.072 163.366 39.856C163.798 39.632 164.294 39.52 164.854 39.52ZM171.845 46.084C171.141 46.084 170.597 45.904 170.213 45.544C169.829 45.176 169.637 44.636 169.637 43.924V38.176H171.137V43.888C171.137 44.192 171.213 44.428 171.365 44.596C171.525 44.764 171.745 44.848 172.025 44.848C172.361 44.848 172.641 44.76 172.865 44.584L173.285 45.652C173.109 45.796 172.893 45.904 172.637 45.976C172.381 46.048 172.117 46.084 171.845 46.084ZM168.581 40.84V39.64H172.853V40.84H168.581ZM177.32 46.084C176.608 46.084 175.984 45.944 175.448 45.664C174.92 45.376 174.508 44.984 174.212 44.488C173.924 43.992 173.78 43.428 173.78 42.796C173.78 42.156 173.92 41.592 174.2 41.104C174.488 40.608 174.88 40.22 175.376 39.94C175.88 39.66 176.452 39.52 177.092 39.52C177.716 39.52 178.272 39.656 178.76 39.928C179.248 40.2 179.632 40.584 179.912 41.08C180.192 41.576 180.332 42.16 180.332 42.832C180.332 42.896 180.328 42.968 180.32 43.048C180.32 43.128 180.316 43.204 180.308 43.276H174.968V42.28H179.516L178.928 42.592C178.936 42.224 178.86 41.9 178.7 41.62C178.54 41.34 178.32 41.12 178.04 40.96C177.768 40.8 177.452 40.72 177.092 40.72C176.724 40.72 176.4 40.8 176.12 40.96C175.848 41.12 175.632 41.344 175.472 41.632C175.32 41.912 175.244 42.244 175.244 42.628V42.868C175.244 43.252 175.332 43.592 175.508 43.888C175.684 44.184 175.932 44.412 176.252 44.572C176.572 44.732 176.94 44.812 177.356 44.812C177.716 44.812 178.04 44.756 178.328 44.644C178.616 44.532 178.872 44.356 179.096 44.116L179.9 45.04C179.612 45.376 179.248 45.636 178.808 45.82C178.376 45.996 177.88 46.084 177.32 46.084ZM185.409 39.52C185.921 39.52 186.377 39.62 186.777 39.82C187.185 40.02 187.505 40.328 187.737 40.744C187.969 41.152 188.085 41.68 188.085 42.328V46H186.585V42.52C186.585 41.952 186.449 41.528 186.177 41.248C185.913 40.968 185.541 40.828 185.061 40.828C184.709 40.828 184.397 40.9 184.125 41.044C183.853 41.188 183.641 41.404 183.489 41.692C183.345 41.972 183.273 42.328 183.273 42.76V46H181.773V39.592H183.201V41.32L182.949 40.792C183.173 40.384 183.497 40.072 183.921 39.856C184.353 39.632 184.849 39.52 185.409 39.52ZM193.936 46V44.704L193.852 44.428V42.16C193.852 41.72 193.72 41.38 193.456 41.14C193.192 40.892 192.792 40.768 192.256 40.768C191.896 40.768 191.54 40.824 191.188 40.936C190.844 41.048 190.552 41.204 190.312 41.404L189.724 40.312C190.068 40.048 190.476 39.852 190.948 39.724C191.428 39.588 191.924 39.52 192.436 39.52C193.364 39.52 194.08 39.744 194.584 40.192C195.096 40.632 195.352 41.316 195.352 42.244V46H193.936ZM191.92 46.084C191.44 46.084 191.02 46.004 190.66 45.844C190.3 45.676 190.02 45.448 189.82 45.16C189.628 44.864 189.532 44.532 189.532 44.164C189.532 43.804 189.616 43.48 189.784 43.192C189.96 42.904 190.244 42.676 190.636 42.508C191.028 42.34 191.548 42.256 192.196 42.256H194.056V43.252H192.304C191.792 43.252 191.448 43.336 191.272 43.504C191.096 43.664 191.008 43.864 191.008 44.104C191.008 44.376 191.116 44.592 191.332 44.752C191.548 44.912 191.848 44.992 192.232 44.992C192.6 44.992 192.928 44.908 193.216 44.74C193.512 44.572 193.724 44.324 193.852 43.996L194.104 44.896C193.96 45.272 193.7 45.564 193.324 45.772C192.956 45.98 192.488 46.084 191.92 46.084ZM200.913 39.52C201.425 39.52 201.881 39.62 202.281 39.82C202.689 40.02 203.009 40.328 203.241 40.744C203.473 41.152 203.589 41.68 203.589 42.328V46H202.089V42.52C202.089 41.952 201.953 41.528 201.681 41.248C201.417 40.968 201.045 40.828 200.565 40.828C200.213 40.828 199.901 40.9 199.629 41.044C199.357 41.188 199.145 41.404 198.993 41.692C198.849 41.972 198.777 42.328 198.777 42.76V46H197.277V39.592H198.705V41.32L198.453 40.792C198.677 40.384 199.001 40.072 199.425 39.856C199.857 39.632 200.353 39.52 200.913 39.52ZM208.444 46.084C207.772 46.084 207.172 45.944 206.644 45.664C206.124 45.376 205.716 44.984 205.42 44.488C205.124 43.992 204.976 43.428 204.976 42.796C204.976 42.156 205.124 41.592 205.42 41.104C205.716 40.608 206.124 40.22 206.644 39.94C207.172 39.66 207.772 39.52 208.444 39.52C209.068 39.52 209.616 39.648 210.088 39.904C210.568 40.152 210.932 40.52 211.18 41.008L210.028 41.68C209.836 41.376 209.6 41.152 209.32 41.008C209.048 40.864 208.752 40.792 208.432 40.792C208.064 40.792 207.732 40.872 207.436 41.032C207.14 41.192 206.908 41.424 206.74 41.728C206.572 42.024 206.488 42.38 206.488 42.796C206.488 43.212 206.572 43.572 206.74 43.876C206.908 44.172 207.14 44.4 207.436 44.56C207.732 44.72 208.064 44.8 208.432 44.8C208.752 44.8 209.048 44.728 209.32 44.584C209.6 44.44 209.836 44.216 210.028 43.912L211.18 44.584C210.932 45.064 210.568 45.436 210.088 45.7C209.616 45.956 209.068 46.084 208.444 46.084ZM215.394 46.084C214.682 46.084 214.058 45.944 213.522 45.664C212.994 45.376 212.582 44.984 212.286 44.488C211.998 43.992 211.854 43.428 211.854 42.796C211.854 42.156 211.994 41.592 212.274 41.104C212.562 40.608 212.954 40.22 213.45 39.94C213.954 39.66 214.526 39.52 215.166 39.52C215.79 39.52 216.346 39.656 216.834 39.928C217.322 40.2 217.706 40.584 217.986 41.08C218.266 41.576 218.406 42.16 218.406 42.832C218.406 42.896 218.402 42.968 218.394 43.048C218.394 43.128 218.39 43.204 218.382 43.276H213.042V42.28H217.59L217.002 42.592C217.01 42.224 216.934 41.9 216.774 41.62C216.614 41.34 216.394 41.12 216.114 40.96C215.842 40.8 215.526 40.72 215.166 40.72C214.798 40.72 214.474 40.8 214.194 40.96C213.922 41.12 213.706 41.344 213.546 41.632C213.394 41.912 213.318 42.244 213.318 42.628V42.868C213.318 43.252 213.406 43.592 213.582 43.888C213.758 44.184 214.006 44.412 214.326 44.572C214.646 44.732 215.014 44.812 215.43 44.812C215.79 44.812 216.114 44.756 216.402 44.644C216.69 44.532 216.946 44.356 217.17 44.116L217.974 45.04C217.686 45.376 217.322 45.636 216.882 45.82C216.45 45.996 215.954 46.084 215.394 46.084ZM219.451 47.812L220.147 45.16L220.351 46.048C220.071 46.048 219.835 45.964 219.643 45.796C219.459 45.62 219.367 45.384 219.367 45.088C219.367 44.784 219.459 44.544 219.643 44.368C219.835 44.184 220.067 44.092 220.339 44.092C220.619 44.092 220.851 44.184 221.035 44.368C221.219 44.552 221.311 44.792 221.311 45.088C221.311 45.168 221.303 45.256 221.287 45.352C221.271 45.44 221.243 45.544 221.203 45.664C221.171 45.784 221.115 45.936 221.035 46.12L220.423 47.812H219.451ZM229.105 46.084C228.393 46.084 227.769 45.944 227.233 45.664C226.705 45.376 226.293 44.984 225.997 44.488C225.709 43.992 225.565 43.428 225.565 42.796C225.565 42.156 225.705 41.592 225.985 41.104C226.273 40.608 226.665 40.22 227.161 39.94C227.665 39.66 228.237 39.52 228.877 39.52C229.501 39.52 230.057 39.656 230.545 39.928C231.033 40.2 231.417 40.584 231.697 41.08C231.977 41.576 232.117 42.16 232.117 42.832C232.117 42.896 232.113 42.968 232.105 43.048C232.105 43.128 232.101 43.204 232.093 43.276H226.753V42.28H231.301L230.713 42.592C230.721 42.224 230.645 41.9 230.485 41.62C230.325 41.34 230.105 41.12 229.825 40.96C229.553 40.8 229.237 40.72 228.877 40.72C228.509 40.72 228.185 40.8 227.905 40.96C227.633 41.12 227.417 41.344 227.257 41.632C227.105 41.912 227.029 42.244 227.029 42.628V42.868C227.029 43.252 227.117 43.592 227.293 43.888C227.469 44.184 227.717 44.412 228.037 44.572C228.357 44.732 228.725 44.812 229.141 44.812C229.501 44.812 229.825 44.756 230.113 44.644C230.401 44.532 230.657 44.356 230.881 44.116L231.685 45.04C231.397 45.376 231.033 45.636 230.593 45.82C230.161 45.996 229.665 46.084 229.105 46.084ZM237.194 39.52C237.706 39.52 238.162 39.62 238.562 39.82C238.97 40.02 239.29 40.328 239.522 40.744C239.754 41.152 239.87 41.68 239.87 42.328V46H238.37V42.52C238.37 41.952 238.234 41.528 237.962 41.248C237.698 40.968 237.326 40.828 236.846 40.828C236.494 40.828 236.182 40.9 235.91 41.044C235.638 41.188 235.426 41.404 235.274 41.692C235.13 41.972 235.058 42.328 235.058 42.76V46H233.558V39.592H234.986V41.32L234.734 40.792C234.958 40.384 235.282 40.072 235.706 39.856C236.138 39.632 236.634 39.52 237.194 39.52ZM243.753 46.084C243.217 46.084 242.701 46.016 242.205 45.88C241.717 45.736 241.329 45.564 241.041 45.364L241.617 44.224C241.905 44.408 242.249 44.56 242.649 44.68C243.049 44.8 243.449 44.86 243.849 44.86C244.321 44.86 244.661 44.796 244.869 44.668C245.085 44.54 245.193 44.368 245.193 44.152C245.193 43.976 245.121 43.844 244.977 43.756C244.833 43.66 244.645 43.588 244.413 43.54C244.181 43.492 243.921 43.448 243.633 43.408C243.353 43.368 243.069 43.316 242.781 43.252C242.501 43.18 242.245 43.08 242.013 42.952C241.781 42.816 241.593 42.636 241.449 42.412C241.305 42.188 241.233 41.892 241.233 41.524C241.233 41.116 241.349 40.764 241.581 40.468C241.813 40.164 242.137 39.932 242.553 39.772C242.977 39.604 243.477 39.52 244.053 39.52C244.485 39.52 244.921 39.568 245.361 39.664C245.801 39.76 246.165 39.896 246.453 40.072L245.877 41.212C245.573 41.028 245.265 40.904 244.953 40.84C244.649 40.768 244.345 40.732 244.041 40.732C243.585 40.732 243.245 40.8 243.021 40.936C242.805 41.072 242.697 41.244 242.697 41.452C242.697 41.644 242.769 41.788 242.913 41.884C243.057 41.98 243.245 42.056 243.477 42.112C243.709 42.168 243.965 42.216 244.245 42.256C244.533 42.288 244.817 42.34 245.097 42.412C245.377 42.484 245.633 42.584 245.865 42.712C246.105 42.832 246.297 43.004 246.441 43.228C246.585 43.452 246.657 43.744 246.657 44.104C246.657 44.504 246.537 44.852 246.297 45.148C246.065 45.444 245.733 45.676 245.301 45.844C244.869 46.004 244.353 46.084 243.753 46.084ZM250.661 46.084C250.117 46.084 249.637 45.984 249.221 45.784C248.805 45.576 248.481 45.264 248.249 44.848C248.017 44.424 247.901 43.892 247.901 43.252V39.592H249.401V43.048C249.401 43.624 249.529 44.056 249.785 44.344C250.049 44.624 250.421 44.764 250.901 44.764C251.253 44.764 251.557 44.692 251.813 44.548C252.077 44.404 252.281 44.188 252.425 43.9C252.577 43.612 252.653 43.256 252.653 42.832V39.592H254.153V46H252.725V44.272L252.977 44.8C252.761 45.216 252.445 45.536 252.029 45.76C251.613 45.976 251.157 46.084 250.661 46.084ZM256.117 46V39.592H257.545V41.356L257.377 40.84C257.569 40.408 257.869 40.08 258.277 39.856C258.693 39.632 259.209 39.52 259.825 39.52V40.948C259.761 40.932 259.701 40.924 259.645 40.924C259.589 40.916 259.533 40.912 259.477 40.912C258.909 40.912 258.457 41.08 258.121 41.416C257.785 41.744 257.617 42.236 257.617 42.892V46H256.117ZM264.051 46.084C263.339 46.084 262.715 45.944 262.179 45.664C261.651 45.376 261.239 44.984 260.943 44.488C260.655 43.992 260.511 43.428 260.511 42.796C260.511 42.156 260.651 41.592 260.931 41.104C261.219 40.608 261.611 40.22 262.107 39.94C262.611 39.66 263.183 39.52 263.823 39.52C264.447 39.52 265.003 39.656 265.491 39.928C265.979 40.2 266.363 40.584 266.643 41.08C266.923 41.576 267.063 42.16 267.063 42.832C267.063 42.896 267.059 42.968 267.051 43.048C267.051 43.128 267.047 43.204 267.039 43.276H261.699V42.28H266.247L265.659 42.592C265.667 42.224 265.591 41.9 265.431 41.62C265.271 41.34 265.051 41.12 264.771 40.96C264.499 40.8 264.183 40.72 263.823 40.72C263.455 40.72 263.131 40.8 262.851 40.96C262.579 41.12 262.363 41.344 262.203 41.632C262.051 41.912 261.975 42.244 261.975 42.628V42.868C261.975 43.252 262.063 43.592 262.239 43.888C262.415 44.184 262.663 44.412 262.983 44.572C263.303 44.732 263.671 44.812 264.087 44.812C264.447 44.812 264.771 44.756 265.059 44.644C265.347 44.532 265.603 44.356 265.827 44.116L266.631 45.04C266.343 45.376 265.979 45.636 265.539 45.82C265.107 45.996 264.611 46.084 264.051 46.084ZM7.984 61V54.592H9.412V56.356L9.244 55.84C9.436 55.408 9.736 55.08 10.144 54.856C10.56 54.632 11.076 54.52 11.692 54.52V55.948C11.628 55.932 11.568 55.924 11.512 55.924C11.456 55.916 11.4 55.912 11.344 55.912C10.776 55.912 10.324 56.08 9.988 56.416C9.652 56.744 9.484 57.236 9.484 57.892V61H7.984ZM15.9179 61.084C15.2059 61.084 14.5819 60.944 14.0459 60.664C13.5179 60.376 13.1059 59.984 12.8099 59.488C12.5219 58.992 12.3779 58.428 12.3779 57.796C12.3779 57.156 12.5179 56.592 12.7979 56.104C13.0859 55.608 13.4779 55.22 13.9739 54.94C14.4779 54.66 15.0499 54.52 15.6899 54.52C16.3139 54.52 16.8699 54.656 17.3579 54.928C17.8459 55.2 18.2299 55.584 18.5099 56.08C18.7899 56.576 18.9299 57.16 18.9299 57.832C18.9299 57.896 18.9259 57.968 18.9179 58.048C18.9179 58.128 18.9139 58.204 18.9059 58.276H13.5659V57.28H18.1139L17.5259 57.592C17.5339 57.224 17.4579 56.9 17.2979 56.62C17.1379 56.34 16.9179 56.12 16.6379 55.96C16.3659 55.8 16.0499 55.72 15.6899 55.72C15.3219 55.72 14.9979 55.8 14.7179 55.96C14.4459 56.12 14.2299 56.344 14.0699 56.632C13.9179 56.912 13.8419 57.244 13.8419 57.628V57.868C13.8419 58.252 13.9299 58.592 14.1059 58.888C14.2819 59.184 14.5299 59.412 14.8499 59.572C15.1699 59.732 15.5379 59.812 15.9539 59.812C16.3139 59.812 16.6379 59.756 16.9259 59.644C17.2139 59.532 17.4699 59.356 17.6939 59.116L18.4979 60.04C18.2099 60.376 17.8459 60.636 17.4059 60.82C16.9739 60.996 16.4779 61.084 15.9179 61.084ZM22.3507 61.084C21.8147 61.084 21.2987 61.016 20.8027 60.88C20.3147 60.736 19.9267 60.564 19.6387 60.364L20.2147 59.224C20.5027 59.408 20.8467 59.56 21.2467 59.68C21.6467 59.8 22.0467 59.86 22.4467 59.86C22.9187 59.86 23.2587 59.796 23.4667 59.668C23.6827 59.54 23.7907 59.368 23.7907 59.152C23.7907 58.976 23.7187 58.844 23.5747 58.756C23.4307 58.66 23.2427 58.588 23.0107 58.54C22.7787 58.492 22.5187 58.448 22.2307 58.408C21.9507 58.368 21.6667 58.316 21.3787 58.252C21.0987 58.18 20.8427 58.08 20.6107 57.952C20.3787 57.816 20.1907 57.636 20.0467 57.412C19.9027 57.188 19.8307 56.892 19.8307 56.524C19.8307 56.116 19.9467 55.764 20.1787 55.468C20.4107 55.164 20.7347 54.932 21.1507 54.772C21.5747 54.604 22.0747 54.52 22.6507 54.52C23.0827 54.52 23.5187 54.568 23.9587 54.664C24.3987 54.76 24.7627 54.896 25.0507 55.072L24.4747 56.212C24.1707 56.028 23.8627 55.904 23.5507 55.84C23.2467 55.768 22.9427 55.732 22.6387 55.732C22.1827 55.732 21.8427 55.8 21.6187 55.936C21.4027 56.072 21.2947 56.244 21.2947 56.452C21.2947 56.644 21.3667 56.788 21.5107 56.884C21.6547 56.98 21.8427 57.056 22.0747 57.112C22.3067 57.168 22.5627 57.216 22.8427 57.256C23.1307 57.288 23.4147 57.34 23.6947 57.412C23.9747 57.484 24.2307 57.584 24.4627 57.712C24.7027 57.832 24.8947 58.004 25.0387 58.228C25.1827 58.452 25.2547 58.744 25.2547 59.104C25.2547 59.504 25.1347 59.852 24.8947 60.148C24.6627 60.444 24.3307 60.676 23.8987 60.844C23.4667 61.004 22.9507 61.084 22.3507 61.084ZM29.4265 61.084C28.7705 61.084 28.1865 60.944 27.6745 60.664C27.1625 60.376 26.7585 59.984 26.4625 59.488C26.1665 58.992 26.0185 58.428 26.0185 57.796C26.0185 57.156 26.1665 56.592 26.4625 56.104C26.7585 55.608 27.1625 55.22 27.6745 54.94C28.1865 54.66 28.7705 54.52 29.4265 54.52C30.0905 54.52 30.6785 54.66 31.1905 54.94C31.7105 55.22 32.1145 55.604 32.4025 56.092C32.6985 56.58 32.8465 57.148 32.8465 57.796C32.8465 58.428 32.6985 58.992 32.4025 59.488C32.1145 59.984 31.7105 60.376 31.1905 60.664C30.6785 60.944 30.0905 61.084 29.4265 61.084ZM29.4265 59.8C29.7945 59.8 30.1225 59.72 30.4105 59.56C30.6985 59.4 30.9225 59.168 31.0825 58.864C31.2505 58.56 31.3345 58.204 31.3345 57.796C31.3345 57.38 31.2505 57.024 31.0825 56.728C30.9225 56.424 30.6985 56.192 30.4105 56.032C30.1225 55.872 29.7985 55.792 29.4385 55.792C29.0705 55.792 28.7425 55.872 28.4545 56.032C28.1745 56.192 27.9505 56.424 27.7825 56.728C27.6145 57.024 27.5305 57.38 27.5305 57.796C27.5305 58.204 27.6145 58.56 27.7825 58.864C27.9505 59.168 28.1745 59.4 28.4545 59.56C28.7425 59.72 29.0665 59.8 29.4265 59.8ZM36.9929 61.084C36.4489 61.084 35.9689 60.984 35.5529 60.784C35.1369 60.576 34.8129 60.264 34.5809 59.848C34.3489 59.424 34.2329 58.892 34.2329 58.252V54.592H35.7329V58.048C35.7329 58.624 35.8609 59.056 36.1169 59.344C36.3809 59.624 36.7529 59.764 37.2329 59.764C37.5849 59.764 37.8889 59.692 38.1449 59.548C38.4089 59.404 38.6129 59.188 38.7569 58.9C38.9089 58.612 38.9849 58.256 38.9849 57.832V54.592H40.4849V61H39.0569V59.272L39.3089 59.8C39.0929 60.216 38.7769 60.536 38.3609 60.76C37.9449 60.976 37.4889 61.084 36.9929 61.084ZM42.4488 61V54.592H43.8768V56.356L43.7088 55.84C43.9008 55.408 44.2008 55.08 44.6088 54.856C45.0248 54.632 45.5408 54.52 46.1568 54.52V55.948C46.0928 55.932 46.0328 55.924 45.9768 55.924C45.9208 55.916 45.8648 55.912 45.8088 55.912C45.2408 55.912 44.7888 56.08 44.4528 56.416C44.1168 56.744 43.9488 57.236 43.9488 57.892V61H42.4488ZM50.3107 61.084C49.6387 61.084 49.0387 60.944 48.5107 60.664C47.9907 60.376 47.5827 59.984 47.2867 59.488C46.9907 58.992 46.8427 58.428 46.8427 57.796C46.8427 57.156 46.9907 56.592 47.2867 56.104C47.5827 55.608 47.9907 55.22 48.5107 54.94C49.0387 54.66 49.6387 54.52 50.3107 54.52C50.9347 54.52 51.4827 54.648 51.9547 54.904C52.4347 55.152 52.7987 55.52 53.0467 56.008L51.8947 56.68C51.7027 56.376 51.4667 56.152 51.1867 56.008C50.9147 55.864 50.6187 55.792 50.2987 55.792C49.9307 55.792 49.5987 55.872 49.3027 56.032C49.0067 56.192 48.7747 56.424 48.6067 56.728C48.4387 57.024 48.3547 57.38 48.3547 57.796C48.3547 58.212 48.4387 58.572 48.6067 58.876C48.7747 59.172 49.0067 59.4 49.3027 59.56C49.5987 59.72 49.9307 59.8 50.2987 59.8C50.6187 59.8 50.9147 59.728 51.1867 59.584C51.4667 59.44 51.7027 59.216 51.8947 58.912L53.0467 59.584C52.7987 60.064 52.4347 60.436 51.9547 60.7C51.4827 60.956 50.9347 61.084 50.3107 61.084ZM57.2616 61.084C56.5496 61.084 55.9256 60.944 55.3896 60.664C54.8616 60.376 54.4496 59.984 54.1536 59.488C53.8656 58.992 53.7216 58.428 53.7216 57.796C53.7216 57.156 53.8616 56.592 54.1416 56.104C54.4296 55.608 54.8216 55.22 55.3176 54.94C55.8216 54.66 56.3936 54.52 57.0336 54.52C57.6576 54.52 58.2136 54.656 58.7016 54.928C59.1896 55.2 59.5736 55.584 59.8536 56.08C60.1336 56.576 60.2736 57.16 60.2736 57.832C60.2736 57.896 60.2696 57.968 60.2616 58.048C60.2616 58.128 60.2576 58.204 60.2496 58.276H54.9096V57.28H59.4576L58.8696 57.592C58.8776 57.224 58.8016 56.9 58.6416 56.62C58.4816 56.34 58.2616 56.12 57.9816 55.96C57.7096 55.8 57.3936 55.72 57.0336 55.72C56.6656 55.72 56.3416 55.8 56.0616 55.96C55.7896 56.12 55.5736 56.344 55.4136 56.632C55.2616 56.912 55.1856 57.244 55.1856 57.628V57.868C55.1856 58.252 55.2736 58.592 55.4496 58.888C55.6256 59.184 55.8736 59.412 56.1936 59.572C56.5136 59.732 56.8816 59.812 57.2976 59.812C57.6576 59.812 57.9816 59.756 58.2696 59.644C58.5576 59.532 58.8136 59.356 59.0376 59.116L59.8416 60.04C59.5536 60.376 59.1896 60.636 58.7496 60.82C58.3176 60.996 57.8216 61.084 57.2616 61.084ZM63.6945 61.084C63.1585 61.084 62.6425 61.016 62.1465 60.88C61.6585 60.736 61.2705 60.564 60.9825 60.364L61.5585 59.224C61.8465 59.408 62.1905 59.56 62.5905 59.68C62.9905 59.8 63.3905 59.86 63.7905 59.86C64.2625 59.86 64.6025 59.796 64.8105 59.668C65.0265 59.54 65.1345 59.368 65.1345 59.152C65.1345 58.976 65.0625 58.844 64.9185 58.756C64.7745 58.66 64.5865 58.588 64.3545 58.54C64.1225 58.492 63.8625 58.448 63.5745 58.408C63.2945 58.368 63.0105 58.316 62.7225 58.252C62.4425 58.18 62.1865 58.08 61.9545 57.952C61.7225 57.816 61.5345 57.636 61.3905 57.412C61.2465 57.188 61.1745 56.892 61.1745 56.524C61.1745 56.116 61.2905 55.764 61.5225 55.468C61.7545 55.164 62.0785 54.932 62.4945 54.772C62.9185 54.604 63.4185 54.52 63.9945 54.52C64.4265 54.52 64.8625 54.568 65.3025 54.664C65.7425 54.76 66.1065 54.896 66.3945 55.072L65.8185 56.212C65.5145 56.028 65.2065 55.904 64.8945 55.84C64.5905 55.768 64.2865 55.732 63.9825 55.732C63.5265 55.732 63.1865 55.8 62.9625 55.936C62.7465 56.072 62.6385 56.244 62.6385 56.452C62.6385 56.644 62.7105 56.788 62.8545 56.884C62.9985 56.98 63.1865 57.056 63.4185 57.112C63.6505 57.168 63.9065 57.216 64.1865 57.256C64.4745 57.288 64.7585 57.34 65.0385 57.412C65.3185 57.484 65.5745 57.584 65.8065 57.712C66.0465 57.832 66.2385 58.004 66.3825 58.228C66.5265 58.452 66.5985 58.744 66.5985 59.104C66.5985 59.504 66.4785 59.852 66.2385 60.148C66.0065 60.444 65.6745 60.676 65.2425 60.844C64.8105 61.004 64.2945 61.084 63.6945 61.084ZM67.4943 62.812L68.1903 60.16L68.3943 61.048C68.1143 61.048 67.8783 60.964 67.6863 60.796C67.5023 60.62 67.4103 60.384 67.4103 60.088C67.4103 59.784 67.5023 59.544 67.6863 59.368C67.8783 59.184 68.1103 59.092 68.3823 59.092C68.6623 59.092 68.8943 59.184 69.0783 59.368C69.2623 59.552 69.3543 59.792 69.3543 60.088C69.3543 60.168 69.3463 60.256 69.3303 60.352C69.3143 60.44 69.2863 60.544 69.2463 60.664C69.2143 60.784 69.1583 60.936 69.0783 61.12L68.4663 62.812H67.4943ZM78.0843 61V59.704L78.0003 59.428V57.16C78.0003 56.72 77.8683 56.38 77.6043 56.14C77.3403 55.892 76.9403 55.768 76.4043 55.768C76.0443 55.768 75.6883 55.824 75.3363 55.936C74.9923 56.048 74.7003 56.204 74.4603 56.404L73.8723 55.312C74.2163 55.048 74.6243 54.852 75.0963 54.724C75.5763 54.588 76.0723 54.52 76.5843 54.52C77.5123 54.52 78.2283 54.744 78.7323 55.192C79.2443 55.632 79.5003 56.316 79.5003 57.244V61H78.0843ZM76.0683 61.084C75.5883 61.084 75.1683 61.004 74.8083 60.844C74.4483 60.676 74.1683 60.448 73.9683 60.16C73.7763 59.864 73.6803 59.532 73.6803 59.164C73.6803 58.804 73.7643 58.48 73.9323 58.192C74.1083 57.904 74.3923 57.676 74.7843 57.508C75.1763 57.34 75.6963 57.256 76.3443 57.256H78.2043V58.252H76.4523C75.9403 58.252 75.5963 58.336 75.4203 58.504C75.2443 58.664 75.1563 58.864 75.1563 59.104C75.1563 59.376 75.2643 59.592 75.4803 59.752C75.6963 59.912 75.9963 59.992 76.3803 59.992C76.7483 59.992 77.0763 59.908 77.3643 59.74C77.6603 59.572 77.8723 59.324 78.0003 58.996L78.2523 59.896C78.1083 60.272 77.8483 60.564 77.4723 60.772C77.1043 60.98 76.6363 61.084 76.0683 61.084ZM85.0614 54.52C85.5734 54.52 86.0294 54.62 86.4294 54.82C86.8374 55.02 87.1574 55.328 87.3894 55.744C87.6214 56.152 87.7374 56.68 87.7374 57.328V61H86.2374V57.52C86.2374 56.952 86.1014 56.528 85.8294 56.248C85.5654 55.968 85.1934 55.828 84.7134 55.828C84.3614 55.828 84.0494 55.9 83.7774 56.044C83.5054 56.188 83.2934 56.404 83.1414 56.692C82.9974 56.972 82.9254 57.328 82.9254 57.76V61H81.4254V54.592H82.8534V56.32L82.6014 55.792C82.8254 55.384 83.1494 55.072 83.5734 54.856C84.0054 54.632 84.5014 54.52 85.0614 54.52ZM92.364 61.084C91.748 61.084 91.192 60.948 90.696 60.676C90.208 60.396 89.824 60.012 89.544 59.524C89.264 59.036 89.124 58.46 89.124 57.796C89.124 57.132 89.264 56.556 89.544 56.068C89.824 55.58 90.208 55.2 90.696 54.928C91.192 54.656 91.748 54.52 92.364 54.52C92.9 54.52 93.38 54.64 93.804 54.88C94.228 55.112 94.564 55.468 94.812 55.948C95.06 56.428 95.184 57.044 95.184 57.796C95.184 58.54 95.064 59.156 94.824 59.644C94.584 60.124 94.252 60.484 93.828 60.724C93.404 60.964 92.916 61.084 92.364 61.084ZM92.544 59.8C92.904 59.8 93.224 59.72 93.504 59.56C93.792 59.4 94.02 59.168 94.188 58.864C94.364 58.56 94.452 58.204 94.452 57.796C94.452 57.38 94.364 57.024 94.188 56.728C94.02 56.424 93.792 56.192 93.504 56.032C93.224 55.872 92.904 55.792 92.544 55.792C92.184 55.792 91.86 55.872 91.572 56.032C91.292 56.192 91.064 56.424 90.888 56.728C90.72 57.024 90.636 57.38 90.636 57.796C90.636 58.204 90.72 58.56 90.888 58.864C91.064 59.168 91.292 59.4 91.572 59.56C91.86 59.72 92.184 59.8 92.544 59.8ZM94.488 61V59.488L94.548 57.784L94.428 56.08V52.096H95.916V61H94.488ZM103.619 61.084C102.915 61.084 102.371 60.904 101.987 60.544C101.603 60.176 101.411 59.636 101.411 58.924V53.176H102.911V58.888C102.911 59.192 102.987 59.428 103.139 59.596C103.299 59.764 103.519 59.848 103.799 59.848C104.135 59.848 104.415 59.76 104.639 59.584L105.059 60.652C104.883 60.796 104.667 60.904 104.411 60.976C104.155 61.048 103.891 61.084 103.619 61.084ZM100.355 55.84V54.64H104.627V55.84H100.355ZM106.293 61V54.592H107.721V56.356L107.553 55.84C107.745 55.408 108.045 55.08 108.453 54.856C108.869 54.632 109.385 54.52 110.001 54.52V55.948C109.937 55.932 109.877 55.924 109.821 55.924C109.765 55.916 109.709 55.912 109.653 55.912C109.085 55.912 108.633 56.08 108.297 56.416C107.961 56.744 107.793 57.236 107.793 57.892V61H106.293ZM114.764 61V59.704L114.68 59.428V57.16C114.68 56.72 114.548 56.38 114.284 56.14C114.02 55.892 113.62 55.768 113.084 55.768C112.724 55.768 112.368 55.824 112.016 55.936C111.672 56.048 111.38 56.204 111.14 56.404L110.552 55.312C110.896 55.048 111.304 54.852 111.776 54.724C112.256 54.588 112.752 54.52 113.264 54.52C114.192 54.52 114.908 54.744 115.412 55.192C115.924 55.632 116.18 56.316 116.18 57.244V61H114.764ZM112.748 61.084C112.268 61.084 111.848 61.004 111.488 60.844C111.128 60.676 110.848 60.448 110.648 60.16C110.456 59.864 110.36 59.532 110.36 59.164C110.36 58.804 110.444 58.48 110.612 58.192C110.788 57.904 111.072 57.676 111.464 57.508C111.856 57.34 112.376 57.256 113.024 57.256H114.884V58.252H113.132C112.62 58.252 112.276 58.336 112.1 58.504C111.924 58.664 111.836 58.864 111.836 59.104C111.836 59.376 111.944 59.592 112.16 59.752C112.376 59.912 112.676 59.992 113.06 59.992C113.428 59.992 113.756 59.908 114.044 59.74C114.34 59.572 114.552 59.324 114.68 58.996L114.932 59.896C114.788 60.272 114.528 60.564 114.152 60.772C113.784 60.98 113.316 61.084 112.748 61.084ZM121.057 61.084C120.385 61.084 119.785 60.944 119.257 60.664C118.737 60.376 118.329 59.984 118.033 59.488C117.737 58.992 117.589 58.428 117.589 57.796C117.589 57.156 117.737 56.592 118.033 56.104C118.329 55.608 118.737 55.22 119.257 54.94C119.785 54.66 120.385 54.52 121.057 54.52C121.681 54.52 122.229 54.648 122.701 54.904C123.181 55.152 123.545 55.52 123.793 56.008L122.641 56.68C122.449 56.376 122.213 56.152 121.933 56.008C121.661 55.864 121.365 55.792 121.045 55.792C120.677 55.792 120.345 55.872 120.049 56.032C119.753 56.192 119.521 56.424 119.353 56.728C119.185 57.024 119.101 57.38 119.101 57.796C119.101 58.212 119.185 58.572 119.353 58.876C119.521 59.172 119.753 59.4 120.049 59.56C120.345 59.72 120.677 59.8 121.045 59.8C121.365 59.8 121.661 59.728 121.933 59.584C122.213 59.44 122.449 59.216 122.641 58.912L123.793 59.584C123.545 60.064 123.181 60.436 122.701 60.7C122.229 60.956 121.681 61.084 121.057 61.084ZM126.255 59.572L126.291 57.688L129.639 54.592H131.439L128.595 57.448L127.803 58.108L126.255 59.572ZM125.031 61V52.096H126.531V61H125.031ZM129.867 61L127.527 58.108L128.475 56.908L131.691 61H129.867ZM137.956 61.084C137.42 61.084 136.904 61.016 136.408 60.88C135.92 60.736 135.532 60.564 135.244 60.364L135.82 59.224C136.108 59.408 136.452 59.56 136.852 59.68C137.252 59.8 137.652 59.86 138.052 59.86C138.524 59.86 138.864 59.796 139.072 59.668C139.288 59.54 139.396 59.368 139.396 59.152C139.396 58.976 139.324 58.844 139.18 58.756C139.036 58.66 138.848 58.588 138.616 58.54C138.384 58.492 138.124 58.448 137.836 58.408C137.556 58.368 137.272 58.316 136.984 58.252C136.704 58.18 136.448 58.08 136.216 57.952C135.984 57.816 135.796 57.636 135.652 57.412C135.508 57.188 135.436 56.892 135.436 56.524C135.436 56.116 135.552 55.764 135.784 55.468C136.016 55.164 136.34 54.932 136.756 54.772C137.18 54.604 137.68 54.52 138.256 54.52C138.688 54.52 139.124 54.568 139.564 54.664C140.004 54.76 140.368 54.896 140.656 55.072L140.08 56.212C139.776 56.028 139.468 55.904 139.156 55.84C138.852 55.768 138.548 55.732 138.244 55.732C137.788 55.732 137.448 55.8 137.224 55.936C137.008 56.072 136.9 56.244 136.9 56.452C136.9 56.644 136.972 56.788 137.116 56.884C137.26 56.98 137.448 57.056 137.68 57.112C137.912 57.168 138.168 57.216 138.448 57.256C138.736 57.288 139.02 57.34 139.3 57.412C139.58 57.484 139.836 57.584 140.068 57.712C140.308 57.832 140.5 58.004 140.644 58.228C140.788 58.452 140.86 58.744 140.86 59.104C140.86 59.504 140.74 59.852 140.5 60.148C140.268 60.444 139.936 60.676 139.504 60.844C139.072 61.004 138.556 61.084 137.956 61.084ZM145.092 61.084C144.42 61.084 143.82 60.944 143.292 60.664C142.772 60.376 142.364 59.984 142.068 59.488C141.772 58.992 141.624 58.428 141.624 57.796C141.624 57.156 141.772 56.592 142.068 56.104C142.364 55.608 142.772 55.22 143.292 54.94C143.82 54.66 144.42 54.52 145.092 54.52C145.716 54.52 146.264 54.648 146.736 54.904C147.216 55.152 147.58 55.52 147.828 56.008L146.676 56.68C146.484 56.376 146.248 56.152 145.968 56.008C145.696 55.864 145.4 55.792 145.08 55.792C144.712 55.792 144.38 55.872 144.084 56.032C143.788 56.192 143.556 56.424 143.388 56.728C143.22 57.024 143.136 57.38 143.136 57.796C143.136 58.212 143.22 58.572 143.388 58.876C143.556 59.172 143.788 59.4 144.084 59.56C144.38 59.72 144.712 59.8 145.08 59.8C145.4 59.8 145.696 59.728 145.968 59.584C146.248 59.44 146.484 59.216 146.676 58.912L147.828 59.584C147.58 60.064 147.216 60.436 146.736 60.7C146.264 60.956 145.716 61.084 145.092 61.084ZM152.702 54.52C153.214 54.52 153.67 54.62 154.07 54.82C154.478 55.02 154.798 55.328 155.03 55.744C155.262 56.152 155.378 56.68 155.378 57.328V61H153.878V57.52C153.878 56.952 153.742 56.528 153.47 56.248C153.206 55.968 152.834 55.828 152.354 55.828C152.002 55.828 151.69 55.9 151.418 56.044C151.146 56.188 150.934 56.404 150.782 56.692C150.638 56.972 150.566 57.328 150.566 57.76V61H149.066V52.096H150.566V56.32L150.242 55.792C150.466 55.384 150.79 55.072 151.214 54.856C151.646 54.632 152.142 54.52 152.702 54.52ZM160.305 61.084C159.593 61.084 158.969 60.944 158.433 60.664C157.905 60.376 157.493 59.984 157.197 59.488C156.909 58.992 156.765 58.428 156.765 57.796C156.765 57.156 156.905 56.592 157.185 56.104C157.473 55.608 157.865 55.22 158.361 54.94C158.865 54.66 159.437 54.52 160.077 54.52C160.701 54.52 161.257 54.656 161.745 54.928C162.233 55.2 162.617 55.584 162.897 56.08C163.177 56.576 163.317 57.16 163.317 57.832C163.317 57.896 163.313 57.968 163.305 58.048C163.305 58.128 163.301 58.204 163.293 58.276H157.953V57.28H162.501L161.913 57.592C161.921 57.224 161.845 56.9 161.685 56.62C161.525 56.34 161.305 56.12 161.025 55.96C160.753 55.8 160.437 55.72 160.077 55.72C159.709 55.72 159.385 55.8 159.105 55.96C158.833 56.12 158.617 56.344 158.457 56.632C158.305 56.912 158.229 57.244 158.229 57.628V57.868C158.229 58.252 158.317 58.592 158.493 58.888C158.669 59.184 158.917 59.412 159.237 59.572C159.557 59.732 159.925 59.812 160.341 59.812C160.701 59.812 161.025 59.756 161.313 59.644C161.601 59.532 161.857 59.356 162.081 59.116L162.885 60.04C162.597 60.376 162.233 60.636 161.793 60.82C161.361 60.996 160.865 61.084 160.305 61.084ZM167.469 61.084C166.853 61.084 166.297 60.948 165.801 60.676C165.313 60.396 164.929 60.012 164.649 59.524C164.369 59.036 164.229 58.46 164.229 57.796C164.229 57.132 164.369 56.556 164.649 56.068C164.929 55.58 165.313 55.2 165.801 54.928C166.297 54.656 166.853 54.52 167.469 54.52C168.005 54.52 168.485 54.64 168.909 54.88C169.333 55.112 169.669 55.468 169.917 55.948C170.165 56.428 170.289 57.044 170.289 57.796C170.289 58.54 170.169 59.156 169.929 59.644C169.689 60.124 169.357 60.484 168.933 60.724C168.509 60.964 168.021 61.084 167.469 61.084ZM167.649 59.8C168.009 59.8 168.329 59.72 168.609 59.56C168.897 59.4 169.125 59.168 169.293 58.864C169.469 58.56 169.557 58.204 169.557 57.796C169.557 57.38 169.469 57.024 169.293 56.728C169.125 56.424 168.897 56.192 168.609 56.032C168.329 55.872 168.009 55.792 167.649 55.792C167.289 55.792 166.965 55.872 166.677 56.032C166.397 56.192 166.169 56.424 165.993 56.728C165.825 57.024 165.741 57.38 165.741 57.796C165.741 58.204 165.825 58.56 165.993 58.864C166.169 59.168 166.397 59.4 166.677 59.56C166.965 59.72 167.289 59.8 167.649 59.8ZM169.593 61V59.488L169.653 57.784L169.533 56.08V52.096H171.021V61H169.593ZM175.708 61.084C175.164 61.084 174.684 60.984 174.268 60.784C173.852 60.576 173.528 60.264 173.296 59.848C173.064 59.424 172.948 58.892 172.948 58.252V54.592H174.448V58.048C174.448 58.624 174.576 59.056 174.832 59.344C175.096 59.624 175.468 59.764 175.948 59.764C176.3 59.764 176.604 59.692 176.86 59.548C177.124 59.404 177.328 59.188 177.472 58.9C177.624 58.612 177.7 58.256 177.7 57.832V54.592H179.2V61H177.772V59.272L178.024 59.8C177.808 60.216 177.492 60.536 177.076 60.76C176.66 60.976 176.204 61.084 175.708 61.084ZM181.164 61V52.096H182.664V61H181.164ZM187.644 61.084C186.932 61.084 186.308 60.944 185.772 60.664C185.244 60.376 184.832 59.984 184.536 59.488C184.248 58.992 184.104 58.428 184.104 57.796C184.104 57.156 184.244 56.592 184.524 56.104C184.812 55.608 185.204 55.22 185.7 54.94C186.204 54.66 186.776 54.52 187.416 54.52C188.04 54.52 188.596 54.656 189.084 54.928C189.572 55.2 189.956 55.584 190.236 56.08C190.516 56.576 190.656 57.16 190.656 57.832C190.656 57.896 190.652 57.968 190.644 58.048C190.644 58.128 190.64 58.204 190.632 58.276H185.292V57.28H189.84L189.252 57.592C189.26 57.224 189.184 56.9 189.024 56.62C188.864 56.34 188.644 56.12 188.364 55.96C188.092 55.8 187.776 55.72 187.416 55.72C187.048 55.72 186.724 55.8 186.444 55.96C186.172 56.12 185.956 56.344 185.796 56.632C185.644 56.912 185.568 57.244 185.568 57.628V57.868C185.568 58.252 185.656 58.592 185.832 58.888C186.008 59.184 186.256 59.412 186.576 59.572C186.896 59.732 187.264 59.812 187.68 59.812C188.04 59.812 188.364 59.756 188.652 59.644C188.94 59.532 189.196 59.356 189.42 59.116L190.224 60.04C189.936 60.376 189.572 60.636 189.132 60.82C188.7 60.996 188.204 61.084 187.644 61.084ZM195.618 61V54.232C195.618 53.56 195.814 53.024 196.206 52.624C196.606 52.216 197.174 52.012 197.91 52.012C198.174 52.012 198.422 52.04 198.654 52.096C198.894 52.152 199.094 52.24 199.254 52.36L198.846 53.488C198.734 53.4 198.606 53.336 198.462 53.296C198.318 53.248 198.17 53.224 198.018 53.224C197.706 53.224 197.47 53.312 197.31 53.488C197.15 53.656 197.07 53.912 197.07 54.256V54.976L197.118 55.648V61H195.618ZM194.562 55.84V54.64H198.834V55.84H194.562ZM202.63 61.084C201.974 61.084 201.39 60.944 200.878 60.664C200.366 60.376 199.962 59.984 199.666 59.488C199.37 58.992 199.222 58.428 199.222 57.796C199.222 57.156 199.37 56.592 199.666 56.104C199.962 55.608 200.366 55.22 200.878 54.94C201.39 54.66 201.974 54.52 202.63 54.52C203.294 54.52 203.882 54.66 204.394 54.94C204.914 55.22 205.318 55.604 205.606 56.092C205.902 56.58 206.05 57.148 206.05 57.796C206.05 58.428 205.902 58.992 205.606 59.488C205.318 59.984 204.914 60.376 204.394 60.664C203.882 60.944 203.294 61.084 202.63 61.084ZM202.63 59.8C202.998 59.8 203.326 59.72 203.614 59.56C203.902 59.4 204.126 59.168 204.286 58.864C204.454 58.56 204.538 58.204 204.538 57.796C204.538 57.38 204.454 57.024 204.286 56.728C204.126 56.424 203.902 56.192 203.614 56.032C203.326 55.872 203.002 55.792 202.642 55.792C202.274 55.792 201.946 55.872 201.658 56.032C201.378 56.192 201.154 56.424 200.986 56.728C200.818 57.024 200.734 57.38 200.734 57.796C200.734 58.204 200.818 58.56 200.986 58.864C201.154 59.168 201.378 59.4 201.658 59.56C201.946 59.72 202.27 59.8 202.63 59.8ZM207.484 61V54.592H208.912V56.356L208.744 55.84C208.936 55.408 209.236 55.08 209.644 54.856C210.06 54.632 210.576 54.52 211.192 54.52V55.948C211.128 55.932 211.068 55.924 211.012 55.924C210.956 55.916 210.9 55.912 210.844 55.912C210.276 55.912 209.824 56.08 209.488 56.416C209.152 56.744 208.984 57.236 208.984 57.892V61H207.484ZM217.819 61.084C217.283 61.084 216.767 61.016 216.271 60.88C215.783 60.736 215.395 60.564 215.107 60.364L215.683 59.224C215.971 59.408 216.315 59.56 216.715 59.68C217.115 59.8 217.515 59.86 217.915 59.86C218.387 59.86 218.727 59.796 218.935 59.668C219.151 59.54 219.259 59.368 219.259 59.152C219.259 58.976 219.187 58.844 219.043 58.756C218.899 58.66 218.711 58.588 218.479 58.54C218.247 58.492 217.987 58.448 217.699 58.408C217.419 58.368 217.135 58.316 216.847 58.252C216.567 58.18 216.311 58.08 216.079 57.952C215.847 57.816 215.659 57.636 215.515 57.412C215.371 57.188 215.299 56.892 215.299 56.524C215.299 56.116 215.415 55.764 215.647 55.468C215.879 55.164 216.203 54.932 216.619 54.772C217.043 54.604 217.543 54.52 218.119 54.52C218.551 54.52 218.987 54.568 219.427 54.664C219.867 54.76 220.231 54.896 220.519 55.072L219.943 56.212C219.639 56.028 219.331 55.904 219.019 55.84C218.715 55.768 218.411 55.732 218.107 55.732C217.651 55.732 217.311 55.8 217.087 55.936C216.871 56.072 216.763 56.244 216.763 56.452C216.763 56.644 216.835 56.788 216.979 56.884C217.123 56.98 217.311 57.056 217.543 57.112C217.775 57.168 218.031 57.216 218.311 57.256C218.599 57.288 218.883 57.34 219.163 57.412C219.443 57.484 219.699 57.584 219.931 57.712C220.171 57.832 220.363 58.004 220.507 58.228C220.651 58.452 220.723 58.744 220.723 59.104C220.723 59.504 220.603 59.852 220.363 60.148C220.131 60.444 219.799 60.676 219.367 60.844C218.935 61.004 218.419 61.084 217.819 61.084ZM230.103 54.52C230.615 54.52 231.067 54.62 231.459 54.82C231.859 55.02 232.171 55.328 232.395 55.744C232.619 56.152 232.731 56.68 232.731 57.328V61H231.231V57.52C231.231 56.952 231.107 56.528 230.859 56.248C230.611 55.968 230.255 55.828 229.791 55.828C229.463 55.828 229.171 55.9 228.915 56.044C228.667 56.188 228.471 56.4 228.327 56.68C228.191 56.96 228.123 57.316 228.123 57.748V61H226.623V57.52C226.623 56.952 226.499 56.528 226.251 56.248C226.003 55.968 225.647 55.828 225.183 55.828C224.855 55.828 224.563 55.9 224.307 56.044C224.059 56.188 223.863 56.4 223.719 56.68C223.583 56.96 223.515 57.316 223.515 57.748V61H222.015V54.592H223.443V56.296L223.191 55.792C223.407 55.376 223.719 55.06 224.127 54.844C224.543 54.628 225.015 54.52 225.543 54.52C226.143 54.52 226.663 54.668 227.103 54.964C227.551 55.26 227.847 55.708 227.991 56.308L227.403 56.104C227.611 55.624 227.955 55.24 228.435 54.952C228.915 54.664 229.471 54.52 230.103 54.52ZM237.54 61.084C236.884 61.084 236.3 60.944 235.788 60.664C235.276 60.376 234.872 59.984 234.576 59.488C234.28 58.992 234.132 58.428 234.132 57.796C234.132 57.156 234.28 56.592 234.576 56.104C234.872 55.608 235.276 55.22 235.788 54.94C236.3 54.66 236.884 54.52 237.54 54.52C238.204 54.52 238.792 54.66 239.304 54.94C239.824 55.22 240.228 55.604 240.516 56.092C240.812 56.58 240.96 57.148 240.96 57.796C240.96 58.428 240.812 58.992 240.516 59.488C240.228 59.984 239.824 60.376 239.304 60.664C238.792 60.944 238.204 61.084 237.54 61.084ZM237.54 59.8C237.908 59.8 238.236 59.72 238.524 59.56C238.812 59.4 239.036 59.168 239.196 58.864C239.364 58.56 239.448 58.204 239.448 57.796C239.448 57.38 239.364 57.024 239.196 56.728C239.036 56.424 238.812 56.192 238.524 56.032C238.236 55.872 237.912 55.792 237.552 55.792C237.184 55.792 236.856 55.872 236.568 56.032C236.288 56.192 236.064 56.424 235.896 56.728C235.728 57.024 235.644 57.38 235.644 57.796C235.644 58.204 235.728 58.56 235.896 58.864C236.064 59.168 236.288 59.4 236.568 59.56C236.856 59.72 237.18 59.8 237.54 59.8ZM245.274 61.084C244.618 61.084 244.034 60.944 243.522 60.664C243.01 60.376 242.606 59.984 242.31 59.488C242.014 58.992 241.866 58.428 241.866 57.796C241.866 57.156 242.014 56.592 242.31 56.104C242.606 55.608 243.01 55.22 243.522 54.94C244.034 54.66 244.618 54.52 245.274 54.52C245.938 54.52 246.526 54.66 247.038 54.94C247.558 55.22 247.962 55.604 248.25 56.092C248.546 56.58 248.694 57.148 248.694 57.796C248.694 58.428 248.546 58.992 248.25 59.488C247.962 59.984 247.558 60.376 247.038 60.664C246.526 60.944 245.938 61.084 245.274 61.084ZM245.274 59.8C245.642 59.8 245.97 59.72 246.258 59.56C246.546 59.4 246.77 59.168 246.93 58.864C247.098 58.56 247.182 58.204 247.182 57.796C247.182 57.38 247.098 57.024 246.93 56.728C246.77 56.424 246.546 56.192 246.258 56.032C245.97 55.872 245.646 55.792 245.286 55.792C244.918 55.792 244.59 55.872 244.302 56.032C244.022 56.192 243.798 56.424 243.63 56.728C243.462 57.024 243.378 57.38 243.378 57.796C243.378 58.204 243.462 58.56 243.63 58.864C243.798 59.168 244.022 59.4 244.302 59.56C244.59 59.72 244.914 59.8 245.274 59.8ZM252.541 61.084C251.837 61.084 251.293 60.904 250.909 60.544C250.525 60.176 250.333 59.636 250.333 58.924V53.176H251.833V58.888C251.833 59.192 251.909 59.428 252.061 59.596C252.221 59.764 252.441 59.848 252.721 59.848C253.057 59.848 253.337 59.76 253.561 59.584L253.981 60.652C253.805 60.796 253.589 60.904 253.333 60.976C253.077 61.048 252.813 61.084 252.541 61.084ZM249.277 55.84V54.64H253.549V55.84H249.277ZM258.85 54.52C259.362 54.52 259.818 54.62 260.218 54.82C260.626 55.02 260.946 55.328 261.178 55.744C261.41 56.152 261.526 56.68 261.526 57.328V61H260.026V57.52C260.026 56.952 259.89 56.528 259.618 56.248C259.354 55.968 258.982 55.828 258.502 55.828C258.15 55.828 257.838 55.9 257.566 56.044C257.294 56.188 257.082 56.404 256.93 56.692C256.786 56.972 256.714 57.328 256.714 57.76V61H255.214V52.096H256.714V56.32L256.39 55.792C256.614 55.384 256.938 55.072 257.362 54.856C257.794 54.632 258.29 54.52 258.85 54.52ZM10.864 76.084C10.208 76.084 9.624 75.944 9.112 75.664C8.6 75.376 8.196 74.984 7.9 74.488C7.604 73.992 7.456 73.428 7.456 72.796C7.456 72.156 7.604 71.592 7.9 71.104C8.196 70.608 8.6 70.22 9.112 69.94C9.624 69.66 10.208 69.52 10.864 69.52C11.528 69.52 12.116 69.66 12.628 69.94C13.148 70.22 13.552 70.604 13.84 71.092C14.136 71.58 14.284 72.148 14.284 72.796C14.284 73.428 14.136 73.992 13.84 74.488C13.552 74.984 13.148 75.376 12.628 75.664C12.116 75.944 11.528 76.084 10.864 76.084ZM10.864 74.8C11.232 74.8 11.56 74.72 11.848 74.56C12.136 74.4 12.36 74.168 12.52 73.864C12.688 73.56 12.772 73.204 12.772 72.796C12.772 72.38 12.688 72.024 12.52 71.728C12.36 71.424 12.136 71.192 11.848 71.032C11.56 70.872 11.236 70.792 10.876 70.792C10.508 70.792 10.18 70.872 9.892 71.032C9.612 71.192 9.388 71.424 9.22 71.728C9.052 72.024 8.968 72.38 8.968 72.796C8.968 73.204 9.052 73.56 9.22 73.864C9.388 74.168 9.612 74.4 9.892 74.56C10.18 74.72 10.504 74.8 10.864 74.8ZM19.2704 76.084C18.7504 76.084 18.2744 75.964 17.8424 75.724C17.4184 75.484 17.0784 75.124 16.8224 74.644C16.5744 74.156 16.4504 73.54 16.4504 72.796C16.4504 72.044 16.5704 71.428 16.8104 70.948C17.0584 70.468 17.3944 70.112 17.8184 69.88C18.2424 69.64 18.7264 69.52 19.2704 69.52C19.9024 69.52 20.4584 69.656 20.9384 69.928C21.4264 70.2 21.8104 70.58 22.0904 71.068C22.3784 71.556 22.5224 72.132 22.5224 72.796C22.5224 73.46 22.3784 74.04 22.0904 74.536C21.8104 75.024 21.4264 75.404 20.9384 75.676C20.4584 75.948 19.9024 76.084 19.2704 76.084ZM15.7184 78.328V69.592H17.1464V71.104L17.0984 72.808L17.2184 74.512V78.328H15.7184ZM19.1024 74.8C19.4624 74.8 19.7824 74.72 20.0624 74.56C20.3504 74.4 20.5784 74.168 20.7464 73.864C20.9144 73.56 20.9984 73.204 20.9984 72.796C20.9984 72.38 20.9144 72.024 20.7464 71.728C20.5784 71.424 20.3504 71.192 20.0624 71.032C19.7824 70.872 19.4624 70.792 19.1024 70.792C18.7424 70.792 18.4184 70.872 18.1304 71.032C17.8424 71.192 17.6144 71.424 17.4464 71.728C17.2784 72.024 17.1944 72.38 17.1944 72.796C17.1944 73.204 17.2784 73.56 17.4464 73.864C17.6144 74.168 17.8424 74.4 18.1304 74.56C18.4184 74.72 18.7424 74.8 19.1024 74.8ZM26.9569 76.084C26.2449 76.084 25.6209 75.944 25.0849 75.664C24.5569 75.376 24.1449 74.984 23.8489 74.488C23.5609 73.992 23.4169 73.428 23.4169 72.796C23.4169 72.156 23.5569 71.592 23.8369 71.104C24.1249 70.608 24.5169 70.22 25.0129 69.94C25.5169 69.66 26.0889 69.52 26.7289 69.52C27.3529 69.52 27.9089 69.656 28.3969 69.928C28.8849 70.2 29.2689 70.584 29.5489 71.08C29.8289 71.576 29.9689 72.16 29.9689 72.832C29.9689 72.896 29.9649 72.968 29.9569 73.048C29.9569 73.128 29.9529 73.204 29.9449 73.276H24.6049V72.28H29.1529L28.5649 72.592C28.5729 72.224 28.4969 71.9 28.3369 71.62C28.1769 71.34 27.9569 71.12 27.6769 70.96C27.4049 70.8 27.0889 70.72 26.7289 70.72C26.3609 70.72 26.0369 70.8 25.7569 70.96C25.4849 71.12 25.2689 71.344 25.1089 71.632C24.9569 71.912 24.8809 72.244 24.8809 72.628V72.868C24.8809 73.252 24.9689 73.592 25.1449 73.888C25.3209 74.184 25.5689 74.412 25.8889 74.572C26.2089 74.732 26.5769 74.812 26.9929 74.812C27.3529 74.812 27.6769 74.756 27.9649 74.644C28.2529 74.532 28.5089 74.356 28.7329 74.116L29.5369 75.04C29.2489 75.376 28.8849 75.636 28.4449 75.82C28.0129 75.996 27.5169 76.084 26.9569 76.084ZM31.4098 76V69.592H32.8378V71.356L32.6698 70.84C32.8618 70.408 33.1618 70.08 33.5698 69.856C33.9858 69.632 34.5018 69.52 35.1178 69.52V70.948C35.0538 70.932 34.9938 70.924 34.9378 70.924C34.8818 70.916 34.8258 70.912 34.7698 70.912C34.2018 70.912 33.7498 71.08 33.4138 71.416C33.0778 71.744 32.9098 72.236 32.9098 72.892V76H31.4098ZM39.8812 76V74.704L39.7972 74.428V72.16C39.7972 71.72 39.6652 71.38 39.4012 71.14C39.1372 70.892 38.7372 70.768 38.2012 70.768C37.8412 70.768 37.4852 70.824 37.1332 70.936C36.7892 71.048 36.4972 71.204 36.2572 71.404L35.6692 70.312C36.0132 70.048 36.4212 69.852 36.8932 69.724C37.3732 69.588 37.8692 69.52 38.3812 69.52C39.3092 69.52 40.0252 69.744 40.5292 70.192C41.0412 70.632 41.2972 71.316 41.2972 72.244V76H39.8812ZM37.8652 76.084C37.3852 76.084 36.9652 76.004 36.6052 75.844C36.2452 75.676 35.9652 75.448 35.7652 75.16C35.5732 74.864 35.4772 74.532 35.4772 74.164C35.4772 73.804 35.5612 73.48 35.7292 73.192C35.9052 72.904 36.1892 72.676 36.5812 72.508C36.9732 72.34 37.4932 72.256 38.1412 72.256H40.0012V73.252H38.2492C37.7372 73.252 37.3932 73.336 37.2172 73.504C37.0412 73.664 36.9532 73.864 36.9532 74.104C36.9532 74.376 37.0612 74.592 37.2772 74.752C37.4932 74.912 37.7932 74.992 38.1772 74.992C38.5452 74.992 38.8732 74.908 39.1612 74.74C39.4572 74.572 39.6692 74.324 39.7972 73.996L40.0492 74.896C39.9052 75.272 39.6452 75.564 39.2692 75.772C38.9012 75.98 38.4332 76.084 37.8652 76.084ZM45.6343 76.084C44.9303 76.084 44.3863 75.904 44.0023 75.544C43.6183 75.176 43.4263 74.636 43.4263 73.924V68.176H44.9263V73.888C44.9263 74.192 45.0023 74.428 45.1543 74.596C45.3143 74.764 45.5343 74.848 45.8143 74.848C46.1503 74.848 46.4303 74.76 46.6543 74.584L47.0743 75.652C46.8983 75.796 46.6823 75.904 46.4263 75.976C46.1703 76.048 45.9063 76.084 45.6343 76.084ZM42.3703 70.84V69.64H46.6423V70.84H42.3703ZM48.3082 76V69.592H49.8082V76H48.3082ZM49.0642 68.536C48.7842 68.536 48.5522 68.448 48.3682 68.272C48.1922 68.096 48.1042 67.884 48.1042 67.636C48.1042 67.38 48.1922 67.168 48.3682 67C48.5522 66.824 48.7842 66.736 49.0642 66.736C49.3442 66.736 49.5722 66.82 49.7482 66.988C49.9322 67.148 50.0242 67.352 50.0242 67.6C50.0242 67.864 49.9362 68.088 49.7602 68.272C49.5842 68.448 49.3522 68.536 49.0642 68.536ZM54.657 76.084C54.001 76.084 53.417 75.944 52.905 75.664C52.393 75.376 51.989 74.984 51.693 74.488C51.397 73.992 51.249 73.428 51.249 72.796C51.249 72.156 51.397 71.592 51.693 71.104C51.989 70.608 52.393 70.22 52.905 69.94C53.417 69.66 54.001 69.52 54.657 69.52C55.321 69.52 55.909 69.66 56.421 69.94C56.941 70.22 57.345 70.604 57.633 71.092C57.929 71.58 58.077 72.148 58.077 72.796C58.077 73.428 57.929 73.992 57.633 74.488C57.345 74.984 56.941 75.376 56.421 75.664C55.909 75.944 55.321 76.084 54.657 76.084ZM54.657 74.8C55.025 74.8 55.353 74.72 55.641 74.56C55.929 74.4 56.153 74.168 56.313 73.864C56.481 73.56 56.565 73.204 56.565 72.796C56.565 72.38 56.481 72.024 56.313 71.728C56.153 71.424 55.929 71.192 55.641 71.032C55.353 70.872 55.029 70.792 54.669 70.792C54.301 70.792 53.973 70.872 53.685 71.032C53.405 71.192 53.181 71.424 53.013 71.728C52.845 72.024 52.761 72.38 52.761 72.796C52.761 73.204 52.845 73.56 53.013 73.864C53.181 74.168 53.405 74.4 53.685 74.56C53.973 74.72 54.297 74.8 54.657 74.8ZM63.1473 69.52C63.6593 69.52 64.1153 69.62 64.5153 69.82C64.9233 70.02 65.2433 70.328 65.4753 70.744C65.7073 71.152 65.8233 71.68 65.8233 72.328V76H64.3233V72.52C64.3233 71.952 64.1873 71.528 63.9153 71.248C63.6513 70.968 63.2793 70.828 62.7993 70.828C62.4473 70.828 62.1353 70.9 61.8633 71.044C61.5913 71.188 61.3793 71.404 61.2273 71.692C61.0833 71.972 61.0113 72.328 61.0113 72.76V76H59.5113V69.592H60.9393V71.32L60.6873 70.792C60.9113 70.384 61.2353 70.072 61.6593 69.856C62.0913 69.632 62.5873 69.52 63.1473 69.52ZM69.7062 76.084C69.1702 76.084 68.6542 76.016 68.1582 75.88C67.6702 75.736 67.2822 75.564 66.9942 75.364L67.5702 74.224C67.8582 74.408 68.2022 74.56 68.6022 74.68C69.0022 74.8 69.4022 74.86 69.8022 74.86C70.2742 74.86 70.6142 74.796 70.8222 74.668C71.0382 74.54 71.1462 74.368 71.1462 74.152C71.1462 73.976 71.0742 73.844 70.9302 73.756C70.7862 73.66 70.5982 73.588 70.3662 73.54C70.1342 73.492 69.8742 73.448 69.5862 73.408C69.3062 73.368 69.0222 73.316 68.7342 73.252C68.4542 73.18 68.1982 73.08 67.9662 72.952C67.7342 72.816 67.5462 72.636 67.4022 72.412C67.2582 72.188 67.1862 71.892 67.1862 71.524C67.1862 71.116 67.3022 70.764 67.5342 70.468C67.7662 70.164 68.0902 69.932 68.5062 69.772C68.9302 69.604 69.4302 69.52 70.0062 69.52C70.4382 69.52 70.8742 69.568 71.3142 69.664C71.7542 69.76 72.1182 69.896 72.4062 70.072L71.8302 71.212C71.5262 71.028 71.2182 70.904 70.9062 70.84C70.6022 70.768 70.2982 70.732 69.9942 70.732C69.5382 70.732 69.1982 70.8 68.9742 70.936C68.7582 71.072 68.6502 71.244 68.6502 71.452C68.6502 71.644 68.7222 71.788 68.8662 71.884C69.0102 71.98 69.1982 72.056 69.4302 72.112C69.6622 72.168 69.9182 72.216 70.1982 72.256C70.4862 72.288 70.7702 72.34 71.0502 72.412C71.3302 72.484 71.5862 72.584 71.8182 72.712C72.0582 72.832 72.2502 73.004 72.3942 73.228C72.5382 73.452 72.6102 73.744 72.6102 74.104C72.6102 74.504 72.4902 74.852 72.2502 75.148C72.0182 75.444 71.6862 75.676 71.2542 75.844C70.8222 76.004 70.3062 76.084 69.7062 76.084ZM74.382 76.084C74.11 76.084 73.878 75.992 73.686 75.808C73.494 75.616 73.398 75.376 73.398 75.088C73.398 74.784 73.494 74.544 73.686 74.368C73.878 74.184 74.11 74.092 74.382 74.092C74.654 74.092 74.886 74.184 75.078 74.368C75.27 74.544 75.366 74.784 75.366 75.088C75.366 75.376 75.27 75.616 75.078 75.808C74.886 75.992 74.654 76.084 74.382 76.084Z" fill="white"/>
</svg>
