<svg width="334" height="91" viewBox="0 0 334 91" fill="none" xmlns="http://www.w3.org/2000/svg">
<path d="M0 0H334V79C334 85.6274 328.627 91 322 91H12C5.37258 91 0 85.6274 0 79V0Z" fill="#333333"/>
<path d="M8.26 28V19.6H11.536C12.272 19.6 12.9 19.716 13.42 19.948C13.94 20.18 14.34 20.516 14.62 20.956C14.9 21.396 15.04 21.92 15.04 22.528C15.04 23.136 14.9 23.66 14.62 24.1C14.34 24.532 13.94 24.868 13.42 25.108C12.9 25.34 12.272 25.456 11.536 25.456H8.92L9.46 24.892V28H8.26ZM9.46 25.012L8.92 24.412H11.5C12.268 24.412 12.848 24.248 13.24 23.92C13.64 23.592 13.84 23.128 13.84 22.528C13.84 21.928 13.64 21.464 13.24 21.136C12.848 20.808 12.268 20.644 11.5 20.644H8.92L9.46 20.044V25.012ZM19.3355 28.072C18.6955 28.072 18.1275 27.932 17.6315 27.652C17.1355 27.372 16.7435 26.988 16.4555 26.5C16.1675 26.004 16.0235 25.444 16.0235 24.82C16.0235 24.188 16.1675 23.628 16.4555 23.14C16.7435 22.652 17.1355 22.272 17.6315 22C18.1275 21.72 18.6955 21.58 19.3355 21.58C19.9675 21.58 20.5315 21.72 21.0275 22C21.5315 22.272 21.9235 22.652 22.2035 23.14C22.4915 23.62 22.6355 24.18 22.6355 24.82C22.6355 25.452 22.4915 26.012 22.2035 26.5C21.9235 26.988 21.5315 27.372 21.0275 27.652C20.5315 27.932 19.9675 28.072 19.3355 28.072ZM19.3355 27.064C19.7435 27.064 20.1075 26.972 20.4275 26.788C20.7555 26.604 21.0115 26.344 21.1955 26.008C21.3795 25.664 21.4715 25.268 21.4715 24.82C21.4715 24.364 21.3795 23.972 21.1955 23.644C21.0115 23.308 20.7555 23.048 20.4275 22.864C20.1075 22.68 19.7435 22.588 19.3355 22.588C18.9275 22.588 18.5635 22.68 18.2435 22.864C17.9235 23.048 17.6675 23.308 17.4755 23.644C17.2835 23.972 17.1875 24.364 17.1875 24.82C17.1875 25.268 17.2835 25.664 17.4755 26.008C17.6675 26.344 17.9235 26.604 18.2435 26.788C18.5635 26.972 18.9275 27.064 19.3355 27.064ZM26.0527 28.072C25.5247 28.072 25.0207 28 24.5407 27.856C24.0687 27.712 23.6967 27.536 23.4247 27.328L23.9047 26.416C24.1767 26.6 24.5127 26.756 24.9127 26.884C25.3127 27.012 25.7207 27.076 26.1367 27.076C26.6727 27.076 27.0567 27 27.2887 26.848C27.5287 26.696 27.6487 26.484 27.6487 26.212C27.6487 26.012 27.5767 25.856 27.4327 25.744C27.2887 25.632 27.0967 25.548 26.8567 25.492C26.6247 25.436 26.3647 25.388 26.0767 25.348C25.7887 25.3 25.5007 25.244 25.2127 25.18C24.9247 25.108 24.6607 25.012 24.4207 24.892C24.1807 24.764 23.9887 24.592 23.8447 24.376C23.7007 24.152 23.6287 23.856 23.6287 23.488C23.6287 23.104 23.7367 22.768 23.9527 22.48C24.1687 22.192 24.4727 21.972 24.8647 21.82C25.2647 21.66 25.7367 21.58 26.2807 21.58C26.6967 21.58 27.1167 21.632 27.5407 21.736C27.9727 21.832 28.3247 21.972 28.5967 22.156L28.1047 23.068C27.8167 22.876 27.5167 22.744 27.2047 22.672C26.8927 22.6 26.5807 22.564 26.2687 22.564C25.7647 22.564 25.3887 22.648 25.1407 22.816C24.8927 22.976 24.7687 23.184 24.7687 23.44C24.7687 23.656 24.8407 23.824 24.9847 23.944C25.1367 24.056 25.3287 24.144 25.5607 24.208C25.8007 24.272 26.0647 24.328 26.3527 24.376C26.6407 24.416 26.9287 24.472 27.2167 24.544C27.5047 24.608 27.7647 24.7 27.9967 24.82C28.2367 24.94 28.4287 25.108 28.5727 25.324C28.7247 25.54 28.8007 25.828 28.8007 26.188C28.8007 26.572 28.6887 26.904 28.4647 27.184C28.2407 27.464 27.9247 27.684 27.5167 27.844C27.1087 27.996 26.6207 28.072 26.0527 28.072ZM32.0644 28.072C31.5364 28.072 31.0324 28 30.5524 27.856C30.0804 27.712 29.7084 27.536 29.4364 27.328L29.9164 26.416C30.1884 26.6 30.5244 26.756 30.9244 26.884C31.3244 27.012 31.7324 27.076 32.1484 27.076C32.6844 27.076 33.0684 27 33.3004 26.848C33.5404 26.696 33.6604 26.484 33.6604 26.212C33.6604 26.012 33.5884 25.856 33.4444 25.744C33.3004 25.632 33.1084 25.548 32.8684 25.492C32.6364 25.436 32.3764 25.388 32.0884 25.348C31.8004 25.3 31.5124 25.244 31.2244 25.18C30.9364 25.108 30.6724 25.012 30.4324 24.892C30.1924 24.764 30.0004 24.592 29.8564 24.376C29.7124 24.152 29.6404 23.856 29.6404 23.488C29.6404 23.104 29.7484 22.768 29.9644 22.48C30.1804 22.192 30.4844 21.972 30.8764 21.82C31.2764 21.66 31.7484 21.58 32.2924 21.58C32.7084 21.58 33.1284 21.632 33.5524 21.736C33.9844 21.832 34.3364 21.972 34.6084 22.156L34.1164 23.068C33.8284 22.876 33.5284 22.744 33.2164 22.672C32.9044 22.6 32.5924 22.564 32.2804 22.564C31.7764 22.564 31.4004 22.648 31.1524 22.816C30.9044 22.976 30.7804 23.184 30.7804 23.44C30.7804 23.656 30.8524 23.824 30.9964 23.944C31.1484 24.056 31.3404 24.144 31.5724 24.208C31.8124 24.272 32.0764 24.328 32.3644 24.376C32.6524 24.416 32.9404 24.472 33.2284 24.544C33.5164 24.608 33.7764 24.7 34.0084 24.82C34.2484 24.94 34.4404 25.108 34.5844 25.324C34.7364 25.54 34.8124 25.828 34.8124 26.188C34.8124 26.572 34.7004 26.904 34.4764 27.184C34.2524 27.464 33.9364 27.684 33.5284 27.844C33.1204 27.996 32.6324 28.072 32.0644 28.072ZM36.2522 28V21.64H37.4042V28H36.2522ZM36.8282 20.416C36.6042 20.416 36.4162 20.344 36.2642 20.2C36.1202 20.056 36.0482 19.88 36.0482 19.672C36.0482 19.456 36.1202 19.276 36.2642 19.132C36.4162 18.988 36.6042 18.916 36.8282 18.916C37.0522 18.916 37.2362 18.988 37.3802 19.132C37.5322 19.268 37.6082 19.44 37.6082 19.648C37.6082 19.864 37.5362 20.048 37.3922 20.2C37.2482 20.344 37.0602 20.416 36.8282 20.416ZM42.9757 28.072C42.4317 28.072 41.9397 27.952 41.4997 27.712C41.0677 27.464 40.7237 27.1 40.4677 26.62C40.2197 26.14 40.0957 25.54 40.0957 24.82C40.0957 24.1 40.2237 23.5 40.4797 23.02C40.7437 22.54 41.0917 22.18 41.5237 21.94C41.9637 21.7 42.4477 21.58 42.9757 21.58C43.5997 21.58 44.1517 21.716 44.6317 21.988C45.1117 22.26 45.4917 22.64 45.7717 23.128C46.0517 23.608 46.1917 24.172 46.1917 24.82C46.1917 25.468 46.0517 26.036 45.7717 26.524C45.4917 27.012 45.1117 27.392 44.6317 27.664C44.1517 27.936 43.5997 28.072 42.9757 28.072ZM39.6037 28V19.096H40.7557V23.332L40.6357 24.808L40.7077 26.284V28H39.6037ZM42.8797 27.064C43.2877 27.064 43.6517 26.972 43.9717 26.788C44.2997 26.604 44.5557 26.344 44.7397 26.008C44.9317 25.664 45.0277 25.268 45.0277 24.82C45.0277 24.364 44.9317 23.972 44.7397 23.644C44.5557 23.308 44.2997 23.048 43.9717 22.864C43.6517 22.68 43.2877 22.588 42.8797 22.588C42.4797 22.588 42.1157 22.68 41.7877 22.864C41.4677 23.048 41.2117 23.308 41.0197 23.644C40.8357 23.972 40.7437 24.364 40.7437 24.82C40.7437 25.268 40.8357 25.664 41.0197 26.008C41.2117 26.344 41.4677 26.604 41.7877 26.788C42.1157 26.972 42.4797 27.064 42.8797 27.064ZM47.7834 28V19.096H48.9354V28H47.7834ZM53.967 28.072C53.287 28.072 52.687 27.932 52.167 27.652C51.655 27.372 51.255 26.988 50.967 26.5C50.687 26.012 50.547 25.452 50.547 24.82C50.547 24.188 50.683 23.628 50.955 23.14C51.235 22.652 51.615 22.272 52.095 22C52.583 21.72 53.131 21.58 53.739 21.58C54.355 21.58 54.899 21.716 55.371 21.988C55.843 22.26 56.211 22.644 56.475 23.14C56.747 23.628 56.883 24.2 56.883 24.856C56.883 24.904 56.879 24.96 56.871 25.024C56.871 25.088 56.867 25.148 56.859 25.204H51.447V24.376H56.259L55.791 24.664C55.799 24.256 55.715 23.892 55.539 23.572C55.363 23.252 55.119 23.004 54.807 22.828C54.503 22.644 54.147 22.552 53.739 22.552C53.339 22.552 52.983 22.644 52.671 22.828C52.359 23.004 52.115 23.256 51.939 23.584C51.763 23.904 51.675 24.272 51.675 24.688V24.88C51.675 25.304 51.771 25.684 51.963 26.02C52.163 26.348 52.439 26.604 52.791 26.788C53.143 26.972 53.547 27.064 54.003 27.064C54.379 27.064 54.719 27 55.023 26.872C55.335 26.744 55.607 26.552 55.839 26.296L56.475 27.04C56.187 27.376 55.827 27.632 55.395 27.808C54.971 27.984 54.495 28.072 53.967 28.072ZM60.6013 28L64.4053 19.6H65.5933L69.4093 28H68.1493L64.7533 20.272H65.2333L61.8373 28H60.6013ZM62.2213 25.9L62.5453 24.94H67.2733L67.6213 25.9H62.2213ZM73.2078 28.072C72.5598 28.072 71.9798 27.932 71.4678 27.652C70.9638 27.372 70.5678 26.988 70.2798 26.5C69.9918 26.012 69.8478 25.452 69.8478 24.82C69.8478 24.188 69.9918 23.628 70.2798 23.14C70.5678 22.652 70.9638 22.272 71.4678 22C71.9798 21.72 72.5598 21.58 73.2078 21.58C73.7838 21.58 74.2958 21.696 74.7438 21.928C75.1998 22.152 75.5518 22.488 75.7998 22.936L74.9238 23.5C74.7158 23.188 74.4598 22.96 74.1558 22.816C73.8598 22.664 73.5398 22.588 73.1958 22.588C72.7798 22.588 72.4078 22.68 72.0798 22.864C71.7518 23.048 71.4918 23.308 71.2998 23.644C71.1078 23.972 71.0118 24.364 71.0118 24.82C71.0118 25.276 71.1078 25.672 71.2998 26.008C71.4918 26.344 71.7518 26.604 72.0798 26.788C72.4078 26.972 72.7798 27.064 73.1958 27.064C73.5398 27.064 73.8598 26.992 74.1558 26.848C74.4598 26.696 74.7158 26.464 74.9238 26.152L75.7998 26.704C75.5518 27.144 75.1998 27.484 74.7438 27.724C74.2958 27.956 73.7838 28.072 73.2078 28.072ZM79.5573 28.072C78.9173 28.072 78.4213 27.9 78.0693 27.556C77.7173 27.212 77.5413 26.72 77.5413 26.08V20.248H78.6933V26.032C78.6933 26.376 78.7773 26.64 78.9453 26.824C79.1213 27.008 79.3693 27.1 79.6893 27.1C80.0493 27.1 80.3493 27 80.5893 26.8L80.9493 27.628C80.7733 27.78 80.5613 27.892 80.3133 27.964C80.0733 28.036 79.8213 28.072 79.5573 28.072ZM76.4613 22.588V21.64H80.5173V22.588H76.4613ZM82.342 28V21.64H83.494V28H82.342ZM82.918 20.416C82.694 20.416 82.506 20.344 82.354 20.2C82.21 20.056 82.138 19.88 82.138 19.672C82.138 19.456 82.21 19.276 82.354 19.132C82.506 18.988 82.694 18.916 82.918 18.916C83.142 18.916 83.326 18.988 83.47 19.132C83.622 19.268 83.698 19.44 83.698 19.648C83.698 19.864 83.626 20.048 83.482 20.2C83.338 20.344 83.15 20.416 82.918 20.416ZM88.4176 28.072C87.7776 28.072 87.2096 27.932 86.7136 27.652C86.2176 27.372 85.8256 26.988 85.5376 26.5C85.2496 26.004 85.1056 25.444 85.1056 24.82C85.1056 24.188 85.2496 23.628 85.5376 23.14C85.8256 22.652 86.2176 22.272 86.7136 22C87.2096 21.72 87.7776 21.58 88.4176 21.58C89.0496 21.58 89.6136 21.72 90.1096 22C90.6136 22.272 91.0056 22.652 91.2856 23.14C91.5736 23.62 91.7176 24.18 91.7176 24.82C91.7176 25.452 91.5736 26.012 91.2856 26.5C91.0056 26.988 90.6136 27.372 90.1096 27.652C89.6136 27.932 89.0496 28.072 88.4176 28.072ZM88.4176 27.064C88.8256 27.064 89.1896 26.972 89.5096 26.788C89.8376 26.604 90.0936 26.344 90.2776 26.008C90.4616 25.664 90.5536 25.268 90.5536 24.82C90.5536 24.364 90.4616 23.972 90.2776 23.644C90.0936 23.308 89.8376 23.048 89.5096 22.864C89.1896 22.68 88.8256 22.588 88.4176 22.588C88.0096 22.588 87.6456 22.68 87.3256 22.864C87.0056 23.048 86.7496 23.308 86.5576 23.644C86.3656 23.972 86.2696 24.364 86.2696 24.82C86.2696 25.268 86.3656 25.664 86.5576 26.008C86.7496 26.344 87.0056 26.604 87.3256 26.788C87.6456 26.972 88.0096 27.064 88.4176 27.064ZM96.7068 21.58C97.2268 21.58 97.6828 21.68 98.0748 21.88C98.4748 22.08 98.7868 22.384 99.0108 22.792C99.2348 23.2 99.3468 23.716 99.3468 24.34V28H98.1948V24.472C98.1948 23.856 98.0428 23.392 97.7388 23.08C97.4428 22.768 97.0228 22.612 96.4788 22.612C96.0708 22.612 95.7148 22.692 95.4108 22.852C95.1068 23.012 94.8708 23.248 94.7028 23.56C94.5428 23.872 94.4628 24.26 94.4628 24.724V28H93.3108V21.64H94.4148V23.356L94.2348 22.9C94.4428 22.484 94.7628 22.16 95.1948 21.928C95.6268 21.696 96.1308 21.58 96.7068 21.58Z" fill="white"/>
<path d="M8.128 46V37.6H9.412L14.68 44.068H14.044V37.6H15.592V46H14.308L9.04 39.532H9.676V46H8.128ZM20.7108 46.084C19.9988 46.084 19.3748 45.944 18.8388 45.664C18.3108 45.376 17.8988 44.984 17.6028 44.488C17.3148 43.992 17.1708 43.428 17.1708 42.796C17.1708 42.156 17.3108 41.592 17.5908 41.104C17.8788 40.608 18.2708 40.22 18.7668 39.94C19.2708 39.66 19.8428 39.52 20.4828 39.52C21.1068 39.52 21.6628 39.656 22.1508 39.928C22.6388 40.2 23.0228 40.584 23.3028 41.08C23.5828 41.576 23.7228 42.16 23.7228 42.832C23.7228 42.896 23.7188 42.968 23.7108 43.048C23.7108 43.128 23.7068 43.204 23.6988 43.276H18.3588V42.28H22.9068L22.3188 42.592C22.3268 42.224 22.2508 41.9 22.0908 41.62C21.9308 41.34 21.7108 41.12 21.4308 40.96C21.1588 40.8 20.8428 40.72 20.4828 40.72C20.1148 40.72 19.7908 40.8 19.5108 40.96C19.2388 41.12 19.0228 41.344 18.8628 41.632C18.7108 41.912 18.6348 42.244 18.6348 42.628V42.868C18.6348 43.252 18.7228 43.592 18.8988 43.888C19.0748 44.184 19.3228 44.412 19.6428 44.572C19.9628 44.732 20.3308 44.812 20.7468 44.812C21.1068 44.812 21.4308 44.756 21.7188 44.644C22.0068 44.532 22.2628 44.356 22.4868 44.116L23.2908 45.04C23.0028 45.376 22.6388 45.636 22.1988 45.82C21.7668 45.996 21.2708 46.084 20.7108 46.084ZM28.0677 48.412C27.4757 48.412 26.8957 48.332 26.3277 48.172C25.7677 48.02 25.3077 47.796 24.9477 47.5L25.6197 46.372C25.8997 46.604 26.2517 46.788 26.6757 46.924C27.1077 47.068 27.5437 47.14 27.9837 47.14C28.6877 47.14 29.2037 46.976 29.5317 46.648C29.8597 46.328 30.0237 45.844 30.0237 45.196V44.056L30.1437 42.604L30.0957 41.152V39.592H31.5237V45.028C31.5237 46.188 31.2277 47.04 30.6357 47.584C30.0437 48.136 29.1877 48.412 28.0677 48.412ZM27.8757 45.712C27.2677 45.712 26.7157 45.584 26.2197 45.328C25.7317 45.064 25.3437 44.7 25.0557 44.236C24.7757 43.772 24.6357 43.228 24.6357 42.604C24.6357 41.988 24.7757 41.448 25.0557 40.984C25.3437 40.52 25.7317 40.16 26.2197 39.904C26.7157 39.648 27.2677 39.52 27.8757 39.52C28.4197 39.52 28.9077 39.628 29.3397 39.844C29.7717 40.06 30.1157 40.396 30.3717 40.852C30.6357 41.308 30.7677 41.892 30.7677 42.604C30.7677 43.316 30.6357 43.904 30.3717 44.368C30.1157 44.824 29.7717 45.164 29.3397 45.388C28.9077 45.604 28.4197 45.712 27.8757 45.712ZM28.1037 44.44C28.4797 44.44 28.8157 44.364 29.1117 44.212C29.4077 44.052 29.6357 43.836 29.7957 43.564C29.9637 43.284 30.0477 42.964 30.0477 42.604C30.0477 42.244 29.9637 41.928 29.7957 41.656C29.6357 41.376 29.4077 41.164 29.1117 41.02C28.8157 40.868 28.4797 40.792 28.1037 40.792C27.7277 40.792 27.3877 40.868 27.0837 41.02C26.7877 41.164 26.5557 41.376 26.3877 41.656C26.2277 41.928 26.1477 42.244 26.1477 42.604C26.1477 42.964 26.2277 43.284 26.3877 43.564C26.5557 43.836 26.7877 44.052 27.0837 44.212C27.3877 44.364 27.7277 44.44 28.1037 44.44ZM36.3757 46.084C35.7197 46.084 35.1357 45.944 34.6237 45.664C34.1117 45.376 33.7077 44.984 33.4117 44.488C33.1157 43.992 32.9677 43.428 32.9677 42.796C32.9677 42.156 33.1157 41.592 33.4117 41.104C33.7077 40.608 34.1117 40.22 34.6237 39.94C35.1357 39.66 35.7197 39.52 36.3757 39.52C37.0397 39.52 37.6277 39.66 38.1397 39.94C38.6597 40.22 39.0637 40.604 39.3517 41.092C39.6477 41.58 39.7957 42.148 39.7957 42.796C39.7957 43.428 39.6477 43.992 39.3517 44.488C39.0637 44.984 38.6597 45.376 38.1397 45.664C37.6277 45.944 37.0397 46.084 36.3757 46.084ZM36.3757 44.8C36.7437 44.8 37.0717 44.72 37.3597 44.56C37.6477 44.4 37.8717 44.168 38.0317 43.864C38.1997 43.56 38.2837 43.204 38.2837 42.796C38.2837 42.38 38.1997 42.024 38.0317 41.728C37.8717 41.424 37.6477 41.192 37.3597 41.032C37.0717 40.872 36.7477 40.792 36.3877 40.792C36.0197 40.792 35.6917 40.872 35.4037 41.032C35.1237 41.192 34.8997 41.424 34.7317 41.728C34.5637 42.024 34.4797 42.38 34.4797 42.796C34.4797 43.204 34.5637 43.56 34.7317 43.864C34.8997 44.168 35.1237 44.4 35.4037 44.56C35.6917 44.72 36.0157 44.8 36.3757 44.8ZM43.6421 46.084C42.9381 46.084 42.3941 45.904 42.0101 45.544C41.6261 45.176 41.4341 44.636 41.4341 43.924V38.176H42.9341V43.888C42.9341 44.192 43.0101 44.428 43.1621 44.596C43.3221 44.764 43.5421 44.848 43.8221 44.848C44.1581 44.848 44.4381 44.76 44.6621 44.584L45.0821 45.652C44.9061 45.796 44.6901 45.904 44.4341 45.976C44.1781 46.048 43.9141 46.084 43.6421 46.084ZM40.3781 40.84V39.64H44.6501V40.84H40.3781ZM46.316 46V39.592H47.816V46H46.316ZM47.072 38.536C46.792 38.536 46.56 38.448 46.376 38.272C46.2 38.096 46.112 37.884 46.112 37.636C46.112 37.38 46.2 37.168 46.376 37C46.56 36.824 46.792 36.736 47.072 36.736C47.352 36.736 47.58 36.82 47.756 36.988C47.94 37.148 48.032 37.352 48.032 37.6C48.032 37.864 47.944 38.088 47.768 38.272C47.592 38.448 47.36 38.536 47.072 38.536ZM53.7328 46V44.704L53.6488 44.428V42.16C53.6488 41.72 53.5168 41.38 53.2528 41.14C52.9888 40.892 52.5888 40.768 52.0528 40.768C51.6928 40.768 51.3368 40.824 50.9848 40.936C50.6408 41.048 50.3488 41.204 50.1088 41.404L49.5208 40.312C49.8648 40.048 50.2728 39.852 50.7448 39.724C51.2248 39.588 51.7208 39.52 52.2328 39.52C53.1608 39.52 53.8768 39.744 54.3808 40.192C54.8928 40.632 55.1488 41.316 55.1488 42.244V46H53.7328ZM51.7168 46.084C51.2368 46.084 50.8168 46.004 50.4568 45.844C50.0968 45.676 49.8168 45.448 49.6168 45.16C49.4248 44.864 49.3288 44.532 49.3288 44.164C49.3288 43.804 49.4128 43.48 49.5808 43.192C49.7568 42.904 50.0408 42.676 50.4328 42.508C50.8248 42.34 51.3448 42.256 51.9928 42.256H53.8528V43.252H52.1008C51.5888 43.252 51.2448 43.336 51.0688 43.504C50.8928 43.664 50.8048 43.864 50.8048 44.104C50.8048 44.376 50.9128 44.592 51.1288 44.752C51.3448 44.912 51.6448 44.992 52.0288 44.992C52.3968 44.992 52.7248 44.908 53.0128 44.74C53.3088 44.572 53.5208 44.324 53.6488 43.996L53.9008 44.896C53.7568 45.272 53.4968 45.564 53.1208 45.772C52.7528 45.98 52.2848 46.084 51.7168 46.084ZM59.4858 46.084C58.7818 46.084 58.2378 45.904 57.8538 45.544C57.4698 45.176 57.2778 44.636 57.2778 43.924V38.176H58.7778V43.888C58.7778 44.192 58.8538 44.428 59.0058 44.596C59.1658 44.764 59.3858 44.848 59.6658 44.848C60.0018 44.848 60.2818 44.76 60.5058 44.584L60.9258 45.652C60.7498 45.796 60.5338 45.904 60.2778 45.976C60.0218 46.048 59.7578 46.084 59.4858 46.084ZM56.2218 40.84V39.64H60.4938V40.84H56.2218ZM64.9608 46.084C64.2488 46.084 63.6248 45.944 63.0888 45.664C62.5608 45.376 62.1488 44.984 61.8528 44.488C61.5648 43.992 61.4208 43.428 61.4208 42.796C61.4208 42.156 61.5608 41.592 61.8408 41.104C62.1288 40.608 62.5208 40.22 63.0168 39.94C63.5208 39.66 64.0928 39.52 64.7328 39.52C65.3568 39.52 65.9128 39.656 66.4008 39.928C66.8888 40.2 67.2728 40.584 67.5528 41.08C67.8328 41.576 67.9728 42.16 67.9728 42.832C67.9728 42.896 67.9688 42.968 67.9608 43.048C67.9608 43.128 67.9568 43.204 67.9488 43.276H62.6088V42.28H67.1568L66.5688 42.592C66.5768 42.224 66.5008 41.9 66.3408 41.62C66.1808 41.34 65.9608 41.12 65.6808 40.96C65.4088 40.8 65.0928 40.72 64.7328 40.72C64.3648 40.72 64.0408 40.8 63.7608 40.96C63.4888 41.12 63.2728 41.344 63.1128 41.632C62.9608 41.912 62.8848 42.244 62.8848 42.628V42.868C62.8848 43.252 62.9728 43.592 63.1488 43.888C63.3248 44.184 63.5728 44.412 63.8928 44.572C64.2128 44.732 64.5808 44.812 64.9968 44.812C65.3568 44.812 65.6808 44.756 65.9688 44.644C66.2568 44.532 66.5128 44.356 66.7368 44.116L67.5408 45.04C67.2528 45.376 66.8888 45.636 66.4488 45.82C66.0168 45.996 65.5208 46.084 64.9608 46.084ZM74.1461 46L71.7941 39.592H73.2101L75.2261 45.244H74.5541L76.6661 39.592H77.9261L79.9781 45.244H79.3181L81.3941 39.592H82.7261L80.3621 46H78.9221L77.0501 40.996H77.4941L75.5861 46H74.1461ZM83.7574 46V39.592H85.2574V46H83.7574ZM84.5134 38.536C84.2334 38.536 84.0014 38.448 83.8174 38.272C83.6414 38.096 83.5534 37.884 83.5534 37.636C83.5534 37.38 83.6414 37.168 83.8174 37C84.0014 36.824 84.2334 36.736 84.5134 36.736C84.7934 36.736 85.0214 36.82 85.1974 36.988C85.3814 37.148 85.4734 37.352 85.4734 37.6C85.4734 37.864 85.3854 38.088 85.2094 38.272C85.0334 38.448 84.8014 38.536 84.5134 38.536ZM89.6382 46.084C88.9342 46.084 88.3902 45.904 88.0062 45.544C87.6222 45.176 87.4302 44.636 87.4302 43.924V38.176H88.9302V43.888C88.9302 44.192 89.0062 44.428 89.1582 44.596C89.3182 44.764 89.5382 44.848 89.8182 44.848C90.1542 44.848 90.4342 44.76 90.6582 44.584L91.0782 45.652C90.9022 45.796 90.6862 45.904 90.4302 45.976C90.1742 46.048 89.9102 46.084 89.6382 46.084ZM86.3742 40.84V39.64H90.6462V40.84H86.3742ZM95.9481 39.52C96.4601 39.52 96.9161 39.62 97.3161 39.82C97.7241 40.02 98.0441 40.328 98.2761 40.744C98.5081 41.152 98.6241 41.68 98.6241 42.328V46H97.1241V42.52C97.1241 41.952 96.9881 41.528 96.7161 41.248C96.4521 40.968 96.0801 40.828 95.6001 40.828C95.2481 40.828 94.9361 40.9 94.6641 41.044C94.3921 41.188 94.1801 41.404 94.0281 41.692C93.8841 41.972 93.8121 42.328 93.8121 42.76V46H92.3121V37.096H93.8121V41.32L93.4881 40.792C93.7121 40.384 94.0361 40.072 94.4601 39.856C94.8921 39.632 95.3881 39.52 95.9481 39.52ZM103.843 46V37.096H105.343V46H103.843ZM111.26 46V44.704L111.176 44.428V42.16C111.176 41.72 111.044 41.38 110.78 41.14C110.516 40.892 110.116 40.768 109.58 40.768C109.22 40.768 108.864 40.824 108.512 40.936C108.168 41.048 107.876 41.204 107.636 41.404L107.048 40.312C107.392 40.048 107.8 39.852 108.272 39.724C108.752 39.588 109.248 39.52 109.76 39.52C110.688 39.52 111.404 39.744 111.908 40.192C112.42 40.632 112.676 41.316 112.676 42.244V46H111.26ZM109.244 46.084C108.764 46.084 108.344 46.004 107.984 45.844C107.624 45.676 107.344 45.448 107.144 45.16C106.952 44.864 106.856 44.532 106.856 44.164C106.856 43.804 106.94 43.48 107.108 43.192C107.284 42.904 107.568 42.676 107.96 42.508C108.352 42.34 108.872 42.256 109.52 42.256H111.38V43.252H109.628C109.116 43.252 108.772 43.336 108.596 43.504C108.42 43.664 108.332 43.864 108.332 44.104C108.332 44.376 108.44 44.592 108.656 44.752C108.872 44.912 109.172 44.992 109.556 44.992C109.924 44.992 110.252 44.908 110.54 44.74C110.836 44.572 111.048 44.324 111.176 43.996L111.428 44.896C111.284 45.272 111.024 45.564 110.648 45.772C110.28 45.98 109.812 46.084 109.244 46.084ZM118.237 39.52C118.749 39.52 119.205 39.62 119.605 39.82C120.013 40.02 120.333 40.328 120.565 40.744C120.797 41.152 120.913 41.68 120.913 42.328V46H119.413V42.52C119.413 41.952 119.277 41.528 119.005 41.248C118.741 40.968 118.369 40.828 117.889 40.828C117.537 40.828 117.225 40.9 116.953 41.044C116.681 41.188 116.469 41.404 116.317 41.692C116.173 41.972 116.101 42.328 116.101 42.76V46H114.601V39.592H116.029V41.32L115.777 40.792C116.001 40.384 116.325 40.072 116.749 39.856C117.181 39.632 117.677 39.52 118.237 39.52ZM125.54 46.084C124.924 46.084 124.368 45.948 123.872 45.676C123.384 45.396 123 45.012 122.72 44.524C122.44 44.036 122.3 43.46 122.3 42.796C122.3 42.132 122.44 41.556 122.72 41.068C123 40.58 123.384 40.2 123.872 39.928C124.368 39.656 124.924 39.52 125.54 39.52C126.076 39.52 126.556 39.64 126.98 39.88C127.404 40.112 127.74 40.468 127.988 40.948C128.236 41.428 128.36 42.044 128.36 42.796C128.36 43.54 128.24 44.156 128 44.644C127.76 45.124 127.428 45.484 127.004 45.724C126.58 45.964 126.092 46.084 125.54 46.084ZM125.72 44.8C126.08 44.8 126.4 44.72 126.68 44.56C126.968 44.4 127.196 44.168 127.364 43.864C127.54 43.56 127.628 43.204 127.628 42.796C127.628 42.38 127.54 42.024 127.364 41.728C127.196 41.424 126.968 41.192 126.68 41.032C126.4 40.872 126.08 40.792 125.72 40.792C125.36 40.792 125.036 40.872 124.748 41.032C124.468 41.192 124.24 41.424 124.064 41.728C123.896 42.024 123.812 42.38 123.812 42.796C123.812 43.204 123.896 43.56 124.064 43.864C124.24 44.168 124.468 44.4 124.748 44.56C125.036 44.72 125.36 44.8 125.72 44.8ZM127.664 46V44.488L127.724 42.784L127.604 41.08V37.096H129.092V46H127.664ZM131.066 46V37.096H132.566V46H131.066ZM137.415 46.084C136.759 46.084 136.175 45.944 135.663 45.664C135.151 45.376 134.747 44.984 134.451 44.488C134.155 43.992 134.007 43.428 134.007 42.796C134.007 42.156 134.155 41.592 134.451 41.104C134.747 40.608 135.151 40.22 135.663 39.94C136.175 39.66 136.759 39.52 137.415 39.52C138.079 39.52 138.667 39.66 139.179 39.94C139.699 40.22 140.103 40.604 140.391 41.092C140.687 41.58 140.835 42.148 140.835 42.796C140.835 43.428 140.687 43.992 140.391 44.488C140.103 44.984 139.699 45.376 139.179 45.664C138.667 45.944 138.079 46.084 137.415 46.084ZM137.415 44.8C137.783 44.8 138.111 44.72 138.399 44.56C138.687 44.4 138.911 44.168 139.071 43.864C139.239 43.56 139.323 43.204 139.323 42.796C139.323 42.38 139.239 42.024 139.071 41.728C138.911 41.424 138.687 41.192 138.399 41.032C138.111 40.872 137.787 40.792 137.427 40.792C137.059 40.792 136.731 40.872 136.443 41.032C136.163 41.192 135.939 41.424 135.771 41.728C135.603 42.024 135.519 42.38 135.519 42.796C135.519 43.204 135.603 43.56 135.771 43.864C135.939 44.168 136.163 44.4 136.443 44.56C136.731 44.72 137.055 44.8 137.415 44.8ZM142.269 46V39.592H143.697V41.356L143.529 40.84C143.721 40.408 144.021 40.08 144.429 39.856C144.845 39.632 145.361 39.52 145.977 39.52V40.948C145.913 40.932 145.853 40.924 145.797 40.924C145.741 40.916 145.685 40.912 145.629 40.912C145.061 40.912 144.609 41.08 144.273 41.416C143.937 41.744 143.769 42.236 143.769 42.892V46H142.269ZM149.903 46.084C149.287 46.084 148.731 45.948 148.235 45.676C147.747 45.396 147.363 45.012 147.083 44.524C146.803 44.036 146.663 43.46 146.663 42.796C146.663 42.132 146.803 41.556 147.083 41.068C147.363 40.58 147.747 40.2 148.235 39.928C148.731 39.656 149.287 39.52 149.903 39.52C150.439 39.52 150.919 39.64 151.343 39.88C151.767 40.112 152.103 40.468 152.351 40.948C152.599 41.428 152.723 42.044 152.723 42.796C152.723 43.54 152.603 44.156 152.363 44.644C152.123 45.124 151.791 45.484 151.367 45.724C150.943 45.964 150.455 46.084 149.903 46.084ZM150.083 44.8C150.443 44.8 150.763 44.72 151.043 44.56C151.331 44.4 151.559 44.168 151.727 43.864C151.903 43.56 151.991 43.204 151.991 42.796C151.991 42.38 151.903 42.024 151.727 41.728C151.559 41.424 151.331 41.192 151.043 41.032C150.763 40.872 150.443 40.792 150.083 40.792C149.723 40.792 149.399 40.872 149.111 41.032C148.831 41.192 148.603 41.424 148.427 41.728C148.259 42.024 148.175 42.38 148.175 42.796C148.175 43.204 148.259 43.56 148.427 43.864C148.603 44.168 148.831 44.4 149.111 44.56C149.399 44.72 149.723 44.8 150.083 44.8ZM152.027 46V44.488L152.087 42.784L151.967 41.08V37.096H153.455V46H152.027ZM161.458 46.084C160.914 46.084 160.434 45.984 160.018 45.784C159.602 45.576 159.278 45.264 159.046 44.848C158.814 44.424 158.698 43.892 158.698 43.252V39.592H160.198V43.048C160.198 43.624 160.326 44.056 160.582 44.344C160.846 44.624 161.218 44.764 161.698 44.764C162.05 44.764 162.354 44.692 162.61 44.548C162.874 44.404 163.078 44.188 163.222 43.9C163.374 43.612 163.45 43.256 163.45 42.832V39.592H164.95V46H163.522V44.272L163.774 44.8C163.558 45.216 163.242 45.536 162.826 45.76C162.41 45.976 161.954 46.084 161.458 46.084ZM168.894 46.084C168.358 46.084 167.842 46.016 167.346 45.88C166.858 45.736 166.47 45.564 166.182 45.364L166.758 44.224C167.046 44.408 167.39 44.56 167.79 44.68C168.19 44.8 168.59 44.86 168.99 44.86C169.462 44.86 169.802 44.796 170.01 44.668C170.226 44.54 170.334 44.368 170.334 44.152C170.334 43.976 170.262 43.844 170.118 43.756C169.974 43.66 169.786 43.588 169.554 43.54C169.322 43.492 169.062 43.448 168.774 43.408C168.494 43.368 168.21 43.316 167.922 43.252C167.642 43.18 167.386 43.08 167.154 42.952C166.922 42.816 166.734 42.636 166.59 42.412C166.446 42.188 166.374 41.892 166.374 41.524C166.374 41.116 166.49 40.764 166.722 40.468C166.954 40.164 167.278 39.932 167.694 39.772C168.118 39.604 168.618 39.52 169.194 39.52C169.626 39.52 170.062 39.568 170.502 39.664C170.942 39.76 171.306 39.896 171.594 40.072L171.018 41.212C170.714 41.028 170.406 40.904 170.094 40.84C169.79 40.768 169.486 40.732 169.182 40.732C168.726 40.732 168.386 40.8 168.162 40.936C167.946 41.072 167.838 41.244 167.838 41.452C167.838 41.644 167.91 41.788 168.054 41.884C168.198 41.98 168.386 42.056 168.618 42.112C168.85 42.168 169.106 42.216 169.386 42.256C169.674 42.288 169.958 42.34 170.238 42.412C170.518 42.484 170.774 42.584 171.006 42.712C171.246 42.832 171.438 43.004 171.582 43.228C171.726 43.452 171.798 43.744 171.798 44.104C171.798 44.504 171.678 44.852 171.438 45.148C171.206 45.444 170.874 45.676 170.442 45.844C170.01 46.004 169.494 46.084 168.894 46.084ZM173.089 46V39.592H174.589V46H173.089ZM173.845 38.536C173.565 38.536 173.333 38.448 173.149 38.272C172.973 38.096 172.885 37.884 172.885 37.636C172.885 37.38 172.973 37.168 173.149 37C173.333 36.824 173.565 36.736 173.845 36.736C174.125 36.736 174.353 36.82 174.529 36.988C174.713 37.148 174.805 37.352 174.805 37.6C174.805 37.864 174.717 38.088 174.541 38.272C174.365 38.448 174.133 38.536 173.845 38.536ZM180.194 39.52C180.706 39.52 181.162 39.62 181.562 39.82C181.97 40.02 182.29 40.328 182.522 40.744C182.754 41.152 182.87 41.68 182.87 42.328V46H181.37V42.52C181.37 41.952 181.234 41.528 180.962 41.248C180.698 40.968 180.326 40.828 179.846 40.828C179.494 40.828 179.182 40.9 178.91 41.044C178.638 41.188 178.426 41.404 178.274 41.692C178.13 41.972 178.058 42.328 178.058 42.76V46H176.558V39.592H177.986V41.32L177.734 40.792C177.958 40.384 178.282 40.072 178.706 39.856C179.138 39.632 179.634 39.52 180.194 39.52ZM187.689 48.412C187.097 48.412 186.517 48.332 185.949 48.172C185.389 48.02 184.929 47.796 184.569 47.5L185.241 46.372C185.521 46.604 185.873 46.788 186.297 46.924C186.729 47.068 187.165 47.14 187.605 47.14C188.309 47.14 188.825 46.976 189.153 46.648C189.481 46.328 189.645 45.844 189.645 45.196V44.056L189.765 42.604L189.717 41.152V39.592H191.145V45.028C191.145 46.188 190.849 47.04 190.257 47.584C189.665 48.136 188.809 48.412 187.689 48.412ZM187.497 45.712C186.889 45.712 186.337 45.584 185.841 45.328C185.353 45.064 184.965 44.7 184.677 44.236C184.397 43.772 184.257 43.228 184.257 42.604C184.257 41.988 184.397 41.448 184.677 40.984C184.965 40.52 185.353 40.16 185.841 39.904C186.337 39.648 186.889 39.52 187.497 39.52C188.041 39.52 188.529 39.628 188.961 39.844C189.393 40.06 189.737 40.396 189.993 40.852C190.257 41.308 190.389 41.892 190.389 42.604C190.389 43.316 190.257 43.904 189.993 44.368C189.737 44.824 189.393 45.164 188.961 45.388C188.529 45.604 188.041 45.712 187.497 45.712ZM187.725 44.44C188.101 44.44 188.437 44.364 188.733 44.212C189.029 44.052 189.257 43.836 189.417 43.564C189.585 43.284 189.669 42.964 189.669 42.604C189.669 42.244 189.585 41.928 189.417 41.656C189.257 41.376 189.029 41.164 188.733 41.02C188.437 40.868 188.101 40.792 187.725 40.792C187.349 40.792 187.009 40.868 186.705 41.02C186.409 41.164 186.177 41.376 186.009 41.656C185.849 41.928 185.769 42.244 185.769 42.604C185.769 42.964 185.849 43.284 186.009 43.564C186.177 43.836 186.409 44.052 186.705 44.212C187.009 44.364 187.349 44.44 187.725 44.44ZM204.521 39.52C205.033 39.52 205.485 39.62 205.877 39.82C206.277 40.02 206.589 40.328 206.813 40.744C207.037 41.152 207.149 41.68 207.149 42.328V46H205.649V42.52C205.649 41.952 205.525 41.528 205.277 41.248C205.029 40.968 204.673 40.828 204.209 40.828C203.881 40.828 203.589 40.9 203.333 41.044C203.085 41.188 202.889 41.4 202.745 41.68C202.609 41.96 202.541 42.316 202.541 42.748V46H201.041V42.52C201.041 41.952 200.917 41.528 200.669 41.248C200.421 40.968 200.065 40.828 199.601 40.828C199.273 40.828 198.981 40.9 198.725 41.044C198.477 41.188 198.281 41.4 198.137 41.68C198.001 41.96 197.933 42.316 197.933 42.748V46H196.433V39.592H197.861V41.296L197.609 40.792C197.825 40.376 198.137 40.06 198.545 39.844C198.961 39.628 199.433 39.52 199.961 39.52C200.561 39.52 201.081 39.668 201.521 39.964C201.969 40.26 202.265 40.708 202.409 41.308L201.821 41.104C202.029 40.624 202.373 40.24 202.853 39.952C203.333 39.664 203.889 39.52 204.521 39.52ZM213.014 46V44.704L212.93 44.428V42.16C212.93 41.72 212.798 41.38 212.534 41.14C212.27 40.892 211.87 40.768 211.334 40.768C210.974 40.768 210.618 40.824 210.266 40.936C209.922 41.048 209.63 41.204 209.39 41.404L208.802 40.312C209.146 40.048 209.554 39.852 210.026 39.724C210.506 39.588 211.002 39.52 211.514 39.52C212.442 39.52 213.158 39.744 213.662 40.192C214.174 40.632 214.43 41.316 214.43 42.244V46H213.014ZM210.998 46.084C210.518 46.084 210.098 46.004 209.738 45.844C209.378 45.676 209.098 45.448 208.898 45.16C208.706 44.864 208.61 44.532 208.61 44.164C208.61 43.804 208.694 43.48 208.862 43.192C209.038 42.904 209.322 42.676 209.714 42.508C210.106 42.34 210.626 42.256 211.274 42.256H213.134V43.252H211.382C210.87 43.252 210.526 43.336 210.35 43.504C210.174 43.664 210.086 43.864 210.086 44.104C210.086 44.376 210.194 44.592 210.41 44.752C210.626 44.912 210.926 44.992 211.31 44.992C211.678 44.992 212.006 44.908 212.294 44.74C212.59 44.572 212.802 44.324 212.93 43.996L213.182 44.896C213.038 45.272 212.778 45.564 212.402 45.772C212.034 45.98 211.566 46.084 210.998 46.084ZM216.355 46V39.592H217.783V41.356L217.615 40.84C217.807 40.408 218.107 40.08 218.515 39.856C218.931 39.632 219.447 39.52 220.063 39.52V40.948C219.999 40.932 219.939 40.924 219.883 40.924C219.827 40.916 219.771 40.912 219.715 40.912C219.147 40.912 218.695 41.08 218.359 41.416C218.023 41.744 217.855 42.236 217.855 42.892V46H216.355ZM222.56 44.572L222.596 42.688L225.944 39.592H227.744L224.9 42.448L224.108 43.108L222.56 44.572ZM221.336 46V37.096H222.836V46H221.336ZM226.172 46L223.832 43.108L224.78 41.908L227.996 46H226.172ZM231.719 46.084C231.007 46.084 230.383 45.944 229.847 45.664C229.319 45.376 228.907 44.984 228.611 44.488C228.323 43.992 228.179 43.428 228.179 42.796C228.179 42.156 228.319 41.592 228.599 41.104C228.887 40.608 229.279 40.22 229.775 39.94C230.279 39.66 230.851 39.52 231.491 39.52C232.115 39.52 232.671 39.656 233.159 39.928C233.647 40.2 234.031 40.584 234.311 41.08C234.591 41.576 234.731 42.16 234.731 42.832C234.731 42.896 234.727 42.968 234.719 43.048C234.719 43.128 234.715 43.204 234.707 43.276H229.367V42.28H233.915L233.327 42.592C233.335 42.224 233.259 41.9 233.099 41.62C232.939 41.34 232.719 41.12 232.439 40.96C232.167 40.8 231.851 40.72 231.491 40.72C231.123 40.72 230.799 40.8 230.519 40.96C230.247 41.12 230.031 41.344 229.871 41.632C229.719 41.912 229.643 42.244 229.643 42.628V42.868C229.643 43.252 229.731 43.592 229.907 43.888C230.083 44.184 230.331 44.412 230.651 44.572C230.971 44.732 231.339 44.812 231.755 44.812C232.115 44.812 232.439 44.756 232.727 44.644C233.015 44.532 233.271 44.356 233.495 44.116L234.299 45.04C234.011 45.376 233.647 45.636 233.207 45.82C232.775 45.996 232.279 46.084 231.719 46.084ZM238.584 46.084C237.88 46.084 237.336 45.904 236.951 45.544C236.568 45.176 236.376 44.636 236.376 43.924V38.176H237.876V43.888C237.876 44.192 237.952 44.428 238.104 44.596C238.264 44.764 238.484 44.848 238.764 44.848C239.1 44.848 239.38 44.76 239.604 44.584L240.024 45.652C239.848 45.796 239.632 45.904 239.376 45.976C239.12 46.048 238.856 46.084 238.584 46.084ZM235.32 40.84V39.64H239.592V40.84H235.32ZM247.286 46.084C246.67 46.084 246.114 45.948 245.618 45.676C245.13 45.396 244.746 45.012 244.466 44.524C244.186 44.036 244.046 43.46 244.046 42.796C244.046 42.132 244.186 41.556 244.466 41.068C244.746 40.58 245.13 40.2 245.618 39.928C246.114 39.656 246.67 39.52 247.286 39.52C247.822 39.52 248.302 39.64 248.726 39.88C249.15 40.112 249.486 40.468 249.734 40.948C249.982 41.428 250.106 42.044 250.106 42.796C250.106 43.54 249.986 44.156 249.746 44.644C249.506 45.124 249.174 45.484 248.75 45.724C248.326 45.964 247.838 46.084 247.286 46.084ZM247.466 44.8C247.826 44.8 248.146 44.72 248.426 44.56C248.714 44.4 248.942 44.168 249.11 43.864C249.286 43.56 249.374 43.204 249.374 42.796C249.374 42.38 249.286 42.024 249.11 41.728C248.942 41.424 248.714 41.192 248.426 41.032C248.146 40.872 247.826 40.792 247.466 40.792C247.106 40.792 246.782 40.872 246.494 41.032C246.214 41.192 245.986 41.424 245.81 41.728C245.642 42.024 245.558 42.38 245.558 42.796C245.558 43.204 245.642 43.56 245.81 43.864C245.986 44.168 246.214 44.4 246.494 44.56C246.782 44.72 247.106 44.8 247.466 44.8ZM249.41 46V44.488L249.47 42.784L249.35 41.08V37.096H250.838V46H249.41ZM256.76 46V44.704L256.676 44.428V42.16C256.676 41.72 256.544 41.38 256.28 41.14C256.016 40.892 255.616 40.768 255.08 40.768C254.72 40.768 254.364 40.824 254.012 40.936C253.668 41.048 253.376 41.204 253.136 41.404L252.548 40.312C252.892 40.048 253.3 39.852 253.772 39.724C254.252 39.588 254.748 39.52 255.26 39.52C256.188 39.52 256.904 39.744 257.408 40.192C257.92 40.632 258.176 41.316 258.176 42.244V46H256.76ZM254.744 46.084C254.264 46.084 253.844 46.004 253.484 45.844C253.124 45.676 252.844 45.448 252.644 45.16C252.452 44.864 252.356 44.532 252.356 44.164C252.356 43.804 252.44 43.48 252.608 43.192C252.784 42.904 253.068 42.676 253.46 42.508C253.852 42.34 254.372 42.256 255.02 42.256H256.88V43.252H255.128C254.616 43.252 254.272 43.336 254.096 43.504C253.92 43.664 253.832 43.864 253.832 44.104C253.832 44.376 253.94 44.592 254.156 44.752C254.372 44.912 254.672 44.992 255.056 44.992C255.424 44.992 255.752 44.908 256.04 44.74C256.336 44.572 256.548 44.324 256.676 43.996L256.928 44.896C256.784 45.272 256.524 45.564 256.148 45.772C255.78 45.98 255.312 46.084 254.744 46.084ZM262.513 46.084C261.809 46.084 261.265 45.904 260.881 45.544C260.497 45.176 260.305 44.636 260.305 43.924V38.176H261.805V43.888C261.805 44.192 261.881 44.428 262.033 44.596C262.193 44.764 262.413 44.848 262.693 44.848C263.029 44.848 263.309 44.76 263.533 44.584L263.953 45.652C263.777 45.796 263.561 45.904 263.305 45.976C263.049 46.048 262.785 46.084 262.513 46.084ZM259.249 40.84V39.64H263.521V40.84H259.249ZM269.135 46V44.704L269.051 44.428V42.16C269.051 41.72 268.919 41.38 268.655 41.14C268.391 40.892 267.991 40.768 267.455 40.768C267.095 40.768 266.739 40.824 266.387 40.936C266.043 41.048 265.751 41.204 265.511 41.404L264.923 40.312C265.267 40.048 265.675 39.852 266.147 39.724C266.627 39.588 267.123 39.52 267.635 39.52C268.563 39.52 269.279 39.744 269.783 40.192C270.295 40.632 270.551 41.316 270.551 42.244V46H269.135ZM267.119 46.084C266.639 46.084 266.219 46.004 265.859 45.844C265.499 45.676 265.219 45.448 265.019 45.16C264.827 44.864 264.731 44.532 264.731 44.164C264.731 43.804 264.815 43.48 264.983 43.192C265.159 42.904 265.443 42.676 265.835 42.508C266.227 42.34 266.747 42.256 267.395 42.256H269.255V43.252H267.503C266.991 43.252 266.647 43.336 266.471 43.504C266.295 43.664 266.207 43.864 266.207 44.104C266.207 44.376 266.315 44.592 266.531 44.752C266.747 44.912 267.047 44.992 267.431 44.992C267.799 44.992 268.127 44.908 268.415 44.74C268.711 44.572 268.923 44.324 269.051 43.996L269.303 44.896C269.159 45.272 268.899 45.564 268.523 45.772C268.155 45.98 267.687 46.084 267.119 46.084ZM278.205 46.084C277.501 46.084 276.957 45.904 276.573 45.544C276.189 45.176 275.997 44.636 275.997 43.924V38.176H277.497V43.888C277.497 44.192 277.573 44.428 277.725 44.596C277.885 44.764 278.105 44.848 278.385 44.848C278.721 44.848 279.001 44.76 279.225 44.584L279.645 45.652C279.469 45.796 279.253 45.904 278.997 45.976C278.741 46.048 278.477 46.084 278.205 46.084ZM274.941 40.84V39.64H279.213V40.84H274.941ZM283.548 46.084C282.892 46.084 282.308 45.944 281.796 45.664C281.284 45.376 280.88 44.984 280.584 44.488C280.288 43.992 280.14 43.428 280.14 42.796C280.14 42.156 280.288 41.592 280.584 41.104C280.88 40.608 281.284 40.22 281.796 39.94C282.308 39.66 282.892 39.52 283.548 39.52C284.212 39.52 284.8 39.66 285.312 39.94C285.832 40.22 286.236 40.604 286.524 41.092C286.82 41.58 286.968 42.148 286.968 42.796C286.968 43.428 286.82 43.992 286.524 44.488C286.236 44.984 285.832 45.376 285.312 45.664C284.8 45.944 284.212 46.084 283.548 46.084ZM283.548 44.8C283.916 44.8 284.244 44.72 284.532 44.56C284.82 44.4 285.044 44.168 285.204 43.864C285.372 43.56 285.456 43.204 285.456 42.796C285.456 42.38 285.372 42.024 285.204 41.728C285.044 41.424 284.82 41.192 284.532 41.032C284.244 40.872 283.92 40.792 283.56 40.792C283.192 40.792 282.864 40.872 282.576 41.032C282.296 41.192 282.072 41.424 281.904 41.728C281.736 42.024 281.652 42.38 281.652 42.796C281.652 43.204 281.736 43.56 281.904 43.864C282.072 44.168 282.296 44.4 282.576 44.56C282.864 44.72 283.188 44.8 283.548 44.8ZM9.964 61.084C9.428 61.084 8.912 61.016 8.416 60.88C7.928 60.736 7.54 60.564 7.252 60.364L7.828 59.224C8.116 59.408 8.46 59.56 8.86 59.68C9.26 59.8 9.66 59.86 10.06 59.86C10.532 59.86 10.872 59.796 11.08 59.668C11.296 59.54 11.404 59.368 11.404 59.152C11.404 58.976 11.332 58.844 11.188 58.756C11.044 58.66 10.856 58.588 10.624 58.54C10.392 58.492 10.132 58.448 9.844 58.408C9.564 58.368 9.28 58.316 8.992 58.252C8.712 58.18 8.456 58.08 8.224 57.952C7.992 57.816 7.804 57.636 7.66 57.412C7.516 57.188 7.444 56.892 7.444 56.524C7.444 56.116 7.56 55.764 7.792 55.468C8.024 55.164 8.348 54.932 8.764 54.772C9.188 54.604 9.688 54.52 10.264 54.52C10.696 54.52 11.132 54.568 11.572 54.664C12.012 54.76 12.376 54.896 12.664 55.072L12.088 56.212C11.784 56.028 11.476 55.904 11.164 55.84C10.86 55.768 10.556 55.732 10.252 55.732C9.796 55.732 9.456 55.8 9.232 55.936C9.016 56.072 8.908 56.244 8.908 56.452C8.908 56.644 8.98 56.788 9.124 56.884C9.268 56.98 9.456 57.056 9.688 57.112C9.92 57.168 10.176 57.216 10.456 57.256C10.744 57.288 11.028 57.34 11.308 57.412C11.588 57.484 11.844 57.584 12.076 57.712C12.316 57.832 12.508 58.004 12.652 58.228C12.796 58.452 12.868 58.744 12.868 59.104C12.868 59.504 12.748 59.852 12.508 60.148C12.276 60.444 11.944 60.676 11.512 60.844C11.08 61.004 10.564 61.084 9.964 61.084ZM17.1718 61.084C16.4598 61.084 15.8358 60.944 15.2998 60.664C14.7718 60.376 14.3598 59.984 14.0638 59.488C13.7758 58.992 13.6318 58.428 13.6318 57.796C13.6318 57.156 13.7718 56.592 14.0518 56.104C14.3398 55.608 14.7318 55.22 15.2278 54.94C15.7318 54.66 16.3038 54.52 16.9438 54.52C17.5678 54.52 18.1238 54.656 18.6118 54.928C19.0998 55.2 19.4838 55.584 19.7638 56.08C20.0438 56.576 20.1838 57.16 20.1838 57.832C20.1838 57.896 20.1798 57.968 20.1718 58.048C20.1718 58.128 20.1678 58.204 20.1598 58.276H14.8198V57.28H19.3678L18.7798 57.592C18.7878 57.224 18.7118 56.9 18.5518 56.62C18.3918 56.34 18.1718 56.12 17.8918 55.96C17.6198 55.8 17.3038 55.72 16.9438 55.72C16.5758 55.72 16.2518 55.8 15.9718 55.96C15.6998 56.12 15.4838 56.344 15.3238 56.632C15.1718 56.912 15.0958 57.244 15.0958 57.628V57.868C15.0958 58.252 15.1838 58.592 15.3598 58.888C15.5358 59.184 15.7838 59.412 16.1038 59.572C16.4238 59.732 16.7918 59.812 17.2078 59.812C17.5678 59.812 17.8918 59.756 18.1798 59.644C18.4678 59.532 18.7238 59.356 18.9478 59.116L19.7518 60.04C19.4638 60.376 19.0998 60.636 18.6598 60.82C18.2278 60.996 17.7318 61.084 17.1718 61.084ZM24.5646 61.084C23.8926 61.084 23.2926 60.944 22.7646 60.664C22.2446 60.376 21.8366 59.984 21.5406 59.488C21.2446 58.992 21.0966 58.428 21.0966 57.796C21.0966 57.156 21.2446 56.592 21.5406 56.104C21.8366 55.608 22.2446 55.22 22.7646 54.94C23.2926 54.66 23.8926 54.52 24.5646 54.52C25.1886 54.52 25.7366 54.648 26.2086 54.904C26.6886 55.152 27.0526 55.52 27.3006 56.008L26.1486 56.68C25.9566 56.376 25.7206 56.152 25.4406 56.008C25.1686 55.864 24.8726 55.792 24.5526 55.792C24.1846 55.792 23.8526 55.872 23.5566 56.032C23.2606 56.192 23.0286 56.424 22.8606 56.728C22.6926 57.024 22.6086 57.38 22.6086 57.796C22.6086 58.212 22.6926 58.572 22.8606 58.876C23.0286 59.172 23.2606 59.4 23.5566 59.56C23.8526 59.72 24.1846 59.8 24.5526 59.8C24.8726 59.8 25.1686 59.728 25.4406 59.584C25.7206 59.44 25.9566 59.216 26.1486 58.912L27.3006 59.584C27.0526 60.064 26.6886 60.436 26.2086 60.7C25.7366 60.956 25.1886 61.084 24.5646 61.084ZM31.3093 61.084C30.7653 61.084 30.2853 60.984 29.8693 60.784C29.4533 60.576 29.1293 60.264 28.8973 59.848C28.6653 59.424 28.5493 58.892 28.5493 58.252V54.592H30.0493V58.048C30.0493 58.624 30.1773 59.056 30.4333 59.344C30.6973 59.624 31.0693 59.764 31.5493 59.764C31.9013 59.764 32.2053 59.692 32.4613 59.548C32.7253 59.404 32.9293 59.188 33.0733 58.9C33.2253 58.612 33.3013 58.256 33.3013 57.832V54.592H34.8013V61H33.3733V59.272L33.6253 59.8C33.4093 60.216 33.0933 60.536 32.6773 60.76C32.2613 60.976 31.8053 61.084 31.3093 61.084ZM36.7653 61V54.592H38.1933V56.356L38.0253 55.84C38.2173 55.408 38.5173 55.08 38.9253 54.856C39.3413 54.632 39.8573 54.52 40.4733 54.52V55.948C40.4093 55.932 40.3493 55.924 40.2933 55.924C40.2373 55.916 40.1813 55.912 40.1253 55.912C39.5573 55.912 39.1053 56.08 38.7693 56.416C38.4333 56.744 38.2653 57.236 38.2653 57.892V61H36.7653ZM44.6991 61.084C43.9871 61.084 43.3631 60.944 42.8271 60.664C42.2991 60.376 41.8871 59.984 41.5911 59.488C41.3031 58.992 41.1591 58.428 41.1591 57.796C41.1591 57.156 41.2991 56.592 41.5791 56.104C41.8671 55.608 42.2591 55.22 42.7551 54.94C43.2591 54.66 43.8311 54.52 44.4711 54.52C45.0951 54.52 45.6511 54.656 46.1391 54.928C46.6271 55.2 47.0111 55.584 47.2911 56.08C47.5711 56.576 47.7111 57.16 47.7111 57.832C47.7111 57.896 47.7071 57.968 47.6991 58.048C47.6991 58.128 47.6951 58.204 47.6871 58.276H42.3471V57.28H46.8951L46.3071 57.592C46.3151 57.224 46.2391 56.9 46.0791 56.62C45.9191 56.34 45.6991 56.12 45.4191 55.96C45.1471 55.8 44.8311 55.72 44.4711 55.72C44.1031 55.72 43.7791 55.8 43.4991 55.96C43.2271 56.12 43.0111 56.344 42.8511 56.632C42.6991 56.912 42.6231 57.244 42.6231 57.628V57.868C42.6231 58.252 42.7111 58.592 42.8871 58.888C43.0631 59.184 43.3111 59.412 43.6311 59.572C43.9511 59.732 44.3191 59.812 44.7351 59.812C45.0951 59.812 45.4191 59.756 45.7071 59.644C45.9951 59.532 46.2511 59.356 46.4751 59.116L47.2791 60.04C46.9911 60.376 46.6271 60.636 46.1871 60.82C45.7551 60.996 45.2591 61.084 44.6991 61.084ZM56.4164 61V59.704L56.3324 59.428V57.16C56.3324 56.72 56.2004 56.38 55.9364 56.14C55.6724 55.892 55.2724 55.768 54.7364 55.768C54.3764 55.768 54.0204 55.824 53.6684 55.936C53.3244 56.048 53.0324 56.204 52.7924 56.404L52.2044 55.312C52.5484 55.048 52.9564 54.852 53.4284 54.724C53.9084 54.588 54.4044 54.52 54.9164 54.52C55.8444 54.52 56.5604 54.744 57.0644 55.192C57.5764 55.632 57.8324 56.316 57.8324 57.244V61H56.4164ZM54.4004 61.084C53.9204 61.084 53.5004 61.004 53.1404 60.844C52.7804 60.676 52.5004 60.448 52.3004 60.16C52.1084 59.864 52.0124 59.532 52.0124 59.164C52.0124 58.804 52.0964 58.48 52.2644 58.192C52.4404 57.904 52.7244 57.676 53.1164 57.508C53.5084 57.34 54.0284 57.256 54.6764 57.256H56.5364V58.252H54.7844C54.2724 58.252 53.9284 58.336 53.7524 58.504C53.5764 58.664 53.4884 58.864 53.4884 59.104C53.4884 59.376 53.5964 59.592 53.8124 59.752C54.0284 59.912 54.3284 59.992 54.7124 59.992C55.0804 59.992 55.4084 59.908 55.6964 59.74C55.9924 59.572 56.2044 59.324 56.3324 58.996L56.5844 59.896C56.4404 60.272 56.1804 60.564 55.8044 60.772C55.4364 60.98 54.9684 61.084 54.4004 61.084ZM66.0138 61.084C65.3418 61.084 64.7418 60.944 64.2138 60.664C63.6938 60.376 63.2858 59.984 62.9898 59.488C62.6938 58.992 62.5458 58.428 62.5458 57.796C62.5458 57.156 62.6938 56.592 62.9898 56.104C63.2858 55.608 63.6938 55.22 64.2138 54.94C64.7418 54.66 65.3418 54.52 66.0138 54.52C66.6378 54.52 67.1858 54.648 67.6578 54.904C68.1378 55.152 68.5018 55.52 68.7498 56.008L67.5978 56.68C67.4058 56.376 67.1698 56.152 66.8898 56.008C66.6178 55.864 66.3218 55.792 66.0018 55.792C65.6338 55.792 65.3018 55.872 65.0058 56.032C64.7098 56.192 64.4778 56.424 64.3098 56.728C64.1418 57.024 64.0578 57.38 64.0578 57.796C64.0578 58.212 64.1418 58.572 64.3098 58.876C64.4778 59.172 64.7098 59.4 65.0058 59.56C65.3018 59.72 65.6338 59.8 66.0018 59.8C66.3218 59.8 66.6178 59.728 66.8898 59.584C67.1698 59.44 67.4058 59.216 67.5978 58.912L68.7498 59.584C68.5018 60.064 68.1378 60.436 67.6578 60.7C67.1858 60.956 66.6378 61.084 66.0138 61.084ZM72.8328 61.084C72.1768 61.084 71.5928 60.944 71.0808 60.664C70.5688 60.376 70.1648 59.984 69.8688 59.488C69.5728 58.992 69.4248 58.428 69.4248 57.796C69.4248 57.156 69.5728 56.592 69.8688 56.104C70.1648 55.608 70.5688 55.22 71.0808 54.94C71.5928 54.66 72.1768 54.52 72.8328 54.52C73.4968 54.52 74.0848 54.66 74.5968 54.94C75.1168 55.22 75.5208 55.604 75.8088 56.092C76.1048 56.58 76.2528 57.148 76.2528 57.796C76.2528 58.428 76.1048 58.992 75.8088 59.488C75.5208 59.984 75.1168 60.376 74.5968 60.664C74.0848 60.944 73.4968 61.084 72.8328 61.084ZM72.8328 59.8C73.2008 59.8 73.5288 59.72 73.8168 59.56C74.1048 59.4 74.3288 59.168 74.4888 58.864C74.6568 58.56 74.7408 58.204 74.7408 57.796C74.7408 57.38 74.6568 57.024 74.4888 56.728C74.3288 56.424 74.1048 56.192 73.8168 56.032C73.5288 55.872 73.2048 55.792 72.8448 55.792C72.4768 55.792 72.1488 55.872 71.8608 56.032C71.5808 56.192 71.3568 56.424 71.1888 56.728C71.0208 57.024 70.9368 57.38 70.9368 57.796C70.9368 58.204 71.0208 58.56 71.1888 58.864C71.3568 59.168 71.5808 59.4 71.8608 59.56C72.1488 59.72 72.4728 59.8 72.8328 59.8ZM85.7751 54.52C86.2871 54.52 86.7391 54.62 87.1311 54.82C87.5311 55.02 87.8431 55.328 88.0671 55.744C88.2911 56.152 88.4031 56.68 88.4031 57.328V61H86.9031V57.52C86.9031 56.952 86.7791 56.528 86.5311 56.248C86.2831 55.968 85.9271 55.828 85.4631 55.828C85.1351 55.828 84.8431 55.9 84.5871 56.044C84.3391 56.188 84.1431 56.4 83.9991 56.68C83.8631 56.96 83.7951 57.316 83.7951 57.748V61H82.2951V57.52C82.2951 56.952 82.1711 56.528 81.9231 56.248C81.6751 55.968 81.3191 55.828 80.8551 55.828C80.5271 55.828 80.2351 55.9 79.9791 56.044C79.7311 56.188 79.5351 56.4 79.3911 56.68C79.2551 56.96 79.1871 57.316 79.1871 57.748V61H77.6871V54.592H79.1151V56.296L78.8631 55.792C79.0791 55.376 79.3911 55.06 79.7991 54.844C80.2151 54.628 80.6871 54.52 81.2151 54.52C81.8151 54.52 82.3351 54.668 82.7751 54.964C83.2231 55.26 83.5191 55.708 83.6631 56.308L83.0751 56.104C83.2831 55.624 83.6271 55.24 84.1071 54.952C84.5871 54.664 85.1431 54.52 85.7751 54.52ZM93.8719 61.084C93.3519 61.084 92.8759 60.964 92.4439 60.724C92.0199 60.484 91.6799 60.124 91.4239 59.644C91.1759 59.156 91.0519 58.54 91.0519 57.796C91.0519 57.044 91.1719 56.428 91.4119 55.948C91.6599 55.468 91.9959 55.112 92.4199 54.88C92.8439 54.64 93.3279 54.52 93.8719 54.52C94.5039 54.52 95.0599 54.656 95.5399 54.928C96.0279 55.2 96.4119 55.58 96.6919 56.068C96.9799 56.556 97.1239 57.132 97.1239 57.796C97.1239 58.46 96.9799 59.04 96.6919 59.536C96.4119 60.024 96.0279 60.404 95.5399 60.676C95.0599 60.948 94.5039 61.084 93.8719 61.084ZM90.3199 63.328V54.592H91.7479V56.104L91.6999 57.808L91.8199 59.512V63.328H90.3199ZM93.7039 59.8C94.0639 59.8 94.3839 59.72 94.6639 59.56C94.9519 59.4 95.1799 59.168 95.3479 58.864C95.5159 58.56 95.5999 58.204 95.5999 57.796C95.5999 57.38 95.5159 57.024 95.3479 56.728C95.1799 56.424 94.9519 56.192 94.6639 56.032C94.3839 55.872 94.0639 55.792 93.7039 55.792C93.3439 55.792 93.0199 55.872 92.7319 56.032C92.4439 56.192 92.2159 56.424 92.0479 56.728C91.8799 57.024 91.7959 57.38 91.7959 57.796C91.7959 58.204 91.8799 58.56 92.0479 58.864C92.2159 59.168 92.4439 59.4 92.7319 59.56C93.0199 59.72 93.3439 59.8 93.7039 59.8ZM101.559 61.084C100.847 61.084 100.223 60.944 99.6865 60.664C99.1585 60.376 98.7465 59.984 98.4505 59.488C98.1625 58.992 98.0185 58.428 98.0185 57.796C98.0185 57.156 98.1585 56.592 98.4385 56.104C98.7265 55.608 99.1185 55.22 99.6145 54.94C100.119 54.66 100.691 54.52 101.331 54.52C101.955 54.52 102.511 54.656 102.999 54.928C103.487 55.2 103.871 55.584 104.151 56.08C104.431 56.576 104.571 57.16 104.571 57.832C104.571 57.896 104.567 57.968 104.559 58.048C104.559 58.128 104.555 58.204 104.547 58.276H99.2065V57.28H103.755L103.167 57.592C103.175 57.224 103.099 56.9 102.939 56.62C102.779 56.34 102.559 56.12 102.279 55.96C102.007 55.8 101.691 55.72 101.331 55.72C100.963 55.72 100.639 55.8 100.359 55.96C100.087 56.12 99.8705 56.344 99.7105 56.632C99.5585 56.912 99.4825 57.244 99.4825 57.628V57.868C99.4825 58.252 99.5705 58.592 99.7465 58.888C99.9225 59.184 100.171 59.412 100.491 59.572C100.811 59.732 101.179 59.812 101.595 59.812C101.955 59.812 102.279 59.756 102.567 59.644C102.855 59.532 103.111 59.356 103.335 59.116L104.139 60.04C103.851 60.376 103.487 60.636 103.047 60.82C102.615 60.996 102.119 61.084 101.559 61.084ZM108.423 61.084C107.719 61.084 107.175 60.904 106.791 60.544C106.407 60.176 106.215 59.636 106.215 58.924V53.176H107.715V58.888C107.715 59.192 107.791 59.428 107.943 59.596C108.103 59.764 108.323 59.848 108.603 59.848C108.939 59.848 109.219 59.76 109.443 59.584L109.863 60.652C109.687 60.796 109.471 60.904 109.215 60.976C108.959 61.048 108.695 61.084 108.423 61.084ZM105.159 55.84V54.64H109.431V55.84H105.159ZM111.097 61V54.592H112.597V61H111.097ZM111.853 53.536C111.573 53.536 111.341 53.448 111.157 53.272C110.981 53.096 110.893 52.884 110.893 52.636C110.893 52.38 110.981 52.168 111.157 52C111.341 51.824 111.573 51.736 111.853 51.736C112.133 51.736 112.361 51.82 112.537 51.988C112.721 52.148 112.813 52.352 112.813 52.6C112.813 52.864 112.725 53.088 112.549 53.272C112.373 53.448 112.141 53.536 111.853 53.536ZM116.978 61.084C116.274 61.084 115.73 60.904 115.346 60.544C114.962 60.176 114.77 59.636 114.77 58.924V53.176H116.27V58.888C116.27 59.192 116.346 59.428 116.498 59.596C116.658 59.764 116.878 59.848 117.158 59.848C117.494 59.848 117.774 59.76 117.998 59.584L118.418 60.652C118.242 60.796 118.026 60.904 117.77 60.976C117.514 61.048 117.25 61.084 116.978 61.084ZM113.714 55.84V54.64H117.986V55.84H113.714ZM119.652 61V54.592H121.152V61H119.652ZM120.408 53.536C120.128 53.536 119.896 53.448 119.712 53.272C119.536 53.096 119.448 52.884 119.448 52.636C119.448 52.38 119.536 52.168 119.712 52C119.896 51.824 120.128 51.736 120.408 51.736C120.688 51.736 120.916 51.82 121.092 51.988C121.276 52.148 121.368 52.352 121.368 52.6C121.368 52.864 121.28 53.088 121.104 53.272C120.928 53.448 120.696 53.536 120.408 53.536ZM124.825 61L122.077 54.592H123.637L126.001 60.244H125.233L127.681 54.592H129.121L126.373 61H124.825ZM132.894 61.084C132.182 61.084 131.558 60.944 131.022 60.664C130.494 60.376 130.082 59.984 129.786 59.488C129.498 58.992 129.354 58.428 129.354 57.796C129.354 57.156 129.494 56.592 129.774 56.104C130.062 55.608 130.454 55.22 130.95 54.94C131.454 54.66 132.026 54.52 132.666 54.52C133.29 54.52 133.846 54.656 134.334 54.928C134.822 55.2 135.206 55.584 135.486 56.08C135.766 56.576 135.906 57.16 135.906 57.832C135.906 57.896 135.902 57.968 135.894 58.048C135.894 58.128 135.89 58.204 135.882 58.276H130.542V57.28H135.09L134.502 57.592C134.51 57.224 134.434 56.9 134.274 56.62C134.114 56.34 133.894 56.12 133.614 55.96C133.342 55.8 133.026 55.72 132.666 55.72C132.298 55.72 131.974 55.8 131.694 55.96C131.422 56.12 131.206 56.344 131.046 56.632C130.894 56.912 130.818 57.244 130.818 57.628V57.868C130.818 58.252 130.906 58.592 131.082 58.888C131.258 59.184 131.506 59.412 131.826 59.572C132.146 59.732 132.514 59.812 132.93 59.812C133.29 59.812 133.614 59.756 133.902 59.644C134.19 59.532 134.446 59.356 134.67 59.116L135.474 60.04C135.186 60.376 134.822 60.636 134.382 60.82C133.95 60.996 133.454 61.084 132.894 61.084ZM140.664 61V52.096H142.164V61H140.664ZM147.144 61.084C146.432 61.084 145.808 60.944 145.272 60.664C144.744 60.376 144.332 59.984 144.036 59.488C143.748 58.992 143.604 58.428 143.604 57.796C143.604 57.156 143.744 56.592 144.024 56.104C144.312 55.608 144.704 55.22 145.2 54.94C145.704 54.66 146.276 54.52 146.916 54.52C147.54 54.52 148.096 54.656 148.584 54.928C149.072 55.2 149.456 55.584 149.736 56.08C150.016 56.576 150.156 57.16 150.156 57.832C150.156 57.896 150.152 57.968 150.144 58.048C150.144 58.128 150.14 58.204 150.132 58.276H144.792V57.28H149.34L148.752 57.592C148.76 57.224 148.684 56.9 148.524 56.62C148.364 56.34 148.144 56.12 147.864 55.96C147.592 55.8 147.276 55.72 146.916 55.72C146.548 55.72 146.224 55.8 145.944 55.96C145.672 56.12 145.456 56.344 145.296 56.632C145.144 56.912 145.068 57.244 145.068 57.628V57.868C145.068 58.252 145.156 58.592 145.332 58.888C145.508 59.184 145.756 59.412 146.076 59.572C146.396 59.732 146.764 59.812 147.18 59.812C147.54 59.812 147.864 59.756 148.152 59.644C148.44 59.532 148.696 59.356 148.92 59.116L149.724 60.04C149.436 60.376 149.072 60.636 148.632 60.82C148.2 60.996 147.704 61.084 147.144 61.084ZM155.37 61V59.704L155.286 59.428V57.16C155.286 56.72 155.154 56.38 154.89 56.14C154.626 55.892 154.226 55.768 153.69 55.768C153.33 55.768 152.974 55.824 152.622 55.936C152.278 56.048 151.986 56.204 151.746 56.404L151.158 55.312C151.502 55.048 151.91 54.852 152.382 54.724C152.862 54.588 153.358 54.52 153.87 54.52C154.798 54.52 155.514 54.744 156.018 55.192C156.53 55.632 156.786 56.316 156.786 57.244V61H155.37ZM153.354 61.084C152.874 61.084 152.454 61.004 152.094 60.844C151.734 60.676 151.454 60.448 151.254 60.16C151.062 59.864 150.966 59.532 150.966 59.164C150.966 58.804 151.05 58.48 151.218 58.192C151.394 57.904 151.678 57.676 152.07 57.508C152.462 57.34 152.982 57.256 153.63 57.256H155.49V58.252H153.738C153.226 58.252 152.882 58.336 152.706 58.504C152.53 58.664 152.442 58.864 152.442 59.104C152.442 59.376 152.55 59.592 152.766 59.752C152.982 59.912 153.282 59.992 153.666 59.992C154.034 59.992 154.362 59.908 154.65 59.74C154.946 59.572 155.158 59.324 155.286 58.996L155.538 59.896C155.394 60.272 155.134 60.564 154.758 60.772C154.39 60.98 153.922 61.084 153.354 61.084ZM160.691 61.084C160.155 61.084 159.639 61.016 159.143 60.88C158.655 60.736 158.267 60.564 157.979 60.364L158.555 59.224C158.843 59.408 159.187 59.56 159.587 59.68C159.987 59.8 160.387 59.86 160.787 59.86C161.259 59.86 161.599 59.796 161.807 59.668C162.023 59.54 162.131 59.368 162.131 59.152C162.131 58.976 162.059 58.844 161.915 58.756C161.771 58.66 161.583 58.588 161.351 58.54C161.119 58.492 160.859 58.448 160.571 58.408C160.291 58.368 160.007 58.316 159.719 58.252C159.439 58.18 159.183 58.08 158.951 57.952C158.719 57.816 158.531 57.636 158.387 57.412C158.243 57.188 158.171 56.892 158.171 56.524C158.171 56.116 158.287 55.764 158.519 55.468C158.751 55.164 159.075 54.932 159.491 54.772C159.915 54.604 160.415 54.52 160.991 54.52C161.423 54.52 161.859 54.568 162.299 54.664C162.739 54.76 163.103 54.896 163.391 55.072L162.815 56.212C162.511 56.028 162.203 55.904 161.891 55.84C161.587 55.768 161.283 55.732 160.979 55.732C160.523 55.732 160.183 55.8 159.959 55.936C159.743 56.072 159.635 56.244 159.635 56.452C159.635 56.644 159.707 56.788 159.851 56.884C159.995 56.98 160.183 57.056 160.415 57.112C160.647 57.168 160.903 57.216 161.183 57.256C161.471 57.288 161.755 57.34 162.035 57.412C162.315 57.484 162.571 57.584 162.803 57.712C163.043 57.832 163.235 58.004 163.379 58.228C163.523 58.452 163.595 58.744 163.595 59.104C163.595 59.504 163.475 59.852 163.235 60.148C163.003 60.444 162.671 60.676 162.239 60.844C161.807 61.004 161.291 61.084 160.691 61.084ZM167.898 61.084C167.186 61.084 166.562 60.944 166.026 60.664C165.498 60.376 165.086 59.984 164.79 59.488C164.502 58.992 164.358 58.428 164.358 57.796C164.358 57.156 164.498 56.592 164.778 56.104C165.066 55.608 165.458 55.22 165.954 54.94C166.458 54.66 167.03 54.52 167.67 54.52C168.294 54.52 168.85 54.656 169.338 54.928C169.826 55.2 170.21 55.584 170.49 56.08C170.77 56.576 170.91 57.16 170.91 57.832C170.91 57.896 170.906 57.968 170.898 58.048C170.898 58.128 170.894 58.204 170.886 58.276H165.546V57.28H170.094L169.506 57.592C169.514 57.224 169.438 56.9 169.278 56.62C169.118 56.34 168.898 56.12 168.618 55.96C168.346 55.8 168.03 55.72 167.67 55.72C167.302 55.72 166.978 55.8 166.698 55.96C166.426 56.12 166.21 56.344 166.05 56.632C165.898 56.912 165.822 57.244 165.822 57.628V57.868C165.822 58.252 165.91 58.592 166.086 58.888C166.262 59.184 166.51 59.412 166.83 59.572C167.15 59.732 167.518 59.812 167.934 59.812C168.294 59.812 168.618 59.756 168.906 59.644C169.194 59.532 169.45 59.356 169.674 59.116L170.478 60.04C170.19 60.376 169.826 60.636 169.386 60.82C168.954 60.996 168.458 61.084 167.898 61.084ZM175.668 61V54.592H177.096V56.356L176.928 55.84C177.12 55.408 177.42 55.08 177.828 54.856C178.244 54.632 178.76 54.52 179.376 54.52V55.948C179.312 55.932 179.252 55.924 179.196 55.924C179.14 55.916 179.084 55.912 179.028 55.912C178.46 55.912 178.008 56.08 177.672 56.416C177.336 56.744 177.168 57.236 177.168 57.892V61H175.668ZM183.601 61.084C182.889 61.084 182.265 60.944 181.729 60.664C181.201 60.376 180.789 59.984 180.493 59.488C180.205 58.992 180.061 58.428 180.061 57.796C180.061 57.156 180.201 56.592 180.481 56.104C180.769 55.608 181.161 55.22 181.657 54.94C182.161 54.66 182.733 54.52 183.373 54.52C183.997 54.52 184.553 54.656 185.041 54.928C185.529 55.2 185.913 55.584 186.193 56.08C186.473 56.576 186.613 57.16 186.613 57.832C186.613 57.896 186.609 57.968 186.601 58.048C186.601 58.128 186.597 58.204 186.589 58.276H181.249V57.28H185.797L185.209 57.592C185.217 57.224 185.141 56.9 184.981 56.62C184.821 56.34 184.601 56.12 184.321 55.96C184.049 55.8 183.733 55.72 183.373 55.72C183.005 55.72 182.681 55.8 182.401 55.96C182.129 56.12 181.913 56.344 181.753 56.632C181.601 56.912 181.525 57.244 181.525 57.628V57.868C181.525 58.252 181.613 58.592 181.789 58.888C181.965 59.184 182.213 59.412 182.533 59.572C182.853 59.732 183.221 59.812 183.637 59.812C183.997 59.812 184.321 59.756 184.609 59.644C184.897 59.532 185.153 59.356 185.377 59.116L186.181 60.04C185.893 60.376 185.529 60.636 185.089 60.82C184.657 60.996 184.161 61.084 183.601 61.084ZM191.69 54.52C192.202 54.52 192.658 54.62 193.058 54.82C193.466 55.02 193.786 55.328 194.018 55.744C194.25 56.152 194.366 56.68 194.366 57.328V61H192.866V57.52C192.866 56.952 192.73 56.528 192.458 56.248C192.194 55.968 191.822 55.828 191.342 55.828C190.99 55.828 190.678 55.9 190.406 56.044C190.134 56.188 189.922 56.404 189.77 56.692C189.626 56.972 189.554 57.328 189.554 57.76V61H188.054V54.592H189.482V56.32L189.23 55.792C189.454 55.384 189.778 55.072 190.202 54.856C190.634 54.632 191.13 54.52 191.69 54.52ZM199.293 61.084C198.581 61.084 197.957 60.944 197.421 60.664C196.893 60.376 196.481 59.984 196.185 59.488C195.897 58.992 195.753 58.428 195.753 57.796C195.753 57.156 195.893 56.592 196.173 56.104C196.461 55.608 196.853 55.22 197.349 54.94C197.853 54.66 198.425 54.52 199.065 54.52C199.689 54.52 200.245 54.656 200.733 54.928C201.221 55.2 201.605 55.584 201.885 56.08C202.165 56.576 202.305 57.16 202.305 57.832C202.305 57.896 202.301 57.968 202.293 58.048C202.293 58.128 202.289 58.204 202.281 58.276H196.941V57.28H201.489L200.901 57.592C200.909 57.224 200.833 56.9 200.673 56.62C200.513 56.34 200.293 56.12 200.013 55.96C199.741 55.8 199.425 55.72 199.065 55.72C198.697 55.72 198.373 55.8 198.093 55.96C197.821 56.12 197.605 56.344 197.445 56.632C197.293 56.912 197.217 57.244 197.217 57.628V57.868C197.217 58.252 197.305 58.592 197.481 58.888C197.657 59.184 197.905 59.412 198.225 59.572C198.545 59.732 198.913 59.812 199.329 59.812C199.689 59.812 200.013 59.756 200.301 59.644C200.589 59.532 200.845 59.356 201.069 59.116L201.873 60.04C201.585 60.376 201.221 60.636 200.781 60.82C200.349 60.996 199.853 61.084 199.293 61.084ZM205.045 61L202.693 54.592H204.109L206.125 60.244H205.453L207.565 54.592H208.825L210.877 60.244H210.217L212.293 54.592H213.625L211.261 61H209.821L207.949 55.996H208.393L206.485 61H205.045ZM218.405 61V59.704L218.321 59.428V57.16C218.321 56.72 218.189 56.38 217.925 56.14C217.661 55.892 217.261 55.768 216.725 55.768C216.365 55.768 216.009 55.824 215.657 55.936C215.313 56.048 215.021 56.204 214.781 56.404L214.193 55.312C214.537 55.048 214.945 54.852 215.417 54.724C215.897 54.588 216.393 54.52 216.905 54.52C217.833 54.52 218.549 54.744 219.053 55.192C219.565 55.632 219.821 56.316 219.821 57.244V61H218.405ZM216.389 61.084C215.909 61.084 215.489 61.004 215.129 60.844C214.769 60.676 214.489 60.448 214.289 60.16C214.097 59.864 214.001 59.532 214.001 59.164C214.001 58.804 214.085 58.48 214.253 58.192C214.429 57.904 214.713 57.676 215.105 57.508C215.497 57.34 216.017 57.256 216.665 57.256H218.525V58.252H216.773C216.261 58.252 215.917 58.336 215.741 58.504C215.565 58.664 215.477 58.864 215.477 59.104C215.477 59.376 215.585 59.592 215.801 59.752C216.017 59.912 216.317 59.992 216.701 59.992C217.069 59.992 217.397 59.908 217.685 59.74C217.981 59.572 218.193 59.324 218.321 58.996L218.573 59.896C218.429 60.272 218.169 60.564 217.793 60.772C217.425 60.98 216.957 61.084 216.389 61.084ZM221.746 61V52.096H223.246V61H221.746ZM229.947 61L227.595 54.592H229.011L231.027 60.244H230.355L232.467 54.592H233.727L235.779 60.244H235.119L237.195 54.592H238.527L236.163 61H234.723L232.851 55.996H233.295L231.387 61H229.947ZM239.558 61V54.592H241.058V61H239.558ZM240.314 53.536C240.034 53.536 239.802 53.448 239.618 53.272C239.442 53.096 239.354 52.884 239.354 52.636C239.354 52.38 239.442 52.168 239.618 52C239.802 51.824 240.034 51.736 240.314 51.736C240.594 51.736 240.822 51.82 240.998 51.988C241.182 52.148 241.274 52.352 241.274 52.6C241.274 52.864 241.186 53.088 241.01 53.272C240.834 53.448 240.602 53.536 240.314 53.536ZM245.439 61.084C244.735 61.084 244.191 60.904 243.807 60.544C243.423 60.176 243.231 59.636 243.231 58.924V53.176H244.731V58.888C244.731 59.192 244.807 59.428 244.959 59.596C245.119 59.764 245.339 59.848 245.619 59.848C245.955 59.848 246.235 59.76 246.459 59.584L246.879 60.652C246.703 60.796 246.487 60.904 246.231 60.976C245.975 61.048 245.711 61.084 245.439 61.084ZM242.175 55.84V54.64H246.447V55.84H242.175ZM251.749 54.52C252.261 54.52 252.717 54.62 253.117 54.82C253.525 55.02 253.845 55.328 254.077 55.744C254.309 56.152 254.425 56.68 254.425 57.328V61H252.925V57.52C252.925 56.952 252.789 56.528 252.517 56.248C252.253 55.968 251.881 55.828 251.401 55.828C251.049 55.828 250.737 55.9 250.465 56.044C250.193 56.188 249.981 56.404 249.829 56.692C249.685 56.972 249.613 57.328 249.613 57.76V61H248.113V52.096H249.613V56.32L249.289 55.792C249.513 55.384 249.837 55.072 250.261 54.856C250.693 54.632 251.189 54.52 251.749 54.52ZM259.848 61V54.232C259.848 53.56 260.044 53.024 260.436 52.624C260.836 52.216 261.404 52.012 262.14 52.012C262.404 52.012 262.652 52.04 262.884 52.096C263.124 52.152 263.324 52.24 263.484 52.36L263.076 53.488C262.964 53.4 262.836 53.336 262.692 53.296C262.548 53.248 262.4 53.224 262.248 53.224C261.936 53.224 261.7 53.312 261.54 53.488C261.38 53.656 261.3 53.912 261.3 54.256V54.976L261.348 55.648V61H259.848ZM258.792 55.84V54.64H263.064V55.84H258.792ZM267.905 61V59.704L267.821 59.428V57.16C267.821 56.72 267.689 56.38 267.425 56.14C267.161 55.892 266.761 55.768 266.225 55.768C265.865 55.768 265.509 55.824 265.157 55.936C264.813 56.048 264.521 56.204 264.281 56.404L263.693 55.312C264.037 55.048 264.445 54.852 264.917 54.724C265.397 54.588 265.893 54.52 266.405 54.52C267.333 54.52 268.049 54.744 268.553 55.192C269.065 55.632 269.321 56.316 269.321 57.244V61H267.905ZM265.889 61.084C265.409 61.084 264.989 61.004 264.629 60.844C264.269 60.676 263.989 60.448 263.789 60.16C263.597 59.864 263.501 59.532 263.501 59.164C263.501 58.804 263.585 58.48 263.753 58.192C263.929 57.904 264.213 57.676 264.605 57.508C264.997 57.34 265.517 57.256 266.165 57.256H268.025V58.252H266.273C265.761 58.252 265.417 58.336 265.241 58.504C265.065 58.664 264.977 58.864 264.977 59.104C264.977 59.376 265.085 59.592 265.301 59.752C265.517 59.912 265.817 59.992 266.201 59.992C266.569 59.992 266.897 59.908 267.185 59.74C267.481 59.572 267.693 59.324 267.821 58.996L268.073 59.896C267.929 60.272 267.669 60.564 267.293 60.772C266.925 60.98 266.457 61.084 265.889 61.084ZM272.833 61L270.085 54.592H271.645L274.009 60.244H273.241L275.689 54.592H277.129L274.381 61H272.833ZM280.77 61.084C280.114 61.084 279.53 60.944 279.018 60.664C278.506 60.376 278.102 59.984 277.806 59.488C277.51 58.992 277.362 58.428 277.362 57.796C277.362 57.156 277.51 56.592 277.806 56.104C278.102 55.608 278.506 55.22 279.018 54.94C279.53 54.66 280.114 54.52 280.77 54.52C281.434 54.52 282.022 54.66 282.534 54.94C283.054 55.22 283.458 55.604 283.746 56.092C284.042 56.58 284.19 57.148 284.19 57.796C284.19 58.428 284.042 58.992 283.746 59.488C283.458 59.984 283.054 60.376 282.534 60.664C282.022 60.944 281.434 61.084 280.77 61.084ZM280.77 59.8C281.138 59.8 281.466 59.72 281.754 59.56C282.042 59.4 282.266 59.168 282.426 58.864C282.594 58.56 282.678 58.204 282.678 57.796C282.678 57.38 282.594 57.024 282.426 56.728C282.266 56.424 282.042 56.192 281.754 56.032C281.466 55.872 281.142 55.792 280.782 55.792C280.414 55.792 280.086 55.872 279.798 56.032C279.518 56.192 279.294 56.424 279.126 56.728C278.958 57.024 278.874 57.38 278.874 57.796C278.874 58.204 278.958 58.56 279.126 58.864C279.294 59.168 279.518 59.4 279.798 59.56C280.086 59.72 280.41 59.8 280.77 59.8ZM285.625 61V54.592H287.053V56.356L286.885 55.84C287.077 55.408 287.377 55.08 287.785 54.856C288.201 54.632 288.717 54.52 289.333 54.52V55.948C289.269 55.932 289.209 55.924 289.153 55.924C289.097 55.916 289.041 55.912 288.985 55.912C288.417 55.912 287.965 56.08 287.629 56.416C287.293 56.744 287.125 57.236 287.125 57.892V61H285.625ZM294.096 61V59.704L294.012 59.428V57.16C294.012 56.72 293.88 56.38 293.616 56.14C293.352 55.892 292.952 55.768 292.416 55.768C292.056 55.768 291.7 55.824 291.348 55.936C291.004 56.048 290.712 56.204 290.472 56.404L289.884 55.312C290.228 55.048 290.636 54.852 291.108 54.724C291.588 54.588 292.084 54.52 292.596 54.52C293.524 54.52 294.24 54.744 294.744 55.192C295.256 55.632 295.512 56.316 295.512 57.244V61H294.096ZM292.08 61.084C291.6 61.084 291.18 61.004 290.82 60.844C290.46 60.676 290.18 60.448 289.98 60.16C289.788 59.864 289.692 59.532 289.692 59.164C289.692 58.804 289.776 58.48 289.944 58.192C290.12 57.904 290.404 57.676 290.796 57.508C291.188 57.34 291.708 57.256 292.356 57.256H294.216V58.252H292.464C291.952 58.252 291.608 58.336 291.432 58.504C291.256 58.664 291.168 58.864 291.168 59.104C291.168 59.376 291.276 59.592 291.492 59.752C291.708 59.912 292.008 59.992 292.392 59.992C292.76 59.992 293.088 59.908 293.376 59.74C293.672 59.572 293.884 59.324 294.012 58.996L294.264 59.896C294.12 60.272 293.86 60.564 293.484 60.772C293.116 60.98 292.648 61.084 292.08 61.084ZM300.989 61.084C300.445 61.084 299.961 60.964 299.537 60.724C299.113 60.484 298.777 60.124 298.529 59.644C298.289 59.156 298.169 58.54 298.169 57.796C298.169 57.044 298.293 56.428 298.541 55.948C298.797 55.468 299.137 55.112 299.561 54.88C299.993 54.64 300.469 54.52 300.989 54.52C301.621 54.52 302.177 54.656 302.657 54.928C303.145 55.2 303.529 55.58 303.809 56.068C304.097 56.556 304.241 57.132 304.241 57.796C304.241 58.46 304.097 59.036 303.809 59.524C303.529 60.012 303.145 60.396 302.657 60.676C302.177 60.948 301.621 61.084 300.989 61.084ZM297.437 61V52.096H298.937V56.08L298.817 57.784L298.865 59.488V61H297.437ZM300.821 59.8C301.181 59.8 301.501 59.72 301.781 59.56C302.069 59.4 302.297 59.168 302.465 58.864C302.633 58.56 302.717 58.204 302.717 57.796C302.717 57.38 302.633 57.024 302.465 56.728C302.297 56.424 302.069 56.192 301.781 56.032C301.501 55.872 301.181 55.792 300.821 55.792C300.461 55.792 300.137 55.872 299.849 56.032C299.561 56.192 299.333 56.424 299.165 56.728C298.997 57.024 298.913 57.38 298.913 57.796C298.913 58.204 298.997 58.56 299.165 58.864C299.333 59.168 299.561 59.4 299.849 59.56C300.137 59.72 300.461 59.8 300.821 59.8ZM305.664 61V52.096H307.164V61H305.664ZM312.144 61.084C311.432 61.084 310.808 60.944 310.272 60.664C309.744 60.376 309.332 59.984 309.036 59.488C308.748 58.992 308.604 58.428 308.604 57.796C308.604 57.156 308.744 56.592 309.024 56.104C309.312 55.608 309.704 55.22 310.2 54.94C310.704 54.66 311.276 54.52 311.916 54.52C312.54 54.52 313.096 54.656 313.584 54.928C314.072 55.2 314.456 55.584 314.736 56.08C315.016 56.576 315.156 57.16 315.156 57.832C315.156 57.896 315.152 57.968 315.144 58.048C315.144 58.128 315.14 58.204 315.132 58.276H309.792V57.28H314.34L313.752 57.592C313.76 57.224 313.684 56.9 313.524 56.62C313.364 56.34 313.144 56.12 312.864 55.96C312.592 55.8 312.276 55.72 311.916 55.72C311.548 55.72 311.224 55.8 310.944 55.96C310.672 56.12 310.456 56.344 310.296 56.632C310.144 56.912 310.068 57.244 310.068 57.628V57.868C310.068 58.252 310.156 58.592 310.332 58.888C310.508 59.184 310.756 59.412 311.076 59.572C311.396 59.732 311.764 59.812 312.18 59.812C312.54 59.812 312.864 59.756 313.152 59.644C313.44 59.532 313.696 59.356 313.92 59.116L314.724 60.04C314.436 60.376 314.072 60.636 313.632 60.82C313.2 60.996 312.704 61.084 312.144 61.084ZM10.396 76.084C9.692 76.084 9.148 75.904 8.764 75.544C8.38 75.176 8.188 74.636 8.188 73.924V68.176H9.688V73.888C9.688 74.192 9.764 74.428 9.916 74.596C10.076 74.764 10.296 74.848 10.576 74.848C10.912 74.848 11.192 74.76 11.416 74.584L11.836 75.652C11.66 75.796 11.444 75.904 11.188 75.976C10.932 76.048 10.668 76.084 10.396 76.084ZM7.132 70.84V69.64H11.404V70.84H7.132ZM15.871 76.084C15.159 76.084 14.535 75.944 13.999 75.664C13.471 75.376 13.059 74.984 12.763 74.488C12.475 73.992 12.331 73.428 12.331 72.796C12.331 72.156 12.471 71.592 12.751 71.104C13.039 70.608 13.431 70.22 13.927 69.94C14.431 69.66 15.003 69.52 15.643 69.52C16.267 69.52 16.823 69.656 17.311 69.928C17.799 70.2 18.183 70.584 18.463 71.08C18.743 71.576 18.883 72.16 18.883 72.832C18.883 72.896 18.879 72.968 18.871 73.048C18.871 73.128 18.867 73.204 18.859 73.276H13.519V72.28H18.067L17.479 72.592C17.487 72.224 17.411 71.9 17.251 71.62C17.091 71.34 16.871 71.12 16.591 70.96C16.319 70.8 16.003 70.72 15.643 70.72C15.275 70.72 14.951 70.8 14.671 70.96C14.399 71.12 14.183 71.344 14.023 71.632C13.871 71.912 13.795 72.244 13.795 72.628V72.868C13.795 73.252 13.883 73.592 14.059 73.888C14.235 74.184 14.483 74.412 14.803 74.572C15.123 74.732 15.491 74.812 15.907 74.812C16.267 74.812 16.591 74.756 16.879 74.644C17.167 74.532 17.423 74.356 17.647 74.116L18.451 75.04C18.163 75.376 17.799 75.636 17.359 75.82C16.927 75.996 16.431 76.084 15.871 76.084ZM20.3238 76V69.592H21.7518V71.356L21.5838 70.84C21.7758 70.408 22.0758 70.08 22.4838 69.856C22.8998 69.632 23.4158 69.52 24.0318 69.52V70.948C23.9678 70.932 23.9078 70.924 23.8518 70.924C23.7958 70.916 23.7398 70.912 23.6838 70.912C23.1158 70.912 22.6638 71.08 22.3278 71.416C21.9918 71.744 21.8238 72.236 21.8238 72.892V76H20.3238ZM33.3923 69.52C33.9043 69.52 34.3563 69.62 34.7483 69.82C35.1483 70.02 35.4603 70.328 35.6843 70.744C35.9083 71.152 36.0203 71.68 36.0203 72.328V76H34.5203V72.52C34.5203 71.952 34.3963 71.528 34.1483 71.248C33.9003 70.968 33.5443 70.828 33.0803 70.828C32.7523 70.828 32.4603 70.9 32.2043 71.044C31.9563 71.188 31.7603 71.4 31.6163 71.68C31.4803 71.96 31.4123 72.316 31.4123 72.748V76H29.9123V72.52C29.9123 71.952 29.7883 71.528 29.5403 71.248C29.2923 70.968 28.9363 70.828 28.4723 70.828C28.1443 70.828 27.8523 70.9 27.5963 71.044C27.3483 71.188 27.1523 71.4 27.0083 71.68C26.8723 71.96 26.8043 72.316 26.8043 72.748V76H25.3043V69.592H26.7323V71.296L26.4803 70.792C26.6963 70.376 27.0083 70.06 27.4163 69.844C27.8323 69.628 28.3043 69.52 28.8323 69.52C29.4323 69.52 29.9523 69.668 30.3923 69.964C30.8403 70.26 31.1363 70.708 31.2803 71.308L30.6923 71.104C30.9003 70.624 31.2443 70.24 31.7243 69.952C32.2043 69.664 32.7603 69.52 33.3923 69.52ZM39.9171 76.084C39.3811 76.084 38.8651 76.016 38.3691 75.88C37.8811 75.736 37.4931 75.564 37.2051 75.364L37.7811 74.224C38.0691 74.408 38.4131 74.56 38.8131 74.68C39.2131 74.8 39.6131 74.86 40.0131 74.86C40.4851 74.86 40.8251 74.796 41.0331 74.668C41.2491 74.54 41.3571 74.368 41.3571 74.152C41.3571 73.976 41.2851 73.844 41.1411 73.756C40.9971 73.66 40.8091 73.588 40.5771 73.54C40.3451 73.492 40.0851 73.448 39.7971 73.408C39.5171 73.368 39.2331 73.316 38.9451 73.252C38.6651 73.18 38.4091 73.08 38.1771 72.952C37.9451 72.816 37.7571 72.636 37.6131 72.412C37.4691 72.188 37.3971 71.892 37.3971 71.524C37.3971 71.116 37.5131 70.764 37.7451 70.468C37.9771 70.164 38.3011 69.932 38.7171 69.772C39.1411 69.604 39.6411 69.52 40.2171 69.52C40.6491 69.52 41.0851 69.568 41.5251 69.664C41.9651 69.76 42.3291 69.896 42.6171 70.072L42.0411 71.212C41.7371 71.028 41.4291 70.904 41.1171 70.84C40.8131 70.768 40.5091 70.732 40.2051 70.732C39.7491 70.732 39.4091 70.8 39.1851 70.936C38.9691 71.072 38.8611 71.244 38.8611 71.452C38.8611 71.644 38.9331 71.788 39.0771 71.884C39.2211 71.98 39.4091 72.056 39.6411 72.112C39.8731 72.168 40.1291 72.216 40.4091 72.256C40.6971 72.288 40.9811 72.34 41.2611 72.412C41.5411 72.484 41.7971 72.584 42.0291 72.712C42.2691 72.832 42.4611 73.004 42.6051 73.228C42.7491 73.452 42.8211 73.744 42.8211 74.104C42.8211 74.504 42.7011 74.852 42.4611 75.148C42.2291 75.444 41.8971 75.676 41.4651 75.844C41.0331 76.004 40.5171 76.084 39.9171 76.084ZM44.5929 76.084C44.3209 76.084 44.0889 75.992 43.8969 75.808C43.7049 75.616 43.6089 75.376 43.6089 75.088C43.6089 74.784 43.7049 74.544 43.8969 74.368C44.0889 74.184 44.3209 74.092 44.5929 74.092C44.8649 74.092 45.0969 74.184 45.2889 74.368C45.4809 74.544 45.5769 74.784 45.5769 75.088C45.5769 75.376 45.4809 75.616 45.2889 75.808C45.0969 75.992 44.8649 76.084 44.5929 76.084Z" fill="white"/>
</svg>
