<svg width="450" height="450" viewBox="0 0 450 450" fill="none" xmlns="http://www.w3.org/2000/svg">
<path d="M167.21 445.571L71.2617 388.803L66.137 359.091L92.9666 353.952L188.887 410.124L167.21 445.571Z" fill="#59D294"/>
<path d="M27.9937 340.084L0.283813 232.098L17.6735 207.454L40.2871 222.8L68.3803 330.345L27.9937 340.084Z" fill="#59D294"/>
<path d="M4.14502 167.039L60.9131 71.0914L90.6245 65.9668L95.7633 92.7965L39.5914 188.716L4.14502 167.039Z" fill="#59D294"/>
<path d="M109.647 27.8237L217.633 0.11377L242.262 17.5034L226.916 40.1171L119.385 68.2102L109.647 27.8237Z" fill="#59D294"/>
<path d="M282.677 3.97485L378.639 60.7429L383.749 90.4543L356.92 95.5931L261.014 39.4213L282.677 3.97485Z" fill="#59D294"/>
<path d="M421.892 109.477L449.602 217.462L432.213 242.092L409.613 226.746L381.52 119.215L421.892 109.477Z" fill="#59D294"/>
<path d="M445.741 282.506L388.973 378.454L359.262 383.579L354.123 356.749L410.295 260.844L445.741 282.506Z" fill="#59D294"/>
<path d="M340.254 421.722L232.268 449.432L207.625 432.043L222.97 409.443L330.516 381.336L340.254 421.722Z" fill="#59D294"/>
</svg>
