<svg width="2888" height="382" viewBox="0 0 2888 382" fill="none" xmlns="http://www.w3.org/2000/svg">
<g clip-path="url(#clip0_140_662)">
<mask id="mask0_140_662" style="mask-type:luminance" maskUnits="userSpaceOnUse" x="0" y="0" width="1444" height="382">
<path d="M1444 0H0V382H1444V0Z" fill="white"/>
</mask>
<g mask="url(#mask0_140_662)">
<mask id="mask1_140_662" style="mask-type:luminance" maskUnits="userSpaceOnUse" x="-2" y="0" width="1446" height="382">
<path d="M1444 0H-1.00342V382H1444V0Z" fill="white"/>
</mask>
<g mask="url(#mask1_140_662)">
<path d="M-4.01367 382V206.076L71.8296 206L72.2504 381.752" fill="#3B76EF"/>
<path d="M65.7268 381.753L65.2261 275.458L125.725 275L126.438 382C126.438 382 65.9271 381.857 65.7268 381.753Z" fill="#3B76EF"/>
<path d="M118.782 382V160.478L192.035 161.109L191.684 382" fill="#3B76EF"/>
<path d="M185.643 382L185.918 228.192L269.935 228L268.459 382" fill="#3B76EF"/>
<path d="M264.211 382L262.911 207.923L303.12 183L340.178 207.923L340.157 382" fill="#3B76EF"/>
<path d="M336.164 382L336.184 22H432.498L431.855 382" fill="#3B76EF"/>
<path d="M424.47 382L425.044 250.211L490.678 250L491.703 382" fill="#3B76EF"/>
<path d="M480.695 382V91.4985L577.149 91.5176L577.139 382" fill="#3B76EF"/>
<path d="M557.932 382L558.461 275H750.599L749.62 382" fill="#3B76EF"/>
<path d="M745.692 382L746.304 253.171L793.96 228.14L843.11 250.649L842.146 382" fill="#3B76EF"/>
<path d="M914.166 382L914.624 299.331L975.268 275L1037.59 298.665L1036.93 382" fill="#3B76EF"/>
<path d="M1028.27 382L1027.56 320L1299.39 320.336L1299.5 382" fill="#3B76EF"/>
<path d="M1293 382L1293.52 252H1450L1449.28 382" fill="#3B76EF"/>
<path d="M17.531 213.175H5.48926V224.635H17.531V213.175Z" fill="white"/>
<path d="M89.781 285.755H77.7393V297.215H89.781V285.755Z" fill="white"/>
<path d="M39.6076 213.175H27.5659V224.635H39.6076V213.175Z" fill="white"/>
<path d="M135.439 164.948H123.397V176.408H135.439V164.948Z" fill="white"/>
<path d="M135.439 181.66H123.397V193.12H135.439V181.66Z" fill="white"/>
<path d="M287.967 222.706H275.926V234.166H287.967V222.706Z" fill="white"/>
<path d="M287.967 241.099H275.926V252.559H287.967V241.099Z" fill="white"/>
<path d="M210.098 241.099H198.056V252.559H210.098V241.099Z" fill="white"/>
<path d="M227.498 241.099H215.456V252.559H227.498V241.099Z" fill="white"/>
<path d="M356.234 31H344.192V42.46H356.234V31Z" fill="white"/>
<path d="M450.269 259.779H438.228V271.239H450.269V259.779Z" fill="white"/>
<path d="M500.443 100.294H488.401V111.754H500.443V100.294Z" fill="white"/>
<path d="M524.527 100.294H512.485V111.754H524.527V100.294Z" fill="white"/>
<path d="M500.443 123.214H488.401V134.674H500.443V123.214Z" fill="white"/>
<path d="M647.482 287.932H635.44V299.392H647.482V287.932Z" fill="white"/>
<path d="M667.441 287.932H655.399V299.392H667.441V287.932Z" fill="white"/>
<path d="M687.581 287.932H675.54V299.392H687.581V287.932Z" fill="white"/>
<path d="M770.207 265.509H758.166V276.969H770.207V265.509Z" fill="white"/>
<path d="M937.787 311.282H925.746V322.742H937.787V311.282Z" fill="white"/>
<path d="M957.054 311.282H945.012V322.742H957.054V311.282Z" fill="white"/>
<path d="M1055.3 328.826H1043.26V340.286H1055.3V328.826Z" fill="white"/>
<path d="M1074.37 328.826H1062.33V340.286H1074.37V328.826Z" fill="white"/>
<path d="M1095.03 328.826H1082.99V340.286H1095.03V328.826Z" fill="white"/>
<path d="M1316.48 263.236H1304.44V274.696H1316.48V263.236Z" fill="white"/>
<path d="M1335.73 263.236H1323.68V274.696H1335.73V263.236Z" fill="white"/>
<path d="M1316.48 282.68H1304.44V294.14H1316.48V282.68Z" fill="white"/>
<path d="M790.277 265.509H778.235V276.969H790.277V265.509Z" fill="white"/>
<path d="M770.207 285.564H758.166V297.024H770.207V285.564Z" fill="white"/>
<path d="M770.207 305.619H758.166V317.079H770.207V305.619Z" fill="white"/>
<path d="M473.449 259.779H461.408V271.239H473.449V259.779Z" fill="white"/>
<path d="M381.321 31H369.279V42.46H381.321V31Z" fill="white"/>
</g>
</g>
<mask id="mask2_140_662" style="mask-type:luminance" maskUnits="userSpaceOnUse" x="1440" y="0" width="1448" height="382">
<path d="M2888 0H1440V382H2888V0Z" fill="white"/>
</mask>
<g mask="url(#mask2_140_662)">
<mask id="mask3_140_662" style="mask-type:luminance" maskUnits="userSpaceOnUse" x="1438" y="0" width="1450" height="382">
<path d="M2888 0H1439V382H2888V0Z" fill="white"/>
</mask>
<g mask="url(#mask3_140_662)">
<path d="M1435.98 382V206.076L1512.03 206L1512.45 381.752" fill="#3B76EF"/>
<path d="M1505.91 381.753L1505.41 275.458L1566.07 275L1566.79 382C1566.79 382 1506.11 381.857 1505.91 381.753Z" fill="#3B76EF"/>
<path d="M1559.11 382V160.478L1632.57 161.109L1632.21 382" fill="#3B76EF"/>
<path d="M1626.15 382L1626.44 228.192L1710.68 228L1709.2 382" fill="#3B76EF"/>
<path d="M1704.94 382L1703.64 207.923L1743.96 183L1781.12 207.923L1781.1 382" fill="#3B76EF"/>
<path d="M1777.09 382L1777.11 22H1873.7L1873.06 382" fill="#3B76EF"/>
<path d="M1865.65 382L1866.22 250.211L1932.04 250L1933.06 382" fill="#3B76EF"/>
<path d="M1922.02 382V91.4985L2018.75 91.5176L2018.74 382" fill="#3B76EF"/>
<path d="M1999.48 382L2000.01 275H2192.68L2191.7 382" fill="#3B76EF"/>
<path d="M2187.76 382L2188.37 253.171L2236.16 228.14L2285.45 250.649L2284.48 382" fill="#3B76EF"/>
<path d="M2356.7 382L2357.15 299.331L2417.97 275L2480.46 298.665L2479.8 382" fill="#3B76EF"/>
<path d="M2471.12 382L2470.41 320L2742.99 320.336L2743.1 382" fill="#3B76EF"/>
<path d="M2737.06 382L2737.58 252H2893.03L2892.32 382" fill="#3B76EF"/>
<path d="M1457.58 213.175H1445.51V224.635H1457.58V213.175Z" fill="white"/>
<path d="M1530.03 285.755H1517.96V297.215H1530.03V285.755Z" fill="white"/>
<path d="M1479.72 213.175H1467.65V224.635H1479.72V213.175Z" fill="white"/>
<path d="M1575.82 164.948H1563.74V176.408H1575.82V164.948Z" fill="white"/>
<path d="M1575.82 181.66H1563.74V193.12H1575.82V181.66Z" fill="white"/>
<path d="M1728.77 222.706H1716.69V234.166H1728.77V222.706Z" fill="white"/>
<path d="M1728.77 241.099H1716.69V252.559H1728.77V241.099Z" fill="white"/>
<path d="M1650.68 241.099H1638.61V252.559H1650.68V241.099Z" fill="white"/>
<path d="M1668.13 241.099H1656.06V252.559H1668.13V241.099Z" fill="white"/>
<path d="M1797.22 31H1785.14V42.46H1797.22V31Z" fill="white"/>
<path d="M1891.52 259.779H1879.44V271.239H1891.52V259.779Z" fill="white"/>
<path d="M1941.83 100.294H1929.75V111.754H1941.83V100.294Z" fill="white"/>
<path d="M1965.98 100.294H1953.9V111.754H1965.98V100.294Z" fill="white"/>
<path d="M1941.83 123.214H1929.75V134.674H1941.83V123.214Z" fill="white"/>
<path d="M2089.27 287.932H2077.2V299.392H2089.27V287.932Z" fill="white"/>
<path d="M2109.29 287.932H2097.22V299.392H2109.29V287.932Z" fill="white"/>
<path d="M2129.48 287.932H2117.41V299.392H2129.48V287.932Z" fill="white"/>
<path d="M2212.34 265.509H2200.27V276.969H2212.34V265.509Z" fill="white"/>
<path d="M2380.39 311.282H2368.31V322.742H2380.39V311.282Z" fill="white"/>
<path d="M2399.7 311.282H2387.63V322.742H2399.7V311.282Z" fill="white"/>
<path d="M2498.22 328.826H2486.15V340.286H2498.22V328.826Z" fill="white"/>
<path d="M2517.35 328.826H2505.27V340.286H2517.35V328.826Z" fill="white"/>
<path d="M2538.06 328.826H2525.99V340.286H2538.06V328.826Z" fill="white"/>
<path d="M2760.13 263.236H2748.05V274.696H2760.13V263.236Z" fill="white"/>
<path d="M2779.43 263.236H2767.35V274.696H2779.43V263.236Z" fill="white"/>
<path d="M2760.13 282.68H2748.05V294.14H2760.13V282.68Z" fill="white"/>
<path d="M2232.47 265.509H2220.39V276.969H2232.47V265.509Z" fill="white"/>
<path d="M2212.34 285.564H2200.27V297.024H2212.34V285.564Z" fill="white"/>
<path d="M2212.34 305.619H2200.27V317.079H2212.34V305.619Z" fill="white"/>
<path d="M1914.76 259.779H1902.69V271.239H1914.76V259.779Z" fill="white"/>
<path d="M1822.38 31H1810.3V42.46H1822.38V31Z" fill="white"/>
</g>
</g>
</g>
<defs>
<clipPath id="clip0_140_662">
<rect width="2888" height="382" fill="white"/>
</clipPath>
</defs>
</svg>
