<svg width="334" height="91" viewBox="0 0 334 91" fill="none" xmlns="http://www.w3.org/2000/svg">
<path d="M0 0H334V79C334 85.6274 328.627 91 322 91H12C5.37258 91 0 85.6274 0 79V0Z" fill="#333333"/>
<path d="M8.26 33V24.6H11.536C12.272 24.6 12.9 24.716 13.42 24.948C13.94 25.18 14.34 25.516 14.62 25.956C14.9 26.396 15.04 26.92 15.04 27.528C15.04 28.136 14.9 28.66 14.62 29.1C14.34 29.532 13.94 29.868 13.42 30.108C12.9 30.34 12.272 30.456 11.536 30.456H8.92L9.46 29.892V33H8.26ZM9.46 30.012L8.92 29.412H11.5C12.268 29.412 12.848 29.248 13.24 28.92C13.64 28.592 13.84 28.128 13.84 27.528C13.84 26.928 13.64 26.464 13.24 26.136C12.848 25.808 12.268 25.644 11.5 25.644H8.92L9.46 25.044V30.012ZM19.3355 33.072C18.6955 33.072 18.1275 32.932 17.6315 32.652C17.1355 32.372 16.7435 31.988 16.4555 31.5C16.1675 31.004 16.0235 30.444 16.0235 29.82C16.0235 29.188 16.1675 28.628 16.4555 28.14C16.7435 27.652 17.1355 27.272 17.6315 27C18.1275 26.72 18.6955 26.58 19.3355 26.58C19.9675 26.58 20.5315 26.72 21.0275 27C21.5315 27.272 21.9235 27.652 22.2035 28.14C22.4915 28.62 22.6355 29.18 22.6355 29.82C22.6355 30.452 22.4915 31.012 22.2035 31.5C21.9235 31.988 21.5315 32.372 21.0275 32.652C20.5315 32.932 19.9675 33.072 19.3355 33.072ZM19.3355 32.064C19.7435 32.064 20.1075 31.972 20.4275 31.788C20.7555 31.604 21.0115 31.344 21.1955 31.008C21.3795 30.664 21.4715 30.268 21.4715 29.82C21.4715 29.364 21.3795 28.972 21.1955 28.644C21.0115 28.308 20.7555 28.048 20.4275 27.864C20.1075 27.68 19.7435 27.588 19.3355 27.588C18.9275 27.588 18.5635 27.68 18.2435 27.864C17.9235 28.048 17.6675 28.308 17.4755 28.644C17.2835 28.972 17.1875 29.364 17.1875 29.82C17.1875 30.268 17.2835 30.664 17.4755 31.008C17.6675 31.344 17.9235 31.604 18.2435 31.788C18.5635 31.972 18.9275 32.064 19.3355 32.064ZM26.0527 33.072C25.5247 33.072 25.0207 33 24.5407 32.856C24.0687 32.712 23.6967 32.536 23.4247 32.328L23.9047 31.416C24.1767 31.6 24.5127 31.756 24.9127 31.884C25.3127 32.012 25.7207 32.076 26.1367 32.076C26.6727 32.076 27.0567 32 27.2887 31.848C27.5287 31.696 27.6487 31.484 27.6487 31.212C27.6487 31.012 27.5767 30.856 27.4327 30.744C27.2887 30.632 27.0967 30.548 26.8567 30.492C26.6247 30.436 26.3647 30.388 26.0767 30.348C25.7887 30.3 25.5007 30.244 25.2127 30.18C24.9247 30.108 24.6607 30.012 24.4207 29.892C24.1807 29.764 23.9887 29.592 23.8447 29.376C23.7007 29.152 23.6287 28.856 23.6287 28.488C23.6287 28.104 23.7367 27.768 23.9527 27.48C24.1687 27.192 24.4727 26.972 24.8647 26.82C25.2647 26.66 25.7367 26.58 26.2807 26.58C26.6967 26.58 27.1167 26.632 27.5407 26.736C27.9727 26.832 28.3247 26.972 28.5967 27.156L28.1047 28.068C27.8167 27.876 27.5167 27.744 27.2047 27.672C26.8927 27.6 26.5807 27.564 26.2687 27.564C25.7647 27.564 25.3887 27.648 25.1407 27.816C24.8927 27.976 24.7687 28.184 24.7687 28.44C24.7687 28.656 24.8407 28.824 24.9847 28.944C25.1367 29.056 25.3287 29.144 25.5607 29.208C25.8007 29.272 26.0647 29.328 26.3527 29.376C26.6407 29.416 26.9287 29.472 27.2167 29.544C27.5047 29.608 27.7647 29.7 27.9967 29.82C28.2367 29.94 28.4287 30.108 28.5727 30.324C28.7247 30.54 28.8007 30.828 28.8007 31.188C28.8007 31.572 28.6887 31.904 28.4647 32.184C28.2407 32.464 27.9247 32.684 27.5167 32.844C27.1087 32.996 26.6207 33.072 26.0527 33.072ZM32.0644 33.072C31.5364 33.072 31.0324 33 30.5524 32.856C30.0804 32.712 29.7084 32.536 29.4364 32.328L29.9164 31.416C30.1884 31.6 30.5244 31.756 30.9244 31.884C31.3244 32.012 31.7324 32.076 32.1484 32.076C32.6844 32.076 33.0684 32 33.3004 31.848C33.5404 31.696 33.6604 31.484 33.6604 31.212C33.6604 31.012 33.5884 30.856 33.4444 30.744C33.3004 30.632 33.1084 30.548 32.8684 30.492C32.6364 30.436 32.3764 30.388 32.0884 30.348C31.8004 30.3 31.5124 30.244 31.2244 30.18C30.9364 30.108 30.6724 30.012 30.4324 29.892C30.1924 29.764 30.0004 29.592 29.8564 29.376C29.7124 29.152 29.6404 28.856 29.6404 28.488C29.6404 28.104 29.7484 27.768 29.9644 27.48C30.1804 27.192 30.4844 26.972 30.8764 26.82C31.2764 26.66 31.7484 26.58 32.2924 26.58C32.7084 26.58 33.1284 26.632 33.5524 26.736C33.9844 26.832 34.3364 26.972 34.6084 27.156L34.1164 28.068C33.8284 27.876 33.5284 27.744 33.2164 27.672C32.9044 27.6 32.5924 27.564 32.2804 27.564C31.7764 27.564 31.4004 27.648 31.1524 27.816C30.9044 27.976 30.7804 28.184 30.7804 28.44C30.7804 28.656 30.8524 28.824 30.9964 28.944C31.1484 29.056 31.3404 29.144 31.5724 29.208C31.8124 29.272 32.0764 29.328 32.3644 29.376C32.6524 29.416 32.9404 29.472 33.2284 29.544C33.5164 29.608 33.7764 29.7 34.0084 29.82C34.2484 29.94 34.4404 30.108 34.5844 30.324C34.7364 30.54 34.8124 30.828 34.8124 31.188C34.8124 31.572 34.7004 31.904 34.4764 32.184C34.2524 32.464 33.9364 32.684 33.5284 32.844C33.1204 32.996 32.6324 33.072 32.0644 33.072ZM36.2522 33V26.64H37.4042V33H36.2522ZM36.8282 25.416C36.6042 25.416 36.4162 25.344 36.2642 25.2C36.1202 25.056 36.0482 24.88 36.0482 24.672C36.0482 24.456 36.1202 24.276 36.2642 24.132C36.4162 23.988 36.6042 23.916 36.8282 23.916C37.0522 23.916 37.2362 23.988 37.3802 24.132C37.5322 24.268 37.6082 24.44 37.6082 24.648C37.6082 24.864 37.5362 25.048 37.3922 25.2C37.2482 25.344 37.0602 25.416 36.8282 25.416ZM42.9757 33.072C42.4317 33.072 41.9397 32.952 41.4997 32.712C41.0677 32.464 40.7237 32.1 40.4677 31.62C40.2197 31.14 40.0957 30.54 40.0957 29.82C40.0957 29.1 40.2237 28.5 40.4797 28.02C40.7437 27.54 41.0917 27.18 41.5237 26.94C41.9637 26.7 42.4477 26.58 42.9757 26.58C43.5997 26.58 44.1517 26.716 44.6317 26.988C45.1117 27.26 45.4917 27.64 45.7717 28.128C46.0517 28.608 46.1917 29.172 46.1917 29.82C46.1917 30.468 46.0517 31.036 45.7717 31.524C45.4917 32.012 45.1117 32.392 44.6317 32.664C44.1517 32.936 43.5997 33.072 42.9757 33.072ZM39.6037 33V24.096H40.7557V28.332L40.6357 29.808L40.7077 31.284V33H39.6037ZM42.8797 32.064C43.2877 32.064 43.6517 31.972 43.9717 31.788C44.2997 31.604 44.5557 31.344 44.7397 31.008C44.9317 30.664 45.0277 30.268 45.0277 29.82C45.0277 29.364 44.9317 28.972 44.7397 28.644C44.5557 28.308 44.2997 28.048 43.9717 27.864C43.6517 27.68 43.2877 27.588 42.8797 27.588C42.4797 27.588 42.1157 27.68 41.7877 27.864C41.4677 28.048 41.2117 28.308 41.0197 28.644C40.8357 28.972 40.7437 29.364 40.7437 29.82C40.7437 30.268 40.8357 30.664 41.0197 31.008C41.2117 31.344 41.4677 31.604 41.7877 31.788C42.1157 31.972 42.4797 32.064 42.8797 32.064ZM47.7834 33V24.096H48.9354V33H47.7834ZM53.967 33.072C53.287 33.072 52.687 32.932 52.167 32.652C51.655 32.372 51.255 31.988 50.967 31.5C50.687 31.012 50.547 30.452 50.547 29.82C50.547 29.188 50.683 28.628 50.955 28.14C51.235 27.652 51.615 27.272 52.095 27C52.583 26.72 53.131 26.58 53.739 26.58C54.355 26.58 54.899 26.716 55.371 26.988C55.843 27.26 56.211 27.644 56.475 28.14C56.747 28.628 56.883 29.2 56.883 29.856C56.883 29.904 56.879 29.96 56.871 30.024C56.871 30.088 56.867 30.148 56.859 30.204H51.447V29.376H56.259L55.791 29.664C55.799 29.256 55.715 28.892 55.539 28.572C55.363 28.252 55.119 28.004 54.807 27.828C54.503 27.644 54.147 27.552 53.739 27.552C53.339 27.552 52.983 27.644 52.671 27.828C52.359 28.004 52.115 28.256 51.939 28.584C51.763 28.904 51.675 29.272 51.675 29.688V29.88C51.675 30.304 51.771 30.684 51.963 31.02C52.163 31.348 52.439 31.604 52.791 31.788C53.143 31.972 53.547 32.064 54.003 32.064C54.379 32.064 54.719 32 55.023 31.872C55.335 31.744 55.607 31.552 55.839 31.296L56.475 32.04C56.187 32.376 55.827 32.632 55.395 32.808C54.971 32.984 54.495 33.072 53.967 33.072ZM60.6013 33L64.4053 24.6H65.5933L69.4093 33H68.1493L64.7533 25.272H65.2333L61.8373 33H60.6013ZM62.2213 30.9L62.5453 29.94H67.2733L67.6213 30.9H62.2213ZM73.2078 33.072C72.5598 33.072 71.9798 32.932 71.4678 32.652C70.9638 32.372 70.5678 31.988 70.2798 31.5C69.9918 31.012 69.8478 30.452 69.8478 29.82C69.8478 29.188 69.9918 28.628 70.2798 28.14C70.5678 27.652 70.9638 27.272 71.4678 27C71.9798 26.72 72.5598 26.58 73.2078 26.58C73.7838 26.58 74.2958 26.696 74.7438 26.928C75.1998 27.152 75.5518 27.488 75.7998 27.936L74.9238 28.5C74.7158 28.188 74.4598 27.96 74.1558 27.816C73.8598 27.664 73.5398 27.588 73.1958 27.588C72.7798 27.588 72.4078 27.68 72.0798 27.864C71.7518 28.048 71.4918 28.308 71.2998 28.644C71.1078 28.972 71.0118 29.364 71.0118 29.82C71.0118 30.276 71.1078 30.672 71.2998 31.008C71.4918 31.344 71.7518 31.604 72.0798 31.788C72.4078 31.972 72.7798 32.064 73.1958 32.064C73.5398 32.064 73.8598 31.992 74.1558 31.848C74.4598 31.696 74.7158 31.464 74.9238 31.152L75.7998 31.704C75.5518 32.144 75.1998 32.484 74.7438 32.724C74.2958 32.956 73.7838 33.072 73.2078 33.072ZM79.5573 33.072C78.9173 33.072 78.4213 32.9 78.0693 32.556C77.7173 32.212 77.5413 31.72 77.5413 31.08V25.248H78.6933V31.032C78.6933 31.376 78.7773 31.64 78.9453 31.824C79.1213 32.008 79.3693 32.1 79.6893 32.1C80.0493 32.1 80.3493 32 80.5893 31.8L80.9493 32.628C80.7733 32.78 80.5613 32.892 80.3133 32.964C80.0733 33.036 79.8213 33.072 79.5573 33.072ZM76.4613 27.588V26.64H80.5173V27.588H76.4613ZM82.342 33V26.64H83.494V33H82.342ZM82.918 25.416C82.694 25.416 82.506 25.344 82.354 25.2C82.21 25.056 82.138 24.88 82.138 24.672C82.138 24.456 82.21 24.276 82.354 24.132C82.506 23.988 82.694 23.916 82.918 23.916C83.142 23.916 83.326 23.988 83.47 24.132C83.622 24.268 83.698 24.44 83.698 24.648C83.698 24.864 83.626 25.048 83.482 25.2C83.338 25.344 83.15 25.416 82.918 25.416ZM88.4176 33.072C87.7776 33.072 87.2096 32.932 86.7136 32.652C86.2176 32.372 85.8256 31.988 85.5376 31.5C85.2496 31.004 85.1056 30.444 85.1056 29.82C85.1056 29.188 85.2496 28.628 85.5376 28.14C85.8256 27.652 86.2176 27.272 86.7136 27C87.2096 26.72 87.7776 26.58 88.4176 26.58C89.0496 26.58 89.6136 26.72 90.1096 27C90.6136 27.272 91.0056 27.652 91.2856 28.14C91.5736 28.62 91.7176 29.18 91.7176 29.82C91.7176 30.452 91.5736 31.012 91.2856 31.5C91.0056 31.988 90.6136 32.372 90.1096 32.652C89.6136 32.932 89.0496 33.072 88.4176 33.072ZM88.4176 32.064C88.8256 32.064 89.1896 31.972 89.5096 31.788C89.8376 31.604 90.0936 31.344 90.2776 31.008C90.4616 30.664 90.5536 30.268 90.5536 29.82C90.5536 29.364 90.4616 28.972 90.2776 28.644C90.0936 28.308 89.8376 28.048 89.5096 27.864C89.1896 27.68 88.8256 27.588 88.4176 27.588C88.0096 27.588 87.6456 27.68 87.3256 27.864C87.0056 28.048 86.7496 28.308 86.5576 28.644C86.3656 28.972 86.2696 29.364 86.2696 29.82C86.2696 30.268 86.3656 30.664 86.5576 31.008C86.7496 31.344 87.0056 31.604 87.3256 31.788C87.6456 31.972 88.0096 32.064 88.4176 32.064ZM96.7068 26.58C97.2268 26.58 97.6828 26.68 98.0748 26.88C98.4748 27.08 98.7868 27.384 99.0108 27.792C99.2348 28.2 99.3468 28.716 99.3468 29.34V33H98.1948V29.472C98.1948 28.856 98.0428 28.392 97.7388 28.08C97.4428 27.768 97.0228 27.612 96.4788 27.612C96.0708 27.612 95.7148 27.692 95.4108 27.852C95.1068 28.012 94.8708 28.248 94.7028 28.56C94.5428 28.872 94.4628 29.26 94.4628 29.724V33H93.3108V26.64H94.4148V28.356L94.2348 27.9C94.4428 27.484 94.7628 27.16 95.1948 26.928C95.6268 26.696 96.1308 26.58 96.7068 26.58Z" fill="white"/>
<path d="M12.016 51.12C11.376 51.12 10.78 51.016 10.228 50.808C9.684 50.592 9.208 50.292 8.8 49.908C8.4 49.516 8.088 49.056 7.864 48.528C7.64 48 7.528 47.424 7.528 46.8C7.528 46.176 7.64 45.6 7.864 45.072C8.088 44.544 8.404 44.088 8.812 43.704C9.22 43.312 9.696 43.012 10.24 42.804C10.784 42.588 11.38 42.48 12.028 42.48C12.716 42.48 13.344 42.6 13.912 42.84C14.48 43.072 14.96 43.42 15.352 43.884L14.344 44.832C14.04 44.504 13.7 44.26 13.324 44.1C12.948 43.932 12.54 43.848 12.1 43.848C11.66 43.848 11.256 43.92 10.888 44.064C10.528 44.208 10.212 44.412 9.94 44.676C9.676 44.94 9.468 45.252 9.316 45.612C9.172 45.972 9.1 46.368 9.1 46.8C9.1 47.232 9.172 47.628 9.316 47.988C9.468 48.348 9.676 48.66 9.94 48.924C10.212 49.188 10.528 49.392 10.888 49.536C11.256 49.68 11.66 49.752 12.1 49.752C12.54 49.752 12.948 49.672 13.324 49.512C13.7 49.344 14.04 49.092 14.344 48.756L15.352 49.716C14.96 50.172 14.48 50.52 13.912 50.76C13.344 51 12.712 51.12 12.016 51.12ZM19.3367 51.084C18.6807 51.084 18.0967 50.944 17.5847 50.664C17.0727 50.376 16.6687 49.984 16.3727 49.488C16.0767 48.992 15.9287 48.428 15.9287 47.796C15.9287 47.156 16.0767 46.592 16.3727 46.104C16.6687 45.608 17.0727 45.22 17.5847 44.94C18.0967 44.66 18.6807 44.52 19.3367 44.52C20.0007 44.52 20.5887 44.66 21.1007 44.94C21.6207 45.22 22.0247 45.604 22.3127 46.092C22.6087 46.58 22.7567 47.148 22.7567 47.796C22.7567 48.428 22.6087 48.992 22.3127 49.488C22.0247 49.984 21.6207 50.376 21.1007 50.664C20.5887 50.944 20.0007 51.084 19.3367 51.084ZM19.3367 49.8C19.7047 49.8 20.0327 49.72 20.3207 49.56C20.6087 49.4 20.8327 49.168 20.9927 48.864C21.1607 48.56 21.2447 48.204 21.2447 47.796C21.2447 47.38 21.1607 47.024 20.9927 46.728C20.8327 46.424 20.6087 46.192 20.3207 46.032C20.0327 45.872 19.7087 45.792 19.3487 45.792C18.9807 45.792 18.6527 45.872 18.3647 46.032C18.0847 46.192 17.8607 46.424 17.6927 46.728C17.5247 47.024 17.4407 47.38 17.4407 47.796C17.4407 48.204 17.5247 48.56 17.6927 48.864C17.8607 49.168 18.0847 49.4 18.3647 49.56C18.6527 49.72 18.9767 49.8 19.3367 49.8ZM27.827 44.52C28.339 44.52 28.795 44.62 29.195 44.82C29.603 45.02 29.923 45.328 30.155 45.744C30.387 46.152 30.503 46.68 30.503 47.328V51H29.003V47.52C29.003 46.952 28.867 46.528 28.595 46.248C28.331 45.968 27.959 45.828 27.479 45.828C27.127 45.828 26.815 45.9 26.543 46.044C26.271 46.188 26.059 46.404 25.907 46.692C25.763 46.972 25.691 47.328 25.691 47.76V51H24.191V44.592H25.619V46.32L25.367 45.792C25.591 45.384 25.915 45.072 26.339 44.856C26.771 44.632 27.267 44.52 27.827 44.52ZM34.3859 51.084C33.8499 51.084 33.3339 51.016 32.8379 50.88C32.3499 50.736 31.9619 50.564 31.6739 50.364L32.2499 49.224C32.5379 49.408 32.8819 49.56 33.2819 49.68C33.6819 49.8 34.0819 49.86 34.4819 49.86C34.9539 49.86 35.2939 49.796 35.5019 49.668C35.7179 49.54 35.8259 49.368 35.8259 49.152C35.8259 48.976 35.7539 48.844 35.6099 48.756C35.4659 48.66 35.2779 48.588 35.0459 48.54C34.8139 48.492 34.5539 48.448 34.2659 48.408C33.9859 48.368 33.7019 48.316 33.4139 48.252C33.1339 48.18 32.8779 48.08 32.6459 47.952C32.4139 47.816 32.2259 47.636 32.0819 47.412C31.9379 47.188 31.8659 46.892 31.8659 46.524C31.8659 46.116 31.9819 45.764 32.2139 45.468C32.4459 45.164 32.7699 44.932 33.1859 44.772C33.6099 44.604 34.1099 44.52 34.6859 44.52C35.1179 44.52 35.5539 44.568 35.9939 44.664C36.4339 44.76 36.7979 44.896 37.0859 45.072L36.5099 46.212C36.2059 46.028 35.8979 45.904 35.5859 45.84C35.2819 45.768 34.9779 45.732 34.6739 45.732C34.2179 45.732 33.8779 45.8 33.6539 45.936C33.4379 46.072 33.3299 46.244 33.3299 46.452C33.3299 46.644 33.4019 46.788 33.5459 46.884C33.6899 46.98 33.8779 47.056 34.1099 47.112C34.3419 47.168 34.5979 47.216 34.8779 47.256C35.1659 47.288 35.4499 47.34 35.7299 47.412C36.0099 47.484 36.2659 47.584 36.4979 47.712C36.7379 47.832 36.9299 48.004 37.0739 48.228C37.2179 48.452 37.2899 48.744 37.2899 49.104C37.2899 49.504 37.1699 49.852 36.9299 50.148C36.6979 50.444 36.3659 50.676 35.9339 50.844C35.5019 51.004 34.9859 51.084 34.3859 51.084ZM41.4617 51.084C40.8057 51.084 40.2217 50.944 39.7097 50.664C39.1977 50.376 38.7937 49.984 38.4977 49.488C38.2017 48.992 38.0537 48.428 38.0537 47.796C38.0537 47.156 38.2017 46.592 38.4977 46.104C38.7937 45.608 39.1977 45.22 39.7097 44.94C40.2217 44.66 40.8057 44.52 41.4617 44.52C42.1257 44.52 42.7137 44.66 43.2257 44.94C43.7457 45.22 44.1497 45.604 44.4377 46.092C44.7337 46.58 44.8817 47.148 44.8817 47.796C44.8817 48.428 44.7337 48.992 44.4377 49.488C44.1497 49.984 43.7457 50.376 43.2257 50.664C42.7137 50.944 42.1257 51.084 41.4617 51.084ZM41.4617 49.8C41.8297 49.8 42.1577 49.72 42.4457 49.56C42.7337 49.4 42.9577 49.168 43.1177 48.864C43.2857 48.56 43.3697 48.204 43.3697 47.796C43.3697 47.38 43.2857 47.024 43.1177 46.728C42.9577 46.424 42.7337 46.192 42.4457 46.032C42.1577 45.872 41.8337 45.792 41.4737 45.792C41.1057 45.792 40.7777 45.872 40.4897 46.032C40.2097 46.192 39.9857 46.424 39.8177 46.728C39.6497 47.024 39.5657 47.38 39.5657 47.796C39.5657 48.204 39.6497 48.56 39.8177 48.864C39.9857 49.168 40.2097 49.4 40.4897 49.56C40.7777 49.72 41.1017 49.8 41.4617 49.8ZM46.316 51V42.096H47.816V51H46.316ZM49.7848 51V44.592H51.2848V51H49.7848ZM50.5408 43.536C50.2608 43.536 50.0288 43.448 49.8448 43.272C49.6688 43.096 49.5808 42.884 49.5808 42.636C49.5808 42.38 49.6688 42.168 49.8448 42C50.0288 41.824 50.2608 41.736 50.5408 41.736C50.8208 41.736 51.0488 41.82 51.2248 41.988C51.4088 42.148 51.5008 42.352 51.5008 42.6C51.5008 42.864 51.4128 43.088 51.2368 43.272C51.0608 43.448 50.8288 43.536 50.5408 43.536ZM55.9655 51.084C55.3495 51.084 54.7935 50.948 54.2975 50.676C53.8095 50.396 53.4255 50.012 53.1455 49.524C52.8655 49.036 52.7255 48.46 52.7255 47.796C52.7255 47.132 52.8655 46.556 53.1455 46.068C53.4255 45.58 53.8095 45.2 54.2975 44.928C54.7935 44.656 55.3495 44.52 55.9655 44.52C56.5015 44.52 56.9815 44.64 57.4055 44.88C57.8295 45.112 58.1655 45.468 58.4135 45.948C58.6615 46.428 58.7855 47.044 58.7855 47.796C58.7855 48.54 58.6655 49.156 58.4255 49.644C58.1855 50.124 57.8535 50.484 57.4295 50.724C57.0055 50.964 56.5175 51.084 55.9655 51.084ZM56.1455 49.8C56.5055 49.8 56.8255 49.72 57.1055 49.56C57.3935 49.4 57.6215 49.168 57.7895 48.864C57.9655 48.56 58.0535 48.204 58.0535 47.796C58.0535 47.38 57.9655 47.024 57.7895 46.728C57.6215 46.424 57.3935 46.192 57.1055 46.032C56.8255 45.872 56.5055 45.792 56.1455 45.792C55.7855 45.792 55.4615 45.872 55.1735 46.032C54.8935 46.192 54.6655 46.424 54.4895 46.728C54.3215 47.024 54.2375 47.38 54.2375 47.796C54.2375 48.204 54.3215 48.56 54.4895 48.864C54.6655 49.168 54.8935 49.4 55.1735 49.56C55.4615 49.72 55.7855 49.8 56.1455 49.8ZM58.0895 51V49.488L58.1495 47.784L58.0295 46.08V42.096H59.5175V51H58.0895ZM65.4398 51V49.704L65.3558 49.428V47.16C65.3558 46.72 65.2238 46.38 64.9598 46.14C64.6958 45.892 64.2958 45.768 63.7598 45.768C63.3998 45.768 63.0438 45.824 62.6918 45.936C62.3478 46.048 62.0558 46.204 61.8158 46.404L61.2278 45.312C61.5718 45.048 61.9798 44.852 62.4518 44.724C62.9318 44.588 63.4278 44.52 63.9398 44.52C64.8678 44.52 65.5838 44.744 66.0878 45.192C66.5998 45.632 66.8558 46.316 66.8558 47.244V51H65.4398ZM63.4238 51.084C62.9438 51.084 62.5238 51.004 62.1638 50.844C61.8038 50.676 61.5238 50.448 61.3238 50.16C61.1318 49.864 61.0358 49.532 61.0358 49.164C61.0358 48.804 61.1198 48.48 61.2878 48.192C61.4638 47.904 61.7478 47.676 62.1398 47.508C62.5318 47.34 63.0518 47.256 63.6998 47.256H65.5598V48.252H63.8078C63.2958 48.252 62.9518 48.336 62.7758 48.504C62.5998 48.664 62.5118 48.864 62.5118 49.104C62.5118 49.376 62.6198 49.592 62.8358 49.752C63.0518 49.912 63.3518 49.992 63.7358 49.992C64.1038 49.992 64.4318 49.908 64.7198 49.74C65.0158 49.572 65.2278 49.324 65.3558 48.996L65.6078 49.896C65.4638 50.272 65.2038 50.564 64.8278 50.772C64.4598 50.98 63.9918 51.084 63.4238 51.084ZM71.1929 51.084C70.4889 51.084 69.9449 50.904 69.5609 50.544C69.1769 50.176 68.9849 49.636 68.9849 48.924V43.176H70.4849V48.888C70.4849 49.192 70.5609 49.428 70.7129 49.596C70.8729 49.764 71.0929 49.848 71.3729 49.848C71.7089 49.848 71.9889 49.76 72.2129 49.584L72.6329 50.652C72.4569 50.796 72.2409 50.904 71.9849 50.976C71.7289 51.048 71.4649 51.084 71.1929 51.084ZM67.9289 45.84V44.64H72.2009V45.84H67.9289ZM76.6679 51.084C75.9559 51.084 75.3319 50.944 74.7959 50.664C74.2679 50.376 73.8559 49.984 73.5599 49.488C73.2719 48.992 73.1279 48.428 73.1279 47.796C73.1279 47.156 73.2679 46.592 73.5479 46.104C73.8359 45.608 74.2279 45.22 74.7239 44.94C75.2279 44.66 75.7999 44.52 76.4399 44.52C77.0639 44.52 77.6199 44.656 78.1079 44.928C78.5959 45.2 78.9799 45.584 79.2599 46.08C79.5399 46.576 79.6799 47.16 79.6799 47.832C79.6799 47.896 79.6759 47.968 79.6679 48.048C79.6679 48.128 79.6639 48.204 79.6559 48.276H74.3159V47.28H78.8639L78.2759 47.592C78.2839 47.224 78.2079 46.9 78.0479 46.62C77.8879 46.34 77.6679 46.12 77.3879 45.96C77.1159 45.8 76.7999 45.72 76.4399 45.72C76.0719 45.72 75.7479 45.8 75.4679 45.96C75.1959 46.12 74.9799 46.344 74.8199 46.632C74.6679 46.912 74.5919 47.244 74.5919 47.628V47.868C74.5919 48.252 74.6799 48.592 74.8559 48.888C75.0319 49.184 75.2799 49.412 75.5999 49.572C75.9199 49.732 76.2879 49.812 76.7039 49.812C77.0639 49.812 77.3879 49.756 77.6759 49.644C77.9639 49.532 78.2199 49.356 78.4439 49.116L79.2479 50.04C78.9599 50.376 78.5959 50.636 78.1559 50.82C77.7239 50.996 77.2279 51.084 76.6679 51.084ZM87.3771 51.084C86.7051 51.084 86.1051 50.944 85.5771 50.664C85.0571 50.376 84.6491 49.984 84.3531 49.488C84.0571 48.992 83.9091 48.428 83.9091 47.796C83.9091 47.156 84.0571 46.592 84.3531 46.104C84.6491 45.608 85.0571 45.22 85.5771 44.94C86.1051 44.66 86.7051 44.52 87.3771 44.52C88.0011 44.52 88.5491 44.648 89.0211 44.904C89.5011 45.152 89.8651 45.52 90.1131 46.008L88.9611 46.68C88.7691 46.376 88.5331 46.152 88.2531 46.008C87.9811 45.864 87.6851 45.792 87.3651 45.792C86.9971 45.792 86.6651 45.872 86.3691 46.032C86.0731 46.192 85.8411 46.424 85.6731 46.728C85.5051 47.024 85.4211 47.38 85.4211 47.796C85.4211 48.212 85.5051 48.572 85.6731 48.876C85.8411 49.172 86.0731 49.4 86.3691 49.56C86.6651 49.72 86.9971 49.8 87.3651 49.8C87.6851 49.8 87.9811 49.728 88.2531 49.584C88.5331 49.44 88.7691 49.216 88.9611 48.912L90.1131 49.584C89.8651 50.064 89.5011 50.436 89.0211 50.7C88.5491 50.956 88.0011 51.084 87.3771 51.084ZM94.196 51.084C93.54 51.084 92.956 50.944 92.444 50.664C91.932 50.376 91.528 49.984 91.232 49.488C90.936 48.992 90.788 48.428 90.788 47.796C90.788 47.156 90.936 46.592 91.232 46.104C91.528 45.608 91.932 45.22 92.444 44.94C92.956 44.66 93.54 44.52 94.196 44.52C94.86 44.52 95.448 44.66 95.96 44.94C96.48 45.22 96.884 45.604 97.172 46.092C97.468 46.58 97.616 47.148 97.616 47.796C97.616 48.428 97.468 48.992 97.172 49.488C96.884 49.984 96.48 50.376 95.96 50.664C95.448 50.944 94.86 51.084 94.196 51.084ZM94.196 49.8C94.564 49.8 94.892 49.72 95.18 49.56C95.468 49.4 95.692 49.168 95.852 48.864C96.02 48.56 96.104 48.204 96.104 47.796C96.104 47.38 96.02 47.024 95.852 46.728C95.692 46.424 95.468 46.192 95.18 46.032C94.892 45.872 94.568 45.792 94.208 45.792C93.84 45.792 93.512 45.872 93.224 46.032C92.944 46.192 92.72 46.424 92.552 46.728C92.384 47.024 92.3 47.38 92.3 47.796C92.3 48.204 92.384 48.56 92.552 48.864C92.72 49.168 92.944 49.4 93.224 49.56C93.512 49.72 93.836 49.8 94.196 49.8ZM102.686 44.52C103.198 44.52 103.654 44.62 104.054 44.82C104.462 45.02 104.782 45.328 105.014 45.744C105.246 46.152 105.362 46.68 105.362 47.328V51H103.862V47.52C103.862 46.952 103.726 46.528 103.454 46.248C103.19 45.968 102.818 45.828 102.338 45.828C101.986 45.828 101.674 45.9 101.402 46.044C101.13 46.188 100.918 46.404 100.766 46.692C100.622 46.972 100.55 47.328 100.55 47.76V51H99.0504V44.592H100.478V46.32L100.226 45.792C100.45 45.384 100.774 45.072 101.198 44.856C101.63 44.632 102.126 44.52 102.686 44.52ZM109.677 51.084C108.973 51.084 108.429 50.904 108.045 50.544C107.661 50.176 107.469 49.636 107.469 48.924V43.176H108.969V48.888C108.969 49.192 109.045 49.428 109.197 49.596C109.357 49.764 109.577 49.848 109.857 49.848C110.193 49.848 110.473 49.76 110.697 49.584L111.117 50.652C110.941 50.796 110.725 50.904 110.469 50.976C110.213 51.048 109.949 51.084 109.677 51.084ZM106.413 45.84V44.64H110.685V45.84H106.413ZM112.351 51V44.592H113.779V46.356L113.611 45.84C113.803 45.408 114.103 45.08 114.511 44.856C114.927 44.632 115.443 44.52 116.059 44.52V45.948C115.995 45.932 115.935 45.924 115.879 45.924C115.823 45.916 115.767 45.912 115.711 45.912C115.143 45.912 114.691 46.08 114.355 46.416C114.019 46.744 113.851 47.236 113.851 47.892V51H112.351ZM120.823 51V49.704L120.739 49.428V47.16C120.739 46.72 120.607 46.38 120.343 46.14C120.079 45.892 119.679 45.768 119.143 45.768C118.783 45.768 118.427 45.824 118.075 45.936C117.731 46.048 117.439 46.204 117.199 46.404L116.611 45.312C116.955 45.048 117.363 44.852 117.835 44.724C118.315 44.588 118.811 44.52 119.323 44.52C120.251 44.52 120.967 44.744 121.471 45.192C121.983 45.632 122.239 46.316 122.239 47.244V51H120.823ZM118.807 51.084C118.327 51.084 117.907 51.004 117.547 50.844C117.187 50.676 116.907 50.448 116.707 50.16C116.515 49.864 116.419 49.532 116.419 49.164C116.419 48.804 116.503 48.48 116.671 48.192C116.847 47.904 117.131 47.676 117.523 47.508C117.915 47.34 118.435 47.256 119.083 47.256H120.943V48.252H119.191C118.679 48.252 118.335 48.336 118.159 48.504C117.983 48.664 117.895 48.864 117.895 49.104C117.895 49.376 118.003 49.592 118.219 49.752C118.435 49.912 118.735 49.992 119.119 49.992C119.487 49.992 119.815 49.908 120.103 49.74C120.399 49.572 120.611 49.324 120.739 48.996L120.991 49.896C120.847 50.272 120.587 50.564 120.211 50.772C119.843 50.98 119.375 51.084 118.807 51.084ZM127.115 51.084C126.443 51.084 125.843 50.944 125.315 50.664C124.795 50.376 124.387 49.984 124.091 49.488C123.795 48.992 123.647 48.428 123.647 47.796C123.647 47.156 123.795 46.592 124.091 46.104C124.387 45.608 124.795 45.22 125.315 44.94C125.843 44.66 126.443 44.52 127.115 44.52C127.739 44.52 128.287 44.648 128.759 44.904C129.239 45.152 129.603 45.52 129.851 46.008L128.699 46.68C128.507 46.376 128.271 46.152 127.991 46.008C127.719 45.864 127.423 45.792 127.103 45.792C126.735 45.792 126.403 45.872 126.107 46.032C125.811 46.192 125.579 46.424 125.411 46.728C125.243 47.024 125.159 47.38 125.159 47.796C125.159 48.212 125.243 48.572 125.411 48.876C125.579 49.172 125.811 49.4 126.107 49.56C126.403 49.72 126.735 49.8 127.103 49.8C127.423 49.8 127.719 49.728 127.991 49.584C128.271 49.44 128.507 49.216 128.699 48.912L129.851 49.584C129.603 50.064 129.239 50.436 128.759 50.7C128.287 50.956 127.739 51.084 127.115 51.084ZM133.642 51.084C132.938 51.084 132.394 50.904 132.01 50.544C131.626 50.176 131.434 49.636 131.434 48.924V43.176H132.934V48.888C132.934 49.192 133.01 49.428 133.162 49.596C133.322 49.764 133.542 49.848 133.822 49.848C134.158 49.848 134.438 49.76 134.662 49.584L135.082 50.652C134.906 50.796 134.69 50.904 134.434 50.976C134.178 51.048 133.914 51.084 133.642 51.084ZM130.378 45.84V44.64H134.65V45.84H130.378ZM138.296 51.084C137.76 51.084 137.244 51.016 136.748 50.88C136.26 50.736 135.872 50.564 135.584 50.364L136.16 49.224C136.448 49.408 136.792 49.56 137.192 49.68C137.592 49.8 137.992 49.86 138.392 49.86C138.864 49.86 139.204 49.796 139.412 49.668C139.628 49.54 139.736 49.368 139.736 49.152C139.736 48.976 139.664 48.844 139.52 48.756C139.376 48.66 139.188 48.588 138.956 48.54C138.724 48.492 138.464 48.448 138.176 48.408C137.896 48.368 137.612 48.316 137.324 48.252C137.044 48.18 136.788 48.08 136.556 47.952C136.324 47.816 136.136 47.636 135.992 47.412C135.848 47.188 135.776 46.892 135.776 46.524C135.776 46.116 135.892 45.764 136.124 45.468C136.356 45.164 136.68 44.932 137.096 44.772C137.52 44.604 138.02 44.52 138.596 44.52C139.028 44.52 139.464 44.568 139.904 44.664C140.344 44.76 140.708 44.896 140.996 45.072L140.42 46.212C140.116 46.028 139.808 45.904 139.496 45.84C139.192 45.768 138.888 45.732 138.584 45.732C138.128 45.732 137.788 45.8 137.564 45.936C137.348 46.072 137.24 46.244 137.24 46.452C137.24 46.644 137.312 46.788 137.456 46.884C137.6 46.98 137.788 47.056 138.02 47.112C138.252 47.168 138.508 47.216 138.788 47.256C139.076 47.288 139.36 47.34 139.64 47.412C139.92 47.484 140.176 47.584 140.408 47.712C140.648 47.832 140.84 48.004 140.984 48.228C141.128 48.452 141.2 48.744 141.2 49.104C141.2 49.504 141.08 49.852 140.84 50.148C140.608 50.444 140.276 50.676 139.844 50.844C139.412 51.004 138.896 51.084 138.296 51.084ZM145.808 51V44.592H147.308V51H145.808ZM146.564 43.536C146.284 43.536 146.052 43.448 145.868 43.272C145.692 43.096 145.604 42.884 145.604 42.636C145.604 42.38 145.692 42.168 145.868 42C146.052 41.824 146.284 41.736 146.564 41.736C146.844 41.736 147.072 41.82 147.248 41.988C147.432 42.148 147.524 42.352 147.524 42.6C147.524 42.864 147.436 43.088 147.26 43.272C147.084 43.448 146.852 43.536 146.564 43.536ZM152.913 44.52C153.425 44.52 153.881 44.62 154.281 44.82C154.689 45.02 155.009 45.328 155.241 45.744C155.473 46.152 155.589 46.68 155.589 47.328V51H154.089V47.52C154.089 46.952 153.953 46.528 153.681 46.248C153.417 45.968 153.045 45.828 152.565 45.828C152.213 45.828 151.901 45.9 151.629 46.044C151.357 46.188 151.145 46.404 150.993 46.692C150.849 46.972 150.777 47.328 150.777 47.76V51H149.277V44.592H150.705V46.32L150.453 45.792C150.677 45.384 151.001 45.072 151.425 44.856C151.857 44.632 152.353 44.52 152.913 44.52ZM159.904 51.084C159.2 51.084 158.656 50.904 158.272 50.544C157.888 50.176 157.696 49.636 157.696 48.924V43.176H159.196V48.888C159.196 49.192 159.272 49.428 159.424 49.596C159.584 49.764 159.804 49.848 160.084 49.848C160.42 49.848 160.7 49.76 160.924 49.584L161.344 50.652C161.168 50.796 160.952 50.904 160.696 50.976C160.44 51.048 160.176 51.084 159.904 51.084ZM156.64 45.84V44.64H160.912V45.84H156.64ZM165.247 51.084C164.591 51.084 164.007 50.944 163.495 50.664C162.983 50.376 162.579 49.984 162.283 49.488C161.987 48.992 161.839 48.428 161.839 47.796C161.839 47.156 161.987 46.592 162.283 46.104C162.579 45.608 162.983 45.22 163.495 44.94C164.007 44.66 164.591 44.52 165.247 44.52C165.911 44.52 166.499 44.66 167.011 44.94C167.531 45.22 167.935 45.604 168.223 46.092C168.519 46.58 168.667 47.148 168.667 47.796C168.667 48.428 168.519 48.992 168.223 49.488C167.935 49.984 167.531 50.376 167.011 50.664C166.499 50.944 165.911 51.084 165.247 51.084ZM165.247 49.8C165.615 49.8 165.943 49.72 166.231 49.56C166.519 49.4 166.743 49.168 166.903 48.864C167.071 48.56 167.155 48.204 167.155 47.796C167.155 47.38 167.071 47.024 166.903 46.728C166.743 46.424 166.519 46.192 166.231 46.032C165.943 45.872 165.619 45.792 165.259 45.792C164.891 45.792 164.563 45.872 164.275 46.032C163.995 46.192 163.771 46.424 163.603 46.728C163.435 47.024 163.351 47.38 163.351 47.796C163.351 48.204 163.435 48.56 163.603 48.864C163.771 49.168 163.995 49.4 164.275 49.56C164.563 49.72 164.887 49.8 165.247 49.8ZM176.298 51.084C175.642 51.084 175.058 50.944 174.546 50.664C174.034 50.376 173.63 49.984 173.334 49.488C173.038 48.992 172.89 48.428 172.89 47.796C172.89 47.156 173.038 46.592 173.334 46.104C173.63 45.608 174.034 45.22 174.546 44.94C175.058 44.66 175.642 44.52 176.298 44.52C176.962 44.52 177.55 44.66 178.062 44.94C178.582 45.22 178.986 45.604 179.274 46.092C179.57 46.58 179.718 47.148 179.718 47.796C179.718 48.428 179.57 48.992 179.274 49.488C178.986 49.984 178.582 50.376 178.062 50.664C177.55 50.944 176.962 51.084 176.298 51.084ZM176.298 49.8C176.666 49.8 176.994 49.72 177.282 49.56C177.57 49.4 177.794 49.168 177.954 48.864C178.122 48.56 178.206 48.204 178.206 47.796C178.206 47.38 178.122 47.024 177.954 46.728C177.794 46.424 177.57 46.192 177.282 46.032C176.994 45.872 176.67 45.792 176.31 45.792C175.942 45.792 175.614 45.872 175.326 46.032C175.046 46.192 174.822 46.424 174.654 46.728C174.486 47.024 174.402 47.38 174.402 47.796C174.402 48.204 174.486 48.56 174.654 48.864C174.822 49.168 175.046 49.4 175.326 49.56C175.614 49.72 175.938 49.8 176.298 49.8ZM184.788 44.52C185.3 44.52 185.756 44.62 186.156 44.82C186.564 45.02 186.884 45.328 187.116 45.744C187.348 46.152 187.464 46.68 187.464 47.328V51H185.964V47.52C185.964 46.952 185.828 46.528 185.556 46.248C185.292 45.968 184.92 45.828 184.44 45.828C184.088 45.828 183.776 45.9 183.504 46.044C183.232 46.188 183.02 46.404 182.868 46.692C182.724 46.972 182.652 47.328 182.652 47.76V51H181.152V44.592H182.58V46.32L182.328 45.792C182.552 45.384 182.876 45.072 183.3 44.856C183.732 44.632 184.228 44.52 184.788 44.52ZM192.391 51.084C191.679 51.084 191.055 50.944 190.519 50.664C189.991 50.376 189.579 49.984 189.283 49.488C188.995 48.992 188.851 48.428 188.851 47.796C188.851 47.156 188.991 46.592 189.271 46.104C189.559 45.608 189.951 45.22 190.447 44.94C190.951 44.66 191.523 44.52 192.163 44.52C192.787 44.52 193.343 44.656 193.831 44.928C194.319 45.2 194.703 45.584 194.983 46.08C195.263 46.576 195.403 47.16 195.403 47.832C195.403 47.896 195.399 47.968 195.391 48.048C195.391 48.128 195.387 48.204 195.379 48.276H190.039V47.28H194.587L193.999 47.592C194.007 47.224 193.931 46.9 193.771 46.62C193.611 46.34 193.391 46.12 193.111 45.96C192.839 45.8 192.523 45.72 192.163 45.72C191.795 45.72 191.471 45.8 191.191 45.96C190.919 46.12 190.703 46.344 190.543 46.632C190.391 46.912 190.315 47.244 190.315 47.628V47.868C190.315 48.252 190.403 48.592 190.579 48.888C190.755 49.184 191.003 49.412 191.323 49.572C191.643 49.732 192.011 49.812 192.427 49.812C192.787 49.812 193.111 49.756 193.399 49.644C193.687 49.532 193.943 49.356 194.167 49.116L194.971 50.04C194.683 50.376 194.319 50.636 193.879 50.82C193.447 50.996 192.951 51.084 192.391 51.084ZM208.248 44.52C208.76 44.52 209.212 44.62 209.604 44.82C210.004 45.02 210.316 45.328 210.54 45.744C210.764 46.152 210.876 46.68 210.876 47.328V51H209.376V47.52C209.376 46.952 209.252 46.528 209.004 46.248C208.756 45.968 208.4 45.828 207.936 45.828C207.608 45.828 207.316 45.9 207.06 46.044C206.812 46.188 206.616 46.4 206.472 46.68C206.336 46.96 206.268 47.316 206.268 47.748V51H204.768V47.52C204.768 46.952 204.644 46.528 204.396 46.248C204.148 45.968 203.792 45.828 203.328 45.828C203 45.828 202.708 45.9 202.452 46.044C202.204 46.188 202.008 46.4 201.864 46.68C201.728 46.96 201.66 47.316 201.66 47.748V51H200.16V44.592H201.588V46.296L201.336 45.792C201.552 45.376 201.864 45.06 202.272 44.844C202.688 44.628 203.16 44.52 203.688 44.52C204.288 44.52 204.808 44.668 205.248 44.964C205.696 45.26 205.992 45.708 206.136 46.308L205.548 46.104C205.756 45.624 206.1 45.24 206.58 44.952C207.06 44.664 207.616 44.52 208.248 44.52ZM216.741 51V49.704L216.657 49.428V47.16C216.657 46.72 216.525 46.38 216.261 46.14C215.997 45.892 215.597 45.768 215.061 45.768C214.701 45.768 214.345 45.824 213.993 45.936C213.649 46.048 213.357 46.204 213.117 46.404L212.529 45.312C212.873 45.048 213.281 44.852 213.753 44.724C214.233 44.588 214.729 44.52 215.241 44.52C216.169 44.52 216.885 44.744 217.389 45.192C217.901 45.632 218.157 46.316 218.157 47.244V51H216.741ZM214.725 51.084C214.245 51.084 213.825 51.004 213.465 50.844C213.105 50.676 212.825 50.448 212.625 50.16C212.433 49.864 212.337 49.532 212.337 49.164C212.337 48.804 212.421 48.48 212.589 48.192C212.765 47.904 213.049 47.676 213.441 47.508C213.833 47.34 214.353 47.256 215.001 47.256H216.861V48.252H215.109C214.597 48.252 214.253 48.336 214.077 48.504C213.901 48.664 213.813 48.864 213.813 49.104C213.813 49.376 213.921 49.592 214.137 49.752C214.353 49.912 214.653 49.992 215.037 49.992C215.405 49.992 215.733 49.908 216.021 49.74C216.317 49.572 216.529 49.324 216.657 48.996L216.909 49.896C216.765 50.272 216.505 50.564 216.129 50.772C215.761 50.98 215.293 51.084 214.725 51.084ZM222.062 51.084C221.526 51.084 221.01 51.016 220.514 50.88C220.026 50.736 219.638 50.564 219.35 50.364L219.926 49.224C220.214 49.408 220.558 49.56 220.958 49.68C221.358 49.8 221.758 49.86 222.158 49.86C222.63 49.86 222.97 49.796 223.178 49.668C223.394 49.54 223.502 49.368 223.502 49.152C223.502 48.976 223.43 48.844 223.286 48.756C223.142 48.66 222.954 48.588 222.722 48.54C222.49 48.492 222.23 48.448 221.942 48.408C221.662 48.368 221.378 48.316 221.09 48.252C220.81 48.18 220.554 48.08 220.322 47.952C220.09 47.816 219.902 47.636 219.758 47.412C219.614 47.188 219.542 46.892 219.542 46.524C219.542 46.116 219.658 45.764 219.89 45.468C220.122 45.164 220.446 44.932 220.862 44.772C221.286 44.604 221.786 44.52 222.362 44.52C222.794 44.52 223.23 44.568 223.67 44.664C224.11 44.76 224.474 44.896 224.762 45.072L224.186 46.212C223.882 46.028 223.574 45.904 223.262 45.84C222.958 45.768 222.654 45.732 222.35 45.732C221.894 45.732 221.554 45.8 221.33 45.936C221.114 46.072 221.006 46.244 221.006 46.452C221.006 46.644 221.078 46.788 221.222 46.884C221.366 46.98 221.554 47.056 221.786 47.112C222.018 47.168 222.274 47.216 222.554 47.256C222.842 47.288 223.126 47.34 223.406 47.412C223.686 47.484 223.942 47.584 224.174 47.712C224.414 47.832 224.606 48.004 224.75 48.228C224.894 48.452 224.966 48.744 224.966 49.104C224.966 49.504 224.846 49.852 224.606 50.148C224.374 50.444 224.042 50.676 223.61 50.844C223.178 51.004 222.662 51.084 222.062 51.084ZM228.669 51.084C227.965 51.084 227.421 50.904 227.037 50.544C226.653 50.176 226.461 49.636 226.461 48.924V43.176H227.961V48.888C227.961 49.192 228.037 49.428 228.189 49.596C228.349 49.764 228.569 49.848 228.849 49.848C229.185 49.848 229.465 49.76 229.689 49.584L230.109 50.652C229.933 50.796 229.717 50.904 229.461 50.976C229.205 51.048 228.941 51.084 228.669 51.084ZM225.405 45.84V44.64H229.677V45.84H225.405ZM234.144 51.084C233.432 51.084 232.808 50.944 232.272 50.664C231.744 50.376 231.332 49.984 231.036 49.488C230.748 48.992 230.604 48.428 230.604 47.796C230.604 47.156 230.744 46.592 231.024 46.104C231.312 45.608 231.704 45.22 232.2 44.94C232.704 44.66 233.276 44.52 233.916 44.52C234.54 44.52 235.096 44.656 235.584 44.928C236.072 45.2 236.456 45.584 236.736 46.08C237.016 46.576 237.156 47.16 237.156 47.832C237.156 47.896 237.152 47.968 237.144 48.048C237.144 48.128 237.14 48.204 237.132 48.276H231.792V47.28H236.34L235.752 47.592C235.76 47.224 235.684 46.9 235.524 46.62C235.364 46.34 235.144 46.12 234.864 45.96C234.592 45.8 234.276 45.72 233.916 45.72C233.548 45.72 233.224 45.8 232.944 45.96C232.672 46.12 232.456 46.344 232.296 46.632C232.144 46.912 232.068 47.244 232.068 47.628V47.868C232.068 48.252 232.156 48.592 232.332 48.888C232.508 49.184 232.756 49.412 233.076 49.572C233.396 49.732 233.764 49.812 234.18 49.812C234.54 49.812 234.864 49.756 235.152 49.644C235.44 49.532 235.696 49.356 235.92 49.116L236.724 50.04C236.436 50.376 236.072 50.636 235.632 50.82C235.2 50.996 234.704 51.084 234.144 51.084ZM238.597 51V44.592H240.025V46.356L239.857 45.84C240.049 45.408 240.349 45.08 240.757 44.856C241.173 44.632 241.689 44.52 242.305 44.52V45.948C242.241 45.932 242.181 45.924 242.125 45.924C242.069 45.916 242.013 45.912 241.957 45.912C241.389 45.912 240.937 46.08 240.601 46.416C240.265 46.744 240.097 47.236 240.097 47.892V51H238.597ZM250.901 51V49.704L250.817 49.428V47.16C250.817 46.72 250.685 46.38 250.421 46.14C250.157 45.892 249.757 45.768 249.221 45.768C248.861 45.768 248.505 45.824 248.153 45.936C247.809 46.048 247.517 46.204 247.277 46.404L246.689 45.312C247.033 45.048 247.441 44.852 247.913 44.724C248.393 44.588 248.889 44.52 249.401 44.52C250.329 44.52 251.045 44.744 251.549 45.192C252.061 45.632 252.317 46.316 252.317 47.244V51H250.901ZM248.885 51.084C248.405 51.084 247.985 51.004 247.625 50.844C247.265 50.676 246.985 50.448 246.785 50.16C246.593 49.864 246.497 49.532 246.497 49.164C246.497 48.804 246.581 48.48 246.749 48.192C246.925 47.904 247.209 47.676 247.601 47.508C247.993 47.34 248.513 47.256 249.161 47.256H251.021V48.252H249.269C248.757 48.252 248.413 48.336 248.237 48.504C248.061 48.664 247.973 48.864 247.973 49.104C247.973 49.376 248.081 49.592 248.297 49.752C248.513 49.912 248.813 49.992 249.197 49.992C249.565 49.992 249.893 49.908 250.181 49.74C250.477 49.572 250.689 49.324 250.817 48.996L251.069 49.896C250.925 50.272 250.665 50.564 250.289 50.772C249.921 50.98 249.453 51.084 248.885 51.084ZM257.158 53.412C256.566 53.412 255.986 53.332 255.418 53.172C254.858 53.02 254.398 52.796 254.038 52.5L254.71 51.372C254.99 51.604 255.342 51.788 255.766 51.924C256.198 52.068 256.634 52.14 257.074 52.14C257.778 52.14 258.294 51.976 258.622 51.648C258.95 51.328 259.114 50.844 259.114 50.196V49.056L259.234 47.604L259.186 46.152V44.592H260.614V50.028C260.614 51.188 260.318 52.04 259.726 52.584C259.134 53.136 258.278 53.412 257.158 53.412ZM256.966 50.712C256.358 50.712 255.806 50.584 255.31 50.328C254.822 50.064 254.434 49.7 254.146 49.236C253.866 48.772 253.726 48.228 253.726 47.604C253.726 46.988 253.866 46.448 254.146 45.984C254.434 45.52 254.822 45.16 255.31 44.904C255.806 44.648 256.358 44.52 256.966 44.52C257.51 44.52 257.998 44.628 258.43 44.844C258.862 45.06 259.206 45.396 259.462 45.852C259.726 46.308 259.858 46.892 259.858 47.604C259.858 48.316 259.726 48.904 259.462 49.368C259.206 49.824 258.862 50.164 258.43 50.388C257.998 50.604 257.51 50.712 256.966 50.712ZM257.194 49.44C257.57 49.44 257.906 49.364 258.202 49.212C258.498 49.052 258.726 48.836 258.886 48.564C259.054 48.284 259.138 47.964 259.138 47.604C259.138 47.244 259.054 46.928 258.886 46.656C258.726 46.376 258.498 46.164 258.202 46.02C257.906 45.868 257.57 45.792 257.194 45.792C256.818 45.792 256.478 45.868 256.174 46.02C255.878 46.164 255.646 46.376 255.478 46.656C255.318 46.928 255.238 47.244 255.238 47.604C255.238 47.964 255.318 48.284 255.478 48.564C255.646 48.836 255.878 49.052 256.174 49.212C256.478 49.364 256.818 49.44 257.194 49.44ZM262.586 51V44.592H264.014V46.356L263.846 45.84C264.038 45.408 264.338 45.08 264.746 44.856C265.162 44.632 265.678 44.52 266.294 44.52V45.948C266.23 45.932 266.17 45.924 266.114 45.924C266.058 45.916 266.002 45.912 265.946 45.912C265.378 45.912 264.926 46.08 264.59 46.416C264.254 46.744 264.086 47.236 264.086 47.892V51H262.586ZM270.519 51.084C269.807 51.084 269.183 50.944 268.647 50.664C268.119 50.376 267.707 49.984 267.411 49.488C267.123 48.992 266.979 48.428 266.979 47.796C266.979 47.156 267.119 46.592 267.399 46.104C267.687 45.608 268.079 45.22 268.575 44.94C269.079 44.66 269.651 44.52 270.291 44.52C270.915 44.52 271.471 44.656 271.959 44.928C272.447 45.2 272.831 45.584 273.111 46.08C273.391 46.576 273.531 47.16 273.531 47.832C273.531 47.896 273.527 47.968 273.519 48.048C273.519 48.128 273.515 48.204 273.507 48.276H268.167V47.28H272.715L272.127 47.592C272.135 47.224 272.059 46.9 271.899 46.62C271.739 46.34 271.519 46.12 271.239 45.96C270.967 45.8 270.651 45.72 270.291 45.72C269.923 45.72 269.599 45.8 269.319 45.96C269.047 46.12 268.831 46.344 268.671 46.632C268.519 46.912 268.443 47.244 268.443 47.628V47.868C268.443 48.252 268.531 48.592 268.707 48.888C268.883 49.184 269.131 49.412 269.451 49.572C269.771 49.732 270.139 49.812 270.555 49.812C270.915 49.812 271.239 49.756 271.527 49.644C271.815 49.532 272.071 49.356 272.295 49.116L273.099 50.04C272.811 50.376 272.447 50.636 272.007 50.82C271.575 50.996 271.079 51.084 270.519 51.084ZM277.984 51.084C277.272 51.084 276.648 50.944 276.112 50.664C275.584 50.376 275.172 49.984 274.876 49.488C274.588 48.992 274.444 48.428 274.444 47.796C274.444 47.156 274.584 46.592 274.864 46.104C275.152 45.608 275.544 45.22 276.04 44.94C276.544 44.66 277.116 44.52 277.756 44.52C278.38 44.52 278.936 44.656 279.424 44.928C279.912 45.2 280.296 45.584 280.576 46.08C280.856 46.576 280.996 47.16 280.996 47.832C280.996 47.896 280.992 47.968 280.984 48.048C280.984 48.128 280.98 48.204 280.972 48.276H275.632V47.28H280.18L279.592 47.592C279.6 47.224 279.524 46.9 279.364 46.62C279.204 46.34 278.984 46.12 278.704 45.96C278.432 45.8 278.116 45.72 277.756 45.72C277.388 45.72 277.064 45.8 276.784 45.96C276.512 46.12 276.296 46.344 276.136 46.632C275.984 46.912 275.908 47.244 275.908 47.628V47.868C275.908 48.252 275.996 48.592 276.172 48.888C276.348 49.184 276.596 49.412 276.916 49.572C277.236 49.732 277.604 49.812 278.02 49.812C278.38 49.812 278.704 49.756 278.992 49.644C279.28 49.532 279.536 49.356 279.76 49.116L280.564 50.04C280.276 50.376 279.912 50.636 279.472 50.82C279.04 50.996 278.544 51.084 277.984 51.084ZM290.525 44.52C291.037 44.52 291.489 44.62 291.881 44.82C292.281 45.02 292.593 45.328 292.817 45.744C293.041 46.152 293.153 46.68 293.153 47.328V51H291.653V47.52C291.653 46.952 291.529 46.528 291.281 46.248C291.033 45.968 290.677 45.828 290.213 45.828C289.885 45.828 289.593 45.9 289.337 46.044C289.089 46.188 288.893 46.4 288.749 46.68C288.613 46.96 288.545 47.316 288.545 47.748V51H287.045V47.52C287.045 46.952 286.921 46.528 286.673 46.248C286.425 45.968 286.069 45.828 285.605 45.828C285.277 45.828 284.985 45.9 284.729 46.044C284.481 46.188 284.285 46.4 284.141 46.68C284.005 46.96 283.937 47.316 283.937 47.748V51H282.437V44.592H283.865V46.296L283.613 45.792C283.829 45.376 284.141 45.06 284.549 44.844C284.965 44.628 285.437 44.52 285.965 44.52C286.565 44.52 287.085 44.668 287.525 44.964C287.973 45.26 288.269 45.708 288.413 46.308L287.825 46.104C288.033 45.624 288.377 45.24 288.857 44.952C289.337 44.664 289.893 44.52 290.525 44.52ZM298.094 51.084C297.382 51.084 296.758 50.944 296.222 50.664C295.694 50.376 295.282 49.984 294.986 49.488C294.698 48.992 294.554 48.428 294.554 47.796C294.554 47.156 294.694 46.592 294.974 46.104C295.262 45.608 295.654 45.22 296.15 44.94C296.654 44.66 297.226 44.52 297.866 44.52C298.49 44.52 299.046 44.656 299.534 44.928C300.022 45.2 300.406 45.584 300.686 46.08C300.966 46.576 301.106 47.16 301.106 47.832C301.106 47.896 301.102 47.968 301.094 48.048C301.094 48.128 301.09 48.204 301.082 48.276H295.742V47.28H300.29L299.702 47.592C299.71 47.224 299.634 46.9 299.474 46.62C299.314 46.34 299.094 46.12 298.814 45.96C298.542 45.8 298.226 45.72 297.866 45.72C297.498 45.72 297.174 45.8 296.894 45.96C296.622 46.12 296.406 46.344 296.246 46.632C296.094 46.912 296.018 47.244 296.018 47.628V47.868C296.018 48.252 296.106 48.592 296.282 48.888C296.458 49.184 296.706 49.412 297.026 49.572C297.346 49.732 297.714 49.812 298.13 49.812C298.49 49.812 298.814 49.756 299.102 49.644C299.39 49.532 299.646 49.356 299.87 49.116L300.674 50.04C300.386 50.376 300.022 50.636 299.582 50.82C299.15 50.996 298.654 51.084 298.094 51.084ZM306.183 44.52C306.695 44.52 307.151 44.62 307.551 44.82C307.959 45.02 308.279 45.328 308.511 45.744C308.743 46.152 308.859 46.68 308.859 47.328V51H307.359V47.52C307.359 46.952 307.223 46.528 306.951 46.248C306.687 45.968 306.315 45.828 305.835 45.828C305.483 45.828 305.171 45.9 304.899 46.044C304.627 46.188 304.415 46.404 304.263 46.692C304.119 46.972 304.047 47.328 304.047 47.76V51H302.547V44.592H303.975V46.32L303.723 45.792C303.947 45.384 304.271 45.072 304.695 44.856C305.127 44.632 305.623 44.52 306.183 44.52ZM313.173 51.084C312.469 51.084 311.925 50.904 311.541 50.544C311.157 50.176 310.965 49.636 310.965 48.924V43.176H312.465V48.888C312.465 49.192 312.541 49.428 312.693 49.596C312.853 49.764 313.073 49.848 313.353 49.848C313.689 49.848 313.969 49.76 314.193 49.584L314.613 50.652C314.437 50.796 314.221 50.904 313.965 50.976C313.709 51.048 313.445 51.084 313.173 51.084ZM309.909 45.84V44.64H314.181V45.84H309.909ZM315.568 52.812L316.264 50.16L316.468 51.048C316.188 51.048 315.952 50.964 315.76 50.796C315.576 50.62 315.484 50.384 315.484 50.088C315.484 49.784 315.576 49.544 315.76 49.368C315.952 49.184 316.184 49.092 316.456 49.092C316.736 49.092 316.968 49.184 317.152 49.368C317.336 49.552 317.428 49.792 317.428 50.088C317.428 50.168 317.42 50.256 317.404 50.352C317.388 50.44 317.36 50.544 317.32 50.664C317.288 50.784 317.232 50.936 317.152 51.12L316.54 52.812H315.568ZM9.964 66.084C9.428 66.084 8.912 66.016 8.416 65.88C7.928 65.736 7.54 65.564 7.252 65.364L7.828 64.224C8.116 64.408 8.46 64.56 8.86 64.68C9.26 64.8 9.66 64.86 10.06 64.86C10.532 64.86 10.872 64.796 11.08 64.668C11.296 64.54 11.404 64.368 11.404 64.152C11.404 63.976 11.332 63.844 11.188 63.756C11.044 63.66 10.856 63.588 10.624 63.54C10.392 63.492 10.132 63.448 9.844 63.408C9.564 63.368 9.28 63.316 8.992 63.252C8.712 63.18 8.456 63.08 8.224 62.952C7.992 62.816 7.804 62.636 7.66 62.412C7.516 62.188 7.444 61.892 7.444 61.524C7.444 61.116 7.56 60.764 7.792 60.468C8.024 60.164 8.348 59.932 8.764 59.772C9.188 59.604 9.688 59.52 10.264 59.52C10.696 59.52 11.132 59.568 11.572 59.664C12.012 59.76 12.376 59.896 12.664 60.072L12.088 61.212C11.784 61.028 11.476 60.904 11.164 60.84C10.86 60.768 10.556 60.732 10.252 60.732C9.796 60.732 9.456 60.8 9.232 60.936C9.016 61.072 8.908 61.244 8.908 61.452C8.908 61.644 8.98 61.788 9.124 61.884C9.268 61.98 9.456 62.056 9.688 62.112C9.92 62.168 10.176 62.216 10.456 62.256C10.744 62.288 11.028 62.34 11.308 62.412C11.588 62.484 11.844 62.584 12.076 62.712C12.316 62.832 12.508 63.004 12.652 63.228C12.796 63.452 12.868 63.744 12.868 64.104C12.868 64.504 12.748 64.852 12.508 65.148C12.276 65.444 11.944 65.676 11.512 65.844C11.08 66.004 10.564 66.084 9.964 66.084ZM16.5718 66.084C15.8678 66.084 15.3238 65.904 14.9398 65.544C14.5558 65.176 14.3638 64.636 14.3638 63.924V58.176H15.8638V63.888C15.8638 64.192 15.9398 64.428 16.0918 64.596C16.2518 64.764 16.4718 64.848 16.7518 64.848C17.0878 64.848 17.3678 64.76 17.5918 64.584L18.0118 65.652C17.8358 65.796 17.6198 65.904 17.3638 65.976C17.1078 66.048 16.8438 66.084 16.5718 66.084ZM13.3078 60.84V59.64H17.5798V60.84H13.3078ZM23.1937 66V64.704L23.1097 64.428V62.16C23.1097 61.72 22.9777 61.38 22.7137 61.14C22.4497 60.892 22.0497 60.768 21.5137 60.768C21.1537 60.768 20.7977 60.824 20.4457 60.936C20.1017 61.048 19.8097 61.204 19.5697 61.404L18.9817 60.312C19.3257 60.048 19.7337 59.852 20.2057 59.724C20.6857 59.588 21.1817 59.52 21.6937 59.52C22.6217 59.52 23.3377 59.744 23.8417 60.192C24.3537 60.632 24.6097 61.316 24.6097 62.244V66H23.1937ZM21.1777 66.084C20.6977 66.084 20.2777 66.004 19.9177 65.844C19.5577 65.676 19.2777 65.448 19.0777 65.16C18.8857 64.864 18.7897 64.532 18.7897 64.164C18.7897 63.804 18.8737 63.48 19.0417 63.192C19.2177 62.904 19.5017 62.676 19.8937 62.508C20.2857 62.34 20.8057 62.256 21.4537 62.256H23.3137V63.252H21.5617C21.0497 63.252 20.7057 63.336 20.5297 63.504C20.3537 63.664 20.2657 63.864 20.2657 64.104C20.2657 64.376 20.3737 64.592 20.5897 64.752C20.8057 64.912 21.1057 64.992 21.4897 64.992C21.8577 64.992 22.1857 64.908 22.4737 64.74C22.7697 64.572 22.9817 64.324 23.1097 63.996L23.3617 64.896C23.2177 65.272 22.9577 65.564 22.5817 65.772C22.2137 65.98 21.7457 66.084 21.1777 66.084ZM30.1708 59.52C30.6828 59.52 31.1388 59.62 31.5388 59.82C31.9468 60.02 32.2668 60.328 32.4988 60.744C32.7308 61.152 32.8468 61.68 32.8468 62.328V66H31.3468V62.52C31.3468 61.952 31.2108 61.528 30.9388 61.248C30.6748 60.968 30.3028 60.828 29.8228 60.828C29.4708 60.828 29.1588 60.9 28.8868 61.044C28.6148 61.188 28.4028 61.404 28.2508 61.692C28.1068 61.972 28.0348 62.328 28.0348 62.76V66H26.5348V59.592H27.9628V61.32L27.7108 60.792C27.9348 60.384 28.2588 60.072 28.6828 59.856C29.1148 59.632 29.6108 59.52 30.1708 59.52ZM37.4733 66.084C36.8573 66.084 36.3013 65.948 35.8053 65.676C35.3173 65.396 34.9333 65.012 34.6533 64.524C34.3733 64.036 34.2333 63.46 34.2333 62.796C34.2333 62.132 34.3733 61.556 34.6533 61.068C34.9333 60.58 35.3173 60.2 35.8053 59.928C36.3013 59.656 36.8573 59.52 37.4733 59.52C38.0093 59.52 38.4893 59.64 38.9133 59.88C39.3373 60.112 39.6733 60.468 39.9213 60.948C40.1693 61.428 40.2933 62.044 40.2933 62.796C40.2933 63.54 40.1733 64.156 39.9333 64.644C39.6933 65.124 39.3613 65.484 38.9373 65.724C38.5133 65.964 38.0253 66.084 37.4733 66.084ZM37.6533 64.8C38.0133 64.8 38.3333 64.72 38.6133 64.56C38.9013 64.4 39.1293 64.168 39.2973 63.864C39.4733 63.56 39.5613 63.204 39.5613 62.796C39.5613 62.38 39.4733 62.024 39.2973 61.728C39.1293 61.424 38.9013 61.192 38.6133 61.032C38.3333 60.872 38.0133 60.792 37.6533 60.792C37.2933 60.792 36.9693 60.872 36.6813 61.032C36.4013 61.192 36.1733 61.424 35.9973 61.728C35.8293 62.024 35.7453 62.38 35.7453 62.796C35.7453 63.204 35.8293 63.56 35.9973 63.864C36.1733 64.168 36.4013 64.4 36.6813 64.56C36.9693 64.72 37.2933 64.8 37.6533 64.8ZM39.5973 66V64.488L39.6573 62.784L39.5373 61.08V57.096H41.0253V66H39.5973ZM46.9476 66V64.704L46.8636 64.428V62.16C46.8636 61.72 46.7316 61.38 46.4676 61.14C46.2036 60.892 45.8036 60.768 45.2676 60.768C44.9076 60.768 44.5516 60.824 44.1996 60.936C43.8556 61.048 43.5636 61.204 43.3236 61.404L42.7356 60.312C43.0796 60.048 43.4876 59.852 43.9596 59.724C44.4396 59.588 44.9356 59.52 45.4476 59.52C46.3756 59.52 47.0916 59.744 47.5956 60.192C48.1076 60.632 48.3636 61.316 48.3636 62.244V66H46.9476ZM44.9316 66.084C44.4516 66.084 44.0316 66.004 43.6716 65.844C43.3116 65.676 43.0316 65.448 42.8316 65.16C42.6396 64.864 42.5436 64.532 42.5436 64.164C42.5436 63.804 42.6276 63.48 42.7956 63.192C42.9716 62.904 43.2556 62.676 43.6476 62.508C44.0396 62.34 44.5596 62.256 45.2076 62.256H47.0676V63.252H45.3156C44.8036 63.252 44.4596 63.336 44.2836 63.504C44.1076 63.664 44.0196 63.864 44.0196 64.104C44.0196 64.376 44.1276 64.592 44.3436 64.752C44.5596 64.912 44.8596 64.992 45.2436 64.992C45.6116 64.992 45.9396 64.908 46.2276 64.74C46.5236 64.572 46.7356 64.324 46.8636 63.996L47.1156 64.896C46.9716 65.272 46.7116 65.564 46.3356 65.772C45.9676 65.98 45.4996 66.084 44.9316 66.084ZM50.2887 66V59.592H51.7167V61.356L51.5487 60.84C51.7407 60.408 52.0407 60.08 52.4487 59.856C52.8647 59.632 53.3807 59.52 53.9967 59.52V60.948C53.9327 60.932 53.8727 60.924 53.8167 60.924C53.7607 60.916 53.7047 60.912 53.6487 60.912C53.0807 60.912 52.6287 61.08 52.2927 61.416C51.9567 61.744 51.7887 62.236 51.7887 62.892V66H50.2887ZM57.9226 66.084C57.3066 66.084 56.7506 65.948 56.2546 65.676C55.7666 65.396 55.3826 65.012 55.1026 64.524C54.8226 64.036 54.6826 63.46 54.6826 62.796C54.6826 62.132 54.8226 61.556 55.1026 61.068C55.3826 60.58 55.7666 60.2 56.2546 59.928C56.7506 59.656 57.3066 59.52 57.9226 59.52C58.4586 59.52 58.9386 59.64 59.3626 59.88C59.7866 60.112 60.1226 60.468 60.3706 60.948C60.6186 61.428 60.7426 62.044 60.7426 62.796C60.7426 63.54 60.6226 64.156 60.3826 64.644C60.1426 65.124 59.8106 65.484 59.3866 65.724C58.9626 65.964 58.4746 66.084 57.9226 66.084ZM58.1026 64.8C58.4626 64.8 58.7826 64.72 59.0626 64.56C59.3506 64.4 59.5786 64.168 59.7466 63.864C59.9226 63.56 60.0106 63.204 60.0106 62.796C60.0106 62.38 59.9226 62.024 59.7466 61.728C59.5786 61.424 59.3506 61.192 59.0626 61.032C58.7826 60.872 58.4626 60.792 58.1026 60.792C57.7426 60.792 57.4186 60.872 57.1306 61.032C56.8506 61.192 56.6226 61.424 56.4466 61.728C56.2786 62.024 56.1946 62.38 56.1946 62.796C56.1946 63.204 56.2786 63.56 56.4466 63.864C56.6226 64.168 56.8506 64.4 57.1306 64.56C57.4186 64.72 57.7426 64.8 58.1026 64.8ZM60.0466 66V64.488L60.1066 62.784L59.9866 61.08V57.096H61.4746V66H60.0466ZM63.4488 66V59.592H64.9488V66H63.4488ZM64.2048 58.536C63.9248 58.536 63.6928 58.448 63.5088 58.272C63.3328 58.096 63.2448 57.884 63.2448 57.636C63.2448 57.38 63.3328 57.168 63.5088 57C63.6928 56.824 63.9248 56.736 64.2048 56.736C64.4848 56.736 64.7128 56.82 64.8888 56.988C65.0728 57.148 65.1648 57.352 65.1648 57.6C65.1648 57.864 65.0768 58.088 64.9008 58.272C64.7248 58.448 64.4928 58.536 64.2048 58.536ZM66.3896 66V65.052L70.3376 60.276L70.6136 60.792H66.4616V59.592H71.8136V60.54L67.8656 65.316L67.5656 64.8H71.9216V66H66.3896ZM76.2226 66.084C75.5106 66.084 74.8866 65.944 74.3506 65.664C73.8226 65.376 73.4106 64.984 73.1146 64.488C72.8266 63.992 72.6826 63.428 72.6826 62.796C72.6826 62.156 72.8226 61.592 73.1026 61.104C73.3906 60.608 73.7826 60.22 74.2786 59.94C74.7826 59.66 75.3546 59.52 75.9946 59.52C76.6186 59.52 77.1746 59.656 77.6626 59.928C78.1506 60.2 78.5346 60.584 78.8146 61.08C79.0946 61.576 79.2346 62.16 79.2346 62.832C79.2346 62.896 79.2306 62.968 79.2226 63.048C79.2226 63.128 79.2186 63.204 79.2106 63.276H73.8706V62.28H78.4186L77.8306 62.592C77.8386 62.224 77.7626 61.9 77.6026 61.62C77.4426 61.34 77.2226 61.12 76.9426 60.96C76.6706 60.8 76.3546 60.72 75.9946 60.72C75.6266 60.72 75.3026 60.8 75.0226 60.96C74.7506 61.12 74.5346 61.344 74.3746 61.632C74.2226 61.912 74.1466 62.244 74.1466 62.628V62.868C74.1466 63.252 74.2346 63.592 74.4106 63.888C74.5866 64.184 74.8346 64.412 75.1546 64.572C75.4746 64.732 75.8426 64.812 76.2586 64.812C76.6186 64.812 76.9426 64.756 77.2306 64.644C77.5186 64.532 77.7746 64.356 77.9986 64.116L78.8026 65.04C78.5146 65.376 78.1506 65.636 77.7106 65.82C77.2786 65.996 76.7826 66.084 76.2226 66.084ZM86.4038 66.084C85.6998 66.084 85.1558 65.904 84.7718 65.544C84.3878 65.176 84.1958 64.636 84.1958 63.924V58.176H85.6958V63.888C85.6958 64.192 85.7718 64.428 85.9238 64.596C86.0838 64.764 86.3038 64.848 86.5838 64.848C86.9198 64.848 87.1998 64.76 87.4238 64.584L87.8438 65.652C87.6678 65.796 87.4518 65.904 87.1958 65.976C86.9398 66.048 86.6758 66.084 86.4038 66.084ZM83.1398 60.84V59.64H87.4118V60.84H83.1398ZM91.8788 66.084C91.1668 66.084 90.5428 65.944 90.0068 65.664C89.4788 65.376 89.0668 64.984 88.7708 64.488C88.4828 63.992 88.3388 63.428 88.3388 62.796C88.3388 62.156 88.4788 61.592 88.7588 61.104C89.0468 60.608 89.4388 60.22 89.9348 59.94C90.4388 59.66 91.0108 59.52 91.6508 59.52C92.2748 59.52 92.8308 59.656 93.3188 59.928C93.8068 60.2 94.1908 60.584 94.4708 61.08C94.7508 61.576 94.8908 62.16 94.8908 62.832C94.8908 62.896 94.8868 62.968 94.8788 63.048C94.8788 63.128 94.8748 63.204 94.8668 63.276H89.5268V62.28H94.0748L93.4868 62.592C93.4948 62.224 93.4188 61.9 93.2588 61.62C93.0988 61.34 92.8788 61.12 92.5988 60.96C92.3268 60.8 92.0108 60.72 91.6508 60.72C91.2828 60.72 90.9588 60.8 90.6788 60.96C90.4068 61.12 90.1908 61.344 90.0308 61.632C89.8788 61.912 89.8028 62.244 89.8028 62.628V62.868C89.8028 63.252 89.8908 63.592 90.0668 63.888C90.2428 64.184 90.4908 64.412 90.8108 64.572C91.1308 64.732 91.4988 64.812 91.9148 64.812C92.2748 64.812 92.5988 64.756 92.8868 64.644C93.1748 64.532 93.4308 64.356 93.6548 64.116L94.4588 65.04C94.1708 65.376 93.8068 65.636 93.3668 65.82C92.9348 65.996 92.4388 66.084 91.8788 66.084ZM96.3317 66V59.592H97.7597V61.356L97.5917 60.84C97.7837 60.408 98.0837 60.08 98.4917 59.856C98.9077 59.632 99.4237 59.52 100.04 59.52V60.948C99.9757 60.932 99.9157 60.924 99.8597 60.924C99.8037 60.916 99.7477 60.912 99.6917 60.912C99.1237 60.912 98.6717 61.08 98.3357 61.416C97.9997 61.744 97.8317 62.236 97.8317 62.892V66H96.3317ZM109.4 59.52C109.912 59.52 110.364 59.62 110.756 59.82C111.156 60.02 111.468 60.328 111.692 60.744C111.916 61.152 112.028 61.68 112.028 62.328V66H110.528V62.52C110.528 61.952 110.404 61.528 110.156 61.248C109.908 60.968 109.552 60.828 109.088 60.828C108.76 60.828 108.468 60.9 108.212 61.044C107.964 61.188 107.768 61.4 107.624 61.68C107.488 61.96 107.42 62.316 107.42 62.748V66H105.92V62.52C105.92 61.952 105.796 61.528 105.548 61.248C105.3 60.968 104.944 60.828 104.48 60.828C104.152 60.828 103.86 60.9 103.604 61.044C103.356 61.188 103.16 61.4 103.016 61.68C102.88 61.96 102.812 62.316 102.812 62.748V66H101.312V59.592H102.74V61.296L102.488 60.792C102.704 60.376 103.016 60.06 103.424 59.844C103.84 59.628 104.312 59.52 104.84 59.52C105.44 59.52 105.96 59.668 106.4 59.964C106.848 60.26 107.144 60.708 107.288 61.308L106.7 61.104C106.908 60.624 107.252 60.24 107.732 59.952C108.212 59.664 108.768 59.52 109.4 59.52ZM115.925 66.084C115.389 66.084 114.873 66.016 114.377 65.88C113.889 65.736 113.501 65.564 113.213 65.364L113.789 64.224C114.077 64.408 114.421 64.56 114.821 64.68C115.221 64.8 115.621 64.86 116.021 64.86C116.493 64.86 116.833 64.796 117.041 64.668C117.257 64.54 117.365 64.368 117.365 64.152C117.365 63.976 117.293 63.844 117.149 63.756C117.005 63.66 116.817 63.588 116.585 63.54C116.353 63.492 116.093 63.448 115.805 63.408C115.525 63.368 115.241 63.316 114.953 63.252C114.673 63.18 114.417 63.08 114.185 62.952C113.953 62.816 113.765 62.636 113.621 62.412C113.477 62.188 113.405 61.892 113.405 61.524C113.405 61.116 113.521 60.764 113.753 60.468C113.985 60.164 114.309 59.932 114.725 59.772C115.149 59.604 115.649 59.52 116.225 59.52C116.657 59.52 117.093 59.568 117.533 59.664C117.973 59.76 118.337 59.896 118.625 60.072L118.049 61.212C117.745 61.028 117.437 60.904 117.125 60.84C116.821 60.768 116.517 60.732 116.213 60.732C115.757 60.732 115.417 60.8 115.193 60.936C114.977 61.072 114.869 61.244 114.869 61.452C114.869 61.644 114.941 61.788 115.085 61.884C115.229 61.98 115.417 62.056 115.649 62.112C115.881 62.168 116.137 62.216 116.417 62.256C116.705 62.288 116.989 62.34 117.269 62.412C117.549 62.484 117.805 62.584 118.037 62.712C118.277 62.832 118.469 63.004 118.613 63.228C118.757 63.452 118.829 63.744 118.829 64.104C118.829 64.504 118.709 64.852 118.469 65.148C118.237 65.444 117.905 65.676 117.473 65.844C117.041 66.004 116.525 66.084 115.925 66.084ZM119.725 67.812L120.421 65.16L120.625 66.048C120.345 66.048 120.109 65.964 119.917 65.796C119.733 65.62 119.641 65.384 119.641 65.088C119.641 64.784 119.733 64.544 119.917 64.368C120.109 64.184 120.341 64.092 120.613 64.092C120.893 64.092 121.125 64.184 121.309 64.368C121.493 64.552 121.585 64.792 121.585 65.088C121.585 65.168 121.577 65.256 121.561 65.352C121.545 65.44 121.517 65.544 121.477 65.664C121.445 65.784 121.389 65.936 121.309 66.12L120.697 67.812H119.725ZM130.315 66V64.704L130.231 64.428V62.16C130.231 61.72 130.099 61.38 129.835 61.14C129.571 60.892 129.171 60.768 128.635 60.768C128.275 60.768 127.919 60.824 127.567 60.936C127.223 61.048 126.931 61.204 126.691 61.404L126.103 60.312C126.447 60.048 126.855 59.852 127.327 59.724C127.807 59.588 128.303 59.52 128.815 59.52C129.743 59.52 130.459 59.744 130.963 60.192C131.475 60.632 131.731 61.316 131.731 62.244V66H130.315ZM128.299 66.084C127.819 66.084 127.399 66.004 127.039 65.844C126.679 65.676 126.399 65.448 126.199 65.16C126.007 64.864 125.911 64.532 125.911 64.164C125.911 63.804 125.995 63.48 126.163 63.192C126.339 62.904 126.623 62.676 127.015 62.508C127.407 62.34 127.927 62.256 128.575 62.256H130.435V63.252H128.683C128.171 63.252 127.827 63.336 127.651 63.504C127.475 63.664 127.387 63.864 127.387 64.104C127.387 64.376 127.495 64.592 127.711 64.752C127.927 64.912 128.227 64.992 128.611 64.992C128.979 64.992 129.307 64.908 129.595 64.74C129.891 64.572 130.103 64.324 130.231 63.996L130.483 64.896C130.339 65.272 130.079 65.564 129.703 65.772C129.335 65.98 128.867 66.084 128.299 66.084ZM137.292 59.52C137.804 59.52 138.26 59.62 138.66 59.82C139.068 60.02 139.388 60.328 139.62 60.744C139.852 61.152 139.968 61.68 139.968 62.328V66H138.468V62.52C138.468 61.952 138.332 61.528 138.06 61.248C137.796 60.968 137.424 60.828 136.944 60.828C136.592 60.828 136.28 60.9 136.008 61.044C135.736 61.188 135.524 61.404 135.372 61.692C135.228 61.972 135.156 62.328 135.156 62.76V66H133.656V59.592H135.084V61.32L134.832 60.792C135.056 60.384 135.38 60.072 135.804 59.856C136.236 59.632 136.732 59.52 137.292 59.52ZM144.594 66.084C143.978 66.084 143.422 65.948 142.926 65.676C142.438 65.396 142.054 65.012 141.774 64.524C141.494 64.036 141.354 63.46 141.354 62.796C141.354 62.132 141.494 61.556 141.774 61.068C142.054 60.58 142.438 60.2 142.926 59.928C143.422 59.656 143.978 59.52 144.594 59.52C145.13 59.52 145.61 59.64 146.034 59.88C146.458 60.112 146.794 60.468 147.042 60.948C147.29 61.428 147.414 62.044 147.414 62.796C147.414 63.54 147.294 64.156 147.054 64.644C146.814 65.124 146.482 65.484 146.058 65.724C145.634 65.964 145.146 66.084 144.594 66.084ZM144.774 64.8C145.134 64.8 145.454 64.72 145.734 64.56C146.022 64.4 146.25 64.168 146.418 63.864C146.594 63.56 146.682 63.204 146.682 62.796C146.682 62.38 146.594 62.024 146.418 61.728C146.25 61.424 146.022 61.192 145.734 61.032C145.454 60.872 145.134 60.792 144.774 60.792C144.414 60.792 144.09 60.872 143.802 61.032C143.522 61.192 143.294 61.424 143.118 61.728C142.95 62.024 142.866 62.38 142.866 62.796C142.866 63.204 142.95 63.56 143.118 63.864C143.294 64.168 143.522 64.4 143.802 64.56C144.09 64.72 144.414 64.8 144.774 64.8ZM146.718 66V64.488L146.778 62.784L146.658 61.08V57.096H148.146V66H146.718ZM161.525 59.52C162.037 59.52 162.489 59.62 162.881 59.82C163.281 60.02 163.593 60.328 163.817 60.744C164.041 61.152 164.153 61.68 164.153 62.328V66H162.653V62.52C162.653 61.952 162.529 61.528 162.281 61.248C162.033 60.968 161.677 60.828 161.213 60.828C160.885 60.828 160.593 60.9 160.337 61.044C160.089 61.188 159.893 61.4 159.749 61.68C159.613 61.96 159.545 62.316 159.545 62.748V66H158.045V62.52C158.045 61.952 157.921 61.528 157.673 61.248C157.425 60.968 157.069 60.828 156.605 60.828C156.277 60.828 155.985 60.9 155.729 61.044C155.481 61.188 155.285 61.4 155.141 61.68C155.005 61.96 154.937 62.316 154.937 62.748V66H153.437V59.592H154.865V61.296L154.613 60.792C154.829 60.376 155.141 60.06 155.549 59.844C155.965 59.628 156.437 59.52 156.965 59.52C157.565 59.52 158.085 59.668 158.525 59.964C158.973 60.26 159.269 60.708 159.413 61.308L158.825 61.104C159.033 60.624 159.377 60.24 159.857 59.952C160.337 59.664 160.893 59.52 161.525 59.52ZM168.962 66.084C168.306 66.084 167.722 65.944 167.21 65.664C166.698 65.376 166.294 64.984 165.998 64.488C165.702 63.992 165.554 63.428 165.554 62.796C165.554 62.156 165.702 61.592 165.998 61.104C166.294 60.608 166.698 60.22 167.21 59.94C167.722 59.66 168.306 59.52 168.962 59.52C169.626 59.52 170.214 59.66 170.726 59.94C171.246 60.22 171.65 60.604 171.938 61.092C172.234 61.58 172.382 62.148 172.382 62.796C172.382 63.428 172.234 63.992 171.938 64.488C171.65 64.984 171.246 65.376 170.726 65.664C170.214 65.944 169.626 66.084 168.962 66.084ZM168.962 64.8C169.33 64.8 169.658 64.72 169.946 64.56C170.234 64.4 170.458 64.168 170.618 63.864C170.786 63.56 170.87 63.204 170.87 62.796C170.87 62.38 170.786 62.024 170.618 61.728C170.458 61.424 170.234 61.192 169.946 61.032C169.658 60.872 169.334 60.792 168.974 60.792C168.606 60.792 168.278 60.872 167.99 61.032C167.71 61.192 167.486 61.424 167.318 61.728C167.15 62.024 167.066 62.38 167.066 62.796C167.066 63.204 167.15 63.56 167.318 63.864C167.486 64.168 167.71 64.4 167.99 64.56C168.278 64.72 168.602 64.8 168.962 64.8ZM177.452 59.52C177.964 59.52 178.42 59.62 178.82 59.82C179.228 60.02 179.548 60.328 179.78 60.744C180.012 61.152 180.128 61.68 180.128 62.328V66H178.628V62.52C178.628 61.952 178.492 61.528 178.22 61.248C177.956 60.968 177.584 60.828 177.104 60.828C176.752 60.828 176.44 60.9 176.168 61.044C175.896 61.188 175.684 61.404 175.532 61.692C175.388 61.972 175.316 62.328 175.316 62.76V66H173.816V59.592H175.244V61.32L174.992 60.792C175.216 60.384 175.54 60.072 175.964 59.856C176.396 59.632 176.892 59.52 177.452 59.52ZM182.031 66V59.592H183.531V66H182.031ZM182.787 58.536C182.507 58.536 182.275 58.448 182.091 58.272C181.915 58.096 181.827 57.884 181.827 57.636C181.827 57.38 181.915 57.168 182.091 57C182.275 56.824 182.507 56.736 182.787 56.736C183.067 56.736 183.295 56.82 183.471 56.988C183.655 57.148 183.747 57.352 183.747 57.6C183.747 57.864 183.659 58.088 183.483 58.272C183.307 58.448 183.075 58.536 182.787 58.536ZM187.912 66.084C187.208 66.084 186.664 65.904 186.28 65.544C185.896 65.176 185.704 64.636 185.704 63.924V58.176H187.204V63.888C187.204 64.192 187.28 64.428 187.432 64.596C187.592 64.764 187.812 64.848 188.092 64.848C188.428 64.848 188.708 64.76 188.932 64.584L189.352 65.652C189.176 65.796 188.96 65.904 188.704 65.976C188.448 66.048 188.184 66.084 187.912 66.084ZM184.648 60.84V59.64H188.92V60.84H184.648ZM193.255 66.084C192.599 66.084 192.015 65.944 191.503 65.664C190.991 65.376 190.587 64.984 190.291 64.488C189.995 63.992 189.847 63.428 189.847 62.796C189.847 62.156 189.995 61.592 190.291 61.104C190.587 60.608 190.991 60.22 191.503 59.94C192.015 59.66 192.599 59.52 193.255 59.52C193.919 59.52 194.507 59.66 195.019 59.94C195.539 60.22 195.943 60.604 196.231 61.092C196.527 61.58 196.675 62.148 196.675 62.796C196.675 63.428 196.527 63.992 196.231 64.488C195.943 64.984 195.539 65.376 195.019 65.664C194.507 65.944 193.919 66.084 193.255 66.084ZM193.255 64.8C193.623 64.8 193.951 64.72 194.239 64.56C194.527 64.4 194.751 64.168 194.911 63.864C195.079 63.56 195.163 63.204 195.163 62.796C195.163 62.38 195.079 62.024 194.911 61.728C194.751 61.424 194.527 61.192 194.239 61.032C193.951 60.872 193.627 60.792 193.267 60.792C192.899 60.792 192.571 60.872 192.283 61.032C192.003 61.192 191.779 61.424 191.611 61.728C191.443 62.024 191.359 62.38 191.359 62.796C191.359 63.204 191.443 63.56 191.611 63.864C191.779 64.168 192.003 64.4 192.283 64.56C192.571 64.72 192.895 64.8 193.255 64.8ZM198.109 66V59.592H199.537V61.356L199.369 60.84C199.561 60.408 199.861 60.08 200.269 59.856C200.685 59.632 201.201 59.52 201.817 59.52V60.948C201.753 60.932 201.693 60.924 201.637 60.924C201.581 60.916 201.525 60.912 201.469 60.912C200.901 60.912 200.449 61.08 200.113 61.416C199.777 61.744 199.609 62.236 199.609 62.892V66H198.109ZM210.016 66.084C209.496 66.084 209.02 65.964 208.588 65.724C208.164 65.484 207.824 65.124 207.568 64.644C207.32 64.156 207.196 63.54 207.196 62.796C207.196 62.044 207.316 61.428 207.556 60.948C207.804 60.468 208.14 60.112 208.564 59.88C208.988 59.64 209.472 59.52 210.016 59.52C210.648 59.52 211.204 59.656 211.684 59.928C212.172 60.2 212.556 60.58 212.836 61.068C213.124 61.556 213.268 62.132 213.268 62.796C213.268 63.46 213.124 64.04 212.836 64.536C212.556 65.024 212.172 65.404 211.684 65.676C211.204 65.948 210.648 66.084 210.016 66.084ZM206.464 68.328V59.592H207.892V61.104L207.844 62.808L207.964 64.512V68.328H206.464ZM209.848 64.8C210.208 64.8 210.528 64.72 210.808 64.56C211.096 64.4 211.324 64.168 211.492 63.864C211.66 63.56 211.744 63.204 211.744 62.796C211.744 62.38 211.66 62.024 211.492 61.728C211.324 61.424 211.096 61.192 210.808 61.032C210.528 60.872 210.208 60.792 209.848 60.792C209.488 60.792 209.164 60.872 208.876 61.032C208.588 61.192 208.36 61.424 208.192 61.728C208.024 62.024 207.94 62.38 207.94 62.796C207.94 63.204 208.024 63.56 208.192 63.864C208.36 64.168 208.588 64.4 208.876 64.56C209.164 64.72 209.488 64.8 209.848 64.8ZM217.703 66.084C216.991 66.084 216.367 65.944 215.831 65.664C215.303 65.376 214.891 64.984 214.595 64.488C214.307 63.992 214.163 63.428 214.163 62.796C214.163 62.156 214.303 61.592 214.583 61.104C214.871 60.608 215.263 60.22 215.759 59.94C216.263 59.66 216.835 59.52 217.475 59.52C218.099 59.52 218.655 59.656 219.143 59.928C219.631 60.2 220.015 60.584 220.295 61.08C220.575 61.576 220.715 62.16 220.715 62.832C220.715 62.896 220.711 62.968 220.703 63.048C220.703 63.128 220.699 63.204 220.691 63.276H215.351V62.28H219.899L219.311 62.592C219.319 62.224 219.243 61.9 219.083 61.62C218.923 61.34 218.703 61.12 218.423 60.96C218.151 60.8 217.835 60.72 217.475 60.72C217.107 60.72 216.783 60.8 216.503 60.96C216.231 61.12 216.015 61.344 215.855 61.632C215.703 61.912 215.627 62.244 215.627 62.628V62.868C215.627 63.252 215.715 63.592 215.891 63.888C216.067 64.184 216.315 64.412 216.635 64.572C216.955 64.732 217.323 64.812 217.739 64.812C218.099 64.812 218.423 64.756 218.711 64.644C218.999 64.532 219.255 64.356 219.479 64.116L220.283 65.04C219.995 65.376 219.631 65.636 219.191 65.82C218.759 65.996 218.263 66.084 217.703 66.084ZM222.156 66V59.592H223.584V61.356L223.416 60.84C223.608 60.408 223.908 60.08 224.316 59.856C224.732 59.632 225.248 59.52 225.864 59.52V60.948C225.8 60.932 225.74 60.924 225.684 60.924C225.628 60.916 225.572 60.912 225.516 60.912C224.948 60.912 224.496 61.08 224.16 61.416C223.824 61.744 223.656 62.236 223.656 62.892V66H222.156ZM227.399 66V59.232C227.399 58.56 227.595 58.024 227.987 57.624C228.387 57.216 228.955 57.012 229.691 57.012C229.955 57.012 230.203 57.04 230.435 57.096C230.675 57.152 230.875 57.24 231.035 57.36L230.627 58.488C230.515 58.4 230.387 58.336 230.243 58.296C230.099 58.248 229.951 58.224 229.799 58.224C229.487 58.224 229.251 58.312 229.091 58.488C228.931 58.656 228.851 58.912 228.851 59.256V59.976L228.899 60.648V66H227.399ZM226.343 60.84V59.64H230.615V60.84H226.343ZM234.411 66.084C233.755 66.084 233.171 65.944 232.659 65.664C232.147 65.376 231.743 64.984 231.447 64.488C231.151 63.992 231.003 63.428 231.003 62.796C231.003 62.156 231.151 61.592 231.447 61.104C231.743 60.608 232.147 60.22 232.659 59.94C233.171 59.66 233.755 59.52 234.411 59.52C235.075 59.52 235.663 59.66 236.175 59.94C236.695 60.22 237.099 60.604 237.387 61.092C237.683 61.58 237.831 62.148 237.831 62.796C237.831 63.428 237.683 63.992 237.387 64.488C237.099 64.984 236.695 65.376 236.175 65.664C235.663 65.944 235.075 66.084 234.411 66.084ZM234.411 64.8C234.779 64.8 235.107 64.72 235.395 64.56C235.683 64.4 235.907 64.168 236.067 63.864C236.235 63.56 236.319 63.204 236.319 62.796C236.319 62.38 236.235 62.024 236.067 61.728C235.907 61.424 235.683 61.192 235.395 61.032C235.107 60.872 234.783 60.792 234.423 60.792C234.055 60.792 233.727 60.872 233.439 61.032C233.159 61.192 232.935 61.424 232.767 61.728C232.599 62.024 232.515 62.38 232.515 62.796C232.515 63.204 232.599 63.56 232.767 63.864C232.935 64.168 233.159 64.4 233.439 64.56C233.727 64.72 234.051 64.8 234.411 64.8ZM239.265 66V59.592H240.693V61.356L240.525 60.84C240.717 60.408 241.017 60.08 241.425 59.856C241.841 59.632 242.357 59.52 242.973 59.52V60.948C242.909 60.932 242.849 60.924 242.793 60.924C242.737 60.916 242.681 60.912 242.625 60.912C242.057 60.912 241.605 61.08 241.269 61.416C240.933 61.744 240.765 62.236 240.765 62.892V66H239.265ZM252.334 59.52C252.846 59.52 253.298 59.62 253.69 59.82C254.09 60.02 254.402 60.328 254.626 60.744C254.85 61.152 254.962 61.68 254.962 62.328V66H253.462V62.52C253.462 61.952 253.338 61.528 253.09 61.248C252.842 60.968 252.486 60.828 252.022 60.828C251.694 60.828 251.402 60.9 251.146 61.044C250.898 61.188 250.702 61.4 250.558 61.68C250.422 61.96 250.354 62.316 250.354 62.748V66H248.854V62.52C248.854 61.952 248.73 61.528 248.482 61.248C248.234 60.968 247.878 60.828 247.414 60.828C247.086 60.828 246.794 60.9 246.538 61.044C246.29 61.188 246.094 61.4 245.95 61.68C245.814 61.96 245.746 62.316 245.746 62.748V66H244.246V59.592H245.674V61.296L245.422 60.792C245.638 60.376 245.95 60.06 246.358 59.844C246.774 59.628 247.246 59.52 247.774 59.52C248.374 59.52 248.894 59.668 249.334 59.964C249.782 60.26 250.078 60.708 250.222 61.308L249.634 61.104C249.842 60.624 250.186 60.24 250.666 59.952C251.146 59.664 251.702 59.52 252.334 59.52ZM260.827 66V64.704L260.743 64.428V62.16C260.743 61.72 260.611 61.38 260.347 61.14C260.083 60.892 259.683 60.768 259.147 60.768C258.787 60.768 258.431 60.824 258.079 60.936C257.735 61.048 257.443 61.204 257.203 61.404L256.615 60.312C256.959 60.048 257.367 59.852 257.839 59.724C258.319 59.588 258.815 59.52 259.327 59.52C260.255 59.52 260.971 59.744 261.475 60.192C261.987 60.632 262.243 61.316 262.243 62.244V66H260.827ZM258.811 66.084C258.331 66.084 257.911 66.004 257.551 65.844C257.191 65.676 256.911 65.448 256.711 65.16C256.519 64.864 256.423 64.532 256.423 64.164C256.423 63.804 256.507 63.48 256.675 63.192C256.851 62.904 257.135 62.676 257.527 62.508C257.919 62.34 258.439 62.256 259.087 62.256H260.947V63.252H259.195C258.683 63.252 258.339 63.336 258.163 63.504C257.987 63.664 257.899 63.864 257.899 64.104C257.899 64.376 258.007 64.592 258.223 64.752C258.439 64.912 258.739 64.992 259.123 64.992C259.491 64.992 259.819 64.908 260.107 64.74C260.403 64.572 260.615 64.324 260.743 63.996L260.995 64.896C260.851 65.272 260.591 65.564 260.215 65.772C259.847 65.98 259.379 66.084 258.811 66.084ZM267.804 59.52C268.316 59.52 268.772 59.62 269.172 59.82C269.58 60.02 269.9 60.328 270.132 60.744C270.364 61.152 270.48 61.68 270.48 62.328V66H268.98V62.52C268.98 61.952 268.844 61.528 268.572 61.248C268.308 60.968 267.936 60.828 267.456 60.828C267.104 60.828 266.792 60.9 266.52 61.044C266.248 61.188 266.036 61.404 265.884 61.692C265.74 61.972 265.668 62.328 265.668 62.76V66H264.168V59.592H265.596V61.32L265.344 60.792C265.568 60.384 265.892 60.072 266.316 59.856C266.748 59.632 267.244 59.52 267.804 59.52ZM275.334 66.084C274.662 66.084 274.062 65.944 273.534 65.664C273.014 65.376 272.606 64.984 272.31 64.488C272.014 63.992 271.866 63.428 271.866 62.796C271.866 62.156 272.014 61.592 272.31 61.104C272.606 60.608 273.014 60.22 273.534 59.94C274.062 59.66 274.662 59.52 275.334 59.52C275.958 59.52 276.506 59.648 276.978 59.904C277.458 60.152 277.822 60.52 278.07 61.008L276.918 61.68C276.726 61.376 276.49 61.152 276.21 61.008C275.938 60.864 275.642 60.792 275.322 60.792C274.954 60.792 274.622 60.872 274.326 61.032C274.03 61.192 273.798 61.424 273.63 61.728C273.462 62.024 273.378 62.38 273.378 62.796C273.378 63.212 273.462 63.572 273.63 63.876C273.798 64.172 274.03 64.4 274.326 64.56C274.622 64.72 274.954 64.8 275.322 64.8C275.642 64.8 275.938 64.728 276.21 64.584C276.49 64.44 276.726 64.216 276.918 63.912L278.07 64.584C277.822 65.064 277.458 65.436 276.978 65.7C276.506 65.956 275.958 66.084 275.334 66.084ZM282.285 66.084C281.573 66.084 280.949 65.944 280.413 65.664C279.885 65.376 279.473 64.984 279.177 64.488C278.889 63.992 278.745 63.428 278.745 62.796C278.745 62.156 278.885 61.592 279.165 61.104C279.453 60.608 279.845 60.22 280.341 59.94C280.845 59.66 281.417 59.52 282.057 59.52C282.681 59.52 283.237 59.656 283.725 59.928C284.213 60.2 284.597 60.584 284.877 61.08C285.157 61.576 285.297 62.16 285.297 62.832C285.297 62.896 285.293 62.968 285.285 63.048C285.285 63.128 285.281 63.204 285.273 63.276H279.933V62.28H284.481L283.893 62.592C283.901 62.224 283.825 61.9 283.665 61.62C283.505 61.34 283.285 61.12 283.005 60.96C282.733 60.8 282.417 60.72 282.057 60.72C281.689 60.72 281.365 60.8 281.085 60.96C280.813 61.12 280.597 61.344 280.437 61.632C280.285 61.912 280.209 62.244 280.209 62.628V62.868C280.209 63.252 280.297 63.592 280.473 63.888C280.649 64.184 280.897 64.412 281.217 64.572C281.537 64.732 281.905 64.812 282.321 64.812C282.681 64.812 283.005 64.756 283.293 64.644C283.581 64.532 283.837 64.356 284.061 64.116L284.865 65.04C284.577 65.376 284.213 65.636 283.773 65.82C283.341 65.996 282.845 66.084 282.285 66.084ZM290.258 66V59.232C290.258 58.56 290.454 58.024 290.846 57.624C291.246 57.216 291.814 57.012 292.55 57.012C292.814 57.012 293.062 57.04 293.294 57.096C293.534 57.152 293.734 57.24 293.894 57.36L293.486 58.488C293.374 58.4 293.246 58.336 293.102 58.296C292.958 58.248 292.81 58.224 292.658 58.224C292.346 58.224 292.11 58.312 291.95 58.488C291.79 58.656 291.71 58.912 291.71 59.256V59.976L291.758 60.648V66H290.258ZM289.202 60.84V59.64H293.474V60.84H289.202ZM297.27 66.084C296.614 66.084 296.03 65.944 295.518 65.664C295.006 65.376 294.602 64.984 294.306 64.488C294.01 63.992 293.862 63.428 293.862 62.796C293.862 62.156 294.01 61.592 294.306 61.104C294.602 60.608 295.006 60.22 295.518 59.94C296.03 59.66 296.614 59.52 297.27 59.52C297.934 59.52 298.522 59.66 299.034 59.94C299.554 60.22 299.958 60.604 300.246 61.092C300.542 61.58 300.69 62.148 300.69 62.796C300.69 63.428 300.542 63.992 300.246 64.488C299.958 64.984 299.554 65.376 299.034 65.664C298.522 65.944 297.934 66.084 297.27 66.084ZM297.27 64.8C297.638 64.8 297.966 64.72 298.254 64.56C298.542 64.4 298.766 64.168 298.926 63.864C299.094 63.56 299.178 63.204 299.178 62.796C299.178 62.38 299.094 62.024 298.926 61.728C298.766 61.424 298.542 61.192 298.254 61.032C297.966 60.872 297.642 60.792 297.282 60.792C296.914 60.792 296.586 60.872 296.298 61.032C296.018 61.192 295.794 61.424 295.626 61.728C295.458 62.024 295.374 62.38 295.374 62.796C295.374 63.204 295.458 63.56 295.626 63.864C295.794 64.168 296.018 64.4 296.298 64.56C296.586 64.72 296.91 64.8 297.27 64.8ZM302.125 66V59.592H303.553V61.356L303.385 60.84C303.577 60.408 303.877 60.08 304.285 59.856C304.701 59.632 305.217 59.52 305.833 59.52V60.948C305.769 60.932 305.709 60.924 305.653 60.924C305.597 60.916 305.541 60.912 305.485 60.912C304.917 60.912 304.465 61.08 304.129 61.416C303.793 61.744 303.625 62.236 303.625 62.892V66H302.125ZM10.924 81.084C10.252 81.084 9.652 80.944 9.124 80.664C8.604 80.376 8.196 79.984 7.9 79.488C7.604 78.992 7.456 78.428 7.456 77.796C7.456 77.156 7.604 76.592 7.9 76.104C8.196 75.608 8.604 75.22 9.124 74.94C9.652 74.66 10.252 74.52 10.924 74.52C11.548 74.52 12.096 74.648 12.568 74.904C13.048 75.152 13.412 75.52 13.66 76.008L12.508 76.68C12.316 76.376 12.08 76.152 11.8 76.008C11.528 75.864 11.232 75.792 10.912 75.792C10.544 75.792 10.212 75.872 9.916 76.032C9.62 76.192 9.388 76.424 9.22 76.728C9.052 77.024 8.968 77.38 8.968 77.796C8.968 78.212 9.052 78.572 9.22 78.876C9.388 79.172 9.62 79.4 9.916 79.56C10.212 79.72 10.544 79.8 10.912 79.8C11.232 79.8 11.528 79.728 11.8 79.584C12.08 79.44 12.316 79.216 12.508 78.912L13.66 79.584C13.412 80.064 13.048 80.436 12.568 80.7C12.096 80.956 11.548 81.084 10.924 81.084ZM17.7429 81.084C17.0869 81.084 16.5029 80.944 15.9909 80.664C15.4789 80.376 15.0749 79.984 14.7789 79.488C14.4829 78.992 14.3349 78.428 14.3349 77.796C14.3349 77.156 14.4829 76.592 14.7789 76.104C15.0749 75.608 15.4789 75.22 15.9909 74.94C16.5029 74.66 17.0869 74.52 17.7429 74.52C18.4069 74.52 18.9949 74.66 19.5069 74.94C20.0269 75.22 20.4309 75.604 20.7189 76.092C21.0149 76.58 21.1629 77.148 21.1629 77.796C21.1629 78.428 21.0149 78.992 20.7189 79.488C20.4309 79.984 20.0269 80.376 19.5069 80.664C18.9949 80.944 18.4069 81.084 17.7429 81.084ZM17.7429 79.8C18.1109 79.8 18.4389 79.72 18.7269 79.56C19.0149 79.4 19.2389 79.168 19.3989 78.864C19.5669 78.56 19.6509 78.204 19.6509 77.796C19.6509 77.38 19.5669 77.024 19.3989 76.728C19.2389 76.424 19.0149 76.192 18.7269 76.032C18.4389 75.872 18.1149 75.792 17.7549 75.792C17.3869 75.792 17.0589 75.872 16.7709 76.032C16.4909 76.192 16.2669 76.424 16.0989 76.728C15.9309 77.024 15.8469 77.38 15.8469 77.796C15.8469 78.204 15.9309 78.56 16.0989 78.864C16.2669 79.168 16.4909 79.4 16.7709 79.56C17.0589 79.72 17.3829 79.8 17.7429 79.8ZM24.5773 81.084C24.0413 81.084 23.5253 81.016 23.0293 80.88C22.5413 80.736 22.1533 80.564 21.8653 80.364L22.4413 79.224C22.7293 79.408 23.0733 79.56 23.4733 79.68C23.8733 79.8 24.2733 79.86 24.6733 79.86C25.1453 79.86 25.4853 79.796 25.6933 79.668C25.9093 79.54 26.0173 79.368 26.0173 79.152C26.0173 78.976 25.9453 78.844 25.8013 78.756C25.6573 78.66 25.4693 78.588 25.2373 78.54C25.0053 78.492 24.7453 78.448 24.4573 78.408C24.1773 78.368 23.8933 78.316 23.6053 78.252C23.3253 78.18 23.0693 78.08 22.8373 77.952C22.6053 77.816 22.4173 77.636 22.2733 77.412C22.1293 77.188 22.0573 76.892 22.0573 76.524C22.0573 76.116 22.1733 75.764 22.4053 75.468C22.6373 75.164 22.9613 74.932 23.3773 74.772C23.8013 74.604 24.3013 74.52 24.8773 74.52C25.3093 74.52 25.7453 74.568 26.1853 74.664C26.6253 74.76 26.9893 74.896 27.2773 75.072L26.7013 76.212C26.3973 76.028 26.0893 75.904 25.7773 75.84C25.4733 75.768 25.1693 75.732 24.8653 75.732C24.4093 75.732 24.0693 75.8 23.8453 75.936C23.6293 76.072 23.5213 76.244 23.5213 76.452C23.5213 76.644 23.5933 76.788 23.7373 76.884C23.8813 76.98 24.0693 77.056 24.3013 77.112C24.5333 77.168 24.7893 77.216 25.0693 77.256C25.3573 77.288 25.6413 77.34 25.9213 77.412C26.2013 77.484 26.4573 77.584 26.6893 77.712C26.9293 77.832 27.1213 78.004 27.2653 78.228C27.4093 78.452 27.4813 78.744 27.4813 79.104C27.4813 79.504 27.3613 79.852 27.1213 80.148C26.8893 80.444 26.5573 80.676 26.1253 80.844C25.6933 81.004 25.1773 81.084 24.5773 81.084ZM31.1851 81.084C30.4811 81.084 29.9371 80.904 29.5531 80.544C29.1691 80.176 28.9771 79.636 28.9771 78.924V73.176H30.4771V78.888C30.4771 79.192 30.5531 79.428 30.7051 79.596C30.8651 79.764 31.0851 79.848 31.3651 79.848C31.7011 79.848 31.9811 79.76 32.2051 79.584L32.6251 80.652C32.4491 80.796 32.2331 80.904 31.9771 80.976C31.7211 81.048 31.4571 81.084 31.1851 81.084ZM27.9211 75.84V74.64H32.1931V75.84H27.9211ZM39.1554 81.084C38.6194 81.084 38.1034 81.016 37.6074 80.88C37.1194 80.736 36.7314 80.564 36.4434 80.364L37.0194 79.224C37.3074 79.408 37.6514 79.56 38.0514 79.68C38.4514 79.8 38.8514 79.86 39.2514 79.86C39.7234 79.86 40.0634 79.796 40.2714 79.668C40.4874 79.54 40.5954 79.368 40.5954 79.152C40.5954 78.976 40.5234 78.844 40.3794 78.756C40.2354 78.66 40.0474 78.588 39.8154 78.54C39.5834 78.492 39.3234 78.448 39.0354 78.408C38.7554 78.368 38.4714 78.316 38.1834 78.252C37.9034 78.18 37.6474 78.08 37.4154 77.952C37.1834 77.816 36.9954 77.636 36.8514 77.412C36.7074 77.188 36.6354 76.892 36.6354 76.524C36.6354 76.116 36.7514 75.764 36.9834 75.468C37.2154 75.164 37.5394 74.932 37.9554 74.772C38.3794 74.604 38.8794 74.52 39.4554 74.52C39.8874 74.52 40.3234 74.568 40.7634 74.664C41.2034 74.76 41.5674 74.896 41.8554 75.072L41.2794 76.212C40.9754 76.028 40.6674 75.904 40.3554 75.84C40.0514 75.768 39.7474 75.732 39.4434 75.732C38.9874 75.732 38.6474 75.8 38.4234 75.936C38.2074 76.072 38.0994 76.244 38.0994 76.452C38.0994 76.644 38.1714 76.788 38.3154 76.884C38.4594 76.98 38.6474 77.056 38.8794 77.112C39.1114 77.168 39.3674 77.216 39.6474 77.256C39.9354 77.288 40.2194 77.34 40.4994 77.412C40.7794 77.484 41.0354 77.584 41.2674 77.712C41.5074 77.832 41.6994 78.004 41.8434 78.228C41.9874 78.452 42.0594 78.744 42.0594 79.104C42.0594 79.504 41.9394 79.852 41.6994 80.148C41.4674 80.444 41.1354 80.676 40.7034 80.844C40.2714 81.004 39.7554 81.084 39.1554 81.084ZM47.2992 81V79.704L47.2152 79.428V77.16C47.2152 76.72 47.0832 76.38 46.8192 76.14C46.5552 75.892 46.1552 75.768 45.6192 75.768C45.2592 75.768 44.9032 75.824 44.5512 75.936C44.2072 76.048 43.9152 76.204 43.6752 76.404L43.0872 75.312C43.4312 75.048 43.8392 74.852 44.3112 74.724C44.7912 74.588 45.2872 74.52 45.7992 74.52C46.7272 74.52 47.4432 74.744 47.9472 75.192C48.4592 75.632 48.7152 76.316 48.7152 77.244V81H47.2992ZM45.2832 81.084C44.8032 81.084 44.3832 81.004 44.0232 80.844C43.6632 80.676 43.3832 80.448 43.1832 80.16C42.9912 79.864 42.8952 79.532 42.8952 79.164C42.8952 78.804 42.9792 78.48 43.1472 78.192C43.3232 77.904 43.6072 77.676 43.9992 77.508C44.3912 77.34 44.9112 77.256 45.5592 77.256H47.4192V78.252H45.6672C45.1552 78.252 44.8112 78.336 44.6352 78.504C44.4592 78.664 44.3712 78.864 44.3712 79.104C44.3712 79.376 44.4792 79.592 44.6952 79.752C44.9112 79.912 45.2112 79.992 45.5952 79.992C45.9632 79.992 46.2912 79.908 46.5792 79.74C46.8752 79.572 47.0872 79.324 47.2152 78.996L47.4672 79.896C47.3232 80.272 47.0632 80.564 46.6872 80.772C46.3192 80.98 45.8512 81.084 45.2832 81.084ZM52.2271 81L49.4791 74.592H51.0391L53.4031 80.244H52.6351L55.0831 74.592H56.5231L53.7751 81H52.2271ZM57.4606 81V74.592H58.9606V81H57.4606ZM58.2166 73.536C57.9366 73.536 57.7046 73.448 57.5206 73.272C57.3446 73.096 57.2566 72.884 57.2566 72.636C57.2566 72.38 57.3446 72.168 57.5206 72C57.7046 71.824 57.9366 71.736 58.2166 71.736C58.4966 71.736 58.7246 71.82 58.9006 71.988C59.0846 72.148 59.1766 72.352 59.1766 72.6C59.1766 72.864 59.0886 73.088 58.9126 73.272C58.7366 73.448 58.5046 73.536 58.2166 73.536ZM64.5653 74.52C65.0773 74.52 65.5333 74.62 65.9333 74.82C66.3413 75.02 66.6613 75.328 66.8933 75.744C67.1253 76.152 67.2413 76.68 67.2413 77.328V81H65.7413V77.52C65.7413 76.952 65.6053 76.528 65.3333 76.248C65.0693 75.968 64.6973 75.828 64.2173 75.828C63.8653 75.828 63.5533 75.9 63.2813 76.044C63.0093 76.188 62.7973 76.404 62.6453 76.692C62.5013 76.972 62.4293 77.328 62.4293 77.76V81H60.9293V74.592H62.3573V76.32L62.1053 75.792C62.3293 75.384 62.6533 75.072 63.0773 74.856C63.5093 74.632 64.0053 74.52 64.5653 74.52ZM72.0599 83.412C71.4679 83.412 70.8879 83.332 70.3199 83.172C69.7599 83.02 69.2999 82.796 68.9399 82.5L69.6119 81.372C69.8919 81.604 70.2439 81.788 70.6679 81.924C71.0999 82.068 71.5359 82.14 71.9759 82.14C72.6799 82.14 73.1959 81.976 73.5239 81.648C73.8519 81.328 74.0159 80.844 74.0159 80.196V79.056L74.1359 77.604L74.0879 76.152V74.592H75.5159V80.028C75.5159 81.188 75.2199 82.04 74.6279 82.584C74.0359 83.136 73.1799 83.412 72.0599 83.412ZM71.8679 80.712C71.2599 80.712 70.7079 80.584 70.2119 80.328C69.7239 80.064 69.3359 79.7 69.0479 79.236C68.7679 78.772 68.6279 78.228 68.6279 77.604C68.6279 76.988 68.7679 76.448 69.0479 75.984C69.3359 75.52 69.7239 75.16 70.2119 74.904C70.7079 74.648 71.2599 74.52 71.8679 74.52C72.4119 74.52 72.8999 74.628 73.3319 74.844C73.7639 75.06 74.1079 75.396 74.3639 75.852C74.6279 76.308 74.7599 76.892 74.7599 77.604C74.7599 78.316 74.6279 78.904 74.3639 79.368C74.1079 79.824 73.7639 80.164 73.3319 80.388C72.8999 80.604 72.4119 80.712 71.8679 80.712ZM72.0959 79.44C72.4719 79.44 72.8079 79.364 73.1039 79.212C73.3999 79.052 73.6279 78.836 73.7879 78.564C73.9559 78.284 74.0399 77.964 74.0399 77.604C74.0399 77.244 73.9559 76.928 73.7879 76.656C73.6279 76.376 73.3999 76.164 73.1039 76.02C72.8079 75.868 72.4719 75.792 72.0959 75.792C71.7199 75.792 71.3799 75.868 71.0759 76.02C70.7799 76.164 70.5479 76.376 70.3799 76.656C70.2199 76.928 70.1399 77.244 70.1399 77.604C70.1399 77.964 70.2199 78.284 70.3799 78.564C70.5479 78.836 70.7799 79.052 71.0759 79.212C71.3799 79.364 71.7199 79.44 72.0959 79.44ZM79.4679 81.084C78.9319 81.084 78.4159 81.016 77.9199 80.88C77.4319 80.736 77.0439 80.564 76.7559 80.364L77.3319 79.224C77.6199 79.408 77.9639 79.56 78.3639 79.68C78.7639 79.8 79.1639 79.86 79.5639 79.86C80.0359 79.86 80.3759 79.796 80.5839 79.668C80.7999 79.54 80.9079 79.368 80.9079 79.152C80.9079 78.976 80.8359 78.844 80.6919 78.756C80.5479 78.66 80.3599 78.588 80.1279 78.54C79.8959 78.492 79.6359 78.448 79.3479 78.408C79.0679 78.368 78.7839 78.316 78.4959 78.252C78.2159 78.18 77.9599 78.08 77.7279 77.952C77.4959 77.816 77.3079 77.636 77.1639 77.412C77.0199 77.188 76.9479 76.892 76.9479 76.524C76.9479 76.116 77.0639 75.764 77.2959 75.468C77.5279 75.164 77.8519 74.932 78.2679 74.772C78.6919 74.604 79.1919 74.52 79.7679 74.52C80.1999 74.52 80.6359 74.568 81.0759 74.664C81.5159 74.76 81.8799 74.896 82.1679 75.072L81.5919 76.212C81.2879 76.028 80.9799 75.904 80.6679 75.84C80.3639 75.768 80.0599 75.732 79.7559 75.732C79.2999 75.732 78.9599 75.8 78.7359 75.936C78.5199 76.072 78.4119 76.244 78.4119 76.452C78.4119 76.644 78.4839 76.788 78.6279 76.884C78.7719 76.98 78.9599 77.056 79.1919 77.112C79.4239 77.168 79.6799 77.216 79.9599 77.256C80.2479 77.288 80.5319 77.34 80.8119 77.412C81.0919 77.484 81.3479 77.584 81.5799 77.712C81.8199 77.832 82.0119 78.004 82.1559 78.228C82.2999 78.452 82.3719 78.744 82.3719 79.104C82.3719 79.504 82.2519 79.852 82.0119 80.148C81.7799 80.444 81.4479 80.676 81.0159 80.844C80.5839 81.004 80.0679 81.084 79.4679 81.084ZM84.1437 81.084C83.8717 81.084 83.6397 80.992 83.4477 80.808C83.2557 80.616 83.1597 80.376 83.1597 80.088C83.1597 79.784 83.2557 79.544 83.4477 79.368C83.6397 79.184 83.8717 79.092 84.1437 79.092C84.4157 79.092 84.6477 79.184 84.8397 79.368C85.0317 79.544 85.1277 79.784 85.1277 80.088C85.1277 80.376 85.0317 80.616 84.8397 80.808C84.6477 80.992 84.4157 81.084 84.1437 81.084Z" fill="white"/>
</svg>
