<svg width="513" height="114" viewBox="0 0 513 114" fill="none" xmlns="http://www.w3.org/2000/svg">
<rect width="513" height="114" rx="12" fill="white"/>
<path d="M94.26 31V22.6H95.46V31H94.26ZM101.203 24.58C101.723 24.58 102.179 24.68 102.571 24.88C102.971 25.08 103.283 25.384 103.507 25.792C103.731 26.2 103.843 26.716 103.843 27.34V31H102.691V27.472C102.691 26.856 102.539 26.392 102.235 26.08C101.939 25.768 101.519 25.612 100.975 25.612C100.567 25.612 100.211 25.692 99.9068 25.852C99.6028 26.012 99.3668 26.248 99.1988 26.56C99.0388 26.872 98.9588 27.26 98.9588 27.724V31H97.8068V24.64H98.9108V26.356L98.7308 25.9C98.9388 25.484 99.2588 25.16 99.6908 24.928C100.123 24.696 100.627 24.58 101.203 24.58ZM107.799 31.072C107.271 31.072 106.767 31 106.287 30.856C105.815 30.712 105.443 30.536 105.171 30.328L105.651 29.416C105.923 29.6 106.259 29.756 106.659 29.884C107.059 30.012 107.467 30.076 107.883 30.076C108.419 30.076 108.803 30 109.035 29.848C109.275 29.696 109.395 29.484 109.395 29.212C109.395 29.012 109.323 28.856 109.179 28.744C109.035 28.632 108.843 28.548 108.603 28.492C108.371 28.436 108.111 28.388 107.823 28.348C107.535 28.3 107.247 28.244 106.959 28.18C106.671 28.108 106.407 28.012 106.167 27.892C105.927 27.764 105.735 27.592 105.591 27.376C105.447 27.152 105.375 26.856 105.375 26.488C105.375 26.104 105.483 25.768 105.699 25.48C105.915 25.192 106.219 24.972 106.611 24.82C107.011 24.66 107.483 24.58 108.027 24.58C108.443 24.58 108.863 24.632 109.287 24.736C109.719 24.832 110.071 24.972 110.343 25.156L109.851 26.068C109.563 25.876 109.263 25.744 108.951 25.672C108.639 25.6 108.327 25.564 108.015 25.564C107.511 25.564 107.135 25.648 106.887 25.816C106.639 25.976 106.515 26.184 106.515 26.44C106.515 26.656 106.587 26.824 106.731 26.944C106.883 27.056 107.075 27.144 107.307 27.208C107.547 27.272 107.811 27.328 108.099 27.376C108.387 27.416 108.675 27.472 108.963 27.544C109.251 27.608 109.511 27.7 109.743 27.82C109.983 27.94 110.175 28.108 110.319 28.324C110.471 28.54 110.547 28.828 110.547 29.188C110.547 29.572 110.435 29.904 110.211 30.184C109.987 30.464 109.671 30.684 109.263 30.844C108.855 30.996 108.367 31.072 107.799 31.072ZM111.987 31V24.64H113.139V31H111.987ZM112.563 23.416C112.339 23.416 112.151 23.344 111.999 23.2C111.855 23.056 111.783 22.88 111.783 22.672C111.783 22.456 111.855 22.276 111.999 22.132C112.151 21.988 112.339 21.916 112.563 21.916C112.787 21.916 112.971 21.988 113.115 22.132C113.267 22.268 113.343 22.44 113.343 22.648C113.343 22.864 113.271 23.048 113.127 23.2C112.983 23.344 112.795 23.416 112.563 23.416ZM118.122 33.4C117.538 33.4 116.97 33.316 116.418 33.148C115.874 32.988 115.43 32.756 115.086 32.452L115.638 31.564C115.934 31.82 116.298 32.02 116.73 32.164C117.162 32.316 117.614 32.392 118.086 32.392C118.838 32.392 119.39 32.216 119.742 31.864C120.094 31.512 120.27 30.976 120.27 30.256V28.912L120.39 27.652L120.33 26.38V24.64H121.422V30.136C121.422 31.256 121.142 32.08 120.582 32.608C120.022 33.136 119.202 33.4 118.122 33.4ZM117.978 30.736C117.362 30.736 116.81 30.608 116.322 30.352C115.842 30.088 115.458 29.724 115.17 29.26C114.89 28.796 114.75 28.26 114.75 27.652C114.75 27.036 114.89 26.5 115.17 26.044C115.458 25.58 115.842 25.22 116.322 24.964C116.81 24.708 117.362 24.58 117.978 24.58C118.522 24.58 119.018 24.692 119.466 24.916C119.914 25.132 120.27 25.468 120.534 25.924C120.806 26.38 120.942 26.956 120.942 27.652C120.942 28.34 120.806 28.912 120.534 29.368C120.27 29.824 119.914 30.168 119.466 30.4C119.018 30.624 118.522 30.736 117.978 30.736ZM118.11 29.728C118.534 29.728 118.91 29.64 119.238 29.464C119.566 29.288 119.822 29.044 120.006 28.732C120.198 28.42 120.294 28.06 120.294 27.652C120.294 27.244 120.198 26.884 120.006 26.572C119.822 26.26 119.566 26.02 119.238 25.852C118.91 25.676 118.534 25.588 118.11 25.588C117.686 25.588 117.306 25.676 116.97 25.852C116.642 26.02 116.382 26.26 116.19 26.572C116.006 26.884 115.914 27.244 115.914 27.652C115.914 28.06 116.006 28.42 116.19 28.732C116.382 29.044 116.642 29.288 116.97 29.464C117.306 29.64 117.686 29.728 118.11 29.728ZM127.019 24.58C127.539 24.58 127.995 24.68 128.387 24.88C128.787 25.08 129.099 25.384 129.323 25.792C129.547 26.2 129.659 26.716 129.659 27.34V31H128.507V27.472C128.507 26.856 128.355 26.392 128.051 26.08C127.755 25.768 127.335 25.612 126.791 25.612C126.383 25.612 126.027 25.692 125.723 25.852C125.419 26.012 125.183 26.248 125.015 26.56C124.855 26.872 124.775 27.26 124.775 27.724V31H123.623V22.096H124.775V26.356L124.547 25.9C124.755 25.484 125.075 25.16 125.507 24.928C125.939 24.696 126.443 24.58 127.019 24.58ZM133.975 31.072C133.335 31.072 132.839 30.9 132.487 30.556C132.135 30.212 131.959 29.72 131.959 29.08V23.248H133.111V29.032C133.111 29.376 133.195 29.64 133.363 29.824C133.539 30.008 133.787 30.1 134.107 30.1C134.467 30.1 134.767 30 135.007 29.8L135.367 30.628C135.191 30.78 134.979 30.892 134.731 30.964C134.491 31.036 134.239 31.072 133.975 31.072ZM130.879 25.588V24.64H134.935V25.588H130.879Z" fill="#3B76EF"/>
<path d="M99.27 49.15C98.47 49.15 97.725 49.02 97.035 48.76C96.355 48.49 95.76 48.115 95.25 47.635C94.75 47.145 94.36 46.57 94.08 45.91C93.8 45.25 93.66 44.53 93.66 43.75C93.66 42.97 93.8 42.25 94.08 41.59C94.36 40.93 94.755 40.36 95.265 39.88C95.775 39.39 96.37 39.015 97.05 38.755C97.73 38.485 98.475 38.35 99.285 38.35C100.145 38.35 100.93 38.5 101.64 38.8C102.35 39.09 102.95 39.525 103.44 40.105L102.18 41.29C101.8 40.88 101.375 40.575 100.905 40.375C100.435 40.165 99.925 40.06 99.375 40.06C98.825 40.06 98.32 40.15 97.86 40.33C97.41 40.51 97.015 40.765 96.675 41.095C96.345 41.425 96.085 41.815 95.895 42.265C95.715 42.715 95.625 43.21 95.625 43.75C95.625 44.29 95.715 44.785 95.895 45.235C96.085 45.685 96.345 46.075 96.675 46.405C97.015 46.735 97.41 46.99 97.86 47.17C98.32 47.35 98.825 47.44 99.375 47.44C99.925 47.44 100.435 47.34 100.905 47.14C101.375 46.93 101.8 46.615 102.18 46.195L103.44 47.395C102.95 47.965 102.35 48.4 101.64 48.7C100.93 49 100.14 49.15 99.27 49.15ZM105.128 49V40.99H106.913V43.195L106.703 42.55C106.943 42.01 107.318 41.6 107.828 41.32C108.348 41.04 108.993 40.9 109.763 40.9V42.685C109.683 42.665 109.608 42.655 109.538 42.655C109.468 42.645 109.398 42.64 109.328 42.64C108.618 42.64 108.053 42.85 107.633 43.27C107.213 43.68 107.003 44.295 107.003 45.115V49H105.128ZM111.354 49V40.99H113.229V49H111.354ZM112.299 39.67C111.949 39.67 111.659 39.56 111.429 39.34C111.209 39.12 111.099 38.855 111.099 38.545C111.099 38.225 111.209 37.96 111.429 37.75C111.659 37.53 111.949 37.42 112.299 37.42C112.649 37.42 112.934 37.525 113.154 37.735C113.384 37.935 113.499 38.19 113.499 38.5C113.499 38.83 113.389 39.11 113.169 39.34C112.949 39.56 112.659 39.67 112.299 39.67ZM118.705 49.105C117.825 49.105 117.145 48.88 116.665 48.43C116.185 47.97 115.945 47.295 115.945 46.405V39.22H117.82V46.36C117.82 46.74 117.915 47.035 118.105 47.245C118.305 47.455 118.58 47.56 118.93 47.56C119.35 47.56 119.7 47.45 119.98 47.23L120.505 48.565C120.285 48.745 120.015 48.88 119.695 48.97C119.375 49.06 119.045 49.105 118.705 49.105ZM114.625 42.55V41.05H119.965V42.55H114.625ZM122.047 49V40.99H123.922V49H122.047ZM122.992 39.67C122.642 39.67 122.352 39.56 122.122 39.34C121.902 39.12 121.792 38.855 121.792 38.545C121.792 38.225 121.902 37.96 122.122 37.75C122.352 37.53 122.642 37.42 122.992 37.42C123.342 37.42 123.627 37.525 123.847 37.735C124.077 37.935 124.192 38.19 124.192 38.5C124.192 38.83 124.082 39.11 123.862 39.34C123.642 39.56 123.352 39.67 122.992 39.67ZM130.058 49.105C129.218 49.105 128.468 48.93 127.808 48.58C127.158 48.22 126.648 47.73 126.278 47.11C125.908 46.49 125.723 45.785 125.723 44.995C125.723 44.195 125.908 43.49 126.278 42.88C126.648 42.26 127.158 41.775 127.808 41.425C128.468 41.075 129.218 40.9 130.058 40.9C130.838 40.9 131.523 41.06 132.113 41.38C132.713 41.69 133.168 42.15 133.478 42.76L132.038 43.6C131.798 43.22 131.503 42.94 131.153 42.76C130.813 42.58 130.443 42.49 130.043 42.49C129.583 42.49 129.168 42.59 128.798 42.79C128.428 42.99 128.138 43.28 127.928 43.66C127.718 44.03 127.613 44.475 127.613 44.995C127.613 45.515 127.718 45.965 127.928 46.345C128.138 46.715 128.428 47 128.798 47.2C129.168 47.4 129.583 47.5 130.043 47.5C130.443 47.5 130.813 47.41 131.153 47.23C131.503 47.05 131.798 46.77 132.038 46.39L133.478 47.23C133.168 47.83 132.713 48.295 132.113 48.625C131.523 48.945 130.838 49.105 130.058 49.105ZM140.034 49V47.38L139.929 47.035V44.2C139.929 43.65 139.764 43.225 139.434 42.925C139.104 42.615 138.604 42.46 137.934 42.46C137.484 42.46 137.039 42.53 136.599 42.67C136.169 42.81 135.804 43.005 135.504 43.255L134.769 41.89C135.199 41.56 135.709 41.315 136.299 41.155C136.899 40.985 137.519 40.9 138.159 40.9C139.319 40.9 140.214 41.18 140.844 41.74C141.484 42.29 141.804 43.145 141.804 44.305V49H140.034ZM137.514 49.105C136.914 49.105 136.389 49.005 135.939 48.805C135.489 48.595 135.139 48.31 134.889 47.95C134.649 47.58 134.529 47.165 134.529 46.705C134.529 46.255 134.634 45.85 134.844 45.49C135.064 45.13 135.419 44.845 135.909 44.635C136.399 44.425 137.049 44.32 137.859 44.32H140.184V45.565H137.994C137.354 45.565 136.924 45.67 136.704 45.88C136.484 46.08 136.374 46.33 136.374 46.63C136.374 46.97 136.509 47.24 136.779 47.44C137.049 47.64 137.424 47.74 137.904 47.74C138.364 47.74 138.774 47.635 139.134 47.425C139.504 47.215 139.769 46.905 139.929 46.495L140.244 47.62C140.064 48.09 139.739 48.455 139.269 48.715C138.809 48.975 138.224 49.105 137.514 49.105ZM144.21 49V37.87H146.085V49H144.21ZM162.802 40.9C163.442 40.9 164.007 41.025 164.497 41.275C164.997 41.525 165.387 41.91 165.667 42.43C165.947 42.94 166.087 43.6 166.087 44.41V49H164.212V44.65C164.212 43.94 164.057 43.41 163.747 43.06C163.437 42.71 162.992 42.535 162.412 42.535C162.002 42.535 161.637 42.625 161.317 42.805C161.007 42.985 160.762 43.25 160.582 43.6C160.412 43.95 160.327 44.395 160.327 44.935V49H158.452V44.65C158.452 43.94 158.297 43.41 157.987 43.06C157.677 42.71 157.232 42.535 156.652 42.535C156.242 42.535 155.877 42.625 155.557 42.805C155.247 42.985 155.002 43.25 154.822 43.6C154.652 43.95 154.567 44.395 154.567 44.935V49H152.692V40.99H154.477V43.12L154.162 42.49C154.432 41.97 154.822 41.575 155.332 41.305C155.852 41.035 156.442 40.9 157.102 40.9C157.852 40.9 158.502 41.085 159.052 41.455C159.612 41.825 159.982 42.385 160.162 43.135L159.427 42.88C159.687 42.28 160.117 41.8 160.717 41.44C161.317 41.08 162.012 40.9 162.802 40.9ZM173.418 49V47.38L173.313 47.035V44.2C173.313 43.65 173.148 43.225 172.818 42.925C172.488 42.615 171.988 42.46 171.318 42.46C170.868 42.46 170.423 42.53 169.983 42.67C169.553 42.81 169.188 43.005 168.888 43.255L168.153 41.89C168.583 41.56 169.093 41.315 169.683 41.155C170.283 40.985 170.903 40.9 171.543 40.9C172.703 40.9 173.598 41.18 174.228 41.74C174.868 42.29 175.188 43.145 175.188 44.305V49H173.418ZM170.898 49.105C170.298 49.105 169.773 49.005 169.323 48.805C168.873 48.595 168.523 48.31 168.273 47.95C168.033 47.58 167.913 47.165 167.913 46.705C167.913 46.255 168.018 45.85 168.228 45.49C168.448 45.13 168.803 44.845 169.293 44.635C169.783 44.425 170.433 44.32 171.243 44.32H173.568V45.565H171.378C170.738 45.565 170.308 45.67 170.088 45.88C169.868 46.08 169.758 46.33 169.758 46.63C169.758 46.97 169.893 47.24 170.163 47.44C170.433 47.64 170.808 47.74 171.288 47.74C171.748 47.74 172.158 47.635 172.518 47.425C172.888 47.215 173.153 46.905 173.313 46.495L173.628 47.62C173.448 48.09 173.123 48.455 172.653 48.715C172.193 48.975 171.608 49.105 170.898 49.105ZM181.284 49.105C180.444 49.105 179.694 48.93 179.034 48.58C178.384 48.22 177.874 47.73 177.504 47.11C177.134 46.49 176.949 45.785 176.949 44.995C176.949 44.195 177.134 43.49 177.504 42.88C177.874 42.26 178.384 41.775 179.034 41.425C179.694 41.075 180.444 40.9 181.284 40.9C182.064 40.9 182.749 41.06 183.339 41.38C183.939 41.69 184.394 42.15 184.704 42.76L183.264 43.6C183.024 43.22 182.729 42.94 182.379 42.76C182.039 42.58 181.669 42.49 181.269 42.49C180.809 42.49 180.394 42.59 180.024 42.79C179.654 42.99 179.364 43.28 179.154 43.66C178.944 44.03 178.839 44.475 178.839 44.995C178.839 45.515 178.944 45.965 179.154 46.345C179.364 46.715 179.654 47 180.024 47.2C180.394 47.4 180.809 47.5 181.269 47.5C181.669 47.5 182.039 47.41 182.379 47.23C182.729 47.05 183.024 46.77 183.264 46.39L184.704 47.23C184.394 47.83 183.939 48.295 183.339 48.625C182.749 48.945 182.064 49.105 181.284 49.105ZM190.796 40.9C191.436 40.9 192.006 41.025 192.506 41.275C193.016 41.525 193.416 41.91 193.706 42.43C193.996 42.94 194.141 43.6 194.141 44.41V49H192.266V44.65C192.266 43.94 192.096 43.41 191.756 43.06C191.426 42.71 190.961 42.535 190.361 42.535C189.921 42.535 189.531 42.625 189.191 42.805C188.851 42.985 188.586 43.255 188.396 43.615C188.216 43.965 188.126 44.41 188.126 44.95V49H186.251V37.87H188.126V43.15L187.721 42.49C188.001 41.98 188.406 41.59 188.936 41.32C189.476 41.04 190.096 40.9 190.796 40.9ZM196.52 49V40.99H198.395V49H196.52ZM197.465 39.67C197.115 39.67 196.825 39.56 196.595 39.34C196.375 39.12 196.265 38.855 196.265 38.545C196.265 38.225 196.375 37.96 196.595 37.75C196.825 37.53 197.115 37.42 197.465 37.42C197.815 37.42 198.1 37.525 198.32 37.735C198.55 37.935 198.665 38.19 198.665 38.5C198.665 38.83 198.555 39.11 198.335 39.34C198.115 39.56 197.825 39.67 197.465 39.67ZM205.401 40.9C206.041 40.9 206.611 41.025 207.111 41.275C207.621 41.525 208.021 41.91 208.311 42.43C208.601 42.94 208.746 43.6 208.746 44.41V49H206.871V44.65C206.871 43.94 206.701 43.41 206.361 43.06C206.031 42.71 205.566 42.535 204.966 42.535C204.526 42.535 204.136 42.625 203.796 42.805C203.456 42.985 203.191 43.255 203.001 43.615C202.821 43.965 202.731 44.41 202.731 44.95V49H200.856V40.99H202.641V43.15L202.326 42.49C202.606 41.98 203.011 41.59 203.541 41.32C204.081 41.04 204.701 40.9 205.401 40.9ZM214.904 49.105C214.014 49.105 213.234 48.93 212.564 48.58C211.904 48.22 211.389 47.73 211.019 47.11C210.659 46.49 210.479 45.785 210.479 44.995C210.479 44.195 210.654 43.49 211.004 42.88C211.364 42.26 211.854 41.775 212.474 41.425C213.104 41.075 213.819 40.9 214.619 40.9C215.399 40.9 216.094 41.07 216.704 41.41C217.314 41.75 217.794 42.23 218.144 42.85C218.494 43.47 218.669 44.2 218.669 45.04C218.669 45.12 218.664 45.21 218.654 45.31C218.654 45.41 218.649 45.505 218.639 45.595H211.964V44.35H217.649L216.914 44.74C216.924 44.28 216.829 43.875 216.629 43.525C216.429 43.175 216.154 42.9 215.804 42.7C215.464 42.5 215.069 42.4 214.619 42.4C214.159 42.4 213.754 42.5 213.404 42.7C213.064 42.9 212.794 43.18 212.594 43.54C212.404 43.89 212.309 44.305 212.309 44.785V45.085C212.309 45.565 212.419 45.99 212.639 46.36C212.859 46.73 213.169 47.015 213.569 47.215C213.969 47.415 214.429 47.515 214.949 47.515C215.399 47.515 215.804 47.445 216.164 47.305C216.524 47.165 216.844 46.945 217.124 46.645L218.129 47.8C217.769 48.22 217.314 48.545 216.764 48.775C216.224 48.995 215.604 49.105 214.904 49.105ZM224.616 49V40.99H226.491V49H224.616ZM225.561 39.67C225.211 39.67 224.921 39.56 224.691 39.34C224.471 39.12 224.361 38.855 224.361 38.545C224.361 38.225 224.471 37.96 224.691 37.75C224.921 37.53 225.211 37.42 225.561 37.42C225.911 37.42 226.196 37.525 226.416 37.735C226.646 37.935 226.761 38.19 226.761 38.5C226.761 38.83 226.651 39.11 226.431 39.34C226.211 39.56 225.921 39.67 225.561 39.67ZM233.497 40.9C234.137 40.9 234.707 41.025 235.207 41.275C235.717 41.525 236.117 41.91 236.407 42.43C236.697 42.94 236.842 43.6 236.842 44.41V49H234.967V44.65C234.967 43.94 234.797 43.41 234.457 43.06C234.127 42.71 233.662 42.535 233.062 42.535C232.622 42.535 232.232 42.625 231.892 42.805C231.552 42.985 231.287 43.255 231.097 43.615C230.917 43.965 230.827 44.41 230.827 44.95V49H228.952V40.99H230.737V43.15L230.422 42.49C230.702 41.98 231.107 41.59 231.637 41.32C232.177 41.04 232.797 40.9 233.497 40.9ZM242.061 49L246.786 38.5H248.706L253.446 49H251.406L247.341 39.535H248.121L244.071 49H242.061ZM244.236 46.57L244.761 45.04H250.431L250.956 46.57H244.236ZM264.711 40.9C265.351 40.9 265.916 41.025 266.406 41.275C266.906 41.525 267.296 41.91 267.576 42.43C267.856 42.94 267.996 43.6 267.996 44.41V49H266.121V44.65C266.121 43.94 265.966 43.41 265.656 43.06C265.346 42.71 264.901 42.535 264.321 42.535C263.911 42.535 263.546 42.625 263.226 42.805C262.916 42.985 262.671 43.25 262.491 43.6C262.321 43.95 262.236 44.395 262.236 44.935V49H260.361V44.65C260.361 43.94 260.206 43.41 259.896 43.06C259.586 42.71 259.141 42.535 258.561 42.535C258.151 42.535 257.786 42.625 257.466 42.805C257.156 42.985 256.911 43.25 256.731 43.6C256.561 43.95 256.476 44.395 256.476 44.935V49H254.601V40.99H256.386V43.12L256.071 42.49C256.341 41.97 256.731 41.575 257.241 41.305C257.761 41.035 258.351 40.9 259.011 40.9C259.761 40.9 260.411 41.085 260.961 41.455C261.521 41.825 261.891 42.385 262.071 43.135L261.336 42.88C261.596 42.28 262.026 41.8 262.626 41.44C263.226 41.08 263.921 40.9 264.711 40.9ZM272.867 49.105C272.197 49.105 271.552 49.02 270.932 48.85C270.322 48.67 269.837 48.455 269.477 48.205L270.197 46.78C270.557 47.01 270.987 47.2 271.487 47.35C271.987 47.5 272.487 47.575 272.987 47.575C273.577 47.575 274.002 47.495 274.262 47.335C274.532 47.175 274.667 46.96 274.667 46.69C274.667 46.47 274.577 46.305 274.397 46.195C274.217 46.075 273.982 45.985 273.692 45.925C273.402 45.865 273.077 45.81 272.717 45.76C272.367 45.71 272.012 45.645 271.652 45.565C271.302 45.475 270.982 45.35 270.692 45.19C270.402 45.02 270.167 44.795 269.987 44.515C269.807 44.235 269.717 43.865 269.717 43.405C269.717 42.895 269.862 42.455 270.152 42.085C270.442 41.705 270.847 41.415 271.367 41.215C271.897 41.005 272.522 40.9 273.242 40.9C273.782 40.9 274.327 40.96 274.877 41.08C275.427 41.2 275.882 41.37 276.242 41.59L275.522 43.015C275.142 42.785 274.757 42.63 274.367 42.55C273.987 42.46 273.607 42.415 273.227 42.415C272.657 42.415 272.232 42.5 271.952 42.67C271.682 42.84 271.547 43.055 271.547 43.315C271.547 43.555 271.637 43.735 271.817 43.855C271.997 43.975 272.232 44.07 272.522 44.14C272.812 44.21 273.132 44.27 273.482 44.32C273.842 44.36 274.197 44.425 274.547 44.515C274.897 44.605 275.217 44.73 275.507 44.89C275.807 45.04 276.047 45.255 276.227 45.535C276.407 45.815 276.497 46.18 276.497 46.63C276.497 47.13 276.347 47.565 276.047 47.935C275.757 48.305 275.342 48.595 274.802 48.805C274.262 49.005 273.617 49.105 272.867 49.105ZM281.127 49.105C280.247 49.105 279.567 48.88 279.087 48.43C278.607 47.97 278.367 47.295 278.367 46.405V39.22H280.242V46.36C280.242 46.74 280.337 47.035 280.527 47.245C280.727 47.455 281.002 47.56 281.352 47.56C281.772 47.56 282.122 47.45 282.402 47.23L282.927 48.565C282.707 48.745 282.437 48.88 282.117 48.97C281.797 49.06 281.467 49.105 281.127 49.105ZM277.047 42.55V41.05H282.387V42.55H277.047ZM287.971 49.105C287.081 49.105 286.301 48.93 285.631 48.58C284.971 48.22 284.456 47.73 284.086 47.11C283.726 46.49 283.546 45.785 283.546 44.995C283.546 44.195 283.721 43.49 284.071 42.88C284.431 42.26 284.921 41.775 285.541 41.425C286.171 41.075 286.886 40.9 287.686 40.9C288.466 40.9 289.161 41.07 289.771 41.41C290.381 41.75 290.861 42.23 291.211 42.85C291.561 43.47 291.736 44.2 291.736 45.04C291.736 45.12 291.731 45.21 291.721 45.31C291.721 45.41 291.716 45.505 291.706 45.595H285.031V44.35H290.716L289.981 44.74C289.991 44.28 289.896 43.875 289.696 43.525C289.496 43.175 289.221 42.9 288.871 42.7C288.531 42.5 288.136 42.4 287.686 42.4C287.226 42.4 286.821 42.5 286.471 42.7C286.131 42.9 285.861 43.18 285.661 43.54C285.471 43.89 285.376 44.305 285.376 44.785V45.085C285.376 45.565 285.486 45.99 285.706 46.36C285.926 46.73 286.236 47.015 286.636 47.215C287.036 47.415 287.496 47.515 288.016 47.515C288.466 47.515 288.871 47.445 289.231 47.305C289.591 47.165 289.911 46.945 290.191 46.645L291.196 47.8C290.836 48.22 290.381 48.545 289.831 48.775C289.291 48.995 288.671 49.105 287.971 49.105ZM293.537 49V40.99H295.322V43.195L295.112 42.55C295.352 42.01 295.727 41.6 296.237 41.32C296.757 41.04 297.402 40.9 298.172 40.9V42.685C298.092 42.665 298.017 42.655 297.947 42.655C297.877 42.645 297.807 42.64 297.737 42.64C297.027 42.64 296.462 42.85 296.042 43.27C295.622 43.68 295.412 44.295 295.412 45.115V49H293.537ZM303.079 49.105C302.309 49.105 301.614 48.935 300.994 48.595C300.384 48.245 299.904 47.765 299.554 47.155C299.204 46.545 299.029 45.825 299.029 44.995C299.029 44.165 299.204 43.445 299.554 42.835C299.904 42.225 300.384 41.75 300.994 41.41C301.614 41.07 302.309 40.9 303.079 40.9C303.749 40.9 304.349 41.05 304.879 41.35C305.409 41.64 305.829 42.085 306.139 42.685C306.449 43.285 306.604 44.055 306.604 44.995C306.604 45.925 306.454 46.695 306.154 47.305C305.854 47.905 305.439 48.355 304.909 48.655C304.379 48.955 303.769 49.105 303.079 49.105ZM303.304 47.5C303.754 47.5 304.154 47.4 304.504 47.2C304.864 47 305.149 46.71 305.359 46.33C305.579 45.95 305.689 45.505 305.689 44.995C305.689 44.475 305.579 44.03 305.359 43.66C305.149 43.28 304.864 42.99 304.504 42.79C304.154 42.59 303.754 42.49 303.304 42.49C302.854 42.49 302.449 42.59 302.089 42.79C301.739 42.99 301.454 43.28 301.234 43.66C301.024 44.03 300.919 44.475 300.919 44.995C300.919 45.505 301.024 45.95 301.234 46.33C301.454 46.71 301.739 47 302.089 47.2C302.449 47.4 302.854 47.5 303.304 47.5ZM305.734 49V47.11L305.809 44.98L305.659 42.85V37.87H307.519V49H305.734ZM314.922 49V47.38L314.817 47.035V44.2C314.817 43.65 314.652 43.225 314.322 42.925C313.992 42.615 313.492 42.46 312.822 42.46C312.372 42.46 311.927 42.53 311.487 42.67C311.057 42.81 310.692 43.005 310.392 43.255L309.657 41.89C310.087 41.56 310.597 41.315 311.187 41.155C311.787 40.985 312.407 40.9 313.047 40.9C314.207 40.9 315.102 41.18 315.732 41.74C316.372 42.29 316.692 43.145 316.692 44.305V49H314.922ZM312.402 49.105C311.802 49.105 311.277 49.005 310.827 48.805C310.377 48.595 310.027 48.31 309.777 47.95C309.537 47.58 309.417 47.165 309.417 46.705C309.417 46.255 309.522 45.85 309.732 45.49C309.952 45.13 310.307 44.845 310.797 44.635C311.287 44.425 311.937 44.32 312.747 44.32H315.072V45.565H312.882C312.242 45.565 311.812 45.67 311.592 45.88C311.372 46.08 311.262 46.33 311.262 46.63C311.262 46.97 311.397 47.24 311.667 47.44C311.937 47.64 312.312 47.74 312.792 47.74C313.252 47.74 313.662 47.635 314.022 47.425C314.392 47.215 314.657 46.905 314.817 46.495L315.132 47.62C314.952 48.09 314.627 48.455 314.157 48.715C313.697 48.975 313.112 49.105 312.402 49.105ZM329.208 40.9C329.848 40.9 330.413 41.025 330.903 41.275C331.403 41.525 331.793 41.91 332.073 42.43C332.353 42.94 332.493 43.6 332.493 44.41V49H330.618V44.65C330.618 43.94 330.463 43.41 330.153 43.06C329.843 42.71 329.398 42.535 328.818 42.535C328.408 42.535 328.043 42.625 327.723 42.805C327.413 42.985 327.168 43.25 326.988 43.6C326.818 43.95 326.733 44.395 326.733 44.935V49H324.858V44.65C324.858 43.94 324.703 43.41 324.393 43.06C324.083 42.71 323.638 42.535 323.058 42.535C322.648 42.535 322.283 42.625 321.963 42.805C321.653 42.985 321.408 43.25 321.228 43.6C321.058 43.95 320.973 44.395 320.973 44.935V49H319.098V40.99H320.883V43.12L320.568 42.49C320.838 41.97 321.228 41.575 321.738 41.305C322.258 41.035 322.848 40.9 323.508 40.9C324.258 40.9 324.908 41.085 325.458 41.455C326.018 41.825 326.388 42.385 326.568 43.135L325.833 42.88C326.093 42.28 326.523 41.8 327.123 41.44C327.723 41.08 328.418 40.9 329.208 40.9ZM339.29 49V40.54C339.29 39.7 339.535 39.03 340.025 38.53C340.525 38.02 341.235 37.765 342.155 37.765C342.485 37.765 342.795 37.8 343.085 37.87C343.385 37.94 343.635 38.05 343.835 38.2L343.325 39.61C343.185 39.5 343.025 39.42 342.845 39.37C342.665 39.31 342.48 39.28 342.29 39.28C341.9 39.28 341.605 39.39 341.405 39.61C341.205 39.82 341.105 40.14 341.105 40.57V41.47L341.165 42.31V49H339.29ZM337.97 42.55V41.05H343.31V42.55H337.97ZM349.36 49V47.38L349.255 47.035V44.2C349.255 43.65 349.09 43.225 348.76 42.925C348.43 42.615 347.93 42.46 347.26 42.46C346.81 42.46 346.365 42.53 345.925 42.67C345.495 42.81 345.13 43.005 344.83 43.255L344.095 41.89C344.525 41.56 345.035 41.315 345.625 41.155C346.225 40.985 346.845 40.9 347.485 40.9C348.645 40.9 349.54 41.18 350.17 41.74C350.81 42.29 351.13 43.145 351.13 44.305V49H349.36ZM346.84 49.105C346.24 49.105 345.715 49.005 345.265 48.805C344.815 48.595 344.465 48.31 344.215 47.95C343.975 47.58 343.855 47.165 343.855 46.705C343.855 46.255 343.96 45.85 344.17 45.49C344.39 45.13 344.745 44.845 345.235 44.635C345.725 44.425 346.375 44.32 347.185 44.32H349.51V45.565H347.32C346.68 45.565 346.25 45.67 346.03 45.88C345.81 46.08 345.7 46.33 345.7 46.63C345.7 46.97 345.835 47.24 346.105 47.44C346.375 47.64 346.75 47.74 347.23 47.74C347.69 47.74 348.1 47.635 348.46 47.425C348.83 47.215 349.095 46.905 349.255 46.495L349.57 47.62C349.39 48.09 349.065 48.455 348.595 48.715C348.135 48.975 347.55 49.105 346.84 49.105ZM357.226 49.105C356.386 49.105 355.636 48.93 354.976 48.58C354.326 48.22 353.816 47.73 353.446 47.11C353.076 46.49 352.891 45.785 352.891 44.995C352.891 44.195 353.076 43.49 353.446 42.88C353.816 42.26 354.326 41.775 354.976 41.425C355.636 41.075 356.386 40.9 357.226 40.9C358.006 40.9 358.691 41.06 359.281 41.38C359.881 41.69 360.336 42.15 360.646 42.76L359.206 43.6C358.966 43.22 358.671 42.94 358.321 42.76C357.981 42.58 357.611 42.49 357.211 42.49C356.751 42.49 356.336 42.59 355.966 42.79C355.596 42.99 355.306 43.28 355.096 43.66C354.886 44.03 354.781 44.475 354.781 44.995C354.781 45.515 354.886 45.965 355.096 46.345C355.306 46.715 355.596 47 355.966 47.2C356.336 47.4 356.751 47.5 357.211 47.5C357.611 47.5 357.981 47.41 358.321 47.23C358.671 47.05 358.966 46.77 359.206 46.39L360.646 47.23C360.336 47.83 359.881 48.295 359.281 48.625C358.691 48.945 358.006 49.105 357.226 49.105ZM362.194 49V40.99H364.069V49H362.194ZM363.139 39.67C362.789 39.67 362.499 39.56 362.269 39.34C362.049 39.12 361.939 38.855 361.939 38.545C361.939 38.225 362.049 37.96 362.269 37.75C362.499 37.53 362.789 37.42 363.139 37.42C363.489 37.42 363.774 37.525 363.994 37.735C364.224 37.935 364.339 38.19 364.339 38.5C364.339 38.83 364.229 39.11 364.009 39.34C363.789 39.56 363.499 39.67 363.139 39.67ZM366.53 49V37.87H368.405V49H366.53ZM370.866 49V40.99H372.741V49H370.866ZM371.811 39.67C371.461 39.67 371.171 39.56 370.941 39.34C370.721 39.12 370.611 38.855 370.611 38.545C370.611 38.225 370.721 37.96 370.941 37.75C371.171 37.53 371.461 37.42 371.811 37.42C372.161 37.42 372.446 37.525 372.666 37.735C372.896 37.935 373.011 38.19 373.011 38.5C373.011 38.83 372.901 39.11 372.681 39.34C372.461 39.56 372.171 39.67 371.811 39.67ZM378.217 49.105C377.337 49.105 376.657 48.88 376.177 48.43C375.697 47.97 375.457 47.295 375.457 46.405V39.22H377.332V46.36C377.332 46.74 377.427 47.035 377.617 47.245C377.817 47.455 378.092 47.56 378.442 47.56C378.862 47.56 379.212 47.45 379.492 47.23L380.017 48.565C379.797 48.745 379.527 48.88 379.207 48.97C378.887 49.06 378.557 49.105 378.217 49.105ZM374.137 42.55V41.05H379.477V42.55H374.137ZM382.073 52.015C381.683 52.015 381.293 51.95 380.903 51.82C380.513 51.69 380.188 51.51 379.928 51.28L380.678 49.9C380.868 50.07 381.083 50.205 381.323 50.305C381.563 50.405 381.808 50.455 382.058 50.455C382.398 50.455 382.673 50.37 382.883 50.2C383.093 50.03 383.288 49.745 383.468 49.345L383.933 48.295L384.083 48.07L387.113 40.99H388.913L385.163 49.645C384.913 50.245 384.633 50.72 384.323 51.07C384.023 51.42 383.683 51.665 383.303 51.805C382.933 51.945 382.523 52.015 382.073 52.015ZM383.723 49.285L380.108 40.99H382.058L384.998 47.905L383.723 49.285ZM398.775 40.9C399.415 40.9 399.985 41.025 400.485 41.275C400.995 41.525 401.395 41.91 401.685 42.43C401.975 42.94 402.12 43.6 402.12 44.41V49H400.245V44.65C400.245 43.94 400.075 43.41 399.735 43.06C399.405 42.71 398.94 42.535 398.34 42.535C397.9 42.535 397.51 42.625 397.17 42.805C396.83 42.985 396.565 43.255 396.375 43.615C396.195 43.965 396.105 44.41 396.105 44.95V49H394.23V40.99H396.015V43.15L395.7 42.49C395.98 41.98 396.385 41.59 396.915 41.32C397.455 41.04 398.075 40.9 398.775 40.9ZM408.278 49.105C407.388 49.105 406.608 48.93 405.938 48.58C405.278 48.22 404.763 47.73 404.393 47.11C404.033 46.49 403.853 45.785 403.853 44.995C403.853 44.195 404.028 43.49 404.378 42.88C404.738 42.26 405.228 41.775 405.848 41.425C406.478 41.075 407.193 40.9 407.993 40.9C408.773 40.9 409.468 41.07 410.078 41.41C410.688 41.75 411.168 42.23 411.518 42.85C411.868 43.47 412.043 44.2 412.043 45.04C412.043 45.12 412.038 45.21 412.028 45.31C412.028 45.41 412.023 45.505 412.013 45.595H405.338V44.35H411.023L410.288 44.74C410.298 44.28 410.203 43.875 410.003 43.525C409.803 43.175 409.528 42.9 409.178 42.7C408.838 42.5 408.443 42.4 407.993 42.4C407.533 42.4 407.128 42.5 406.778 42.7C406.438 42.9 406.168 43.18 405.968 43.54C405.778 43.89 405.683 44.305 405.683 44.785V45.085C405.683 45.565 405.793 45.99 406.013 46.36C406.233 46.73 406.543 47.015 406.943 47.215C407.343 47.415 407.803 47.515 408.323 47.515C408.773 47.515 409.178 47.445 409.538 47.305C409.898 47.165 410.218 46.945 410.498 46.645L411.503 47.8C411.143 48.22 410.688 48.545 410.138 48.775C409.598 48.995 408.978 49.105 408.278 49.105ZM417.609 49.105C416.719 49.105 415.939 48.93 415.269 48.58C414.609 48.22 414.094 47.73 413.724 47.11C413.364 46.49 413.184 45.785 413.184 44.995C413.184 44.195 413.359 43.49 413.709 42.88C414.069 42.26 414.559 41.775 415.179 41.425C415.809 41.075 416.524 40.9 417.324 40.9C418.104 40.9 418.799 41.07 419.409 41.41C420.019 41.75 420.499 42.23 420.849 42.85C421.199 43.47 421.374 44.2 421.374 45.04C421.374 45.12 421.369 45.21 421.359 45.31C421.359 45.41 421.354 45.505 421.344 45.595H414.669V44.35H420.354L419.619 44.74C419.629 44.28 419.534 43.875 419.334 43.525C419.134 43.175 418.859 42.9 418.509 42.7C418.169 42.5 417.774 42.4 417.324 42.4C416.864 42.4 416.459 42.5 416.109 42.7C415.769 42.9 415.499 43.18 415.299 43.54C415.109 43.89 415.014 44.305 415.014 44.785V45.085C415.014 45.565 415.124 45.99 415.344 46.36C415.564 46.73 415.874 47.015 416.274 47.215C416.674 47.415 417.134 47.515 417.654 47.515C418.104 47.515 418.509 47.445 418.869 47.305C419.229 47.165 419.549 46.945 419.829 46.645L420.834 47.8C420.474 48.22 420.019 48.545 419.469 48.775C418.929 48.995 418.309 49.105 417.609 49.105ZM426.565 49.105C425.795 49.105 425.1 48.935 424.48 48.595C423.87 48.245 423.39 47.765 423.04 47.155C422.69 46.545 422.515 45.825 422.515 44.995C422.515 44.165 422.69 43.445 423.04 42.835C423.39 42.225 423.87 41.75 424.48 41.41C425.1 41.07 425.795 40.9 426.565 40.9C427.235 40.9 427.835 41.05 428.365 41.35C428.895 41.64 429.315 42.085 429.625 42.685C429.935 43.285 430.09 44.055 430.09 44.995C430.09 45.925 429.94 46.695 429.64 47.305C429.34 47.905 428.925 48.355 428.395 48.655C427.865 48.955 427.255 49.105 426.565 49.105ZM426.79 47.5C427.24 47.5 427.64 47.4 427.99 47.2C428.35 47 428.635 46.71 428.845 46.33C429.065 45.95 429.175 45.505 429.175 44.995C429.175 44.475 429.065 44.03 428.845 43.66C428.635 43.28 428.35 42.99 427.99 42.79C427.64 42.59 427.24 42.49 426.79 42.49C426.34 42.49 425.935 42.59 425.575 42.79C425.225 42.99 424.94 43.28 424.72 43.66C424.51 44.03 424.405 44.475 424.405 44.995C424.405 45.505 424.51 45.95 424.72 46.33C424.94 46.71 425.225 47 425.575 47.2C425.935 47.4 426.34 47.5 426.79 47.5ZM429.22 49V47.11L429.295 44.98L429.145 42.85V37.87H431.005V49H429.22ZM435.948 49.105C435.278 49.105 434.633 49.02 434.013 48.85C433.403 48.67 432.918 48.455 432.558 48.205L433.278 46.78C433.638 47.01 434.068 47.2 434.568 47.35C435.068 47.5 435.568 47.575 436.068 47.575C436.658 47.575 437.083 47.495 437.343 47.335C437.613 47.175 437.748 46.96 437.748 46.69C437.748 46.47 437.658 46.305 437.478 46.195C437.298 46.075 437.063 45.985 436.773 45.925C436.483 45.865 436.158 45.81 435.798 45.76C435.448 45.71 435.093 45.645 434.733 45.565C434.383 45.475 434.063 45.35 433.773 45.19C433.483 45.02 433.248 44.795 433.068 44.515C432.888 44.235 432.798 43.865 432.798 43.405C432.798 42.895 432.943 42.455 433.233 42.085C433.523 41.705 433.928 41.415 434.448 41.215C434.978 41.005 435.603 40.9 436.323 40.9C436.863 40.9 437.408 40.96 437.958 41.08C438.508 41.2 438.963 41.37 439.323 41.59L438.603 43.015C438.223 42.785 437.838 42.63 437.448 42.55C437.068 42.46 436.688 42.415 436.308 42.415C435.738 42.415 435.313 42.5 435.033 42.67C434.763 42.84 434.628 43.055 434.628 43.315C434.628 43.555 434.718 43.735 434.898 43.855C435.078 43.975 435.313 44.07 435.603 44.14C435.893 44.21 436.213 44.27 436.563 44.32C436.923 44.36 437.278 44.425 437.628 44.515C437.978 44.605 438.298 44.73 438.588 44.89C438.888 45.04 439.128 45.255 439.308 45.535C439.488 45.815 439.578 46.18 439.578 46.63C439.578 47.13 439.428 47.565 439.128 47.935C438.838 48.305 438.423 48.595 437.883 48.805C437.343 49.005 436.698 49.105 435.948 49.105ZM104.34 58.9C104.98 58.9 105.545 59.025 106.035 59.275C106.535 59.525 106.925 59.91 107.205 60.43C107.485 60.94 107.625 61.6 107.625 62.41V67H105.75V62.65C105.75 61.94 105.595 61.41 105.285 61.06C104.975 60.71 104.53 60.535 103.95 60.535C103.54 60.535 103.175 60.625 102.855 60.805C102.545 60.985 102.3 61.25 102.12 61.6C101.95 61.95 101.865 62.395 101.865 62.935V67H99.99V62.65C99.99 61.94 99.835 61.41 99.525 61.06C99.215 60.71 98.77 60.535 98.19 60.535C97.78 60.535 97.415 60.625 97.095 60.805C96.785 60.985 96.54 61.25 96.36 61.6C96.19 61.95 96.105 62.395 96.105 62.935V67H94.23V58.99H96.015V61.12L95.7 60.49C95.97 59.97 96.36 59.575 96.87 59.305C97.39 59.035 97.98 58.9 98.64 58.9C99.39 58.9 100.04 59.085 100.59 59.455C101.15 59.825 101.52 60.385 101.7 61.135L100.965 60.88C101.225 60.28 101.655 59.8 102.255 59.44C102.855 59.08 103.55 58.9 104.34 58.9ZM114.956 67V65.38L114.851 65.035V62.2C114.851 61.65 114.686 61.225 114.356 60.925C114.026 60.615 113.526 60.46 112.856 60.46C112.406 60.46 111.961 60.53 111.521 60.67C111.091 60.81 110.726 61.005 110.426 61.255L109.691 59.89C110.121 59.56 110.631 59.315 111.221 59.155C111.821 58.985 112.441 58.9 113.081 58.9C114.241 58.9 115.136 59.18 115.766 59.74C116.406 60.29 116.726 61.145 116.726 62.305V67H114.956ZM112.436 67.105C111.836 67.105 111.311 67.005 110.861 66.805C110.411 66.595 110.061 66.31 109.811 65.95C109.571 65.58 109.451 65.165 109.451 64.705C109.451 64.255 109.556 63.85 109.766 63.49C109.986 63.13 110.341 62.845 110.831 62.635C111.321 62.425 111.971 62.32 112.781 62.32H115.106V63.565H112.916C112.276 63.565 111.846 63.67 111.626 63.88C111.406 64.08 111.296 64.33 111.296 64.63C111.296 64.97 111.431 65.24 111.701 65.44C111.971 65.64 112.346 65.74 112.826 65.74C113.286 65.74 113.696 65.635 114.056 65.425C114.426 65.215 114.691 64.905 114.851 64.495L115.166 65.62C114.986 66.09 114.661 66.455 114.191 66.715C113.731 66.975 113.146 67.105 112.436 67.105ZM119.132 67V58.99H121.007V67H119.132ZM120.077 57.67C119.727 57.67 119.437 57.56 119.207 57.34C118.987 57.12 118.877 56.855 118.877 56.545C118.877 56.225 118.987 55.96 119.207 55.75C119.437 55.53 119.727 55.42 120.077 55.42C120.427 55.42 120.712 55.525 120.932 55.735C121.162 55.935 121.277 56.19 121.277 56.5C121.277 56.83 121.167 57.11 120.947 57.34C120.727 57.56 120.437 57.67 120.077 57.67ZM128.013 58.9C128.653 58.9 129.223 59.025 129.723 59.275C130.233 59.525 130.633 59.91 130.923 60.43C131.213 60.94 131.358 61.6 131.358 62.41V67H129.483V62.65C129.483 61.94 129.313 61.41 128.973 61.06C128.643 60.71 128.178 60.535 127.578 60.535C127.138 60.535 126.748 60.625 126.408 60.805C126.068 60.985 125.803 61.255 125.613 61.615C125.433 61.965 125.343 62.41 125.343 62.95V67H123.468V58.99H125.253V61.15L124.938 60.49C125.218 59.98 125.623 59.59 126.153 59.32C126.693 59.04 127.313 58.9 128.013 58.9ZM136.752 67.105C135.872 67.105 135.192 66.88 134.712 66.43C134.232 65.97 133.992 65.295 133.992 64.405V57.22H135.867V64.36C135.867 64.74 135.962 65.035 136.152 65.245C136.352 65.455 136.627 65.56 136.977 65.56C137.397 65.56 137.747 65.45 138.027 65.23L138.552 66.565C138.332 66.745 138.062 66.88 137.742 66.97C137.422 67.06 137.092 67.105 136.752 67.105ZM132.672 60.55V59.05H138.012V60.55H132.672ZM143.596 67.105C142.706 67.105 141.926 66.93 141.256 66.58C140.596 66.22 140.081 65.73 139.711 65.11C139.351 64.49 139.171 63.785 139.171 62.995C139.171 62.195 139.346 61.49 139.696 60.88C140.056 60.26 140.546 59.775 141.166 59.425C141.796 59.075 142.511 58.9 143.311 58.9C144.091 58.9 144.786 59.07 145.396 59.41C146.006 59.75 146.486 60.23 146.836 60.85C147.186 61.47 147.361 62.2 147.361 63.04C147.361 63.12 147.356 63.21 147.346 63.31C147.346 63.41 147.341 63.505 147.331 63.595H140.656V62.35H146.341L145.606 62.74C145.616 62.28 145.521 61.875 145.321 61.525C145.121 61.175 144.846 60.9 144.496 60.7C144.156 60.5 143.761 60.4 143.311 60.4C142.851 60.4 142.446 60.5 142.096 60.7C141.756 60.9 141.486 61.18 141.286 61.54C141.096 61.89 141.001 62.305 141.001 62.785V63.085C141.001 63.565 141.111 63.99 141.331 64.36C141.551 64.73 141.861 65.015 142.261 65.215C142.661 65.415 143.121 65.515 143.641 65.515C144.091 65.515 144.496 65.445 144.856 65.305C145.216 65.165 145.536 64.945 145.816 64.645L146.821 65.8C146.461 66.22 146.006 66.545 145.456 66.775C144.916 66.995 144.296 67.105 143.596 67.105ZM153.707 58.9C154.347 58.9 154.917 59.025 155.417 59.275C155.927 59.525 156.327 59.91 156.617 60.43C156.907 60.94 157.052 61.6 157.052 62.41V67H155.177V62.65C155.177 61.94 155.007 61.41 154.667 61.06C154.337 60.71 153.872 60.535 153.272 60.535C152.832 60.535 152.442 60.625 152.102 60.805C151.762 60.985 151.497 61.255 151.307 61.615C151.127 61.965 151.037 62.41 151.037 62.95V67H149.162V58.99H150.947V61.15L150.632 60.49C150.912 59.98 151.317 59.59 151.847 59.32C152.387 59.04 153.007 58.9 153.707 58.9ZM164.365 67V65.38L164.26 65.035V62.2C164.26 61.65 164.095 61.225 163.765 60.925C163.435 60.615 162.935 60.46 162.265 60.46C161.815 60.46 161.37 60.53 160.93 60.67C160.5 60.81 160.135 61.005 159.835 61.255L159.1 59.89C159.53 59.56 160.04 59.315 160.63 59.155C161.23 58.985 161.85 58.9 162.49 58.9C163.65 58.9 164.545 59.18 165.175 59.74C165.815 60.29 166.135 61.145 166.135 62.305V67H164.365ZM161.845 67.105C161.245 67.105 160.72 67.005 160.27 66.805C159.82 66.595 159.47 66.31 159.22 65.95C158.98 65.58 158.86 65.165 158.86 64.705C158.86 64.255 158.965 63.85 159.175 63.49C159.395 63.13 159.75 62.845 160.24 62.635C160.73 62.425 161.38 62.32 162.19 62.32H164.515V63.565H162.325C161.685 63.565 161.255 63.67 161.035 63.88C160.815 64.08 160.705 64.33 160.705 64.63C160.705 64.97 160.84 65.24 161.11 65.44C161.38 65.64 161.755 65.74 162.235 65.74C162.695 65.74 163.105 65.635 163.465 65.425C163.835 65.215 164.1 64.905 164.26 64.495L164.575 65.62C164.395 66.09 164.07 66.455 163.6 66.715C163.14 66.975 162.555 67.105 161.845 67.105ZM173.087 58.9C173.727 58.9 174.297 59.025 174.797 59.275C175.307 59.525 175.707 59.91 175.997 60.43C176.287 60.94 176.432 61.6 176.432 62.41V67H174.557V62.65C174.557 61.94 174.387 61.41 174.047 61.06C173.717 60.71 173.252 60.535 172.652 60.535C172.212 60.535 171.822 60.625 171.482 60.805C171.142 60.985 170.877 61.255 170.687 61.615C170.507 61.965 170.417 62.41 170.417 62.95V67H168.542V58.99H170.327V61.15L170.012 60.49C170.292 59.98 170.697 59.59 171.227 59.32C171.767 59.04 172.387 58.9 173.087 58.9ZM182.5 67.105C181.66 67.105 180.91 66.93 180.25 66.58C179.6 66.22 179.09 65.73 178.72 65.11C178.35 64.49 178.165 63.785 178.165 62.995C178.165 62.195 178.35 61.49 178.72 60.88C179.09 60.26 179.6 59.775 180.25 59.425C180.91 59.075 181.66 58.9 182.5 58.9C183.28 58.9 183.965 59.06 184.555 59.38C185.155 59.69 185.61 60.15 185.92 60.76L184.48 61.6C184.24 61.22 183.945 60.94 183.595 60.76C183.255 60.58 182.885 60.49 182.485 60.49C182.025 60.49 181.61 60.59 181.24 60.79C180.87 60.99 180.58 61.28 180.37 61.66C180.16 62.03 180.055 62.475 180.055 62.995C180.055 63.515 180.16 63.965 180.37 64.345C180.58 64.715 180.87 65 181.24 65.2C181.61 65.4 182.025 65.5 182.485 65.5C182.885 65.5 183.255 65.41 183.595 65.23C183.945 65.05 184.24 64.77 184.48 64.39L185.92 65.23C185.61 65.83 185.155 66.295 184.555 66.625C183.965 66.945 183.28 67.105 182.5 67.105ZM191.188 67.105C190.298 67.105 189.518 66.93 188.848 66.58C188.188 66.22 187.673 65.73 187.303 65.11C186.943 64.49 186.763 63.785 186.763 62.995C186.763 62.195 186.938 61.49 187.288 60.88C187.648 60.26 188.138 59.775 188.758 59.425C189.388 59.075 190.103 58.9 190.903 58.9C191.683 58.9 192.378 59.07 192.988 59.41C193.598 59.75 194.078 60.23 194.428 60.85C194.778 61.47 194.953 62.2 194.953 63.04C194.953 63.12 194.948 63.21 194.938 63.31C194.938 63.41 194.933 63.505 194.923 63.595H188.248V62.35H193.933L193.198 62.74C193.208 62.28 193.113 61.875 192.913 61.525C192.713 61.175 192.438 60.9 192.088 60.7C191.748 60.5 191.353 60.4 190.903 60.4C190.443 60.4 190.038 60.5 189.688 60.7C189.348 60.9 189.078 61.18 188.878 61.54C188.688 61.89 188.593 62.305 188.593 62.785V63.085C188.593 63.565 188.703 63.99 188.923 64.36C189.143 64.73 189.453 65.015 189.853 65.215C190.253 65.415 190.713 65.515 191.233 65.515C191.683 65.515 192.088 65.445 192.448 65.305C192.808 65.165 193.128 64.945 193.408 64.645L194.413 65.8C194.053 66.22 193.598 66.545 193.048 66.775C192.508 66.995 191.888 67.105 191.188 67.105ZM200.9 67V58.99H202.775V67H200.9ZM201.845 57.67C201.495 57.67 201.205 57.56 200.975 57.34C200.755 57.12 200.645 56.855 200.645 56.545C200.645 56.225 200.755 55.96 200.975 55.75C201.205 55.53 201.495 55.42 201.845 55.42C202.195 55.42 202.48 55.525 202.7 55.735C202.93 55.935 203.045 56.19 203.045 56.5C203.045 56.83 202.935 57.11 202.715 57.34C202.495 57.56 202.205 57.67 201.845 57.67ZM209.781 58.9C210.421 58.9 210.991 59.025 211.491 59.275C212.001 59.525 212.401 59.91 212.691 60.43C212.981 60.94 213.126 61.6 213.126 62.41V67H211.251V62.65C211.251 61.94 211.081 61.41 210.741 61.06C210.411 60.71 209.946 60.535 209.346 60.535C208.906 60.535 208.516 60.625 208.176 60.805C207.836 60.985 207.571 61.255 207.381 61.615C207.201 61.965 207.111 62.41 207.111 62.95V67H205.236V58.99H207.021V61.15L206.706 60.49C206.986 59.98 207.391 59.59 207.921 59.32C208.461 59.04 209.081 58.9 209.781 58.9ZM222.38 67.15C221.64 67.15 220.915 67.045 220.205 66.835C219.505 66.615 218.915 66.315 218.435 65.935L219.275 64.42C219.655 64.73 220.115 64.98 220.655 65.17C221.195 65.36 221.76 65.455 222.35 65.455C223.05 65.455 223.595 65.315 223.985 65.035C224.375 64.745 224.57 64.355 224.57 63.865C224.57 63.385 224.39 63.005 224.03 62.725C223.67 62.445 223.09 62.305 222.29 62.305H221.33V60.97L224.33 57.4L224.585 58.135H218.945V56.5H226.1V57.805L223.1 61.375L222.08 60.775H222.665C223.955 60.775 224.92 61.065 225.56 61.645C226.21 62.215 226.535 62.95 226.535 63.85C226.535 64.44 226.385 64.985 226.085 65.485C225.785 65.985 225.325 66.39 224.705 66.7C224.095 67 223.32 67.15 222.38 67.15ZM242.636 58.9C243.276 58.9 243.841 59.025 244.331 59.275C244.831 59.525 245.221 59.91 245.501 60.43C245.781 60.94 245.921 61.6 245.921 62.41V67H244.046V62.65C244.046 61.94 243.891 61.41 243.581 61.06C243.271 60.71 242.826 60.535 242.246 60.535C241.836 60.535 241.471 60.625 241.151 60.805C240.841 60.985 240.596 61.25 240.416 61.6C240.246 61.95 240.161 62.395 240.161 62.935V67H238.286V62.65C238.286 61.94 238.131 61.41 237.821 61.06C237.511 60.71 237.066 60.535 236.486 60.535C236.076 60.535 235.711 60.625 235.391 60.805C235.081 60.985 234.836 61.25 234.656 61.6C234.486 61.95 234.401 62.395 234.401 62.935V67H232.526V58.99H234.311V61.12L233.996 60.49C234.266 59.97 234.656 59.575 235.166 59.305C235.686 59.035 236.276 58.9 236.936 58.9C237.686 58.9 238.336 59.085 238.886 59.455C239.446 59.825 239.816 60.385 239.996 61.135L239.261 60.88C239.521 60.28 239.951 59.8 240.551 59.44C241.151 59.08 241.846 58.9 242.636 58.9ZM251.932 67.105C251.112 67.105 250.382 66.93 249.742 66.58C249.102 66.22 248.597 65.73 248.227 65.11C247.857 64.49 247.672 63.785 247.672 62.995C247.672 62.195 247.857 61.49 248.227 60.88C248.597 60.26 249.102 59.775 249.742 59.425C250.382 59.075 251.112 58.9 251.932 58.9C252.762 58.9 253.497 59.075 254.137 59.425C254.787 59.775 255.292 60.255 255.652 60.865C256.022 61.475 256.207 62.185 256.207 62.995C256.207 63.785 256.022 64.49 255.652 65.11C255.292 65.73 254.787 66.22 254.137 66.58C253.497 66.93 252.762 67.105 251.932 67.105ZM251.932 65.5C252.392 65.5 252.802 65.4 253.162 65.2C253.522 65 253.802 64.71 254.002 64.33C254.212 63.95 254.317 63.505 254.317 62.995C254.317 62.475 254.212 62.03 254.002 61.66C253.802 61.28 253.522 60.99 253.162 60.79C252.802 60.59 252.397 60.49 251.947 60.49C251.487 60.49 251.077 60.59 250.717 60.79C250.367 60.99 250.087 61.28 249.877 61.66C249.667 62.03 249.562 62.475 249.562 62.995C249.562 63.505 249.667 63.95 249.877 64.33C250.087 64.71 250.367 65 250.717 65.2C251.077 65.4 251.482 65.5 251.932 65.5ZM262.545 58.9C263.185 58.9 263.755 59.025 264.255 59.275C264.765 59.525 265.165 59.91 265.455 60.43C265.745 60.94 265.89 61.6 265.89 62.41V67H264.015V62.65C264.015 61.94 263.845 61.41 263.505 61.06C263.175 60.71 262.71 60.535 262.11 60.535C261.67 60.535 261.28 60.625 260.94 60.805C260.6 60.985 260.335 61.255 260.145 61.615C259.965 61.965 259.875 62.41 259.875 62.95V67H258V58.99H259.785V61.15L259.47 60.49C259.75 59.98 260.155 59.59 260.685 59.32C261.225 59.04 261.845 58.9 262.545 58.9ZM271.283 67.105C270.403 67.105 269.723 66.88 269.243 66.43C268.763 65.97 268.523 65.295 268.523 64.405V57.22H270.398V64.36C270.398 64.74 270.493 65.035 270.683 65.245C270.883 65.455 271.158 65.56 271.508 65.56C271.928 65.56 272.278 65.45 272.558 65.23L273.083 66.565C272.863 66.745 272.593 66.88 272.273 66.97C271.953 67.06 271.623 67.105 271.283 67.105ZM267.203 60.55V59.05H272.543V60.55H267.203ZM279.171 58.9C279.811 58.9 280.381 59.025 280.881 59.275C281.391 59.525 281.791 59.91 282.081 60.43C282.371 60.94 282.516 61.6 282.516 62.41V67H280.641V62.65C280.641 61.94 280.471 61.41 280.131 61.06C279.801 60.71 279.336 60.535 278.736 60.535C278.296 60.535 277.906 60.625 277.566 60.805C277.226 60.985 276.961 61.255 276.771 61.615C276.591 61.965 276.501 62.41 276.501 62.95V67H274.626V55.87H276.501V61.15L276.096 60.49C276.376 59.98 276.781 59.59 277.311 59.32C277.851 59.04 278.471 58.9 279.171 58.9ZM287.369 67.105C286.699 67.105 286.054 67.02 285.434 66.85C284.824 66.67 284.339 66.455 283.979 66.205L284.699 64.78C285.059 65.01 285.489 65.2 285.989 65.35C286.489 65.5 286.989 65.575 287.489 65.575C288.079 65.575 288.504 65.495 288.764 65.335C289.034 65.175 289.169 64.96 289.169 64.69C289.169 64.47 289.079 64.305 288.899 64.195C288.719 64.075 288.484 63.985 288.194 63.925C287.904 63.865 287.579 63.81 287.219 63.76C286.869 63.71 286.514 63.645 286.154 63.565C285.804 63.475 285.484 63.35 285.194 63.19C284.904 63.02 284.669 62.795 284.489 62.515C284.309 62.235 284.219 61.865 284.219 61.405C284.219 60.895 284.364 60.455 284.654 60.085C284.944 59.705 285.349 59.415 285.869 59.215C286.399 59.005 287.024 58.9 287.744 58.9C288.284 58.9 288.829 58.96 289.379 59.08C289.929 59.2 290.384 59.37 290.744 59.59L290.024 61.015C289.644 60.785 289.259 60.63 288.869 60.55C288.489 60.46 288.109 60.415 287.729 60.415C287.159 60.415 286.734 60.5 286.454 60.67C286.184 60.84 286.049 61.055 286.049 61.315C286.049 61.555 286.139 61.735 286.319 61.855C286.499 61.975 286.734 62.07 287.024 62.14C287.314 62.21 287.634 62.27 287.984 62.32C288.344 62.36 288.699 62.425 289.049 62.515C289.399 62.605 289.719 62.73 290.009 62.89C290.309 63.04 290.549 63.255 290.729 63.535C290.909 63.815 290.999 64.18 290.999 64.63C290.999 65.13 290.849 65.565 290.549 65.935C290.259 66.305 289.844 66.595 289.304 66.805C288.764 67.005 288.119 67.105 287.369 67.105ZM299.774 67.105C298.894 67.105 298.214 66.88 297.734 66.43C297.254 65.97 297.014 65.295 297.014 64.405V57.22H298.889V64.36C298.889 64.74 298.984 65.035 299.174 65.245C299.374 65.455 299.649 65.56 299.999 65.56C300.419 65.56 300.769 65.45 301.049 65.23L301.574 66.565C301.354 66.745 301.084 66.88 300.764 66.97C300.444 67.06 300.114 67.105 299.774 67.105ZM295.694 60.55V59.05H301.034V60.55H295.694ZM306.453 67.105C305.633 67.105 304.903 66.93 304.263 66.58C303.623 66.22 303.118 65.73 302.748 65.11C302.378 64.49 302.193 63.785 302.193 62.995C302.193 62.195 302.378 61.49 302.748 60.88C303.118 60.26 303.623 59.775 304.263 59.425C304.903 59.075 305.633 58.9 306.453 58.9C307.283 58.9 308.018 59.075 308.658 59.425C309.308 59.775 309.813 60.255 310.173 60.865C310.543 61.475 310.728 62.185 310.728 62.995C310.728 63.785 310.543 64.49 310.173 65.11C309.813 65.73 309.308 66.22 308.658 66.58C308.018 66.93 307.283 67.105 306.453 67.105ZM306.453 65.5C306.913 65.5 307.323 65.4 307.683 65.2C308.043 65 308.323 64.71 308.523 64.33C308.733 63.95 308.838 63.505 308.838 62.995C308.838 62.475 308.733 62.03 308.523 61.66C308.323 61.28 308.043 60.99 307.683 60.79C307.323 60.59 306.918 60.49 306.468 60.49C306.008 60.49 305.598 60.59 305.238 60.79C304.888 60.99 304.608 61.28 304.398 61.66C304.188 62.03 304.083 62.475 304.083 62.995C304.083 63.505 304.188 63.95 304.398 64.33C304.608 64.71 304.888 65 305.238 65.2C305.598 65.4 306.003 65.5 306.453 65.5ZM321.602 67V65.38L321.497 65.035V62.2C321.497 61.65 321.332 61.225 321.002 60.925C320.672 60.615 320.172 60.46 319.502 60.46C319.052 60.46 318.607 60.53 318.167 60.67C317.737 60.81 317.372 61.005 317.072 61.255L316.337 59.89C316.767 59.56 317.277 59.315 317.867 59.155C318.467 58.985 319.087 58.9 319.727 58.9C320.887 58.9 321.782 59.18 322.412 59.74C323.052 60.29 323.372 61.145 323.372 62.305V67H321.602ZM319.082 67.105C318.482 67.105 317.957 67.005 317.507 66.805C317.057 66.595 316.707 66.31 316.457 65.95C316.217 65.58 316.097 65.165 316.097 64.705C316.097 64.255 316.202 63.85 316.412 63.49C316.632 63.13 316.987 62.845 317.477 62.635C317.967 62.425 318.617 62.32 319.427 62.32H321.752V63.565H319.562C318.922 63.565 318.492 63.67 318.272 63.88C318.052 64.08 317.942 64.33 317.942 64.63C317.942 64.97 318.077 65.24 318.347 65.44C318.617 65.64 318.992 65.74 319.472 65.74C319.932 65.74 320.342 65.635 320.702 65.425C321.072 65.215 321.337 64.905 321.497 64.495L321.812 65.62C321.632 66.09 321.307 66.455 320.837 66.715C320.377 66.975 319.792 67.105 319.082 67.105ZM327.761 67L324.326 58.99H326.276L329.231 66.055H328.271L331.331 58.99H333.131L329.696 67H327.761ZM337.684 67.105C336.864 67.105 336.134 66.93 335.494 66.58C334.854 66.22 334.349 65.73 333.979 65.11C333.609 64.49 333.424 63.785 333.424 62.995C333.424 62.195 333.609 61.49 333.979 60.88C334.349 60.26 334.854 59.775 335.494 59.425C336.134 59.075 336.864 58.9 337.684 58.9C338.514 58.9 339.249 59.075 339.889 59.425C340.539 59.775 341.044 60.255 341.404 60.865C341.774 61.475 341.959 62.185 341.959 62.995C341.959 63.785 341.774 64.49 341.404 65.11C341.044 65.73 340.539 66.22 339.889 66.58C339.249 66.93 338.514 67.105 337.684 67.105ZM337.684 65.5C338.144 65.5 338.554 65.4 338.914 65.2C339.274 65 339.554 64.71 339.754 64.33C339.964 63.95 340.069 63.505 340.069 62.995C340.069 62.475 339.964 62.03 339.754 61.66C339.554 61.28 339.274 60.99 338.914 60.79C338.554 60.59 338.149 60.49 337.699 60.49C337.239 60.49 336.829 60.59 336.469 60.79C336.119 60.99 335.839 61.28 335.629 61.66C335.419 62.03 335.314 62.475 335.314 62.995C335.314 63.505 335.419 63.95 335.629 64.33C335.839 64.71 336.119 65 336.469 65.2C336.829 65.4 337.234 65.5 337.684 65.5ZM343.751 67V58.99H345.626V67H343.751ZM344.696 57.67C344.346 57.67 344.056 57.56 343.826 57.34C343.606 57.12 343.496 56.855 343.496 56.545C343.496 56.225 343.606 55.96 343.826 55.75C344.056 55.53 344.346 55.42 344.696 55.42C345.046 55.42 345.331 55.525 345.551 55.735C345.781 55.935 345.896 56.19 345.896 56.5C345.896 56.83 345.786 57.11 345.566 57.34C345.346 57.56 345.056 57.67 344.696 57.67ZM351.477 67.105C350.707 67.105 350.012 66.935 349.392 66.595C348.782 66.245 348.302 65.765 347.952 65.155C347.602 64.545 347.427 63.825 347.427 62.995C347.427 62.165 347.602 61.445 347.952 60.835C348.302 60.225 348.782 59.75 349.392 59.41C350.012 59.07 350.707 58.9 351.477 58.9C352.147 58.9 352.747 59.05 353.277 59.35C353.807 59.64 354.227 60.085 354.537 60.685C354.847 61.285 355.002 62.055 355.002 62.995C355.002 63.925 354.852 64.695 354.552 65.305C354.252 65.905 353.837 66.355 353.307 66.655C352.777 66.955 352.167 67.105 351.477 67.105ZM351.702 65.5C352.152 65.5 352.552 65.4 352.902 65.2C353.262 65 353.547 64.71 353.757 64.33C353.977 63.95 354.087 63.505 354.087 62.995C354.087 62.475 353.977 62.03 353.757 61.66C353.547 61.28 353.262 60.99 352.902 60.79C352.552 60.59 352.152 60.49 351.702 60.49C351.252 60.49 350.847 60.59 350.487 60.79C350.137 60.99 349.852 61.28 349.632 61.66C349.422 62.03 349.317 62.475 349.317 62.995C349.317 63.505 349.422 63.95 349.632 64.33C349.852 64.71 350.137 65 350.487 65.2C350.847 65.4 351.252 65.5 351.702 65.5ZM354.132 67V65.11L354.207 62.98L354.057 60.85V55.87H355.917V67H354.132ZM366.206 67.105C365.366 67.105 364.616 66.93 363.956 66.58C363.306 66.22 362.796 65.73 362.426 65.11C362.056 64.49 361.871 63.785 361.871 62.995C361.871 62.195 362.056 61.49 362.426 60.88C362.796 60.26 363.306 59.775 363.956 59.425C364.616 59.075 365.366 58.9 366.206 58.9C366.986 58.9 367.671 59.06 368.261 59.38C368.861 59.69 369.316 60.15 369.626 60.76L368.186 61.6C367.946 61.22 367.651 60.94 367.301 60.76C366.961 60.58 366.591 60.49 366.191 60.49C365.731 60.49 365.316 60.59 364.946 60.79C364.576 60.99 364.286 61.28 364.076 61.66C363.866 62.03 363.761 62.475 363.761 62.995C363.761 63.515 363.866 63.965 364.076 64.345C364.286 64.715 364.576 65 364.946 65.2C365.316 65.4 365.731 65.5 366.191 65.5C366.591 65.5 366.961 65.41 367.301 65.23C367.651 65.05 367.946 64.77 368.186 64.39L369.626 65.23C369.316 65.83 368.861 66.295 368.261 66.625C367.671 66.945 366.986 67.105 366.206 67.105ZM374.729 67.105C373.909 67.105 373.179 66.93 372.539 66.58C371.899 66.22 371.394 65.73 371.024 65.11C370.654 64.49 370.469 63.785 370.469 62.995C370.469 62.195 370.654 61.49 371.024 60.88C371.394 60.26 371.899 59.775 372.539 59.425C373.179 59.075 373.909 58.9 374.729 58.9C375.559 58.9 376.294 59.075 376.934 59.425C377.584 59.775 378.089 60.255 378.449 60.865C378.819 61.475 379.004 62.185 379.004 62.995C379.004 63.785 378.819 64.49 378.449 65.11C378.089 65.73 377.584 66.22 376.934 66.58C376.294 66.93 375.559 67.105 374.729 67.105ZM374.729 65.5C375.189 65.5 375.599 65.4 375.959 65.2C376.319 65 376.599 64.71 376.799 64.33C377.009 63.95 377.114 63.505 377.114 62.995C377.114 62.475 377.009 62.03 376.799 61.66C376.599 61.28 376.319 60.99 375.959 60.79C375.599 60.59 375.194 60.49 374.744 60.49C374.284 60.49 373.874 60.59 373.514 60.79C373.164 60.99 372.884 61.28 372.674 61.66C372.464 62.03 372.359 62.475 372.359 62.995C372.359 63.505 372.464 63.95 372.674 64.33C372.884 64.71 373.164 65 373.514 65.2C373.874 65.4 374.279 65.5 374.729 65.5ZM383.272 67.105C382.602 67.105 381.957 67.02 381.337 66.85C380.727 66.67 380.242 66.455 379.882 66.205L380.602 64.78C380.962 65.01 381.392 65.2 381.892 65.35C382.392 65.5 382.892 65.575 383.392 65.575C383.982 65.575 384.407 65.495 384.667 65.335C384.937 65.175 385.072 64.96 385.072 64.69C385.072 64.47 384.982 64.305 384.802 64.195C384.622 64.075 384.387 63.985 384.097 63.925C383.807 63.865 383.482 63.81 383.122 63.76C382.772 63.71 382.417 63.645 382.057 63.565C381.707 63.475 381.387 63.35 381.097 63.19C380.807 63.02 380.572 62.795 380.392 62.515C380.212 62.235 380.122 61.865 380.122 61.405C380.122 60.895 380.267 60.455 380.557 60.085C380.847 59.705 381.252 59.415 381.772 59.215C382.302 59.005 382.927 58.9 383.647 58.9C384.187 58.9 384.732 58.96 385.282 59.08C385.832 59.2 386.287 59.37 386.647 59.59L385.927 61.015C385.547 60.785 385.162 60.63 384.772 60.55C384.392 60.46 384.012 60.415 383.632 60.415C383.062 60.415 382.637 60.5 382.357 60.67C382.087 60.84 381.952 61.055 381.952 61.315C381.952 61.555 382.042 61.735 382.222 61.855C382.402 61.975 382.637 62.07 382.927 62.14C383.217 62.21 383.537 62.27 383.887 62.32C384.247 62.36 384.602 62.425 384.952 62.515C385.302 62.605 385.622 62.73 385.912 62.89C386.212 63.04 386.452 63.255 386.632 63.535C386.812 63.815 386.902 64.18 386.902 64.63C386.902 65.13 386.752 65.565 386.452 65.935C386.162 66.305 385.747 66.595 385.207 66.805C384.667 67.005 384.022 67.105 383.272 67.105ZM391.532 67.105C390.652 67.105 389.972 66.88 389.492 66.43C389.012 65.97 388.772 65.295 388.772 64.405V57.22H390.647V64.36C390.647 64.74 390.742 65.035 390.932 65.245C391.132 65.455 391.407 65.56 391.757 65.56C392.177 65.56 392.527 65.45 392.807 65.23L393.332 66.565C393.112 66.745 392.842 66.88 392.522 66.97C392.202 67.06 391.872 67.105 391.532 67.105ZM387.452 60.55V59.05H392.792V60.55H387.452ZM394.875 67V55.87H396.75V67H394.875ZM399.87 70.015C399.48 70.015 399.09 69.95 398.7 69.82C398.31 69.69 397.985 69.51 397.725 69.28L398.475 67.9C398.665 68.07 398.88 68.205 399.12 68.305C399.36 68.405 399.605 68.455 399.855 68.455C400.195 68.455 400.47 68.37 400.68 68.2C400.89 68.03 401.085 67.745 401.265 67.345L401.73 66.295L401.88 66.07L404.91 58.99H406.71L402.96 67.645C402.71 68.245 402.43 68.72 402.12 69.07C401.82 69.42 401.48 69.665 401.1 69.805C400.73 69.945 400.32 70.015 399.87 70.015ZM401.52 67.285L397.905 58.99H399.855L402.795 65.905L401.52 67.285ZM98.67 85.105C97.99 85.105 97.385 84.955 96.855 84.655C96.325 84.355 95.905 83.905 95.595 83.305C95.295 82.695 95.145 81.925 95.145 80.995C95.145 80.055 95.3 79.285 95.61 78.685C95.93 78.085 96.355 77.64 96.885 77.35C97.425 77.05 98.02 76.9 98.67 76.9C99.46 76.9 100.155 77.07 100.755 77.41C101.365 77.75 101.845 78.225 102.195 78.835C102.555 79.445 102.735 80.165 102.735 80.995C102.735 81.825 102.555 82.545 102.195 83.155C101.845 83.765 101.365 84.245 100.755 84.595C100.155 84.935 99.46 85.105 98.67 85.105ZM94.23 85V73.87H96.105V78.85L95.955 80.98L96.015 83.11V85H94.23ZM98.46 83.5C98.91 83.5 99.31 83.4 99.66 83.2C100.02 83 100.305 82.71 100.515 82.33C100.725 81.95 100.83 81.505 100.83 80.995C100.83 80.475 100.725 80.03 100.515 79.66C100.305 79.28 100.02 78.99 99.66 78.79C99.31 78.59 98.91 78.49 98.46 78.49C98.01 78.49 97.605 78.59 97.245 78.79C96.885 78.99 96.6 79.28 96.39 79.66C96.18 80.03 96.075 80.475 96.075 80.995C96.075 81.505 96.18 81.95 96.39 82.33C96.6 82.71 96.885 83 97.245 83.2C97.605 83.4 98.01 83.5 98.46 83.5ZM104.513 85V76.99H106.298V79.195L106.088 78.55C106.328 78.01 106.703 77.6 107.213 77.32C107.733 77.04 108.378 76.9 109.148 76.9V78.685C109.068 78.665 108.993 78.655 108.923 78.655C108.853 78.645 108.783 78.64 108.713 78.64C108.003 78.64 107.438 78.85 107.018 79.27C106.598 79.68 106.388 80.295 106.388 81.115V85H104.513ZM114.431 85.105C113.541 85.105 112.761 84.93 112.091 84.58C111.431 84.22 110.916 83.73 110.546 83.11C110.186 82.49 110.006 81.785 110.006 80.995C110.006 80.195 110.181 79.49 110.531 78.88C110.891 78.26 111.381 77.775 112.001 77.425C112.631 77.075 113.346 76.9 114.146 76.9C114.926 76.9 115.621 77.07 116.231 77.41C116.841 77.75 117.321 78.23 117.671 78.85C118.021 79.47 118.196 80.2 118.196 81.04C118.196 81.12 118.191 81.21 118.181 81.31C118.181 81.41 118.176 81.505 118.166 81.595H111.491V80.35H117.176L116.441 80.74C116.451 80.28 116.356 79.875 116.156 79.525C115.956 79.175 115.681 78.9 115.331 78.7C114.991 78.5 114.596 78.4 114.146 78.4C113.686 78.4 113.281 78.5 112.931 78.7C112.591 78.9 112.321 79.18 112.121 79.54C111.931 79.89 111.836 80.305 111.836 80.785V81.085C111.836 81.565 111.946 81.99 112.166 82.36C112.386 82.73 112.696 83.015 113.096 83.215C113.496 83.415 113.956 83.515 114.476 83.515C114.926 83.515 115.331 83.445 115.691 83.305C116.051 83.165 116.371 82.945 116.651 82.645L117.656 83.8C117.296 84.22 116.841 84.545 116.291 84.775C115.751 84.995 115.131 85.105 114.431 85.105ZM124.712 85V83.38L124.607 83.035V80.2C124.607 79.65 124.442 79.225 124.112 78.925C123.782 78.615 123.282 78.46 122.612 78.46C122.162 78.46 121.717 78.53 121.277 78.67C120.847 78.81 120.482 79.005 120.182 79.255L119.447 77.89C119.877 77.56 120.387 77.315 120.977 77.155C121.577 76.985 122.197 76.9 122.837 76.9C123.997 76.9 124.892 77.18 125.522 77.74C126.162 78.29 126.482 79.145 126.482 80.305V85H124.712ZM122.192 85.105C121.592 85.105 121.067 85.005 120.617 84.805C120.167 84.595 119.817 84.31 119.567 83.95C119.327 83.58 119.207 83.165 119.207 82.705C119.207 82.255 119.312 81.85 119.522 81.49C119.742 81.13 120.097 80.845 120.587 80.635C121.077 80.425 121.727 80.32 122.537 80.32H124.862V81.565H122.672C122.032 81.565 121.602 81.67 121.382 81.88C121.162 82.08 121.052 82.33 121.052 82.63C121.052 82.97 121.187 83.24 121.457 83.44C121.727 83.64 122.102 83.74 122.582 83.74C123.042 83.74 123.452 83.635 123.812 83.425C124.182 83.215 124.447 82.905 124.607 82.495L124.922 83.62C124.742 84.09 124.417 84.455 123.947 84.715C123.487 84.975 122.902 85.105 122.192 85.105ZM130.418 83.215L130.463 80.86L134.648 76.99H136.898L133.343 80.56L132.353 81.385L130.418 83.215ZM128.888 85V73.87H130.763V85H128.888ZM134.933 85L132.008 81.385L133.193 79.885L137.213 85H134.933ZM141.492 85.105C140.722 85.105 140.027 84.935 139.407 84.595C138.797 84.245 138.317 83.765 137.967 83.155C137.617 82.545 137.442 81.825 137.442 80.995C137.442 80.165 137.617 79.445 137.967 78.835C138.317 78.225 138.797 77.75 139.407 77.41C140.027 77.07 140.722 76.9 141.492 76.9C142.162 76.9 142.762 77.05 143.292 77.35C143.822 77.64 144.242 78.085 144.552 78.685C144.862 79.285 145.017 80.055 145.017 80.995C145.017 81.925 144.867 82.695 144.567 83.305C144.267 83.905 143.852 84.355 143.322 84.655C142.792 84.955 142.182 85.105 141.492 85.105ZM141.717 83.5C142.167 83.5 142.567 83.4 142.917 83.2C143.277 83 143.562 82.71 143.772 82.33C143.992 81.95 144.102 81.505 144.102 80.995C144.102 80.475 143.992 80.03 143.772 79.66C143.562 79.28 143.277 78.99 142.917 78.79C142.567 78.59 142.167 78.49 141.717 78.49C141.267 78.49 140.862 78.59 140.502 78.79C140.152 78.99 139.867 79.28 139.647 79.66C139.437 80.03 139.332 80.475 139.332 80.995C139.332 81.505 139.437 81.95 139.647 82.33C139.867 82.71 140.152 83 140.502 83.2C140.862 83.4 141.267 83.5 141.717 83.5ZM144.147 85V83.11L144.222 80.98L144.072 78.85V73.87H145.932V85H144.147ZM152 85.105C151.18 85.105 150.45 84.93 149.81 84.58C149.17 84.22 148.665 83.73 148.295 83.11C147.925 82.49 147.74 81.785 147.74 80.995C147.74 80.195 147.925 79.49 148.295 78.88C148.665 78.26 149.17 77.775 149.81 77.425C150.45 77.075 151.18 76.9 152 76.9C152.83 76.9 153.565 77.075 154.205 77.425C154.855 77.775 155.36 78.255 155.72 78.865C156.09 79.475 156.275 80.185 156.275 80.995C156.275 81.785 156.09 82.49 155.72 83.11C155.36 83.73 154.855 84.22 154.205 84.58C153.565 84.93 152.83 85.105 152 85.105ZM152 83.5C152.46 83.5 152.87 83.4 153.23 83.2C153.59 83 153.87 82.71 154.07 82.33C154.28 81.95 154.385 81.505 154.385 80.995C154.385 80.475 154.28 80.03 154.07 79.66C153.87 79.28 153.59 78.99 153.23 78.79C152.87 78.59 152.465 78.49 152.015 78.49C151.555 78.49 151.145 78.59 150.785 78.79C150.435 78.99 150.155 79.28 149.945 79.66C149.735 80.03 149.63 80.475 149.63 80.995C149.63 81.505 149.735 81.95 149.945 82.33C150.155 82.71 150.435 83 150.785 83.2C151.145 83.4 151.55 83.5 152 83.5ZM159.618 85L156.678 76.99H158.448L160.968 84.055H160.128L162.768 76.99H164.343L166.908 84.055H166.083L168.678 76.99H170.343L167.388 85H165.588L163.248 78.745H163.803L161.418 85H159.618ZM176.177 76.9C176.817 76.9 177.387 77.025 177.887 77.275C178.397 77.525 178.797 77.91 179.087 78.43C179.377 78.94 179.522 79.6 179.522 80.41V85H177.647V80.65C177.647 79.94 177.477 79.41 177.137 79.06C176.807 78.71 176.342 78.535 175.742 78.535C175.302 78.535 174.912 78.625 174.572 78.805C174.232 78.985 173.967 79.255 173.777 79.615C173.597 79.965 173.507 80.41 173.507 80.95V85H171.632V76.99H173.417V79.15L173.102 78.49C173.382 77.98 173.787 77.59 174.317 77.32C174.857 77.04 175.477 76.9 176.177 76.9ZM184.376 85.105C183.706 85.105 183.061 85.02 182.441 84.85C181.831 84.67 181.346 84.455 180.986 84.205L181.706 82.78C182.066 83.01 182.496 83.2 182.996 83.35C183.496 83.5 183.996 83.575 184.496 83.575C185.086 83.575 185.511 83.495 185.771 83.335C186.041 83.175 186.176 82.96 186.176 82.69C186.176 82.47 186.086 82.305 185.906 82.195C185.726 82.075 185.491 81.985 185.201 81.925C184.911 81.865 184.586 81.81 184.226 81.76C183.876 81.71 183.521 81.645 183.161 81.565C182.811 81.475 182.491 81.35 182.201 81.19C181.911 81.02 181.676 80.795 181.496 80.515C181.316 80.235 181.226 79.865 181.226 79.405C181.226 78.895 181.371 78.455 181.661 78.085C181.951 77.705 182.356 77.415 182.876 77.215C183.406 77.005 184.031 76.9 184.751 76.9C185.291 76.9 185.836 76.96 186.386 77.08C186.936 77.2 187.391 77.37 187.751 77.59L187.031 79.015C186.651 78.785 186.266 78.63 185.876 78.55C185.496 78.46 185.116 78.415 184.736 78.415C184.166 78.415 183.741 78.5 183.461 78.67C183.191 78.84 183.056 79.055 183.056 79.315C183.056 79.555 183.146 79.735 183.326 79.855C183.506 79.975 183.741 80.07 184.031 80.14C184.321 80.21 184.641 80.27 184.991 80.32C185.351 80.36 185.706 80.425 186.056 80.515C186.406 80.605 186.726 80.73 187.016 80.89C187.316 81.04 187.556 81.255 187.736 81.535C187.916 81.815 188.006 82.18 188.006 82.63C188.006 83.13 187.856 83.565 187.556 83.935C187.266 84.305 186.851 84.595 186.311 84.805C185.771 85.005 185.126 85.105 184.376 85.105ZM190.221 85.105C189.881 85.105 189.591 84.99 189.351 84.76C189.111 84.52 188.991 84.22 188.991 83.86C188.991 83.48 189.111 83.18 189.351 82.96C189.591 82.73 189.881 82.615 190.221 82.615C190.561 82.615 190.851 82.73 191.091 82.96C191.331 83.18 191.451 83.48 191.451 83.86C191.451 84.22 191.331 84.52 191.091 84.76C190.851 84.99 190.561 85.105 190.221 85.105Z" fill="black"/>
<circle cx="47.685" cy="56.685" r="23.685" fill="#DCE7FE"/>
<g clip-path="url(#clip0_249_1095)">
<path d="M37.4479 56.5191C37.5699 56.5191 37.6873 56.4773 37.7814 56.3994L39.0898 55.3165C39.3117 55.1341 39.3431 54.8052 39.1595 54.5833C38.9771 54.3614 38.6482 54.3312 38.4263 54.5136L37.965 54.8947C38.6773 51.9666 40.6863 49.5241 43.4216 48.2611C46.158 46.9981 49.3196 47.0538 52.0095 48.4122C54.6994 49.7705 56.6213 52.2827 57.229 55.2341C57.2859 55.5153 57.5613 55.6977 57.8437 55.6396C58.1249 55.5827 58.3073 55.3073 58.2492 55.0249C57.5764 51.7725 55.4582 49.0026 52.4952 47.5013C49.5322 46.0001 46.0463 45.9292 43.0241 47.3108C40.0031 48.6923 37.7754 51.374 36.9714 54.5973L36.775 54.3591C36.5926 54.1337 36.2614 54.1 36.036 54.2836C35.8118 54.466 35.7769 54.7972 35.9605 55.0226L37.0551 56.3402C37.1538 56.4541 37.2969 56.5203 37.4479 56.5191Z" fill="#3B76EF"/>
<path d="M59.4033 58.7637L58.3204 57.4553H58.3216C58.1368 57.2345 57.808 57.2043 57.586 57.3868L56.28 58.4697C56.165 58.5545 56.0895 58.6835 56.072 58.8252C56.0546 58.9682 56.0964 59.1111 56.1882 59.2215C56.28 59.3318 56.4125 59.3992 56.5554 59.4085C56.6983 59.4178 56.8389 59.3679 56.9435 59.2703L57.2712 58.9995C56.7204 62.0288 54.7881 64.628 52.0448 66.027C49.3015 67.426 46.0632 67.4643 43.2874 66.1316C40.5115 64.7988 38.5176 62.247 37.8947 59.2308C37.868 59.096 37.789 58.9764 37.6728 58.9008C37.5578 58.8241 37.4172 58.7974 37.2824 58.8265C37 58.8834 36.8176 59.1576 36.8745 59.44C37.5682 62.7828 39.7864 65.6098 42.8689 67.0775C45.9527 68.5462 49.5454 68.4858 52.5783 66.916C55.6109 65.3462 57.7338 62.4473 58.3148 59.0821L58.6122 59.4272C58.6994 59.5341 58.826 59.6027 58.9631 59.6155C59.1014 59.6294 59.2385 59.5876 59.3442 59.4993C59.5627 59.3122 59.5892 58.9844 59.4033 58.7637Z" fill="#3B76EF"/>
<path d="M47.1714 50.7388L43.5599 54.7928C42.8128 55.6329 42.3992 56.717 42.3992 57.8418C42.3992 59.2408 43.0278 60.5666 44.113 61.4497L47.2188 63.7933C47.285 63.841 47.3629 63.8735 47.4442 63.8863H47.6615L47.7591 63.8561L47.8486 63.8084C47.8637 63.7991 47.8765 63.7887 47.8881 63.7759C47.9136 63.755 47.9369 63.7329 47.959 63.7073L51.0231 61.4322C51.9956 60.6363 52.6033 59.479 52.7044 58.2265C52.8055 56.974 52.393 55.7342 51.561 54.793L47.9496 50.7389C47.8485 50.632 47.7067 50.5728 47.5603 50.5728C47.4139 50.5728 47.2722 50.632 47.1711 50.7389L47.1714 50.7388ZM51.6809 57.8418C51.6867 58.9131 51.2103 59.931 50.383 60.6142L48.0811 62.3211V58.2427L49.3837 56.9343C49.5882 56.731 49.5882 56.3998 49.3837 56.1965C49.1803 55.9931 48.8503 55.9931 48.6458 56.1965L48.0811 56.7647V54.0248C48.0811 53.7378 47.8476 53.5043 47.5606 53.5043C47.2736 53.5043 47.04 53.7378 47.04 54.0248V59.3315L45.7317 58.0231C45.5272 57.8198 45.1972 57.8198 44.9938 58.0231C44.7893 58.2265 44.7893 58.5576 44.9938 58.761L47.04 60.8014V62.3514L44.758 60.6294C43.9225 59.9438 43.438 58.919 43.4403 57.8384C43.438 56.9704 43.7564 56.1315 44.3327 55.4831L47.5607 51.8776L50.7816 55.4855C51.3614 56.1338 51.6809 56.9727 51.6809 57.8418Z" fill="#3B76EF"/>
</g>
<defs>
<clipPath id="clip0_249_1095">
<rect width="23.685" height="23.685" fill="white" transform="translate(35.8425 44.8425)"/>
</clipPath>
</defs>
</svg>
