<svg width="2878" height="382" viewBox="0 0 2878 382" fill="none" xmlns="http://www.w3.org/2000/svg">
<g clip-path="url(#clip0_188_348)">
<mask id="mask0_188_348" style="mask-type:luminance" maskUnits="userSpaceOnUse" x="0" y="0" width="1499" height="382">
<path d="M1499 0H0V382H1499V0Z" fill="white"/>
</mask>
<g mask="url(#mask0_188_348)">
<mask id="mask1_188_348" style="mask-type:luminance" maskUnits="userSpaceOnUse" x="0" y="0" width="1504" height="382">
<path d="M1503.17 0H0V382H1503.17V0Z" fill="white"/>
</mask>
<g mask="url(#mask1_188_348)">
<path d="M-4.17529 382V206.076L75.7589 206L76.2024 381.752" fill="#3B76EF"/>
<path d="M69.5018 381.753L68.8955 275.458L142.146 275L143.01 382C143.01 382 69.7443 381.857 69.5018 381.753Z" fill="#3B76EF"/>
<path d="M124.22 382V160L274.537 160.632L273.817 382" fill="#3B76EF"/>
<path d="M266.67 382L265.142 207.923L312.402 183L355.959 207.923L355.933 382" fill="#3B76EF"/>
<path d="M348.651 382L348.672 160H450.95L450.269 382" fill="#3B76EF"/>
<path d="M437.38 382L438.039 250.211L513.448 250L514.626 382" fill="#3B76EF"/>
<path d="M501.086 382V91.4985L601.423 91.5176L601.412 382" fill="#3B76EF"/>
<path d="M587.696 382L588.233 275H782.899L781.907 382" fill="#3B76EF"/>
<path d="M776.636 382L777.776 253.053L866.628 228L958.268 250.53L956.472 382" fill="#3B76EF"/>
<path d="M1077.99 382L1077.27 294L1352.74 294.477L1352.85 382" fill="#3B76EF"/>
<path d="M1346.59 382L1347.13 252H1509.43L1508.69 382" fill="#3B76EF"/>
<path d="M19.2808 213.175H6.75439V224.635H19.2808V213.175Z" fill="white"/>
<path d="M94.439 285.755H81.9126V297.215H94.439V285.755Z" fill="white"/>
<path d="M42.2451 213.175H29.7188V224.635H42.2451V213.175Z" fill="white"/>
<path d="M141.935 164.948H129.409V176.408H141.935V164.948Z" fill="white"/>
<path d="M141.935 181.66H129.409V193.12H141.935V181.66Z" fill="white"/>
<path d="M162.843 165H150.316V176.46H162.843V165Z" fill="white"/>
<path d="M300.602 222.706H288.076V234.166H300.602V222.706Z" fill="white"/>
<path d="M300.602 241.099H288.076V252.559H300.602V241.099Z" fill="white"/>
<path d="M374.748 172H362.222V183.46H374.748V172Z" fill="white"/>
<path d="M469.437 259.779H456.911V271.239H469.437V259.779Z" fill="white"/>
<path d="M521.63 100.294H509.104V111.754H521.63V100.294Z" fill="white"/>
<path d="M546.683 100.294H534.156V111.754H546.683V100.294Z" fill="white"/>
<path d="M521.63 123.214H509.104V134.674H521.63V123.214Z" fill="white"/>
<path d="M674.588 287.932H662.062V299.392H674.588V287.932Z" fill="white"/>
<path d="M695.351 287.932H682.824V299.392H695.351V287.932Z" fill="white"/>
<path d="M716.301 287.932H703.775V299.392H716.301V287.932Z" fill="white"/>
<path d="M802.253 265.509H789.727V276.969H802.253V265.509Z" fill="white"/>
<path d="M1100.24 311H1087.71V322.46H1100.24V311Z" fill="white"/>
<path d="M1127.38 311H1114.85V322.46H1127.38V311Z" fill="white"/>
<path d="M1154.51 311H1141.99V322.46H1154.51V311Z" fill="white"/>
<path d="M1370.51 263.236H1357.99V274.696H1370.51V263.236Z" fill="white"/>
<path d="M1390.54 263.236H1378.01V274.696H1390.54V263.236Z" fill="white"/>
<path d="M1370.51 282.68H1357.99V294.14H1370.51V282.68Z" fill="white"/>
<path d="M823.13 265.509H810.604V276.969H823.13V265.509Z" fill="white"/>
<path d="M802.253 285.564H789.727V297.024H802.253V285.564Z" fill="white"/>
<path d="M802.253 305.619H789.727V317.079H802.253V305.619Z" fill="white"/>
<path d="M493.55 259.779H481.024V271.239H493.55V259.779Z" fill="white"/>
<path d="M400.844 172H388.318V183.46H400.844V172Z" fill="white"/>
</g>
</g>
<mask id="mask2_188_348" style="mask-type:luminance" maskUnits="userSpaceOnUse" x="1432" y="0" width="1446" height="382">
<path d="M2878 0H1432V382H2878V0Z" fill="white"/>
</mask>
<g mask="url(#mask2_188_348)">
<mask id="mask3_188_348" style="mask-type:luminance" maskUnits="userSpaceOnUse" x="1432" y="0" width="1446" height="382">
<path d="M2878 0H1432V382H2878V0Z" fill="white"/>
</mask>
<g mask="url(#mask3_188_348)">
<mask id="mask4_188_348" style="mask-type:luminance" maskUnits="userSpaceOnUse" x="1432" y="0" width="1448" height="382">
<path d="M2879 0H1432V382H2879V0Z" fill="white"/>
</mask>
<g mask="url(#mask4_188_348)">
<path d="M1425.97 382V206.076L1504.92 206L1505.35 381.752" fill="#3B76EF"/>
<path d="M1498.9 381.753L1498.32 275.458L1568.83 275L1569.67 382C1569.67 382 1499.14 381.857 1498.9 381.753Z" fill="#3B76EF"/>
<path d="M1551.58 382V160L1696.28 160.632L1695.59 382" fill="#3B76EF"/>
<path d="M1688.7 382L1687.24 207.923L1732.73 183L1774.66 207.923L1774.64 382" fill="#3B76EF"/>
<path d="M1767.62 382L1767.64 160H1866.1L1865.45 382" fill="#3B76EF"/>
<path d="M1853.04 382L1853.67 250.211L1926.26 250L1927.4 382" fill="#3B76EF"/>
<path d="M1914.37 382V91.4985L2010.95 91.5176L2010.94 382" fill="#3B76EF"/>
<path d="M1997.74 382L1998.25 275H2185.65L2184.69 382" fill="#3B76EF"/>
<path d="M2179.62 382L2180.71 253.053L2266.25 228L2354.47 250.53L2352.74 382" fill="#3B76EF"/>
<path d="M2469.71 382L2469.02 294L2734.19 294.477L2734.3 382" fill="#3B76EF"/>
<path d="M2728.28 382L2728.8 252H2885.03L2884.32 382" fill="#3B76EF"/>
<path d="M1450.56 213.175H1438.5V224.635H1450.56V213.175Z" fill="white"/>
<path d="M1522.91 285.755H1510.85V297.215H1522.91V285.755Z" fill="white"/>
<path d="M1472.67 213.175H1460.61V224.635H1472.67V213.175Z" fill="white"/>
<path d="M1568.63 164.948H1556.57V176.408H1568.63V164.948Z" fill="white"/>
<path d="M1568.63 181.66H1556.57V193.12H1568.63V181.66Z" fill="white"/>
<path d="M1588.76 165H1576.7V176.46H1588.76V165Z" fill="white"/>
<path d="M1721.37 222.706H1709.31V234.166H1721.37V222.706Z" fill="white"/>
<path d="M1721.37 241.099H1709.31V252.559H1721.37V241.099Z" fill="white"/>
<path d="M1792.75 172H1780.69V183.46H1792.75V172Z" fill="white"/>
<path d="M1883.9 259.779H1871.84V271.239H1883.9V259.779Z" fill="white"/>
<path d="M1934.14 100.294H1922.08V111.754H1934.14V100.294Z" fill="white"/>
<path d="M1958.26 100.294H1946.2V111.754H1958.26V100.294Z" fill="white"/>
<path d="M1934.14 123.214H1922.08V134.674H1934.14V123.214Z" fill="white"/>
<path d="M2081.38 287.932H2069.33V299.392H2081.38V287.932Z" fill="white"/>
<path d="M2101.37 287.932H2089.31V299.392H2101.37V287.932Z" fill="white"/>
<path d="M2121.54 287.932H2109.48V299.392H2121.54V287.932Z" fill="white"/>
<path d="M2204.28 265.509H2192.22V276.969H2204.28V265.509Z" fill="white"/>
<path d="M2491.13 311H2479.07V322.46H2491.13V311Z" fill="white"/>
<path d="M2517.25 311H2505.2V322.46H2517.25V311Z" fill="white"/>
<path d="M2543.38 311H2531.32V322.46H2543.38V311Z" fill="white"/>
<path d="M2751.31 263.236H2739.25V274.696H2751.31V263.236Z" fill="white"/>
<path d="M2770.58 263.236H2758.52V274.696H2770.58V263.236Z" fill="white"/>
<path d="M2751.31 282.68H2739.25V294.14H2751.31V282.68Z" fill="white"/>
<path d="M2224.38 265.509H2212.32V276.969H2224.38V265.509Z" fill="white"/>
<path d="M2204.28 285.564H2192.22V297.024H2204.28V285.564Z" fill="white"/>
<path d="M2204.28 305.619H2192.22V317.079H2204.28V305.619Z" fill="white"/>
<path d="M1907.11 259.779H1895.05V271.239H1907.11V259.779Z" fill="white"/>
<path d="M1817.87 172H1805.81V183.46H1817.87V172Z" fill="white"/>
</g>
</g>
</g>
</g>
<defs>
<clipPath id="clip0_188_348">
<rect width="2878" height="382" fill="white"/>
</clipPath>
</defs>
</svg>
