<svg width="5700" height="382" viewBox="0 0 5700 382" fill="none" xmlns="http://www.w3.org/2000/svg">
<g clip-path="url(#clip0_192_675)">
<mask id="mask0_192_675" style="mask-type:luminance" maskUnits="userSpaceOnUse" x="0" y="0" width="1499" height="382">
<path d="M1499 0H0V382H1499V0Z" fill="white"/>
</mask>
<g mask="url(#mask0_192_675)">
<mask id="mask1_192_675" style="mask-type:luminance" maskUnits="userSpaceOnUse" x="0" y="0" width="1504" height="382">
<path d="M1503.17 0H0V382H1503.17V0Z" fill="white"/>
</mask>
<g mask="url(#mask1_192_675)">
<path d="M-4.17529 382V206.076L75.7589 206L76.2024 381.752" fill="#3B76EF"/>
<path d="M69.5018 381.753L68.8955 275.458L142.146 275L143.01 382C143.01 382 69.7443 381.857 69.5018 381.753Z" fill="#3B76EF"/>
<path d="M124.22 382V160L274.537 160.632L273.817 382" fill="#3B76EF"/>
<path d="M266.67 382L265.142 207.923L312.402 183L355.959 207.923L355.933 382" fill="#3B76EF"/>
<path d="M348.651 382L348.672 160H450.95L450.269 382" fill="#3B76EF"/>
<path d="M437.38 382L438.039 250.211L513.448 250L514.626 382" fill="#3B76EF"/>
<path d="M501.086 382V91.4985L601.423 91.5176L601.412 382" fill="#3B76EF"/>
<path d="M587.696 382L588.233 275H782.899L781.907 382" fill="#3B76EF"/>
<path d="M776.636 382L777.776 253.053L866.628 228L958.268 250.53L956.472 382" fill="#3B76EF"/>
<path d="M1077.99 382L1077.27 294L1352.74 294.477L1352.85 382" fill="#3B76EF"/>
<path d="M1346.59 382L1347.13 252H1509.43L1508.69 382" fill="#3B76EF"/>
<path d="M19.2808 213.175H6.75439V224.635H19.2808V213.175Z" fill="white"/>
<path d="M94.439 285.755H81.9126V297.215H94.439V285.755Z" fill="white"/>
<path d="M42.2451 213.175H29.7188V224.635H42.2451V213.175Z" fill="white"/>
<path d="M141.935 164.948H129.409V176.408H141.935V164.948Z" fill="white"/>
<path d="M141.935 181.66H129.409V193.12H141.935V181.66Z" fill="white"/>
<path d="M162.843 165H150.316V176.46H162.843V165Z" fill="white"/>
<path d="M300.602 222.706H288.076V234.166H300.602V222.706Z" fill="white"/>
<path d="M300.602 241.099H288.076V252.559H300.602V241.099Z" fill="white"/>
<path d="M374.748 172H362.222V183.46H374.748V172Z" fill="white"/>
<path d="M469.437 259.779H456.911V271.239H469.437V259.779Z" fill="white"/>
<path d="M521.63 100.294H509.104V111.754H521.63V100.294Z" fill="white"/>
<path d="M546.683 100.294H534.156V111.754H546.683V100.294Z" fill="white"/>
<path d="M521.63 123.214H509.104V134.674H521.63V123.214Z" fill="white"/>
<path d="M674.588 287.932H662.062V299.392H674.588V287.932Z" fill="white"/>
<path d="M695.351 287.932H682.824V299.392H695.351V287.932Z" fill="white"/>
<path d="M716.301 287.932H703.775V299.392H716.301V287.932Z" fill="white"/>
<path d="M802.253 265.509H789.727V276.969H802.253V265.509Z" fill="white"/>
<path d="M1100.24 311H1087.71V322.46H1100.24V311Z" fill="white"/>
<path d="M1127.38 311H1114.85V322.46H1127.38V311Z" fill="white"/>
<path d="M1154.51 311H1141.99V322.46H1154.51V311Z" fill="white"/>
<path d="M1370.51 263.236H1357.99V274.696H1370.51V263.236Z" fill="white"/>
<path d="M1390.54 263.236H1378.01V274.696H1390.54V263.236Z" fill="white"/>
<path d="M1370.51 282.68H1357.99V294.14H1370.51V282.68Z" fill="white"/>
<path d="M823.13 265.509H810.604V276.969H823.13V265.509Z" fill="white"/>
<path d="M802.253 285.564H789.727V297.024H802.253V285.564Z" fill="white"/>
<path d="M802.253 305.619H789.727V317.079H802.253V305.619Z" fill="white"/>
<path d="M493.55 259.779H481.024V271.239H493.55V259.779Z" fill="white"/>
<path d="M400.844 172H388.318V183.46H400.844V172Z" fill="white"/>
</g>
</g>
<mask id="mask2_192_675" style="mask-type:luminance" maskUnits="userSpaceOnUse" x="1432" y="0" width="1446" height="382">
<path d="M2878 0H1432V382H2878V0Z" fill="white"/>
</mask>
<g mask="url(#mask2_192_675)">
<mask id="mask3_192_675" style="mask-type:luminance" maskUnits="userSpaceOnUse" x="1432" y="0" width="1446" height="382">
<path d="M2878 0H1432V382H2878V0Z" fill="white"/>
</mask>
<g mask="url(#mask3_192_675)">
<mask id="mask4_192_675" style="mask-type:luminance" maskUnits="userSpaceOnUse" x="1432" y="0" width="1448" height="382">
<path d="M2879 0H1432V382H2879V0Z" fill="white"/>
</mask>
<g mask="url(#mask4_192_675)">
<path d="M1425.97 382V206.076L1504.92 206L1505.35 381.752" fill="#3B76EF"/>
<path d="M1498.9 381.753L1498.32 275.458L1568.83 275L1569.67 382C1569.67 382 1499.14 381.857 1498.9 381.753Z" fill="#3B76EF"/>
<path d="M1551.58 382V160L1696.28 160.632L1695.59 382" fill="#3B76EF"/>
<path d="M1688.7 382L1687.24 207.923L1732.73 183L1774.66 207.923L1774.64 382" fill="#3B76EF"/>
<path d="M1767.62 382L1767.64 160H1866.1L1865.45 382" fill="#3B76EF"/>
<path d="M1853.04 382L1853.67 250.211L1926.26 250L1927.4 382" fill="#3B76EF"/>
<path d="M1914.37 382V91.4985L2010.95 91.5176L2010.94 382" fill="#3B76EF"/>
<path d="M1997.74 382L1998.25 275H2185.65L2184.69 382" fill="#3B76EF"/>
<path d="M2179.62 382L2180.71 253.053L2266.25 228L2354.47 250.53L2352.74 382" fill="#3B76EF"/>
<path d="M2469.71 382L2469.02 294L2734.19 294.477L2734.3 382" fill="#3B76EF"/>
<path d="M2728.28 382L2728.8 252H2885.03L2884.32 382" fill="#3B76EF"/>
<path d="M1450.56 213.175H1438.5V224.635H1450.56V213.175Z" fill="white"/>
<path d="M1522.91 285.755H1510.85V297.215H1522.91V285.755Z" fill="white"/>
<path d="M1472.67 213.175H1460.61V224.635H1472.67V213.175Z" fill="white"/>
<path d="M1568.63 164.948H1556.57V176.408H1568.63V164.948Z" fill="white"/>
<path d="M1568.63 181.66H1556.57V193.12H1568.63V181.66Z" fill="white"/>
<path d="M1588.76 165H1576.7V176.46H1588.76V165Z" fill="white"/>
<path d="M1721.37 222.706H1709.31V234.166H1721.37V222.706Z" fill="white"/>
<path d="M1721.37 241.099H1709.31V252.559H1721.37V241.099Z" fill="white"/>
<path d="M1792.75 172H1780.69V183.46H1792.75V172Z" fill="white"/>
<path d="M1883.9 259.779H1871.84V271.239H1883.9V259.779Z" fill="white"/>
<path d="M1934.14 100.294H1922.08V111.754H1934.14V100.294Z" fill="white"/>
<path d="M1958.26 100.294H1946.2V111.754H1958.26V100.294Z" fill="white"/>
<path d="M1934.14 123.214H1922.08V134.674H1934.14V123.214Z" fill="white"/>
<path d="M2081.38 287.932H2069.33V299.392H2081.38V287.932Z" fill="white"/>
<path d="M2101.37 287.932H2089.31V299.392H2101.37V287.932Z" fill="white"/>
<path d="M2121.54 287.932H2109.48V299.392H2121.54V287.932Z" fill="white"/>
<path d="M2204.28 265.509H2192.22V276.969H2204.28V265.509Z" fill="white"/>
<path d="M2491.13 311H2479.07V322.46H2491.13V311Z" fill="white"/>
<path d="M2517.25 311H2505.2V322.46H2517.25V311Z" fill="white"/>
<path d="M2543.38 311H2531.32V322.46H2543.38V311Z" fill="white"/>
<path d="M2751.31 263.236H2739.25V274.696H2751.31V263.236Z" fill="white"/>
<path d="M2770.58 263.236H2758.52V274.696H2770.58V263.236Z" fill="white"/>
<path d="M2751.31 282.68H2739.25V294.14H2751.31V282.68Z" fill="white"/>
<path d="M2224.38 265.509H2212.32V276.969H2224.38V265.509Z" fill="white"/>
<path d="M2204.28 285.564H2192.22V297.024H2204.28V285.564Z" fill="white"/>
<path d="M2204.28 305.619H2192.22V317.079H2204.28V305.619Z" fill="white"/>
<path d="M1907.11 259.779H1895.05V271.239H1907.11V259.779Z" fill="white"/>
<path d="M1817.87 172H1805.81V183.46H1817.87V172Z" fill="white"/>
</g>
</g>
</g>
</g>
<g clip-path="url(#clip1_192_675)">
<mask id="mask5_192_675" style="mask-type:luminance" maskUnits="userSpaceOnUse" x="2822" y="0" width="2878" height="382">
<path d="M5700 0H2822V382H5700V0Z" fill="white"/>
</mask>
<g mask="url(#mask5_192_675)">
<mask id="mask6_192_675" style="mask-type:luminance" maskUnits="userSpaceOnUse" x="2822" y="0" width="1499" height="382">
<path d="M4321 0H2822V382H4321V0Z" fill="white"/>
</mask>
<g mask="url(#mask6_192_675)">
<mask id="mask7_192_675" style="mask-type:luminance" maskUnits="userSpaceOnUse" x="2822" y="0" width="1504" height="382">
<path d="M4325.17 0H2822V382H4325.17V0Z" fill="white"/>
</mask>
<g mask="url(#mask7_192_675)">
<path d="M2817.82 382V206.076L2897.76 206L2898.2 381.752" fill="#3B76EF"/>
<path d="M2891.5 381.753L2890.9 275.458L2964.15 275L2965.01 382C2965.01 382 2891.74 381.857 2891.5 381.753Z" fill="#3B76EF"/>
<path d="M2946.22 382V160L3096.54 160.632L3095.82 382" fill="#3B76EF"/>
<path d="M3088.67 382L3087.14 207.923L3134.4 183L3177.96 207.923L3177.93 382" fill="#3B76EF"/>
<path d="M3170.65 382L3170.67 160H3272.95L3272.27 382" fill="#3B76EF"/>
<path d="M3259.38 382L3260.04 250.211L3335.45 250L3336.63 382" fill="#3B76EF"/>
<path d="M3323.09 382V91.4985L3423.42 91.5176L3423.41 382" fill="#3B76EF"/>
<path d="M3409.7 382L3410.23 275H3604.9L3603.91 382" fill="#3B76EF"/>
<path d="M3598.64 382L3599.78 253.053L3688.63 228L3780.27 250.53L3778.47 382" fill="#3B76EF"/>
<path d="M3899.99 382L3899.27 294L4174.74 294.477L4174.85 382" fill="#3B76EF"/>
<path d="M4168.59 382L4169.13 252H4331.43L4330.69 382" fill="#3B76EF"/>
<path d="M2841.28 213.175H2828.75V224.635H2841.28V213.175Z" fill="white"/>
<path d="M2916.44 285.755H2903.91V297.215H2916.44V285.755Z" fill="white"/>
<path d="M2864.25 213.175H2851.72V224.635H2864.25V213.175Z" fill="white"/>
<path d="M2963.94 164.948H2951.41V176.408H2963.94V164.948Z" fill="white"/>
<path d="M2963.94 181.66H2951.41V193.12H2963.94V181.66Z" fill="white"/>
<path d="M2984.84 165H2972.32V176.46H2984.84V165Z" fill="white"/>
<path d="M3122.6 222.706H3110.08V234.166H3122.6V222.706Z" fill="white"/>
<path d="M3122.6 241.099H3110.08V252.559H3122.6V241.099Z" fill="white"/>
<path d="M3196.75 172H3184.22V183.46H3196.75V172Z" fill="white"/>
<path d="M3291.44 259.779H3278.91V271.239H3291.44V259.779Z" fill="white"/>
<path d="M3343.63 100.294H3331.1V111.754H3343.63V100.294Z" fill="white"/>
<path d="M3368.68 100.294H3356.16V111.754H3368.68V100.294Z" fill="white"/>
<path d="M3343.63 123.214H3331.1V134.674H3343.63V123.214Z" fill="white"/>
<path d="M3496.59 287.932H3484.06V299.392H3496.59V287.932Z" fill="white"/>
<path d="M3517.35 287.932H3504.82V299.392H3517.35V287.932Z" fill="white"/>
<path d="M3538.3 287.932H3525.78V299.392H3538.3V287.932Z" fill="white"/>
<path d="M3624.25 265.509H3611.73V276.969H3624.25V265.509Z" fill="white"/>
<path d="M3922.24 311H3909.71V322.46H3922.24V311Z" fill="white"/>
<path d="M3949.38 311H3936.85V322.46H3949.38V311Z" fill="white"/>
<path d="M3976.51 311H3963.99V322.46H3976.51V311Z" fill="white"/>
<path d="M4192.51 263.236H4179.99V274.696H4192.51V263.236Z" fill="white"/>
<path d="M4212.54 263.236H4200.01V274.696H4212.54V263.236Z" fill="white"/>
<path d="M4192.51 282.68H4179.99V294.14H4192.51V282.68Z" fill="white"/>
<path d="M3645.13 265.509H3632.6V276.969H3645.13V265.509Z" fill="white"/>
<path d="M3624.25 285.564H3611.73V297.024H3624.25V285.564Z" fill="white"/>
<path d="M3624.25 305.619H3611.73V317.079H3624.25V305.619Z" fill="white"/>
<path d="M3315.55 259.779H3303.02V271.239H3315.55V259.779Z" fill="white"/>
<path d="M3222.84 172H3210.32V183.46H3222.84V172Z" fill="white"/>
</g>
</g>
<mask id="mask8_192_675" style="mask-type:luminance" maskUnits="userSpaceOnUse" x="4254" y="0" width="1446" height="382">
<path d="M5700 0H4254V382H5700V0Z" fill="white"/>
</mask>
<g mask="url(#mask8_192_675)">
<mask id="mask9_192_675" style="mask-type:luminance" maskUnits="userSpaceOnUse" x="4254" y="0" width="1446" height="382">
<path d="M5700 0H4254V382H5700V0Z" fill="white"/>
</mask>
<g mask="url(#mask9_192_675)">
<mask id="mask10_192_675" style="mask-type:luminance" maskUnits="userSpaceOnUse" x="4254" y="0" width="1447" height="382">
<path d="M5701 0H4254V382H5701V0Z" fill="white"/>
</mask>
<g mask="url(#mask10_192_675)">
<path d="M4247.97 382V206.076L4326.92 206L4327.35 381.752" fill="#3B76EF"/>
<path d="M4320.9 381.753L4320.32 275.458L4390.83 275L4391.67 382C4391.67 382 4321.14 381.857 4320.9 381.753Z" fill="#3B76EF"/>
<path d="M4373.58 382V160L4518.28 160.632L4517.59 382" fill="#3B76EF"/>
<path d="M4510.7 382L4509.24 207.923L4554.73 183L4596.66 207.923L4596.64 382" fill="#3B76EF"/>
<path d="M4589.62 382L4589.64 160H4688.1L4687.45 382" fill="#3B76EF"/>
<path d="M4675.04 382L4675.67 250.211L4748.26 250L4749.4 382" fill="#3B76EF"/>
<path d="M4736.37 382V91.4985L4832.95 91.5176L4832.94 382" fill="#3B76EF"/>
<path d="M4819.74 382L4820.25 275H5007.65L5006.69 382" fill="#3B76EF"/>
<path d="M5001.62 382L5002.71 253.053L5088.25 228L5176.47 250.53L5174.74 382" fill="#3B76EF"/>
<path d="M5291.71 382L5291.02 294L5556.19 294.477L5556.3 382" fill="#3B76EF"/>
<path d="M5550.28 382L5550.8 252H5707.03L5706.32 382" fill="#3B76EF"/>
<path d="M4272.56 213.175H4260.5V224.635H4272.56V213.175Z" fill="white"/>
<path d="M4344.91 285.755H4332.85V297.215H4344.91V285.755Z" fill="white"/>
<path d="M4294.67 213.175H4282.61V224.635H4294.67V213.175Z" fill="white"/>
<path d="M4390.63 164.948H4378.57V176.408H4390.63V164.948Z" fill="white"/>
<path d="M4390.63 181.66H4378.57V193.12H4390.63V181.66Z" fill="white"/>
<path d="M4410.76 165H4398.7V176.46H4410.76V165Z" fill="white"/>
<path d="M4543.37 222.706H4531.31V234.166H4543.37V222.706Z" fill="white"/>
<path d="M4543.37 241.099H4531.31V252.559H4543.37V241.099Z" fill="white"/>
<path d="M4614.75 172H4602.69V183.46H4614.75V172Z" fill="white"/>
<path d="M4705.9 259.779H4693.84V271.239H4705.9V259.779Z" fill="white"/>
<path d="M4756.14 100.294H4744.08V111.754H4756.14V100.294Z" fill="white"/>
<path d="M4780.26 100.294H4768.2V111.754H4780.26V100.294Z" fill="white"/>
<path d="M4756.14 123.214H4744.08V134.674H4756.14V123.214Z" fill="white"/>
<path d="M4903.38 287.932H4891.33V299.392H4903.38V287.932Z" fill="white"/>
<path d="M4923.37 287.932H4911.31V299.392H4923.37V287.932Z" fill="white"/>
<path d="M4943.54 287.932H4931.48V299.392H4943.54V287.932Z" fill="white"/>
<path d="M5026.28 265.509H5014.22V276.969H5026.28V265.509Z" fill="white"/>
<path d="M5313.13 311H5301.07V322.46H5313.13V311Z" fill="white"/>
<path d="M5339.25 311H5327.2V322.46H5339.25V311Z" fill="white"/>
<path d="M5365.38 311H5353.32V322.46H5365.38V311Z" fill="white"/>
<path d="M5573.31 263.236H5561.25V274.696H5573.31V263.236Z" fill="white"/>
<path d="M5592.58 263.236H5580.52V274.696H5592.58V263.236Z" fill="white"/>
<path d="M5573.31 282.68H5561.25V294.14H5573.31V282.68Z" fill="white"/>
<path d="M5046.38 265.509H5034.32V276.969H5046.38V265.509Z" fill="white"/>
<path d="M5026.28 285.564H5014.22V297.024H5026.28V285.564Z" fill="white"/>
<path d="M5026.28 305.619H5014.22V317.079H5026.28V305.619Z" fill="white"/>
<path d="M4729.11 259.779H4717.05V271.239H4729.11V259.779Z" fill="white"/>
<path d="M4639.87 172H4627.81V183.46H4639.87V172Z" fill="white"/>
</g>
</g>
</g>
</g>
</g>
<defs>
<clipPath id="clip0_192_675">
<rect width="2878" height="382" fill="white"/>
</clipPath>
<clipPath id="clip1_192_675">
<rect width="2878" height="382" fill="white" transform="translate(2822)"/>
</clipPath>
</defs>
</svg>
