<svg width="5700" height="382" viewBox="0 0 5700 382" fill="none" xmlns="http://www.w3.org/2000/svg">
<g clip-path="url(#clip0_192_675)">
<mask id="mask0_192_675" style="mask-type:luminance" maskUnits="userSpaceOnUse" x="0" y="0" width="1499" height="382">
<path d="M1499 0H0V382H1499V0Z" fill="white"/>
</mask>
<g mask="url(#mask0_192_675)">
<mask id="mask1_192_675" style="mask-type:luminance" maskUnits="userSpaceOnUse" x="0" y="0" width="1504" height="382">
<path d="M1503.17 0H0V382H1503.17V0Z" fill="white"/>
</mask>
<g mask="url(#mask1_192_675)">
<path d="M-4.17529 382V206.076L75.7589 206L76.2024 381.752" fill="#3B76EF"/>
<path d="M69.5018 381.753L68.8955 275.458L142.146 275L143.01 382C143.01 382 69.7443 381.857 69.5018 381.753Z" fill="#3B76EF"/>
<path d="M124.22 382V160L274.537 160.632L273.817 382" fill="#3B76EF"/>
<path d="M266.67 382L266.67 207.923L355.959 207.923L355.933 382" fill="#3B76EF"/>
<path d="M348.651 382L348.672 160H450.95L450.269 382" fill="#3B76EF"/>
<path d="M437.38 382L438.039 250.211L513.448 250L514.626 382" fill="#3B76EF"/>
<path d="M501.086 382V91.4985L601.423 91.5176L601.412 382" fill="#3B76EF"/>
<path d="M587.696 382L588.233 275H782.899L781.907 382" fill="#3B76EF"/>
<path d="M776.636 382V250.53H956.472V382" fill="#3B76EF"/>
<path d="M1077.99 382L1077.27 294L1352.74 294.477L1352.85 382" fill="#3B76EF"/>
<path d="M1346.59 382L1347.13 252H1509.43L1508.69 382" fill="#3B76EF"/>
<path d="M19.2808 213.175H6.75439V224.635H19.2808V213.175Z" fill="white"/>
<path d="M94.439 285.755H81.9126V297.215H94.439V285.755Z" fill="white"/>
<path d="M42.2451 213.175H29.7188V224.635H42.2451V213.175Z" fill="white"/>
<path d="M141.935 164.948H129.409V176.408H141.935V164.948Z" fill="white"/>
<path d="M141.935 181.66H129.409V193.12H141.935V181.66Z" fill="white"/>
<path d="M162.843 165H150.316V176.46H162.843V165Z" fill="white"/>
<path d="M300.602 222.706H288.076V234.166H300.602V222.706Z" fill="white"/>
<path d="M300.602 241.099H288.076V252.559H300.602V241.099Z" fill="white"/>
<path d="M374.748 172H362.222V183.46H374.748V172Z" fill="white"/>
<path d="M469.437 259.779H456.911V271.239H469.437V259.779Z" fill="white"/>
<path d="M521.63 100.294H509.104V111.754H521.63V100.294Z" fill="white"/>
<path d="M546.683 100.294H534.156V111.754H546.683V100.294Z" fill="white"/>
<path d="M521.63 123.214H509.104V134.674H521.63V123.214Z" fill="white"/>
<path d="M674.588 287.932H662.062V299.392H674.588V287.932Z" fill="white"/>
<path d="M695.351 287.932H682.824V299.392H695.351V287.932Z" fill="white"/>
<path d="M716.301 287.932H703.775V299.392H716.301V287.932Z" fill="white"/>
<path d="M802.253 265.509H789.727V276.969H802.253V265.509Z" fill="white"/>
<path d="M1100.24 311H1087.71V322.46H1100.24V311Z" fill="white"/>
<path d="M1127.38 311H1114.85V322.46H1127.38V311Z" fill="white"/>
<path d="M1154.51 311H1141.99V322.46H1154.51V311Z" fill="white"/>
<path d="M1370.51 263.236H1357.99V274.696H1370.51V263.236Z" fill="white"/>
<path d="M1390.54 263.236H1378.01V274.696H1390.54V263.236Z" fill="white"/>
<path d="M1370.51 282.68H1357.99V294.14H1370.51V282.68Z" fill="white"/>
<path d="M823.13 265.509H810.604V276.969H823.13V265.509Z" fill="white"/>
<path d="M802.253 285.564H789.727V297.024H802.253V285.564Z" fill="white"/>
<path d="M802.253 305.619H789.727V317.079H802.253V305.619Z" fill="white"/>
<path d="M493.55 259.779H481.024V271.239H493.55V259.779Z" fill="white"/>
<path d="M400.844 172H388.318V183.46H400.844V172Z" fill="white"/>
</g>
</g>
<mask id="mask2_192_675" style="mask-type:luminance" maskUnits="userSpaceOnUse" x="1432" y="0" width="1446" height="382">
<path d="M2878 0H1432V382H2878V0Z" fill="white"/>
</mask>
<g mask="url(#mask2_192_675)">
<mask id="mask3_192_675" style="mask-type:luminance" maskUnits="userSpaceOnUse" x="1432" y="0" width="1446" height="382">
<path d="M2878 0H1432V382H2878V0Z" fill="white"/>
</mask>
<g mask="url(#mask3_192_675)">
<mask id="mask4_192_675" style="mask-type:luminance" maskUnits="userSpaceOnUse" x="1432" y="0" width="1448" height="382">
<path d="M2879 0H1432V382H2879V0Z" fill="white"/>
</mask>
<g mask="url(#mask4_192_675)">
<path d="M2177 381.947V253L2356.84 253V381.947" fill="#3B76EF"/>
<path d="M1425.97 382V206.076L1504.92 206L1505.35 381.752" fill="#3B76EF"/>
<path d="M1498.9 381.753L1498.32 275.458L1568.83 275L1569.67 382C1569.67 382 1499.14 381.857 1498.9 381.753Z" fill="#3B76EF"/>
<path d="M1551.58 382V160L1696.28 160.632L1695.59 382" fill="#3B76EF"/>
<path d="M1688.7 382L1688.7 207.923L1774.66 207.923L1774.64 382" fill="#3B76EF"/>
<path d="M1767.62 382L1767.64 160H1866.1L1865.45 382" fill="#3B76EF"/>
<path d="M1853.04 382L1853.67 250.211L1926.26 250L1927.4 382" fill="#3B76EF"/>
<path d="M1914.37 382V91.4985L2010.95 91.5176L2010.94 382" fill="#3B76EF"/>
<path d="M1997.74 382L1998.25 275H2185.65L2184.69 382" fill="#3B76EF"/>
<path d="M2469.71 382L2469.02 294L2734.19 294.477L2734.3 382" fill="#3B76EF"/>
<path d="M2728.28 382L2728.8 252H2885.03L2884.32 382" fill="#3B76EF"/>
<path d="M1450.56 213.175H1438.5V224.635H1450.56V213.175Z" fill="white"/>
<path d="M1522.91 285.755H1510.85V297.215H1522.91V285.755Z" fill="white"/>
<path d="M1472.67 213.175H1460.61V224.635H1472.67V213.175Z" fill="white"/>
<path d="M1568.63 164.948H1556.57V176.408H1568.63V164.948Z" fill="white"/>
<path d="M1568.63 181.66H1556.57V193.12H1568.63V181.66Z" fill="white"/>
<path d="M1588.76 165H1576.7V176.46H1588.76V165Z" fill="white"/>
<path d="M1721.37 222.706H1709.31V234.166H1721.37V222.706Z" fill="white"/>
<path d="M1721.37 241.099H1709.31V252.559H1721.37V241.099Z" fill="white"/>
<path d="M1792.75 172H1780.69V183.46H1792.75V172Z" fill="white"/>
<path d="M1883.9 259.779H1871.84V271.239H1883.9V259.779Z" fill="white"/>
<path d="M1934.14 100.294H1922.08V111.754H1934.14V100.294Z" fill="white"/>
<path d="M1958.26 100.294H1946.2V111.754H1958.26V100.294Z" fill="white"/>
<path d="M1934.14 123.214H1922.08V134.674H1934.14V123.214Z" fill="white"/>
<path d="M2081.38 287.932H2069.33V299.392H2081.38V287.932Z" fill="white"/>
<path d="M2101.37 287.932H2089.31V299.392H2101.37V287.932Z" fill="white"/>
<path d="M2121.54 287.932H2109.48V299.392H2121.54V287.932Z" fill="white"/>
<path d="M2491.13 311H2479.07V322.46H2491.13V311Z" fill="white"/>
<path d="M2517.25 311H2505.2V322.46H2517.25V311Z" fill="white"/>
<path d="M2543.38 311H2531.32V322.46H2543.38V311Z" fill="white"/>
<path d="M2751.31 263.236H2739.25V274.696H2751.31V263.236Z" fill="white"/>
<path d="M2770.58 263.236H2758.52V274.696H2770.58V263.236Z" fill="white"/>
<path d="M2751.31 282.68H2739.25V294.14H2751.31V282.68Z" fill="white"/>
<path d="M1907.11 259.779H1895.05V271.239H1907.11V259.779Z" fill="white"/>
<path d="M1817.87 172H1805.81V183.46H1817.87V172Z" fill="white"/>
<path d="M2199.06 264H2187V275.46H2199.06V264Z" fill="white"/>
<path d="M2219.16 264H2207.1V275.46H2219.16V264Z" fill="white"/>
<path d="M2199.06 284.055H2187V295.515H2199.06V284.055Z" fill="white"/>
<path d="M2199.06 304.11H2187V315.57H2199.06V304.11Z" fill="white"/>
</g>
</g>
</g>
</g>
<g clip-path="url(#clip1_192_675)">
<mask id="mask5_192_675" style="mask-type:luminance" maskUnits="userSpaceOnUse" x="2832" y="0" width="2878" height="382">
<path d="M5710 0H2832V382H5710V0Z" fill="white"/>
</mask>
<g mask="url(#mask5_192_675)">
<mask id="mask6_192_675" style="mask-type:luminance" maskUnits="userSpaceOnUse" x="2832" y="0" width="1499" height="382">
<path d="M4331 0H2832V382H4331V0Z" fill="white"/>
</mask>
<g mask="url(#mask6_192_675)">
<mask id="mask7_192_675" style="mask-type:luminance" maskUnits="userSpaceOnUse" x="2832" y="0" width="1504" height="382">
<path d="M4335.17 0H2832V382H4335.17V0Z" fill="white"/>
</mask>
<g mask="url(#mask7_192_675)">
<path d="M2827.82 382V206.076L2907.76 206L2908.2 381.752" fill="#3B76EF"/>
<path d="M2901.5 381.753L2900.9 275.458L2974.15 275L2975.01 382C2975.01 382 2901.74 381.857 2901.5 381.753Z" fill="#3B76EF"/>
<path d="M2956.22 382V160L3106.54 160.632L3105.82 382" fill="#3B76EF"/>
<path d="M3098.67 382L3097.14 207.923L3187.96 207.923L3187.93 382" fill="#3B76EF"/>
<path d="M3180.65 382L3180.67 160H3282.95L3282.27 382" fill="#3B76EF"/>
<path d="M3269.38 382L3270.04 250.211L3345.45 250L3346.63 382" fill="#3B76EF"/>
<path d="M3333.09 382V91.4985L3433.42 91.5176L3433.41 382" fill="#3B76EF"/>
<path d="M3419.7 382L3420.23 275H3614.9L3613.91 382" fill="#3B76EF"/>
<path d="M3608.64 382V253.053L3788.47 253.053V382" fill="#3B76EF"/>
<path d="M3909.99 382L3909.27 294L4184.74 294.477L4184.85 382" fill="#3B76EF"/>
<path d="M4178.59 382L4179.13 252H4341.43L4340.69 382" fill="#3B76EF"/>
<path d="M2851.28 213.175H2838.75V224.635H2851.28V213.175Z" fill="white"/>
<path d="M2926.44 285.755H2913.91V297.215H2926.44V285.755Z" fill="white"/>
<path d="M2874.25 213.175H2861.72V224.635H2874.25V213.175Z" fill="white"/>
<path d="M2973.94 164.948H2961.41V176.408H2973.94V164.948Z" fill="white"/>
<path d="M2973.94 181.66H2961.41V193.12H2973.94V181.66Z" fill="white"/>
<path d="M2994.84 165H2982.32V176.46H2994.84V165Z" fill="white"/>
<path d="M3132.6 222.706H3120.08V234.166H3132.6V222.706Z" fill="white"/>
<path d="M3132.6 241.099H3120.08V252.559H3132.6V241.099Z" fill="white"/>
<path d="M3206.75 172H3194.22V183.46H3206.75V172Z" fill="white"/>
<path d="M3301.44 259.779H3288.91V271.239H3301.44V259.779Z" fill="white"/>
<path d="M3353.63 100.294H3341.1V111.754H3353.63V100.294Z" fill="white"/>
<path d="M3378.68 100.294H3366.16V111.754H3378.68V100.294Z" fill="white"/>
<path d="M3353.63 123.214H3341.1V134.674H3353.63V123.214Z" fill="white"/>
<path d="M3506.59 287.932H3494.06V299.392H3506.59V287.932Z" fill="white"/>
<path d="M3527.35 287.932H3514.82V299.392H3527.35V287.932Z" fill="white"/>
<path d="M3548.3 287.932H3535.78V299.392H3548.3V287.932Z" fill="white"/>
<path d="M3634.25 265.509H3621.73V276.969H3634.25V265.509Z" fill="white"/>
<path d="M3932.24 311H3919.71V322.46H3932.24V311Z" fill="white"/>
<path d="M3959.38 311H3946.85V322.46H3959.38V311Z" fill="white"/>
<path d="M3986.51 311H3973.99V322.46H3986.51V311Z" fill="white"/>
<path d="M4202.51 263.236H4189.99V274.696H4202.51V263.236Z" fill="white"/>
<path d="M4222.54 263.236H4210.01V274.696H4222.54V263.236Z" fill="white"/>
<path d="M4202.51 282.68H4189.99V294.14H4202.51V282.68Z" fill="white"/>
<path d="M3655.13 265.509H3642.6V276.969H3655.13V265.509Z" fill="white"/>
<path d="M3634.25 285.564H3621.73V297.024H3634.25V285.564Z" fill="white"/>
<path d="M3634.25 305.619H3621.73V317.079H3634.25V305.619Z" fill="white"/>
<path d="M3325.55 259.779H3313.02V271.239H3325.55V259.779Z" fill="white"/>
<path d="M3232.84 172H3220.32V183.46H3232.84V172Z" fill="white"/>
</g>
</g>
<mask id="mask8_192_675" style="mask-type:luminance" maskUnits="userSpaceOnUse" x="4264" y="0" width="1446" height="382">
<path d="M5710 0H4264V382H5710V0Z" fill="white"/>
</mask>
<g mask="url(#mask8_192_675)">
<mask id="mask9_192_675" style="mask-type:luminance" maskUnits="userSpaceOnUse" x="4264" y="0" width="1446" height="382">
<path d="M5710 0H4264V382H5710V0Z" fill="white"/>
</mask>
<g mask="url(#mask9_192_675)">
<mask id="mask10_192_675" style="mask-type:luminance" maskUnits="userSpaceOnUse" x="4264" y="0" width="1442" height="382">
<path d="M5706 0H4264V382H5706V0Z" fill="white"/>
</mask>
<g mask="url(#mask10_192_675)">
<path d="M4257.97 382V206.076L4336.92 206L4337.35 381.752" fill="#3B76EF"/>
<path d="M4330.9 381.753L4330.32 275.458L4400.83 275L4401.67 382C4401.67 382 4331.14 381.857 4330.9 381.753Z" fill="#3B76EF"/>
<path d="M4383.58 382V160L4528.28 160.632L4527.59 382" fill="#3B76EF"/>
<path d="M4520.7 382L4520.7 207.923L4606.66 207.923L4606.64 382" fill="#3B76EF"/>
<path d="M4599.62 382L4599.64 160H4698.1L4697.45 382" fill="#3B76EF"/>
<path d="M4685.04 382L4685.67 250.211L4758.26 250L4759.4 382" fill="#3B76EF"/>
<path d="M4746.37 382V91.4985L4842.95 91.5176L4842.94 382" fill="#3B76EF"/>
<path d="M4829.74 382L4830.25 275H5017.65L5016.69 382" fill="#3B76EF"/>
<path d="M5011.62 382V250.53H5184.74V382" fill="#3B76EF"/>
<path d="M5301.71 382L5301.02 294L5566.19 294.477L5566.3 382" fill="#3B76EF"/>
<path d="M5560.28 382L5560.8 252H5710.5V382.5" fill="#3B76EF"/>
<path d="M4282.56 213.175H4270.5V224.635H4282.56V213.175Z" fill="white"/>
<path d="M4354.91 285.755H4342.85V297.215H4354.91V285.755Z" fill="white"/>
<path d="M4304.67 213.175H4292.61V224.635H4304.67V213.175Z" fill="white"/>
<path d="M4400.63 164.948H4388.57V176.408H4400.63V164.948Z" fill="white"/>
<path d="M4400.63 181.66H4388.57V193.12H4400.63V181.66Z" fill="white"/>
<path d="M4420.76 165H4408.7V176.46H4420.76V165Z" fill="white"/>
<path d="M4553.37 222.706H4541.31V234.166H4553.37V222.706Z" fill="white"/>
<path d="M4553.37 241.099H4541.31V252.559H4553.37V241.099Z" fill="white"/>
<path d="M4624.75 172H4612.69V183.46H4624.75V172Z" fill="white"/>
<path d="M4715.9 259.779H4703.84V271.239H4715.9V259.779Z" fill="white"/>
<path d="M4766.14 100.294H4754.08V111.754H4766.14V100.294Z" fill="white"/>
<path d="M4790.26 100.294H4778.2V111.754H4790.26V100.294Z" fill="white"/>
<path d="M4766.14 123.214H4754.08V134.674H4766.14V123.214Z" fill="white"/>
<path d="M4913.38 287.932H4901.33V299.392H4913.38V287.932Z" fill="white"/>
<path d="M4933.37 287.932H4921.31V299.392H4933.37V287.932Z" fill="white"/>
<path d="M4953.54 287.932H4941.48V299.392H4953.54V287.932Z" fill="white"/>
<path d="M5036.28 265.509H5024.22V276.969H5036.28V265.509Z" fill="white"/>
<path d="M5323.13 311H5311.07V322.46H5323.13V311Z" fill="white"/>
<path d="M5349.25 311H5337.2V322.46H5349.25V311Z" fill="white"/>
<path d="M5375.38 311H5363.32V322.46H5375.38V311Z" fill="white"/>
<path d="M5583.31 263.236H5571.25V274.696H5583.31V263.236Z" fill="white"/>
<path d="M5602.58 263.236H5590.52V274.696H5602.58V263.236Z" fill="white"/>
<path d="M5583.31 282.68H5571.25V294.14H5583.31V282.68Z" fill="white"/>
<path d="M5056.38 265.509H5044.32V276.969H5056.38V265.509Z" fill="white"/>
<path d="M5036.28 285.564H5024.22V297.024H5036.28V285.564Z" fill="white"/>
<path d="M5036.28 305.619H5024.22V317.079H5036.28V305.619Z" fill="white"/>
<path d="M4739.11 259.779H4727.05V271.239H4739.11V259.779Z" fill="white"/>
<path d="M4649.87 172H4637.81V183.46H4649.87V172Z" fill="white"/>
</g>
</g>
</g>
</g>
</g>
<defs>
<clipPath id="clip0_192_675">
<rect width="2878" height="382" fill="white"/>
</clipPath>
<clipPath id="clip1_192_675">
<rect width="2878" height="382" fill="white" transform="translate(2822)"/>
</clipPath>
</defs>
</svg>
