<svg width="2876" height="382" viewBox="0 0 2876 382" fill="none" xmlns="http://www.w3.org/2000/svg">
<g clip-path="url(#clip0_178_221)">
<mask id="mask0_178_221" style="mask-type:luminance" maskUnits="userSpaceOnUse" x="0" y="0" width="1440" height="382">
<path d="M1440 0H0V382H1440V0Z" fill="white"/>
</mask>
<g mask="url(#mask0_178_221)">
<path d="M-3 382V206.076L71.5862 206L72 381.752" fill="#3B76EF"/>
<path d="M68.5072 381.753L68 275.458L129.277 275L130 382C130 382 68.71 381.857 68.5072 381.753Z" fill="#3B76EF"/>
<path d="M119 382V160L263 160.632L262.31 382" fill="#3B76EF"/>
<path d="M259.414 382L258 207.923L301.713 183L342 207.923L341.977 382" fill="#3B76EF"/>
<path d="M334 382L334.02 160H432L431.347 382" fill="#3B76EF"/>
<path d="M421 382L421.64 250.211L494.856 250L496 382" fill="#3B76EF"/>
<path d="M480.03 382V91.4985L576.15 91.5176L576.14 382" fill="#3B76EF"/>
<path d="M563 382L563.519 275H752L751.04 382" fill="#3B76EF"/>
<path d="M744 382L745.112 253.053L831.697 228L921 250.53L919.249 382" fill="#3B76EF"/>
<path d="M912 382L912.457 86.8645L972.891 0L1035 84.4846L1034.34 382" fill="#3B76EF"/>
<path d="M1027.7 382L1027 294L1295.89 294.477L1296 382" fill="#3B76EF"/>
<path d="M1290 382L1290.51 252H1443L1442.31 382" fill="#3B76EF"/>
<path d="M18.4698 213.175H6.46973V224.635H18.4698V213.175Z" fill="white"/>
<path d="M90.4702 285.755H78.4702V297.215H90.4702V285.755Z" fill="white"/>
<path d="M40.4702 213.175H28.4702V224.635H40.4702V213.175Z" fill="white"/>
<path d="M135.97 164.948H123.97V176.408H135.97V164.948Z" fill="white"/>
<path d="M135.97 181.66H123.97V193.12H135.97V181.66Z" fill="white"/>
<path d="M156 165H144V176.46H156V165Z" fill="white"/>
<path d="M287.97 222.706H275.97V234.166H287.97V222.706Z" fill="white"/>
<path d="M287.97 241.099H275.97V252.559H287.97V241.099Z" fill="white"/>
<path d="M359 172H347V183.46H359V172Z" fill="white"/>
<path d="M449.71 259.779H437.71V271.239H449.71V259.779Z" fill="white"/>
<path d="M499.71 100.294H487.71V111.754H499.71V100.294Z" fill="white"/>
<path d="M523.71 100.294H511.71V111.754H523.71V100.294Z" fill="white"/>
<path d="M499.71 123.214H487.71V134.674H499.71V123.214Z" fill="white"/>
<path d="M646.24 287.932H634.24V299.392H646.24V287.932Z" fill="white"/>
<path d="M666.13 287.932H654.13V299.392H666.13V287.932Z" fill="white"/>
<path d="M686.2 287.932H674.2V299.392H686.2V287.932Z" fill="white"/>
<path d="M768.54 265.509H756.54V276.969H768.54V265.509Z" fill="white"/>
<path d="M943 95H931V106.46H943V95Z" fill="white"/>
<path d="M967 95H955V106.46H967V95Z" fill="white"/>
<path d="M1054 311H1042V322.46H1054V311Z" fill="white"/>
<path d="M1080 311H1068V322.46H1080V311Z" fill="white"/>
<path d="M1106 311H1094V322.46H1106V311Z" fill="white"/>
<path d="M1312.92 263.236H1300.92V274.696H1312.92V263.236Z" fill="white"/>
<path d="M1332.1 263.236H1320.1V274.696H1332.1V263.236Z" fill="white"/>
<path d="M1312.92 282.68H1300.92V294.14H1312.92V282.68Z" fill="white"/>
<path d="M788.54 265.509H776.54V276.969H788.54V265.509Z" fill="white"/>
<path d="M768.54 285.564H756.54V297.024H768.54V285.564Z" fill="white"/>
<path d="M768.54 305.619H756.54V317.079H768.54V305.619Z" fill="white"/>
<path d="M472.81 259.779H460.81V271.239H472.81V259.779Z" fill="white"/>
<path d="M384 172H372V183.46H384V172Z" fill="white"/>
</g>
</g>
<g clip-path="url(#clip1_178_221)">
<mask id="mask1_178_221" style="mask-type:luminance" maskUnits="userSpaceOnUse" x="1436" y="0" width="1440" height="382">
<path d="M2876 0H1436V382H2876V0Z" fill="white"/>
</mask>
<g mask="url(#mask1_178_221)">
<mask id="mask2_178_221" style="mask-type:luminance" maskUnits="userSpaceOnUse" x="1436" y="0" width="1440" height="382">
<path d="M2876 0H1436V382H2876V0Z" fill="white"/>
</mask>
<g mask="url(#mask2_178_221)">
<path d="M1433 382V206.076L1507.59 206L1508 381.752" fill="#3B76EF"/>
<path d="M1504.51 381.753L1504 275.458L1565.28 275L1566 382C1566 382 1504.71 381.857 1504.51 381.753Z" fill="#3B76EF"/>
<path d="M1555 382V160L1699 160.632L1698.31 382" fill="#3B76EF"/>
<path d="M1695.41 382L1694 207.923L1737.71 183L1778 207.923L1777.98 382" fill="#3B76EF"/>
<path d="M1770 382L1770.02 160H1868L1867.35 382" fill="#3B76EF"/>
<path d="M1857 382L1857.64 250.211L1930.86 250L1932 382" fill="#3B76EF"/>
<path d="M1916.03 382V91.4985L2012.15 91.5176L2012.14 382" fill="#3B76EF"/>
<path d="M1999 382L1999.52 275H2188L2187.04 382" fill="#3B76EF"/>
<path d="M2180 382L2181.11 253.053L2267.7 228L2357 250.53L2355.25 382" fill="#3B76EF"/>
<path d="M2348 382L2348.46 86.8645L2408.89 0L2471 84.4846L2470.34 382" fill="#3B76EF"/>
<path d="M2463.7 382L2463 294L2731.89 294.477L2732 382" fill="#3B76EF"/>
<path d="M2726 382L2726.51 252H2879L2878.31 382" fill="#3B76EF"/>
<path d="M1454.47 213.175H1442.47V224.635H1454.47V213.175Z" fill="white"/>
<path d="M1526.47 285.755H1514.47V297.215H1526.47V285.755Z" fill="white"/>
<path d="M1476.47 213.175H1464.47V224.635H1476.47V213.175Z" fill="white"/>
<path d="M1571.97 164.948H1559.97V176.408H1571.97V164.948Z" fill="white"/>
<path d="M1571.97 181.66H1559.97V193.12H1571.97V181.66Z" fill="white"/>
<path d="M1592 165H1580V176.46H1592V165Z" fill="white"/>
<path d="M1723.97 222.706H1711.97V234.166H1723.97V222.706Z" fill="white"/>
<path d="M1723.97 241.099H1711.97V252.559H1723.97V241.099Z" fill="white"/>
<path d="M1795 172H1783V183.46H1795V172Z" fill="white"/>
<path d="M1885.71 259.779H1873.71V271.239H1885.71V259.779Z" fill="white"/>
<path d="M1935.71 100.294H1923.71V111.754H1935.71V100.294Z" fill="white"/>
<path d="M1959.71 100.294H1947.71V111.754H1959.71V100.294Z" fill="white"/>
<path d="M1935.71 123.214H1923.71V134.674H1935.71V123.214Z" fill="white"/>
<path d="M2082.24 287.932H2070.24V299.392H2082.24V287.932Z" fill="white"/>
<path d="M2102.13 287.932H2090.13V299.392H2102.13V287.932Z" fill="white"/>
<path d="M2122.2 287.932H2110.2V299.392H2122.2V287.932Z" fill="white"/>
<path d="M2204.54 265.509H2192.54V276.969H2204.54V265.509Z" fill="white"/>
<path d="M2379 95H2367V106.46H2379V95Z" fill="white"/>
<path d="M2403 95H2391V106.46H2403V95Z" fill="white"/>
<path d="M2490 311H2478V322.46H2490V311Z" fill="white"/>
<path d="M2516 311H2504V322.46H2516V311Z" fill="white"/>
<path d="M2542 311H2530V322.46H2542V311Z" fill="white"/>
<path d="M2748.92 263.236H2736.92V274.696H2748.92V263.236Z" fill="white"/>
<path d="M2768.1 263.236H2756.1V274.696H2768.1V263.236Z" fill="white"/>
<path d="M2748.92 282.68H2736.92V294.14H2748.92V282.68Z" fill="white"/>
<path d="M2224.54 265.509H2212.54V276.969H2224.54V265.509Z" fill="white"/>
<path d="M2204.54 285.564H2192.54V297.024H2204.54V285.564Z" fill="white"/>
<path d="M2204.54 305.619H2192.54V317.079H2204.54V305.619Z" fill="white"/>
<path d="M1908.81 259.779H1896.81V271.239H1908.81V259.779Z" fill="white"/>
<path d="M1820 172H1808V183.46H1820V172Z" fill="white"/>
</g>
</g>
</g>
<defs>
<clipPath id="clip0_178_221">
<rect width="1440" height="382" fill="white"/>
</clipPath>
<clipPath id="clip1_178_221">
<rect width="1440" height="382" fill="white" transform="translate(1436)"/>
</clipPath>
</defs>
</svg>
