<?xml version="1.0" encoding="UTF-8"?>
<svg id="Layer_2" data-name="Layer 2" xmlns="http://www.w3.org/2000/svg" viewBox="0 0 39.92 58.69">
  <defs>
    <style>
      .cls-1 {
        fill: #0000d4;
      }

      .cls-2 {
        fill: #3b76ef;
      }
    </style>
  </defs>
  <g id="Layer_1-2" data-name="Layer 1">
    <g>
      <path class="cls-2" d="M0,56.07V10.03c0-.69,.4-1.36,1.11-1.85L11.83,.77c2.39-1.65,6.49-.48,6.49,1.85V56.07c0,1.45-1.7,2.62-3.8,2.62H3.8C1.7,58.69,0,57.51,0,56.07Z"/>
      <path class="cls-2" d="M39.92,19.97V56.37c0,1.12-1.34,2.03-3,2.03h-12.16c-1.66,0-3-.91-3-2.03V28.54c0-.52,.3-1.03,.84-1.41l12.16-8.57c1.87-1.32,5.17-.42,5.17,1.41Z"/>
      <polygon class="cls-1" points="34.95 15.28 34.95 3.49 21.75 3.49 21.75 24.01 34.95 15.28"/>
    </g>
  </g>
</svg>