<svg width="20" height="20" viewBox="0 0 20 20" fill="none" xmlns="http://www.w3.org/2000/svg">
<g clip-path="url(#clip0_118_44)">
<path d="M2.686 0.164062H2.68366C1.97034 0.164062 1.29765 0.441405 0.789996 0.944722C0.280663 1.44941 3.22962e-07 2.11905 3.22962e-07 2.83037C-0.000351237 3.55736 0.286327 4.23869 0.80566 4.74802C1.30933 5.24134 1.99632 5.51837 2.66233 5.50235C2.68166 5.5027 2.701 5.50302 2.72065 5.50302C3.3883 5.50302 4.04931 5.23102 4.54165 4.75103C5.06063 4.24537 5.34731 3.5667 5.34899 2.84002C5.35067 2.12936 5.07267 1.4587 4.567 0.95105C4.06166 0.444061 3.39365 0.164727 2.686 0.164062Z" fill="black"/>
<path d="M4.00009 6.16992H1.30511C0.769448 6.16992 0.333435 6.61957 0.333435 7.17191V18.8365C0.333435 19.3771 0.79144 19.8338 1.33343 19.8338H4.00009C4.54208 19.8338 5.00009 19.3862 5.00009 18.8568V7.16992C5.00009 6.62793 4.54212 6.16992 4.00009 6.16992Z" fill="black"/>
<path d="M15.3767 5.83643H14.6743C13.38 5.83643 12.1383 6.38775 11.3333 7.29841V6.83642C11.3333 6.50607 10.9967 6.16974 10.6667 6.16974H7.33336C7.02504 6.16974 6.66669 6.44306 6.66669 6.7954V19.233C6.66669 19.5867 7.01801 19.8333 7.33336 19.8336L11 19.8347C11.3154 19.8347 11.6667 19.588 11.6667 19.234V12.0484C11.6667 10.9644 12.4704 10.106 13.4963 10.0944C14.018 10.0827 14.511 10.2884 14.88 10.6581C15.185 10.9631 15.3333 11.4084 15.3333 12.0197V19.1697C15.3333 19.5001 15.67 19.8364 16 19.8364H19.3333C19.6633 19.8364 20 19.5001 20 19.1697V10.5664C20 7.91407 17.969 5.83643 15.3767 5.83643Z" fill="black"/>
</g>
<defs>
<clipPath id="clip0_118_44">
<rect width="20" height="20" fill="white"/>
</clipPath>
</defs>
</svg>
