<svg width="22" height="22" viewBox="0 0 22 22" fill="none" xmlns="http://www.w3.org/2000/svg">
<path d="M11 0C8.01287 0 7.63839 0.0189957 6.46526 0.0672822C5.29453 0.120766 4.49655 0.303989 3.79698 0.57606C3.07366 0.8571 2.45776 1.23493 1.8463 1.84653C1.23482 2.45813 0.860576 3.07076 0.579531 3.79416C0.307554 4.49392 0.120847 5.2953 0.067443 6.46623C0.0137968 7.63956 0 8.01411 0 11.0017C0 13.9895 0.0137924 14.3639 0.067443 15.5372C0.120917 16.7082 0.307554 17.5063 0.579531 18.206C0.860576 18.9294 1.23482 19.542 1.8463 20.1536C2.45776 20.7652 3.07366 21.1427 3.79698 21.4239C4.49655 21.6958 5.29453 21.8827 6.46526 21.9362C7.63839 21.9897 8.01287 22 11 22C13.9871 22 14.3616 21.9828 15.5347 21.9362C16.7055 21.8827 17.5068 21.6958 18.2064 21.4239C18.9297 21.1427 19.5422 20.7652 20.1537 20.1536C20.7652 19.542 21.1394 18.9294 21.4205 18.206C21.6924 17.5063 21.8792 16.7082 21.9326 15.5372C21.9862 14.3639 22 13.9895 22 11.0017C22 8.01411 21.9862 7.63956 21.9326 6.46623C21.8791 5.2953 21.6924 4.49392 21.4205 3.79416C21.1394 3.07076 20.7652 2.45813 20.1537 1.84653C19.5422 1.23493 18.9297 0.8571 18.2064 0.57606C17.5068 0.303989 16.7055 0.120766 15.5347 0.0672822C14.3616 0.0137991 13.9871 0 11 0ZM11 1.98127C13.9368 1.98127 14.2839 1.99851 15.4438 2.0451C16.5161 2.09341 17.1012 2.27525 17.4888 2.42587C18.0022 2.62548 18.3673 2.86322 18.7522 3.24812C19.1371 3.63303 19.3748 3.99826 19.5742 4.51169C19.7248 4.89935 19.906 5.48456 19.9549 6.55697C20.0077 7.71703 20.0189 8.06432 20.0189 11.0016C20.0189 13.939 20.0069 14.2863 19.9549 15.4461C19.9059 16.5187 19.7248 17.1005 19.5742 17.4881C19.3748 18.0016 19.1371 18.3699 18.7522 18.755C18.3673 19.1399 18.0022 19.3776 17.4888 19.5772C17.1012 19.7273 16.5161 19.9059 15.4438 19.9547C14.2841 20.0082 13.9371 20.0186 11 20.0186C8.0629 20.0186 7.7159 20.0013 6.55623 19.9547C5.48388 19.9064 4.90216 19.7278 4.51458 19.5772C4.00116 19.3776 3.63268 19.1399 3.24782 18.755C2.86299 18.3699 2.62532 18.0016 2.42578 17.4881C2.27519 17.1005 2.0974 16.5187 2.04845 15.4461C1.99566 14.2863 1.98445 13.939 1.98445 11.0016C1.98445 8.06432 1.99653 7.71703 2.04845 6.55697C2.09744 5.48456 2.27519 4.89935 2.42578 4.51169C2.62532 3.99826 2.86299 3.63303 3.24782 3.24812C3.63268 2.86322 4.00116 2.62548 4.51458 2.42587C4.90216 2.27577 5.48388 2.0941 6.55623 2.0451C7.71607 1.99163 8.06316 1.98127 11 1.98127ZM16.8723 3.80762C16.1434 3.80762 15.5516 4.39938 15.5516 5.12847C15.5516 5.85755 16.1434 6.44932 16.8723 6.44932C17.6012 6.44932 18.1929 5.85755 18.1929 5.12847C18.1929 4.39938 17.6012 3.80762 16.8723 3.80762ZM11 5.35085C7.88068 5.35085 5.35347 7.88196 5.35347 11.0017C5.35347 14.1217 7.88068 16.6491 11 16.6491C14.1193 16.6491 16.6499 14.1217 16.6499 11.0017C16.6499 7.88196 14.1193 5.35085 11 5.35085ZM11 7.33558C13.0249 7.33558 14.6655 8.97663 14.6655 11.0017C14.6655 13.027 13.0249 14.6679 11 14.6679C8.97515 14.6679 7.33448 13.027 7.33448 11.0017C7.33448 8.97663 8.97515 7.33558 11 7.33558Z" fill="black"/>
</svg>
