<svg width="241" height="45" viewBox="0 0 241 45" fill="none" xmlns="http://www.w3.org/2000/svg">
<path d="M45.82 34V13H54.46C56.32 13 57.91 13.3 59.23 13.9C60.57 14.5 61.6 15.36 62.32 16.48C63.04 17.6 63.4 18.93 63.4 20.47C63.4 22.01 63.04 23.34 62.32 24.46C61.6 25.56 60.57 26.41 59.23 27.01C57.91 27.59 56.32 27.88 54.46 27.88H47.98L49.72 26.11V34H45.82ZM59.56 34L54.25 26.38H58.42L63.76 34H59.56ZM49.72 26.53L47.98 24.67H54.28C56 24.67 57.29 24.3 58.15 23.56C59.03 22.82 59.47 21.79 59.47 20.47C59.47 19.13 59.03 18.1 58.15 17.38C57.29 16.66 56 16.3 54.28 16.3H47.98L49.72 14.38V26.53ZM74.9334 34.21C73.1534 34.21 71.5934 33.86 70.2534 33.16C68.9334 32.44 67.9034 31.46 67.1634 30.22C66.4434 28.98 66.0834 27.57 66.0834 25.99C66.0834 24.39 66.4334 22.98 67.1334 21.76C67.8534 20.52 68.8334 19.55 70.0734 18.85C71.3334 18.15 72.7634 17.8 74.3634 17.8C75.9234 17.8 77.3134 18.14 78.5334 18.82C79.7534 19.5 80.7134 20.46 81.4134 21.7C82.1134 22.94 82.4634 24.4 82.4634 26.08C82.4634 26.24 82.4534 26.42 82.4334 26.62C82.4334 26.82 82.4234 27.01 82.4034 27.19H69.0534V24.7H80.4234L78.9534 25.48C78.9734 24.56 78.7834 23.75 78.3834 23.05C77.9834 22.35 77.4334 21.8 76.7334 21.4C76.0534 21 75.2634 20.8 74.3634 20.8C73.4434 20.8 72.6334 21 71.9334 21.4C71.2534 21.8 70.7134 22.36 70.3134 23.08C69.9334 23.78 69.7434 24.61 69.7434 25.57V26.17C69.7434 27.13 69.9634 27.98 70.4034 28.72C70.8434 29.46 71.4634 30.03 72.2634 30.43C73.0634 30.83 73.9834 31.03 75.0234 31.03C75.9234 31.03 76.7334 30.89 77.4534 30.61C78.1734 30.33 78.8134 29.89 79.3734 29.29L81.3834 31.6C80.6634 32.44 79.7534 33.09 78.6534 33.55C77.5734 33.99 76.3334 34.21 74.9334 34.21ZM95.496 34V30.76L95.286 30.07V24.4C95.286 23.3 94.956 22.45 94.296 21.85C93.636 21.23 92.636 20.92 91.296 20.92C90.396 20.92 89.506 21.06 88.626 21.34C87.766 21.62 87.036 22.01 86.436 22.51L84.966 19.78C85.826 19.12 86.846 18.63 88.026 18.31C89.226 17.97 90.466 17.8 91.746 17.8C94.066 17.8 95.856 18.36 97.116 19.48C98.396 20.58 99.036 22.29 99.036 24.61V34H95.496ZM90.456 34.21C89.256 34.21 88.206 34.01 87.306 33.61C86.406 33.19 85.706 32.62 85.206 31.9C84.726 31.16 84.486 30.33 84.486 29.41C84.486 28.51 84.696 27.7 85.116 26.98C85.556 26.26 86.266 25.69 87.246 25.27C88.226 24.85 89.526 24.64 91.146 24.64H95.796V27.13H91.416C90.136 27.13 89.276 27.34 88.836 27.76C88.396 28.16 88.176 28.66 88.176 29.26C88.176 29.94 88.446 30.48 88.986 30.88C89.526 31.28 90.276 31.48 91.236 31.48C92.156 31.48 92.976 31.27 93.696 30.85C94.436 30.43 94.966 29.81 95.286 28.99L95.916 31.24C95.556 32.18 94.906 32.91 93.966 33.43C93.046 33.95 91.876 34.21 90.456 34.21ZM103.849 34V11.74H107.599V34H103.849ZM119.391 34.3C117.751 34.3 116.181 34.07 114.681 33.61C113.181 33.13 111.991 32.52 111.111 31.78L112.461 28.75C113.301 29.41 114.341 29.96 115.581 30.4C116.821 30.84 118.091 31.06 119.391 31.06C120.491 31.06 121.381 30.94 122.061 30.7C122.741 30.46 123.241 30.14 123.561 29.74C123.881 29.32 124.041 28.85 124.041 28.33C124.041 27.69 123.811 27.18 123.351 26.8C122.891 26.4 122.291 26.09 121.551 25.87C120.831 25.63 120.021 25.41 119.121 25.21C118.241 25.01 117.351 24.78 116.451 24.52C115.571 24.24 114.761 23.89 114.021 23.47C113.301 23.03 112.711 22.45 112.251 21.73C111.791 21.01 111.561 20.09 111.561 18.97C111.561 17.83 111.861 16.79 112.461 15.85C113.081 14.89 114.011 14.13 115.251 13.57C116.511 12.99 118.101 12.7 120.021 12.7C121.281 12.7 122.531 12.86 123.771 13.18C125.011 13.5 126.091 13.96 127.011 14.56L125.781 17.59C124.841 17.03 123.871 16.62 122.871 16.36C121.871 16.08 120.911 15.94 119.991 15.94C118.911 15.94 118.031 16.07 117.351 16.33C116.691 16.59 116.201 16.93 115.881 17.35C115.581 17.77 115.431 18.25 115.431 18.79C115.431 19.43 115.651 19.95 116.091 20.35C116.551 20.73 117.141 21.03 117.861 21.25C118.601 21.47 119.421 21.69 120.321 21.91C121.221 22.11 122.111 22.34 122.991 22.6C123.891 22.86 124.701 23.2 125.421 23.62C126.161 24.04 126.751 24.61 127.191 25.33C127.651 26.05 127.881 26.96 127.881 28.06C127.881 29.18 127.571 30.22 126.951 31.18C126.351 32.12 125.421 32.88 124.161 33.46C122.901 34.02 121.311 34.3 119.391 34.3ZM131.388 34V17.98H135.138V34H131.388ZM133.278 15.34C132.578 15.34 131.998 15.12 131.538 14.68C131.098 14.24 130.878 13.71 130.878 13.09C130.878 12.45 131.098 11.92 131.538 11.5C131.998 11.06 132.578 10.84 133.278 10.84C133.978 10.84 134.548 11.05 134.988 11.47C135.448 11.87 135.678 12.38 135.678 13C135.678 13.66 135.458 14.22 135.018 14.68C134.578 15.12 133.998 15.34 133.278 15.34ZM147.32 40.03C145.84 40.03 144.39 39.83 142.97 39.43C141.57 39.05 140.42 38.49 139.52 37.75L141.2 34.93C141.9 35.51 142.78 35.97 143.84 36.31C144.92 36.67 146.01 36.85 147.11 36.85C148.87 36.85 150.16 36.44 150.98 35.62C151.8 34.82 152.21 33.61 152.21 31.99V29.14L152.51 25.51L152.39 21.88V17.98H155.96V31.57C155.96 34.47 155.22 36.6 153.74 37.96C152.26 39.34 150.12 40.03 147.32 40.03ZM146.84 33.28C145.32 33.28 143.94 32.96 142.7 32.32C141.48 31.66 140.51 30.75 139.79 29.59C139.09 28.43 138.74 27.07 138.74 25.51C138.74 23.97 139.09 22.62 139.79 21.46C140.51 20.3 141.48 19.4 142.7 18.76C143.94 18.12 145.32 17.8 146.84 17.8C148.2 17.8 149.42 18.07 150.5 18.61C151.58 19.15 152.44 19.99 153.08 21.13C153.74 22.27 154.07 23.73 154.07 25.51C154.07 27.29 153.74 28.76 153.08 29.92C152.44 31.06 151.58 31.91 150.5 32.47C149.42 33.01 148.2 33.28 146.84 33.28ZM147.41 30.1C148.35 30.1 149.19 29.91 149.93 29.53C150.67 29.13 151.24 28.59 151.64 27.91C152.06 27.21 152.27 26.41 152.27 25.51C152.27 24.61 152.06 23.82 151.64 23.14C151.24 22.44 150.67 21.91 149.93 21.55C149.19 21.17 148.35 20.98 147.41 20.98C146.47 20.98 145.62 21.17 144.86 21.55C144.12 21.91 143.54 22.44 143.12 23.14C142.72 23.82 142.52 24.61 142.52 25.51C142.52 26.41 142.72 27.21 143.12 27.91C143.54 28.59 144.12 29.13 144.86 29.53C145.62 29.91 146.47 30.1 147.41 30.1ZM169.98 17.8C171.26 17.8 172.4 18.05 173.4 18.55C174.42 19.05 175.22 19.82 175.8 20.86C176.38 21.88 176.67 23.2 176.67 24.82V34H172.92V25.3C172.92 23.88 172.58 22.82 171.9 22.12C171.24 21.42 170.31 21.07 169.11 21.07C168.23 21.07 167.45 21.25 166.77 21.61C166.09 21.97 165.56 22.51 165.18 23.23C164.82 23.93 164.64 24.82 164.64 25.9V34H160.89V11.74H164.64V22.3L163.83 20.98C164.39 19.96 165.2 19.18 166.26 18.64C167.34 18.08 168.58 17.8 169.98 17.8ZM187.457 34.21C185.697 34.21 184.337 33.76 183.377 32.86C182.417 31.94 181.937 30.59 181.937 28.81V14.44H185.687V28.72C185.687 29.48 185.877 30.07 186.257 30.49C186.657 30.91 187.207 31.12 187.907 31.12C188.747 31.12 189.447 30.9 190.007 30.46L191.057 33.13C190.617 33.49 190.077 33.76 189.437 33.94C188.797 34.12 188.137 34.21 187.457 34.21ZM179.297 21.1V18.1H189.977V21.1H179.297Z" fill="#333333"/>
<path d="M199.823 34L209.273 13H213.113L222.593 34H218.513L210.383 15.07H211.943L203.843 34H199.823ZM204.173 29.14L205.223 26.08H216.563L217.613 29.14H204.173ZM225.263 34V13H229.163V34H225.263Z" fill="#3B76EF"/>
<path d="M0 42.1268V7.53713C0 7.01873 0.300518 6.51537 0.833939 6.14723L8.88783 0.580126C10.6834 -0.659513 13.7637 0.219504 13.7637 1.97002V42.1268C13.7637 43.2162 12.4865 44.0952 10.9088 44.0952H2.85493C1.2772 44.0952 0 43.2087 0 42.1268Z" fill="#3B76EF"/>
<path d="M29.9922 15.0026V42.3497C29.9922 43.1912 28.9854 43.8749 27.7383 43.8749H18.6025C17.3554 43.8749 16.3486 43.1912 16.3486 42.3497V21.4412C16.3486 21.0505 16.574 20.6673 16.9797 20.3818L26.1155 13.9432C27.5204 12.9515 29.9997 13.6277 29.9997 15.0026H29.9922Z" fill="#3B76EF"/>
<path d="M26.2545 11.4804V2.62259H16.3374V18.0392L26.2545 11.4804Z" fill="#0000D4"/>
</svg>
