<svg width="2700" height="382" viewBox="0 0 2700 382" fill="none" xmlns="http://www.w3.org/2000/svg">
<g clip-path="url(#clip0_219_350)">
<mask id="mask0_219_350" style="mask-type:luminance" maskUnits="userSpaceOnUse" x="0" y="0" width="1440" height="382">
<path d="M1440 0H0V382H1440V0Z" fill="white"/>
</mask>
<g mask="url(#mask0_219_350)">
<path d="M0 382V206H74.5862L75 381.752" fill="white"/>
<path d="M72.5001 381.752L72.1001 275.155L120.43 274.696L121 382C121 382 72.6601 381.857 72.5001 381.752Z" fill="white"/>
<path d="M119 382V160L195 160.632L194.636 382" fill="white"/>
<path d="M192 382L192.508 228.192L348 228L345.268 382" fill="white"/>
<path d="M336.23 382L336.25 183.36H432.23L431.59 382" fill="white"/>
<path d="M422 382L422.563 292.144L486.993 292L488 382" fill="white"/>
<path d="M480.03 382V91.4985L576.15 91.5176L576.14 382" fill="white"/>
<path d="M570 382L570.011 205L625 205.67L624.384 382" fill="white"/>
<path d="M620 382L620.36 275H751L750.335 382" fill="white"/>
<path d="M744 382V251L846 251L844.991 382" fill="white"/>
<path d="M838 382L838.989 183H913L912.341 382" fill="white"/>
<path d="M900 382V299H992L991.507 382" fill="white"/>
<path d="M983 382L983.406 205H1032.26L1033 382" fill="white"/>
<path d="M1028.27 382L1028 320L1131.96 320.336L1132 382" fill="white"/>
<path d="M1128.02 382L1127.85 252.492L1200.11 252.015L1200.24 382" fill="white"/>
<path d="M1197 382L1197.21 297.96H1250V382H1197Z" fill="white"/>
<path d="M1247 382V206.01L1296 206L1295.67 382" fill="white"/>
<path d="M1287 382L1287.3 252H1379L1378.58 382" fill="white"/>
<path d="M1368.09 382L1367.67 113.96L1440 113.884V382H1368.09Z" fill="white"/>
<path d="M18.4702 213.175H6.47021V224.635H18.4702V213.175Z" fill="#3B76EF"/>
<path d="M90.4702 285.755H78.4702V297.215H90.4702V285.755Z" fill="#3B76EF"/>
<path d="M40.4702 213.175H28.4702V224.635H40.4702V213.175Z" fill="#3B76EF"/>
<path d="M135.97 164.948H123.97V176.408H135.97V164.948Z" fill="#3B76EF"/>
<path d="M135.97 181.66H123.97V193.12H135.97V181.66Z" fill="#3B76EF"/>
<path d="M210.37 241.099H198.37V252.559H210.37V241.099Z" fill="#3B76EF"/>
<path d="M227.71 241.099H215.71V252.559H227.71V241.099Z" fill="#3B76EF"/>
<path d="M356.71 193.12H344.71V204.58H356.71V193.12Z" fill="#3B76EF"/>
<path d="M450 306H438V317.46H450V306Z" fill="#3B76EF"/>
<path d="M499.71 100.294H487.71V111.754H499.71V100.294Z" fill="#3B76EF"/>
<path d="M523.71 100.294H511.71V111.754H523.71V100.294Z" fill="#3B76EF"/>
<path d="M499.71 123.214H487.71V134.674H499.71V123.214Z" fill="#3B76EF"/>
<path d="M594.24 216.976H582.24V228.436H594.24V216.976Z" fill="#3B76EF"/>
<path d="M594.24 235.369H582.24V246.829H594.24V235.369Z" fill="#3B76EF"/>
<path d="M646.24 287.932H634.24V299.392H646.24V287.932Z" fill="#3B76EF"/>
<path d="M666.13 287.932H654.13V299.392H666.13V287.932Z" fill="#3B76EF"/>
<path d="M686.2 287.932H674.2V299.392H686.2V287.932Z" fill="#3B76EF"/>
<path d="M768.54 265.509H756.54V276.969H768.54V265.509Z" fill="#3B76EF"/>
<path d="M859.54 191H847.54V202.46H859.54V191Z" fill="#3B76EF"/>
<path d="M859.54 208.19H847.54V219.65H859.54V208.19Z" fill="#3B76EF"/>
<path d="M935.54 311.282H923.54V322.742H935.54V311.282Z" fill="#3B76EF"/>
<path d="M954.74 311.282H942.74V322.742H954.74V311.282Z" fill="#3B76EF"/>
<path d="M1002.65 211.246H990.65V222.706H1002.65V211.246Z" fill="#3B76EF"/>
<path d="M1052.65 328.826H1040.65V340.286H1052.65V328.826Z" fill="#3B76EF"/>
<path d="M1071.65 328.826H1059.65V340.286H1071.65V328.826Z" fill="#3B76EF"/>
<path d="M1092.24 328.826H1080.24V340.286H1092.24V328.826Z" fill="#3B76EF"/>
<path d="M1146.18 260.066H1134.18V271.526H1146.18V260.066Z" fill="#3B76EF"/>
<path d="M1146.18 276.95H1134.18V288.41H1146.18V276.95Z" fill="#3B76EF"/>
<path d="M1229.92 305.552H1217.92V317.012H1229.92V305.552Z" fill="#3B76EF"/>
<path d="M1265.92 213.872H1253.92V225.332H1265.92V213.872Z" fill="#3B76EF"/>
<path d="M1312.92 263.236H1300.92V274.696H1312.92V263.236Z" fill="#3B76EF"/>
<path d="M1332.1 263.236H1320.1V274.696H1332.1V263.236Z" fill="#3B76EF"/>
<path d="M1312.92 282.68H1300.92V294.14H1312.92V282.68Z" fill="#3B76EF"/>
<path d="M1388.92 121.285H1376.92V132.745H1388.92V121.285Z" fill="#3B76EF"/>
<path d="M1388.92 141.34H1376.92V152.8H1388.92V141.34Z" fill="#3B76EF"/>
<path d="M1388.92 161.395H1376.92V172.855H1388.92V161.395Z" fill="#3B76EF"/>
<path d="M788.54 265.509H776.54V276.969H788.54V265.509Z" fill="#3B76EF"/>
<path d="M768.54 285.564H756.54V297.024H768.54V285.564Z" fill="#3B76EF"/>
<path d="M768.54 305.619H756.54V317.079H768.54V305.619Z" fill="#3B76EF"/>
<path d="M473.1 306H461.1V317.46H473.1V306Z" fill="#3B76EF"/>
<path d="M376.71 193.12H364.71V204.58H376.71V193.12Z" fill="#3B76EF"/>
</g>
</g>
<g clip-path="url(#clip1_219_350)">
<mask id="mask1_219_350" style="mask-type:luminance" maskUnits="userSpaceOnUse" x="1321" y="0" width="1379" height="382">
<path d="M2700 0H1321V382H2700V0Z" fill="white"/>
</mask>
<g mask="url(#mask1_219_350)">
<path d="M1390.43 381.752L1390.05 275.155L1436.33 274.696L1436.87 382C1436.87 382 1390.58 381.857 1390.43 381.752Z" fill="white"/>
<path d="M1434.96 382V160H1507.39V382" fill="white"/>
<path d="M1504.89 382L1505.12 228.627L1575.43 228.436L1574.2 382" fill="white"/>
<path d="M1642.99 382L1643.01 183.36H1734.92L1734.31 382" fill="white"/>
<path d="M1730.87 382L1731.33 250.211L1783.68 250L1784.5 382" fill="white"/>
<path d="M1780.7 382V91.4985L1872.74 91.5176L1872.73 382" fill="white"/>
<path d="M1866.85 382L1866.87 205L1919.52 205.67L1918.93 382" fill="white"/>
<path d="M1914.74 382L1915.08 275H2038.27L2037.64 382" fill="white"/>
<path d="M2033.48 382V250.53H2127.33L2126.4 382" fill="white"/>
<path d="M2123.5 382L2124.45 183H2195.32L2194.69 382" fill="white"/>
<path d="M2192.45 382V298.665L2264.27 298.665L2263.89 382" fill="white"/>
<path d="M2262.36 382L2262.75 205H2309.53L2310.24 382" fill="white"/>
<path d="M2305.71 382L2305.45 320L2405.01 320.336L2405.05 382" fill="white"/>
<path d="M2401.24 382L2401.07 252.492L2470.27 252.015L2470.4 382" fill="white"/>
<path d="M2462.51 382L2462.96 298H2577.42V382H2462.51Z" fill="white"/>
<path d="M2569.44 382L2569 114.076L2645 114V382H2569.44Z" fill="white"/>
<path d="M1460.49 170H1449V181.46H1460.49V170Z" fill="#3B76EF"/>
<path d="M1460.49 186.712H1449V198.172H1460.49V186.712Z" fill="#3B76EF"/>
<path d="M1522.46 241.099H1510.97V252.559H1522.46V241.099Z" fill="#3B76EF"/>
<path d="M1539.06 241.099H1527.57V252.559H1539.06V241.099Z" fill="#3B76EF"/>
<path d="M1662.6 193.12H1651.11V204.58H1662.6V193.12Z" fill="#3B76EF"/>
<path d="M1751.66 259.779H1740.17V271.239H1751.66V259.779Z" fill="#3B76EF"/>
<path d="M1799.54 100.294H1788.05V111.754H1799.54V100.294Z" fill="#3B76EF"/>
<path d="M1822.52 100.294H1811.03V111.754H1822.52V100.294Z" fill="#3B76EF"/>
<path d="M1799.54 123.214H1788.05V134.674H1799.54V123.214Z" fill="#3B76EF"/>
<path d="M1890.07 216.976H1878.58V228.436H1890.07V216.976Z" fill="#3B76EF"/>
<path d="M1890.07 235.369H1878.58V246.829H1890.07V235.369Z" fill="#3B76EF"/>
<path d="M1939.86 287.932H1928.37V299.392H1939.86V287.932Z" fill="#3B76EF"/>
<path d="M1958.91 287.932H1947.42V299.392H1958.91V287.932Z" fill="#3B76EF"/>
<path d="M1978.13 287.932H1966.64V299.392H1978.13V287.932Z" fill="#3B76EF"/>
<path d="M2056.98 265.509H2045.49V276.969H2056.98V265.509Z" fill="#3B76EF"/>
<path d="M2144.13 191H2132.64V202.46H2144.13V191Z" fill="#3B76EF"/>
<path d="M2144.13 208.19H2132.64V219.65H2144.13V208.19Z" fill="#3B76EF"/>
<path d="M2216.91 311.282H2205.42V322.742H2216.91V311.282Z" fill="#3B76EF"/>
<path d="M2235.3 311.282H2223.8V322.742H2235.3V311.282Z" fill="#3B76EF"/>
<path d="M2281.18 211.246H2269.68V222.706H2281.18V211.246Z" fill="#3B76EF"/>
<path d="M2329.06 328.826H2317.57V340.286H2329.06V328.826Z" fill="#3B76EF"/>
<path d="M2347.25 328.826H2335.76V340.286H2347.25V328.826Z" fill="#3B76EF"/>
<path d="M2366.97 328.826H2355.48V340.286H2366.97V328.826Z" fill="#3B76EF"/>
<path d="M2418.63 260.066H2407.13V271.526H2418.63V260.066Z" fill="#3B76EF"/>
<path d="M2418.63 276.95H2407.13V288.41H2418.63V276.95Z" fill="#3B76EF"/>
<path d="M2489.32 306H2477.83V317.46H2489.32V306Z" fill="#3B76EF"/>
<path d="M2509.43 306H2497.94V317.46H2509.43V306Z" fill="#3B76EF"/>
<path d="M2587.49 120H2576V131.46H2587.49V120Z" fill="#3B76EF"/>
<path d="M2587.49 140.055H2576V151.515H2587.49V140.055Z" fill="#3B76EF"/>
<path d="M2587.49 160.11H2576V171.57H2587.49V160.11Z" fill="#3B76EF"/>
<path d="M2076.14 265.509H2064.64V276.969H2076.14V265.509Z" fill="#3B76EF"/>
<path d="M2056.98 285.564H2045.49V297.024H2056.98V285.564Z" fill="#3B76EF"/>
<path d="M2056.98 305.619H2045.49V317.079H2056.98V305.619Z" fill="#3B76EF"/>
<path d="M1773.78 259.779H1762.29V271.239H1773.78V259.779Z" fill="#3B76EF"/>
<path d="M1681.75 193.12H1670.26V204.58H1681.75V193.12Z" fill="#3B76EF"/>
</g>
</g>
<defs>
<clipPath id="clip0_219_350">
<rect width="1440" height="382" fill="white"/>
</clipPath>
<clipPath id="clip1_219_350">
<rect width="1379" height="382" fill="white" transform="translate(1321)"/>
</clipPath>
</defs>
</svg>
