<svg width="66" height="66" viewBox="0 0 66 66" fill="none" xmlns="http://www.w3.org/2000/svg">
<g id="Frame" clip-path="url(#clip0_42_26)">
<path id="Vector" d="M33 66C51.2254 66 66 51.2254 66 33C66 14.7746 51.2254 0 33 0C14.7746 0 0 14.7746 0 33C0 51.2254 14.7746 66 33 66Z" fill="#DCE7FE"/>
<path id="Vector_2" d="M42.8007 32.9109C43.5767 33.7359 44.2664 34.6394 44.8568 35.6063C45.3763 36.4531 45.7875 37.3619 46.0787 38.3107C46.3675 39.2388 46.5081 40.2082 46.4965 41.1802C46.4952 41.6016 46.454 42.0232 46.3752 42.437C46.1535 43.5636 45.558 44.5833 44.6827 45.3283C44.3334 45.6261 43.9519 45.884 43.5445 46.0979C42.4591 46.678 41.2873 47.0841 40.0756 47.3019C39.1294 47.4773 38.3056 47.5946 37.6057 47.6512C34.6692 47.9 31.7185 47.9142 28.7795 47.6977C28.1543 47.65 27.4402 47.5636 26.6385 47.4373C25.8689 47.3161 25.1096 47.1382 24.3657 46.9062C23.4132 46.6212 22.5146 46.1843 21.7026 45.6119C20.5566 44.818 19.791 43.5856 19.5872 42.2077C19.4674 41.3942 19.475 40.5679 19.6104 39.7571C19.8192 38.3985 20.2833 37.0927 20.9755 35.9066C21.455 35.0752 22.0107 34.2901 22.6332 33.5607C23.7689 32.2407 25.0541 31.0573 26.4629 30.0335C26.4951 30.0104 26.4951 29.9614 26.4629 29.9381C25.888 29.5386 25.5554 28.8733 25.5838 28.1734C25.5966 27.6604 25.8209 27.1743 26.2025 26.8315C26.6086 26.4422 27.1526 26.232 27.7133 26.2475C27.7454 26.2475 27.7532 26.2333 27.7365 26.205C26.6239 24.3527 25.5219 22.5182 24.4313 20.7019C24.3822 20.6194 24.3397 20.5433 24.3062 20.475C24.2674 20.3989 24.2456 20.3164 24.2417 20.2302C24.2044 19.9505 24.359 19.6797 24.6194 19.5702C24.7547 19.5251 24.8966 19.5018 25.0383 19.5018C25.5153 19.4786 25.9755 19.3253 26.37 19.0572C26.5672 18.9257 26.767 18.798 26.9706 18.6768C27.3303 18.4602 27.7235 18.3082 28.136 18.2269C28.5407 18.1497 28.9532 18.1302 29.3644 18.169C29.9934 18.2269 30.5981 18.4396 31.1253 18.789C31.3302 18.9217 31.5378 19.0494 31.7492 19.1718C32.0366 19.3408 32.3577 19.4451 32.6888 19.4825C32.9931 19.5147 33.3 19.5005 33.6003 19.4386C33.9057 19.3755 34.1971 19.253 34.4548 19.0778C34.6509 18.9463 34.8507 18.8186 35.0543 18.6962C35.7271 18.2927 36.5084 18.1045 37.2908 18.1599C37.8477 18.1856 38.3929 18.3313 38.8892 18.5866C38.9717 18.6292 39.1844 18.7607 39.5274 18.9811C39.7337 19.1215 39.9528 19.2415 40.1835 19.3395C40.4465 19.4373 40.7237 19.4928 41.0047 19.5032C41.1322 19.5018 41.2599 19.5251 41.3797 19.5702C41.644 19.6682 41.8026 19.9388 41.7587 20.2173C41.729 20.3952 41.662 20.564 41.5615 20.7148C40.4749 22.5402 39.3804 24.3642 38.2769 26.1881C38.2538 26.2269 38.264 26.2475 38.3105 26.2489C39.0633 26.2256 39.7685 26.6124 40.15 27.2606C40.3795 27.6383 40.4671 28.0845 40.3961 28.5214C40.324 29.1027 40.0056 29.6261 39.5221 29.96C39.5028 29.9742 39.5028 30.0051 39.5235 30.0193C40.3653 30.6252 41.1632 31.2903 41.9095 32.011C42.2395 32.3306 42.5377 32.6311 42.8007 32.9109ZM31.315 20.4818C31.1835 20.4199 30.8704 20.2343 30.3714 19.9249C30.1652 19.7894 29.9422 19.6825 29.7076 19.6051C29.1752 19.4479 28.6081 19.4594 28.0834 19.6413C27.9274 19.6967 27.7766 19.7688 27.6347 19.8553C27.4285 19.9764 27.2867 20.064 27.2094 20.1181C26.8563 20.3631 26.4682 20.5552 26.0595 20.6905C26.035 20.6996 26.0235 20.7293 26.0377 20.7511L29.3195 26.2129C29.3286 26.2297 29.3479 26.2401 29.3672 26.2401L30.5391 26.2426L30.5404 26.2439C30.5674 26.2439 30.5881 26.2182 30.5828 26.1911C30.392 25.2641 30.0556 24.3721 29.5863 23.5511C29.4666 23.3655 29.375 23.163 29.3118 22.9517C29.2552 22.6809 29.3943 22.409 29.6457 22.2955C29.7604 22.2285 29.8932 22.1988 30.0259 22.2078C30.1652 22.2181 30.298 22.2735 30.4036 22.3664C30.5249 22.5068 30.6293 22.659 30.7169 22.8215C31.3395 23.8643 31.7559 25.0166 31.944 26.2168C31.9467 26.2322 31.9609 26.2439 31.9764 26.2439H34.0092C34.044 26.2439 34.0724 26.2193 34.0762 26.1858C34.1123 25.8958 34.1677 25.6096 34.2438 25.3287C34.5093 24.3373 34.9257 23.3924 35.4787 22.5288C35.5702 22.3638 35.7301 22.2478 35.9144 22.2103C36.1 22.1704 36.2947 22.2156 36.4442 22.3341C36.5795 22.4398 36.6711 22.5933 36.6968 22.7634C36.7252 22.9503 36.6813 23.1411 36.5757 23.297C36.0189 24.1892 35.6295 25.1727 35.4232 26.2027C35.4181 26.2258 35.4362 26.249 35.462 26.249L36.6234 26.2452L36.6221 26.2439C36.6569 26.2439 36.6878 26.2258 36.7046 26.1975L39.9711 20.7552C39.9853 20.7319 39.9736 20.6997 39.9478 20.6907C39.5444 20.5527 39.159 20.3645 38.8019 20.1325L38.3597 19.845C37.6727 19.4428 36.8386 19.3809 36.1 19.6749C35.957 19.7304 35.8202 19.7987 35.69 19.8799C35.5161 19.9843 35.3871 20.0668 35.3021 20.126C34.4926 20.6984 33.496 20.9446 32.5126 20.8182C32.0975 20.7745 31.6927 20.6596 31.315 20.4818ZM39.074 28.2691C39.074 28.0924 39.0044 27.9236 38.8793 27.7999C38.7556 27.6748 38.5868 27.6052 38.4102 27.6052H27.5961C27.4207 27.6052 27.2519 27.6748 27.1282 27.7999C27.0031 27.9236 26.9335 28.0924 26.9335 28.2691V28.2858C26.9335 28.4612 27.0031 28.63 27.1282 28.7537C27.2519 28.8788 27.4207 28.9484 27.5961 28.9484H38.4102C38.5868 28.9484 38.7556 28.8788 38.8793 28.7537C39.0044 28.63 39.074 28.4612 39.074 28.2858V28.2691ZM41.1405 33.1703C40.0538 32.0989 38.8562 31.1451 37.5712 30.324C37.5415 30.3046 37.5067 30.2943 37.4719 30.2943H28.5503C28.5053 30.2943 28.4627 30.3072 28.4252 30.3316C26.8501 31.3436 25.4064 32.5476 24.1277 33.9164C23.1609 34.949 22.3552 36.1221 21.7378 37.3943C21.2326 38.4308 20.9347 39.5548 20.86 40.7032C20.8057 41.3787 20.8895 42.0568 21.1075 42.6974C21.3923 43.5108 21.9401 44.2043 22.6659 44.6685C23.0758 44.9443 23.5142 45.1724 23.9744 45.3516C24.8276 45.6791 25.7133 45.9175 26.6168 46.0632C27.8195 46.2617 29.0326 46.3892 30.2508 46.4473C32.8045 46.5698 35.3632 46.5079 37.9078 46.2617C38.8244 46.1677 39.7332 46.0129 40.6303 45.7989C41.4373 45.6146 42.2133 45.3156 42.9352 44.9095C43.3064 44.7071 43.6493 44.4571 43.9562 44.1683C44.6767 43.4735 45.1008 42.5273 45.1382 41.527C45.2026 40.3257 44.9977 39.1241 44.5375 38.0119C44.1636 37.0811 43.675 36.1993 43.0822 35.3885C42.4956 34.5983 41.8468 33.856 41.1405 33.1703Z" fill="#3B76EF"/>
<path id="Vector_3" d="M33.6717 41.8598C33.6846 42.0583 33.6899 42.2633 33.6872 42.4759C33.6963 42.6744 33.6704 42.8718 33.6112 43.0612C33.5287 43.2803 33.325 43.43 33.0917 43.4428C32.9281 43.4659 32.7604 43.43 32.6225 43.3384C32.5231 43.2714 32.4433 43.1772 32.3943 43.0676C32.3517 42.9594 32.3298 42.8459 32.3298 42.7312C32.3157 42.4283 32.3169 42.1253 32.3337 41.8224C32.335 41.7966 32.3144 41.7747 32.2874 41.7747C32.0064 41.7838 31.7343 41.7851 31.4699 41.776C31.2908 41.7798 31.1129 41.7412 30.9532 41.66C30.7765 41.5556 30.6644 41.3699 30.654 41.165C30.636 41.0051 30.676 40.8441 30.7687 40.7126C30.8345 40.6185 30.9248 40.5436 31.0292 40.4935C31.131 40.4509 31.2406 40.4303 31.3515 40.4329C32.0603 40.4187 32.7693 40.4134 33.4783 40.4187C33.6562 40.4303 33.8354 40.4006 34.0017 40.3336C34.168 40.2498 34.2878 40.0938 34.3253 39.9109C34.3665 39.747 34.3433 39.5731 34.2596 39.4248C34.1164 39.1773 33.8407 39.0406 33.557 39.0755C33.2463 39.0832 32.8789 39.0819 32.4588 39.0717C32.1996 39.0717 31.9418 39.0355 31.693 38.9608C31.0923 38.7763 30.6205 38.311 30.4258 37.7142C30.3253 37.4358 30.2879 37.1393 30.3138 36.8453C30.3395 36.5425 30.4389 36.2498 30.6025 35.9946C30.9609 35.4068 31.5939 35.042 32.2809 35.0252C32.308 35.0239 32.3298 35.0021 32.3286 34.975C32.3182 34.6566 32.3182 34.3499 32.3298 34.0545L32.3311 34.0533C32.3311 33.9425 32.353 33.8316 32.3943 33.7271C32.4393 33.6202 32.5154 33.5273 32.6121 33.4628C32.75 33.3559 32.9254 33.3095 33.0995 33.3353C33.2721 33.361 33.4268 33.4552 33.5287 33.597C33.5763 33.6524 33.6125 33.7156 33.6357 33.7839C33.6588 33.8509 33.6717 33.9218 33.673 33.9926C33.6872 34.3111 33.6899 34.6411 33.6781 34.9802C33.6781 35.0021 33.695 35.0214 33.7182 35.0214C34.034 35.0265 34.355 35.0278 34.6812 35.0252C34.8977 35.011 35.1039 35.1128 35.2263 35.292C35.3346 35.4481 35.3758 35.6415 35.341 35.8283C35.3153 36.0269 35.1902 36.1995 35.0099 36.2846C34.8462 36.3516 34.6708 36.38 34.4942 36.3698H32.5606C32.4329 36.3658 32.3053 36.3787 32.1803 36.4097C31.898 36.4625 31.6866 36.6985 31.6646 36.9859C31.648 37.1458 31.6892 37.3057 31.7806 37.437C31.8478 37.5312 31.9367 37.606 32.0412 37.6563C32.143 37.7 32.2525 37.7206 32.3634 37.7193C32.6806 37.7284 32.9975 37.7335 33.3133 37.7335C33.6227 37.722 33.9321 37.7477 34.235 37.8083C35.2121 38.0919 35.8296 39.0548 35.6776 40.0617C35.6118 40.4522 35.4339 40.8144 35.1645 41.1058C34.7881 41.4963 34.2815 41.7348 33.74 41.776C33.6988 41.7811 33.6692 41.8186 33.6717 41.8598Z" fill="#3B76EF"/>
</g>
<defs>
<clipPath id="clip0_42_26">
<rect width="66" height="66" fill="white"/>
</clipPath>
</defs>
</svg>
