<svg width="3101" height="1338" viewBox="0 0 3101 1338" fill="none" xmlns="http://www.w3.org/2000/svg">
<g clip-path="url(#clip0_118_111)">
<path d="M1 744C111.167 725.167 361.7 651.9 482.5 509.5C603.3 367.1 688.167 111.167 715.5 1M123.5 744C233.667 725.167 484.2 651.9 605 509.5C725.8 367.1 810.667 111.167 838 1M259.5 744C369.667 725.167 620.2 651.9 741 509.5C861.8 367.1 946.667 111.167 974 1M397 744C507.167 725.167 757.7 651.9 878.5 509.5C999.3 367.1 1084.17 111.167 1111.5 1M519.5 744C629.667 725.167 880.2 651.9 1001 509.5C1121.8 367.1 1206.67 111.167 1234 1M655.5 744C765.667 725.167 1016.2 651.9 1137 509.5C1257.8 367.1 1342.67 111.167 1370 1M793 744C903.167 725.167 1153.7 651.9 1274.5 509.5C1395.3 367.1 1480.17 111.167 1507.5 1" stroke="#59D294"/>
<path d="M3100.5 594C2990.33 612.833 2739.8 686.1 2619 828.5C2498.2 970.9 2413.33 1226.83 2386 1337M2978 594C2867.83 612.833 2617.3 686.1 2496.5 828.5C2375.7 970.9 2290.83 1226.83 2263.5 1337M2842 594C2731.83 612.833 2481.3 686.1 2360.5 828.5C2239.7 970.9 2154.83 1226.83 2127.5 1337M2704.5 594C2594.33 612.833 2343.8 686.1 2223 828.5C2102.2 970.9 2017.33 1226.83 1990 1337M2582 594C2471.83 612.833 2221.3 686.1 2100.5 828.5C1979.7 970.9 1894.83 1226.83 1867.5 1337M2446 594C2335.83 612.833 2085.3 686.1 1964.5 828.5C1843.7 970.9 1758.83 1226.83 1731.5 1337M2308.5 594C2198.33 612.833 1947.8 686.1 1827 828.5C1706.2 970.9 1621.33 1226.83 1594 1337" stroke="#3B76EF"/>
</g>
<defs>
<clipPath id="clip0_118_111">
<rect width="3101" height="1338" fill="white"/>
</clipPath>
</defs>
</svg>
