<svg width="1440" height="382" viewBox="0 0 1440 382" fill="none" xmlns="http://www.w3.org/2000/svg">
<g clip-path="url(#clip0_115_61)">
<path d="M0 382V206.076L74.5862 206L75 381.752" fill="#3B76EF"/>
<path d="M72.5001 381.752L72.1001 275.155L120.43 274.696L121 382C121 382 72.6601 381.857 72.5001 381.752Z" fill="#3B76EF"/>
<path d="M119 382V160L195 160.632L194.636 382" fill="#3B76EF"/>
<path d="M192.02 382L192.26 228.627L265.69 228.436L264.4 382" fill="#3B76EF"/>
<path d="M264.279 382L263 207.923L302.55 183L339 207.923L338.979 382" fill="#3B76EF"/>
<path d="M336.23 382L336.25 183.36H432.23L431.59 382" fill="#3B76EF"/>
<path d="M428 382L428.478 250.211L483.146 250L484 382" fill="#3B76EF"/>
<path d="M480.03 382V91.4985L576.15 91.5176L576.14 382" fill="#3B76EF"/>
<path d="M570 382L570.011 205L625 205.67L624.384 382" fill="#3B76EF"/>
<path d="M620 382L620.355 275H749L748.345 382" fill="#3B76EF"/>
<path d="M744 382L744.616 253.053L792.556 228L842 250.53L841.031 382" fill="#3B76EF"/>
<path d="M838 382L838.989 183H913L912.341 382" fill="#3B76EF"/>
<path d="M910 382L910.278 299.331L947.129 275L985 298.665L984.598 382" fill="#3B76EF"/>
<path d="M983 382L983.406 205H1032.26L1033 382" fill="#3B76EF"/>
<path d="M1028.27 382L1028 320L1131.96 320.336L1132 382" fill="#3B76EF"/>
<path d="M1128.02 382L1127.85 252.492L1200.11 252.015L1200.24 382" fill="#3B76EF"/>
<path d="M1197 382L1197.21 297.96L1224.14 276L1249.43 298.207L1250 382H1197Z" fill="#3B76EF"/>
<path d="M1247 382V206.01L1296 206L1295.67 382" fill="#3B76EF"/>
<path d="M1291 382L1291.27 252H1374L1373.62 382" fill="#3B76EF"/>
<path d="M1368.09 382L1367.67 113.96L1440 113.884V382H1368.09Z" fill="#3B76EF"/>
<path d="M18.4702 213.175H6.47021V224.635H18.4702V213.175Z" fill="white"/>
<path d="M90.4702 285.755H78.4702V297.215H90.4702V285.755Z" fill="white"/>
<path d="M40.4702 213.175H28.4702V224.635H40.4702V213.175Z" fill="white"/>
<path d="M135.97 164.948H123.97V176.408H135.97V164.948Z" fill="white"/>
<path d="M135.97 181.66H123.97V193.12H135.97V181.66Z" fill="white"/>
<path d="M287.97 222.706H275.97V234.166H287.97V222.706Z" fill="white"/>
<path d="M287.97 241.099H275.97V252.559H287.97V241.099Z" fill="white"/>
<path d="M210.37 241.099H198.37V252.559H210.37V241.099Z" fill="white"/>
<path d="M227.71 241.099H215.71V252.559H227.71V241.099Z" fill="white"/>
<path d="M356.71 193.12H344.71V204.58H356.71V193.12Z" fill="white"/>
<path d="M449.71 259.779H437.71V271.239H449.71V259.779Z" fill="white"/>
<path d="M499.71 100.294H487.71V111.754H499.71V100.294Z" fill="white"/>
<path d="M523.71 100.294H511.71V111.754H523.71V100.294Z" fill="white"/>
<path d="M499.71 123.214H487.71V134.674H499.71V123.214Z" fill="white"/>
<path d="M594.24 216.976H582.24V228.436H594.24V216.976Z" fill="white"/>
<path d="M594.24 235.369H582.24V246.829H594.24V235.369Z" fill="white"/>
<path d="M646.24 287.933H634.24V299.393H646.24V287.933Z" fill="white"/>
<path d="M666.13 287.933H654.13V299.393H666.13V287.933Z" fill="white"/>
<path d="M686.2 287.933H674.2V299.393H686.2V287.933Z" fill="white"/>
<path d="M768.54 265.509H756.54V276.969H768.54V265.509Z" fill="white"/>
<path d="M859.54 191H847.54V202.46H859.54V191Z" fill="white"/>
<path d="M859.54 208.19H847.54V219.65H859.54V208.19Z" fill="white"/>
<path d="M935.54 311.282H923.54V322.742H935.54V311.282Z" fill="white"/>
<path d="M954.74 311.282H942.74V322.742H954.74V311.282Z" fill="white"/>
<path d="M1002.65 211.246H990.65V222.706H1002.65V211.246Z" fill="white"/>
<path d="M1052.65 328.826H1040.65V340.286H1052.65V328.826Z" fill="white"/>
<path d="M1071.65 328.826H1059.65V340.286H1071.65V328.826Z" fill="white"/>
<path d="M1092.24 328.826H1080.24V340.286H1092.24V328.826Z" fill="white"/>
<path d="M1146.18 260.066H1134.18V271.526H1146.18V260.066Z" fill="white"/>
<path d="M1146.18 276.95H1134.18V288.41H1146.18V276.95Z" fill="white"/>
<path d="M1229.92 305.552H1217.92V317.012H1229.92V305.552Z" fill="white"/>
<path d="M1265.92 213.872H1253.92V225.332H1265.92V213.872Z" fill="white"/>
<path d="M1312.92 263.236H1300.92V274.696H1312.92V263.236Z" fill="white"/>
<path d="M1332.1 263.236H1320.1V274.696H1332.1V263.236Z" fill="white"/>
<path d="M1312.92 282.68H1300.92V294.14H1312.92V282.68Z" fill="white"/>
<path d="M1388.92 121.285H1376.92V132.745H1388.92V121.285Z" fill="white"/>
<path d="M1388.92 141.34H1376.92V152.8H1388.92V141.34Z" fill="white"/>
<path d="M1388.92 161.395H1376.92V172.855H1388.92V161.395Z" fill="white"/>
<path d="M788.54 265.509H776.54V276.969H788.54V265.509Z" fill="white"/>
<path d="M768.54 285.564H756.54V297.024H768.54V285.564Z" fill="white"/>
<path d="M768.54 305.619H756.54V317.079H768.54V305.619Z" fill="white"/>
<path d="M472.81 259.779H460.81V271.239H472.81V259.779Z" fill="white"/>
<path d="M376.71 193.12H364.71V204.58H376.71V193.12Z" fill="white"/>
</g>
<defs>
<clipPath id="clip0_115_61">
<rect width="1440" height="382" fill="white"/>
</clipPath>
</defs>
</svg>
