<svg width="1439" height="382" viewBox="0 0 1439 382" fill="none" xmlns="http://www.w3.org/2000/svg">
<g clip-path="url(#clip0_31_238)">
<path d="M-1 382V206.041L71.1 205.965L71.5 381.752" fill="#3B76EF"/>
<path d="M71.5 381.752L71.1 275.155L119.43 274.696L120 382C120 382 71.66 381.857 71.5 381.752Z" fill="#3B76EF"/>
<path d="M118.37 382V160.478L191.37 161.109L191.02 382" fill="#3B76EF"/>
<path d="M191.02 382L191.26 228.627L264.69 228.436L263.4 382" fill="#3B76EF"/>
<path d="M263.4 382L262.17 208.238L300.2 183.36L335.25 208.238L335.23 382" fill="#3B76EF"/>
<path d="M335.23 382L335.25 183.36H431.23L430.59 382" fill="#3B76EF"/>
<path d="M430.59 382L431.01 250.649L479.03 250.439L479.78 382" fill="#3B76EF"/>
<path d="M479.03 382V91.4985L575.15 91.5176L575.14 382" fill="#3B76EF"/>
<path d="M575.14 382L575.15 205.325L624.22 205.994L623.67 382" fill="#3B76EF"/>
<path d="M623.67 382L624 274.696H743.72L743.11 382" fill="#3B76EF"/>
<path d="M743.11 382L743.72 253.17L791.21 228.14L840.19 250.649L839.23 382" fill="#3B76EF"/>
<path d="M839.23 382L840.19 183.36H912.02L911.38 382" fill="#3B76EF"/>
<path d="M911.38 382L911.65 299.097L947.38 274.696L984.1 298.428L983.71 382" fill="#3B76EF"/>
<path d="M983.71 382L984.1 205.325H1031L1031.71 382" fill="#3B76EF"/>
<path d="M1031.71 382L1031.46 320.383L1126.98 320.718L1127.02 382" fill="#3B76EF"/>
<path d="M1127.02 382L1126.85 252.493L1199.11 252.015L1199.24 382" fill="#3B76EF"/>
<path d="M1198.23 382L1198.43 297.683L1223.54 275.651L1247.12 297.931L1247.65 382H1198.23Z" fill="#3B76EF"/>
<path d="M1246.65 382V206.127L1295.11 206.118L1294.78 382" fill="#3B76EF"/>
<path d="M1294.78 382L1295.02 252.015H1367.42L1367.09 382" fill="#3B76EF"/>
<path d="M1367.09 382L1366.67 113.96L1439 113.884V382H1367.09Z" fill="#3B76EF"/>
<path d="M17.47 213.175H5.46997V224.635H17.47V213.175Z" fill="white"/>
<path d="M89.47 285.755H77.47V297.215H89.47V285.755Z" fill="white"/>
<path d="M39.47 213.175H27.47V224.635H39.47V213.175Z" fill="white"/>
<path d="M134.97 164.948H122.97V176.408H134.97V164.948Z" fill="white"/>
<path d="M134.97 181.66H122.97V193.12H134.97V181.66Z" fill="white"/>
<path d="M286.97 222.706H274.97V234.166H286.97V222.706Z" fill="white"/>
<path d="M286.97 241.099H274.97V252.559H286.97V241.099Z" fill="white"/>
<path d="M209.37 241.099H197.37V252.559H209.37V241.099Z" fill="white"/>
<path d="M226.71 241.099H214.71V252.559H226.71V241.099Z" fill="white"/>
<path d="M355.71 193.12H343.71V204.58H355.71V193.12Z" fill="white"/>
<path d="M448.71 259.779H436.71V271.239H448.71V259.779Z" fill="white"/>
<path d="M498.71 100.294H486.71V111.754H498.71V100.294Z" fill="white"/>
<path d="M522.71 100.294H510.71V111.754H522.71V100.294Z" fill="white"/>
<path d="M498.71 123.214H486.71V134.674H498.71V123.214Z" fill="white"/>
<path d="M593.24 216.976H581.24V228.436H593.24V216.976Z" fill="white"/>
<path d="M593.24 235.369H581.24V246.829H593.24V235.369Z" fill="white"/>
<path d="M645.24 287.932H633.24V299.392H645.24V287.932Z" fill="white"/>
<path d="M665.13 287.932H653.13V299.392H665.13V287.932Z" fill="white"/>
<path d="M685.2 287.932H673.2V299.392H685.2V287.932Z" fill="white"/>
<path d="M767.54 265.509H755.54V276.969H767.54V265.509Z" fill="white"/>
<path d="M858.54 191H846.54V202.46H858.54V191Z" fill="white"/>
<path d="M858.54 208.19H846.54V219.65H858.54V208.19Z" fill="white"/>
<path d="M934.54 311.282H922.54V322.742H934.54V311.282Z" fill="white"/>
<path d="M953.74 311.282H941.74V322.742H953.74V311.282Z" fill="white"/>
<path d="M1001.65 211.246H989.65V222.706H1001.65V211.246Z" fill="white"/>
<path d="M1051.65 328.826H1039.65V340.286H1051.65V328.826Z" fill="white"/>
<path d="M1070.65 328.826H1058.65V340.286H1070.65V328.826Z" fill="white"/>
<path d="M1091.24 328.826H1079.24V340.286H1091.24V328.826Z" fill="white"/>
<path d="M1145.18 260.066H1133.18V271.526H1145.18V260.066Z" fill="white"/>
<path d="M1145.18 276.95H1133.18V288.41H1145.18V276.95Z" fill="white"/>
<path d="M1228.92 305.552H1216.92V317.012H1228.92V305.552Z" fill="white"/>
<path d="M1264.92 213.872H1252.92V225.332H1264.92V213.872Z" fill="white"/>
<path d="M1311.92 263.236H1299.92V274.696H1311.92V263.236Z" fill="white"/>
<path d="M1331.1 263.236H1319.1V274.696H1331.1V263.236Z" fill="white"/>
<path d="M1311.92 282.68H1299.92V294.14H1311.92V282.68Z" fill="white"/>
<path d="M1387.92 121.285H1375.92V132.745H1387.92V121.285Z" fill="white"/>
<path d="M1387.92 141.34H1375.92V152.8H1387.92V141.34Z" fill="white"/>
<path d="M1387.92 161.395H1375.92V172.855H1387.92V161.395Z" fill="white"/>
<path d="M787.54 265.509H775.54V276.969H787.54V265.509Z" fill="white"/>
<path d="M767.54 285.564H755.54V297.024H767.54V285.564Z" fill="white"/>
<path d="M767.54 305.619H755.54V317.079H767.54V305.619Z" fill="white"/>
<path d="M471.81 259.779H459.81V271.239H471.81V259.779Z" fill="white"/>
<path d="M375.71 193.12H363.71V204.58H375.71V193.12Z" fill="white"/>
</g>
<defs>
<clipPath id="clip0_31_238">
<rect width="1440" height="382" fill="white" transform="translate(-1)"/>
</clipPath>
</defs>
</svg>
