<svg width="66" height="66" viewBox="0 0 66 66" fill="none" xmlns="http://www.w3.org/2000/svg">
<g id="Frame" clip-path="url(#clip0_42_37)">
<path id="Vector" d="M33 66C51.2254 66 66 51.2254 66 33C66 14.7746 51.2254 0 33 0C14.7746 0 0 14.7746 0 33C0 51.2254 14.7746 66 33 66Z" fill="#DCE7FE"/>
<g id="Clip path group">
<mask id="mask0_42_37" style="mask-type:luminance" maskUnits="userSpaceOnUse" x="16" y="16" width="34" height="34">
<g id="clip0_124_416">
<path id="Vector_2" d="M49.5 16.5H16.5V49.5H49.5V16.5Z" fill="white"/>
</g>
</mask>
<g mask="url(#mask0_42_37)">
<g id="Group">
<path id="Vector_3" d="M31.6802 40.8207L27.3245 36.465L28.941 34.8808L31.6802 37.62L37.3895 31.9107L39.006 33.5285L31.6802 40.8207Z" fill="#3B76EF"/>
<path id="Vector_4" d="M47.6852 27.6864L47.1902 25.08L44.4508 25.1792C43.3952 25.1792 37.9822 24.9807 35.5745 21.1198L32.9667 17.0285L30.3267 21.1198C27.951 24.9485 22.538 25.1455 21.516 25.1455L18.7447 25.0798L18.216 27.6862C18.1503 28.1812 17.3588 32.7355 18.4803 38.0812C19.1738 41.3812 20.691 45.4407 23.959 48.9377V47.5197H25.6747C22.7047 44.3188 21.2853 40.6554 20.659 37.6197C19.6355 32.7033 20.329 28.5447 20.4283 28.0833L20.5598 27.3575L21.484 27.391C22.7383 27.391 29.239 27.1603 32.209 22.3097L32.9683 21.1212L33.694 22.2427C36.6963 27.159 43.1647 27.39 44.4847 27.39L45.3755 27.3565L45.507 28.0822C45.6062 28.5437 46.332 32.6029 45.2762 37.6185C44.6497 40.622 43.2305 44.3179 40.2605 47.5185H42.042V48.9044C45.2763 45.4057 46.7613 41.38 47.4533 38.08C48.6096 32.6364 47.7843 28.1814 47.6852 27.6864Z" fill="#3B76EF"/>
</g>
</g>
</g>
</g>
<defs>
<clipPath id="clip0_42_37">
<rect width="66" height="66" fill="white"/>
</clipPath>
</defs>
</svg>
