<svg width="66" height="66" viewBox="0 0 66 66" fill="none" xmlns="http://www.w3.org/2000/svg">
<g id="Frame" clip-path="url(#clip0_42_73)">
<path id="Vector" d="M33 66C51.2254 66 66 51.2254 66 33C66 14.7746 51.2254 0 33 0C14.7746 0 0 14.7746 0 33C0 51.2254 14.7746 66 33 66Z" fill="#DCE7FE"/>
<path id="Vector_2" d="M18.7367 32.769C18.9069 32.769 19.0704 32.7108 19.2014 32.6022L21.0243 31.0934C21.3335 30.8392 21.3772 30.3811 21.1215 30.0719C20.8672 29.7627 20.4092 29.7206 20.1 29.9747L19.4573 30.5057C20.4496 26.4261 23.2487 23.023 27.0598 21.2632C30.8723 19.5033 35.2773 19.5811 39.0253 21.4736C42.7731 23.3662 45.4507 26.8665 46.2975 30.9786C46.3769 31.3703 46.7605 31.6244 47.1539 31.5436C47.5457 31.4642 47.7998 31.0806 47.719 30.6872C46.7816 26.1556 43.8303 22.2963 39.702 20.2046C35.5737 18.1129 30.7167 18.0142 26.5059 19.9391C22.2969 21.864 19.1931 25.6004 18.0728 30.0914L17.7992 29.7594C17.5451 29.4454 17.0836 29.3984 16.7696 29.6541C16.4572 29.9084 16.4086 30.3697 16.6643 30.6839L18.1894 32.5197C18.327 32.6784 18.5264 32.7707 18.7367 32.769Z" fill="#3B76EF"/>
<path id="Vector_3" d="M49.3268 35.8964L47.818 34.0735C47.5605 33.7659 47.1041 33.7239 46.7949 33.978L44.9751 35.4867C44.8149 35.605 44.7096 35.7847 44.6853 35.9822C44.6611 36.1814 44.7193 36.3804 44.8472 36.5343C44.9751 36.6881 45.1597 36.782 45.3589 36.7948C45.558 36.8079 45.7539 36.7382 45.8996 36.6023L46.3561 36.2251C45.5887 40.4458 42.8964 44.0672 39.0743 46.0162C35.2519 47.9655 30.7402 48.0188 26.8726 46.1621C23.005 44.305 20.227 40.7497 19.3591 36.5473C19.3218 36.3594 19.2118 36.1928 19.0499 36.0875C18.8897 35.9806 18.6937 35.9434 18.5059 35.9839C18.1126 36.0632 17.8585 36.4452 17.9377 36.8387C18.9042 41.4962 21.9947 45.4351 26.2896 47.4799C30.5862 49.5262 35.5918 49.4421 39.8175 47.2549C44.0428 45.0678 47.0008 41.0287 47.8101 36.3401L48.2246 36.8209C48.346 36.9699 48.5224 37.0654 48.7135 37.0833C48.9062 37.1026 49.0971 37.0443 49.2444 36.9214C49.5489 36.6607 49.5858 36.204 49.3268 35.8964Z" fill="#3B76EF"/>
<path id="Vector_4" d="M32.2846 24.7155L27.2527 30.364C26.2117 31.5345 25.6354 33.0449 25.6354 34.6121C25.6354 36.5612 26.5112 38.4084 28.0233 39.6388L32.3506 42.9041C32.4428 42.9706 32.5514 43.0158 32.6645 43.0337H32.9673L33.1033 42.9916L33.228 42.9253C33.249 42.9122 33.2668 42.8977 33.283 42.8799C33.3186 42.8507 33.3511 42.82 33.3818 42.7843L37.651 39.6145C39.006 38.5056 39.8528 36.8932 39.9935 35.148C40.1344 33.4029 39.5597 31.6754 38.4004 30.3641L33.3688 24.7157C33.2279 24.5667 33.0304 24.4842 32.8264 24.4842C32.6225 24.4842 32.4255 24.5665 32.2846 24.7155ZM38.5674 34.6121C38.5755 36.1046 37.9119 37.5228 36.7592 38.4747L33.5521 40.853V35.1706L35.3669 33.3477C35.6517 33.0644 35.6517 32.6029 35.3669 32.3195C35.0834 32.0362 34.6238 32.0362 34.3388 32.3195L33.5521 33.1112V29.2938C33.5521 28.894 33.2265 28.5686 32.8267 28.5686C32.4269 28.5686 32.1014 28.894 32.1014 29.2938V36.6876L30.2787 34.8647C29.9937 34.5814 29.5338 34.5814 29.2505 34.8647C28.9656 35.148 28.9656 35.6093 29.2505 35.8926L32.1014 38.7356V40.8951L28.9219 38.4958C27.7579 37.5406 27.0828 36.1129 27.0861 34.6073C27.0828 33.3978 27.5263 32.229 28.3293 31.3256L32.8269 26.3022L37.3146 31.3291C38.1224 32.2323 38.5674 33.401 38.5674 34.6121Z" fill="#3B76EF"/>
</g>
<defs>
<clipPath id="clip0_42_73">
<rect width="66" height="66" fill="white"/>
</clipPath>
</defs>
</svg>
